<?xml version="1.0" encoding="utf-8"?>
<!-- Generator: Adobe Illustrator 19.2.1, SVG Export Plug-In . SVG Version: 6.00 Build 0)  -->
<svg version="1.1" id="Layer_2" xmlns="http://www.w3.org/2000/svg" xmlns:xlink="http://www.w3.org/1999/xlink" x="0px" y="0px"
	 viewBox="0 0 157 157" style="enable-background:new 0 0 157 157;" xml:space="preserve">
<style type="text/css">
	.st0{opacity:0.1;}
	.st1{fill:#2E437D;}
	.st2{fill:#AC9326;}
	.st3{fill:#CFB31C;}
	.st4{fill:#FAFAFB;}
	.st5{fill:#F9FAFB;}
	.st6{fill:#17347B;}
	.st7{fill:#D5B924;}
	.st8{fill:#F4F4F2;}
	.st9{fill:#FBFAF3;}
	.st10{fill:#15327B;}
	.st11{fill:#E6E9ED;}
	.st12{fill:#A89129;}
	.st13{fill:#F8F9FB;}
	.st14{fill:#EDEEF4;}
	.st15{fill:#1E4776;}
	.st16{fill:#FAFAF9;}
	.st17{fill:#F9F9F9;}
	.st18{fill:#D6BA28;}
	.st19{fill:#153277;}
	.st20{fill:#C3C635;}
	.st21{fill:#F5F6F8;}
	.st22{fill:#FBFBFB;}
	.st23{fill:#1B377E;}
	.st24{fill:#16337B;}
	.st25{fill:#C4C731;}
	.st26{fill:#F4F6F8;}
	.st27{fill:#D7DADF;}
	.st28{fill:#F4F4F3;}
</style>
<g class="st0">
	<g>
		<path class="st1" d="M59.8,131.5c-1.6-5.5-3.2-11-4.9-16.5c-0.3-1.1-0.2-1.6,1-1.9c10.9-3.1,21.8-6.3,32.6-9.5
			c1.1-0.3,1.5-0.1,1.8,1c3.2,11.1,6.5,22.2,9.7,33.3c0.3,1,0.2,1.5-0.9,1.8c-10.9,3.2-21.9,6.4-32.8,9.6c-1,0.3-1.4,0.1-1.7-0.9
			C63,142.6,61.4,137.1,59.8,131.5z M91,140.6c2.2-0.6,4.4-1.3,6.6-1.9c1.1-0.3,1.3-0.7,1-1.8c-1.2-3.8-2.2-7.6-3.4-11.3
			c-0.3-1.1-0.3-2.6-1.2-3.2c-0.9-0.6-2.1,0.4-3.2,0.6c-2,0.4-3.4-0.7-3.4-2.7c0-0.4,0.1-0.9,0-1.3c-0.2-1.3-1-1.9-2.2-2.4
			c-1.2-0.5-1.8,0-2.5,0.8c-1,1.2-1,2.4,0,3.9c1.3,1.9,0.7,3.6-1.4,4.3c-0.5,0.2-1,0.4-1.5,0.4c-1.4,0.2-1.6,0.9-1.1,2.1
			c0.1,0.2,0.2,0.5,0.2,0.8c0.6,2.2,1.2,2.4,3.1,1.2c1.6-1,3.2-1,4.7,0.2c1.2,0.9,1.8,2.6,1.3,4.1c-0.4,1.6-1.9,2.8-3.6,2.9
			c-3,0.2-3,0.3-2.2,3.2c0.1,0.4,0.3,0.8,0.4,1.2c0.2,0.8,0.6,1,1.4,0.7C86.4,142,88.7,141.3,91,140.6z M58.4,122.4
			c0.5,1.7,1,3.5,1.5,5.2c0.9,2.9,0.9,2.9,3.8,2.1c2.4-0.7,3.8,0.4,3.7,2.9c0,1.5,0.4,2.6,1.9,3.1c1.2,0.4,2.2,0.1,3-0.9
			c0.9-1.2,0.8-2.4-0.1-3.7c-1.4-1.8-0.7-3.7,1.4-4.4c0.3-0.1,0.6-0.2,0.9-0.3c2.5-0.8,2.2-0.3,1.5-2.9c-0.7-2.4-1.1-2.6-3.3-1.3
			c-1.5,0.9-3.3,0.8-4.6-0.2c-1.3-1-1.9-3.1-1.5-4.6c0.5-1.6,2-2.7,3.7-2.8c2.8-0.1,2.9-0.3,2.1-3c-0.1-0.3-0.2-0.6-0.3-0.9
			c-0.2-1-0.6-1.2-1.6-0.9c-4.5,1.4-9,2.7-13.5,3.9c-1.1,0.3-1.2,0.7-0.9,1.7C57.1,117.9,57.7,120.1,58.4,122.4z M63.4,139.7
			c0.7,2.2,1.4,4.5,1.9,6.7c0.3,1.2,0.7,1.5,2,1.1c3.6-1.2,7.2-2.2,10.9-3.2c3.5-1,3.5-1,2.6-4.4c-0.4-1.6,0.1-2.9,1.4-3.5
			c0.6-0.3,1.2-0.2,1.9-0.2c1.4,0,2.4-0.5,2.9-1.9c0.4-1.2,0.1-2.2-0.9-3c-1.1-0.8-2.2-0.9-3.4-0.1c-2.5,1.7-4,1-4.9-1.9
			c-0.7-2.4-0.7-2.4-3.1-1.7c-2.1,0.6-2.3,1.3-1.1,3c1,1.5,1,3.2,0,4.6c-0.9,1.3-2.7,2-4.2,1.6c-1.6-0.4-2.8-1.8-3-3.5
			c-0.4-3.1-0.4-3.1-3.5-2.2c-0.2,0.1-0.4,0.1-0.6,0.2c-0.9,0.1-0.9,0.6-0.7,1.4C62.1,135.1,62.8,137.4,63.4,139.7z M91.5,112.9
			c-0.7-2.3-1.4-4.6-2-6.9c-0.3-1.1-0.7-1.3-1.8-1c-3.8,1.2-7.7,2.3-11.5,3.4c-3,0.9-3,0.9-2.2,4c0.1,0.3,0.2,0.5,0.2,0.8
			c0.2,1.6-0.9,2.8-2.5,2.9c-0.5,0-1-0.1-1.4,0c-1.2,0.1-2,0.8-2.4,2c-0.4,1.5,0.4,2.5,1.4,3.3c0.9,0.7,2,0.6,3-0.1
			c2.4-1.7,4-1.1,4.8,1.7c0.8,2.6,0.8,2.6,3.3,1.8c2-0.6,2.2-1.2,1-3.1c-1.2-1.9-0.8-4.6,0.8-5.8c1.2-0.9,2.6-1.2,3.9-0.5
			c1.5,0.8,2.5,2.1,2.6,3.9c0.2,2.8,0.3,2.9,3,2.1c0.1,0,0.2-0.1,0.3-0.1c1.4-0.2,1.8-0.8,1.3-2.2C92.6,117.1,92.1,115,91.5,112.9z"
			/>
		<path class="st2" d="M91,140.6c-2.3,0.7-4.6,1.3-6.9,2c-0.8,0.2-1.2,0.1-1.4-0.7c-0.1-0.4-0.2-0.8-0.4-1.2
			c-0.8-2.9-0.8-2.9,2.2-3.2c1.7-0.1,3.2-1.3,3.6-2.9c0.4-1.5-0.2-3.3-1.3-4.1c-1.5-1.1-3.2-1.2-4.7-0.2c-1.9,1.2-2.5,1-3.1-1.2
			c-0.1-0.3-0.1-0.5-0.2-0.8c-0.5-1.2-0.3-1.9,1.1-2.1c0.5-0.1,1-0.3,1.5-0.4c2.2-0.7,2.8-2.4,1.4-4.3c-1-1.5-1-2.7,0-3.9
			c0.7-0.8,1.3-1.3,2.5-0.8c1.2,0.5,2,1.1,2.2,2.4c0.1,0.4-0.1,0.8,0,1.3c0,2,1.5,3.1,3.4,2.7c1.1-0.2,2.3-1.2,3.2-0.6
			c0.9,0.6,0.8,2.1,1.2,3.2c1.1,3.8,2.2,7.6,3.4,11.3c0.3,1.1,0.1,1.5-1,1.8C95.3,139.3,93.2,140,91,140.6z M95.7,135.3
			c-0.4,0.1-0.5,0.4-0.4,0.7c0.1,0.4,0.3,0.5,0.7,0.4c0.4-0.1,0.6-0.4,0.4-0.8C96.3,135.3,96,135.2,95.7,135.3z"/>
		<path class="st3" d="M58.4,122.4c-0.7-2.2-1.3-4.5-2-6.7c-0.3-1-0.2-1.4,0.9-1.7c4.5-1.3,9-2.6,13.5-3.9c1-0.3,1.4-0.1,1.6,0.9
			c0.1,0.3,0.2,0.6,0.3,0.9c0.8,2.7,0.7,2.9-2.1,3c-1.7,0.1-3.2,1.2-3.7,2.8c-0.5,1.5,0.2,3.6,1.5,4.6c1.3,1,3.1,1.1,4.6,0.2
			c2.1-1.3,2.6-1.2,3.3,1.3c0.7,2.6,1,2.1-1.5,2.9c-0.3,0.1-0.6,0.2-0.9,0.3c-2.1,0.7-2.7,2.6-1.4,4.4c0.9,1.2,1,2.4,0.1,3.7
			c-0.8,1-1.8,1.3-3,0.9c-1.5-0.5-2-1.7-1.9-3.1c0.1-2.5-1.3-3.6-3.7-2.9c-3,0.8-3,0.8-3.8-2.1C59.4,125.9,58.9,124.1,58.4,122.4z
			 M58.8,115.8c-0.4,0.1-0.6,0.3-0.5,0.7c0.1,0.4,0.3,0.6,0.8,0.5c0.4-0.1,0.5-0.4,0.4-0.7C59.4,115.9,59.2,115.7,58.8,115.8z"/>
		<path class="st4" d="M63.4,139.7c-0.7-2.3-1.3-4.6-2-6.9c-0.2-0.8-0.2-1.2,0.7-1.4c0.2,0,0.4-0.1,0.6-0.2c3.1-0.9,3.1-0.9,3.5,2.2
			c0.2,1.7,1.4,3.1,3,3.5c1.6,0.4,3.3-0.3,4.2-1.6c1-1.4,1-3.1,0-4.6c-1.2-1.7-0.9-2.4,1.1-3c2.4-0.7,2.4-0.7,3.1,1.7
			c0.9,3,2.4,3.6,4.9,1.9c1.2-0.8,2.3-0.8,3.4,0.1c1,0.7,1.3,1.8,0.9,3c-0.5,1.3-1.5,1.9-2.9,1.9c-0.6,0-1.3-0.1-1.9,0.2
			c-1.3,0.6-1.8,1.9-1.4,3.5c0.9,3.4,0.9,3.4-2.6,4.4c-3.6,1.1-7.3,2.1-10.9,3.2c-1.2,0.4-1.7,0.1-2-1.1
			C64.8,144.2,64.1,142,63.4,139.7z M66.6,143.9c0,0-0.1,0.2,0,0.6c0.1,0.5,0.4,0.6,0.9,0.4c0.4-0.1,0.4-0.4,0.3-0.8
			C67.6,143.7,67.3,143.6,66.6,143.9z"/>
		<path class="st5" d="M91.5,112.9c0.6,2.1,1.1,4.2,1.9,6.3c0.5,1.5,0.1,2-1.3,2.2c-0.1,0-0.2,0.1-0.3,0.1c-2.7,0.8-2.8,0.7-3-2.1
			c-0.1-1.8-1.1-3.1-2.6-3.9c-1.3-0.7-2.7-0.4-3.9,0.5c-1.6,1.2-2,3.9-0.8,5.8c1.2,1.9,1,2.4-1,3.1c-2.5,0.8-2.5,0.8-3.3-1.8
			c-0.8-2.8-2.4-3.4-4.8-1.7c-1,0.7-2.1,0.8-3,0.1c-1-0.8-1.8-1.8-1.4-3.3c0.3-1.2,1.1-1.9,2.4-2c0.5-0.1,1,0,1.4,0
			c1.6-0.1,2.7-1.3,2.5-2.9c0-0.3-0.1-0.5-0.2-0.8c-0.8-3.1-0.8-3.1,2.2-4c3.8-1.1,7.7-2.2,11.5-3.4c1.1-0.3,1.5-0.1,1.8,1
			C90.1,108.3,90.8,110.6,91.5,112.9z M87.6,107.4c-0.4,0.1-0.6,0.3-0.5,0.7c0.1,0.3,0.2,0.6,0.6,0.5c0.4-0.1,0.7-0.3,0.6-0.8
			C88.2,107.5,88,107.3,87.6,107.4z"/>
		<path class="st1" d="M95.7,135.3c0.3-0.1,0.6,0,0.8,0.3c0.2,0.4,0,0.7-0.4,0.8c-0.4,0.1-0.6-0.1-0.7-0.4
			C95.2,135.7,95.3,135.5,95.7,135.3z"/>
		<path class="st1" d="M58.8,115.8c0.4-0.1,0.6,0.1,0.7,0.4c0.1,0.4,0,0.6-0.4,0.7c-0.5,0.1-0.7-0.1-0.8-0.5
			C58.3,116.1,58.5,115.9,58.8,115.8z"/>
		<path class="st1" d="M66.6,143.9c0.7-0.3,1-0.2,1.1,0.2c0.1,0.3,0.1,0.6-0.3,0.8c-0.4,0.2-0.7,0.1-0.9-0.4
			C66.4,144.1,66.6,143.9,66.6,143.9z"/>
		<path class="st1" d="M87.6,107.4c0.4-0.1,0.6,0.1,0.7,0.4c0.1,0.5-0.1,0.7-0.6,0.8c-0.4,0.1-0.6-0.2-0.6-0.5
			C87,107.7,87.2,107.5,87.6,107.4z"/>
	</g>
</g>
<g class="st0">
	<g>
		<path class="st6" d="M47.2,16.9c0.4,1.6-0.4,3.4,0.6,4.1c0.8,0.6,2.5,0.3,4.1,0.7c-1.7,1.6-3.3,3.1-5,4.6
			c-0.8,0.7-1.8,0.2-2.8,0.3c-0.6,0.1-1.2-0.1-1.6,0.4c-0.4,0.7,0.3,1,0.6,1.4c4.3,5.7,4.8,13.1,1.2,19.1c-3.6,6-10.5,9.2-17.5,8
			c-6.6-1.1-12-6.3-13.5-13.1c-1.5-6.7,1.4-13.8,7.2-17.7c5.9-3.9,13.6-3.7,19.4,0.5c0.5,0.4,0.9,1.2,1.7,0.8
			c0.7-0.4,0.5-1.2,0.4-1.9c-0.2-1.6,0.3-2.7,1.5-3.7C44.7,19.5,45.8,18.2,47.2,16.9z M31.6,38c-0.4,0.4-0.8,0.7-1.3,1.1
			c-0.3,0.3-0.7,0.5-1,0.2c-0.4-0.4-0.1-0.7,0.2-1c0.4-0.4,0.7-0.8,1.1-1.3c0.6-0.4,1.2-1,1.6-1.6c0.7-0.4,1.3-1,1.8-1.7
			c0.6-0.5,1.2-1,1.6-1.7c0.7-0.5,1.3-1,1.7-1.7c0.7-0.4,1.2-1,1.7-1.7c1.3-0.7,1.3-1.4,0-2.3c-6.7-4.9-15.9-3.8-21.3,2.4
			c-5.3,6.2-5,15.4,0.8,21.2c5.8,5.8,15,6.2,21.2,0.8c6.3-5.3,7.3-14.6,2.4-21.3c-0.9-1.3-1.5-1.2-2.3,0c-0.6,0.5-1.3,1-1.7,1.7
			c-0.7,0.4-1.3,1-1.7,1.7c-0.7,0.4-1.2,1-1.7,1.6c-0.7,0.5-1.3,1-1.7,1.8C32.6,36.8,32.1,37.3,31.6,38z M46.3,20.1
			c-0.1,0-0.3,0-0.4,0c-0.8,0.8-1.7,1.6-2.4,2.5c-0.6,0.7-0.4,1.7-0.2,2.4c0.3,0.8,1.2,0.5,1.8,0.5c1.8,0,2.4-1.7,3.5-2.8
			C46.8,22.7,45.7,22.2,46.3,20.1z"/>
		<path class="st7" d="M38.4,31.3c0.4-0.7,1-1.2,1.7-1.7c0.3,0.4,0.6,0.8,0.9,1.2c3.5,4.9,3.5,11.5,0,16.3c-3.7,5-10,7-15.8,5
			c-5.7-2-9.6-7.5-9.3-13.5c0.3-5.7,3-9.9,8.2-12.2c5.4-2.4,10.5-1.5,15,2.3c-0.5,0.6-1,1.3-1.7,1.7c-4.9-4.1-11.9-3.7-16,0.8
			c-4.2,4.7-4.1,11.5,0.2,15.9c4.4,4.5,11.4,4.6,16,0.4C42.1,43.1,42.5,36.2,38.4,31.3z"/>
		<path class="st8" d="M39.1,28.6c-4.5-3.8-9.6-4.7-15-2.3c-5.2,2.3-7.9,6.6-8.2,12.2c-0.3,6,3.6,11.6,9.3,13.5c5.8,2,12.1,0,15.8-5
			c3.5-4.8,3.6-11.4,0-16.3c-0.3-0.4-0.6-0.8-0.9-1.2c0.7-1.3,1.4-1.3,2.3,0c4.9,6.7,3.8,15.9-2.4,21.3c-6.2,5.3-15.4,5-21.2-0.8
			c-5.8-5.8-6.2-15-0.8-21.2c5.3-6.3,14.6-7.3,21.3-2.4C40.3,27.2,40.3,27.8,39.1,28.6z"/>
		<path class="st9" d="M38.4,31.3c4.1,4.9,3.8,11.8-0.8,16c-4.6,4.3-11.6,4.1-16-0.4c-4.4-4.4-4.5-11.3-0.2-15.9
			c4.1-4.5,11.1-4.9,16-0.8c-0.4,0.7-1,1.3-1.7,1.7c-4.1-3.2-9.3-2.9-12.6,0.8c-3.3,3.6-3.2,9.1,0.3,12.5c3.5,3.5,8.9,3.6,12.5,0.3
			c3.7-3.3,4-8.6,0.8-12.6C37.1,32.3,37.6,31.7,38.4,31.3z"/>
		<path class="st7" d="M36.6,33c3.2,4.1,2.9,9.3-0.8,12.6c-3.6,3.3-9.1,3.2-12.5-0.3c-3.5-3.5-3.6-8.9-0.3-12.5
			c3.3-3.7,8.6-4,12.6-0.8c-0.4,0.7-1,1.2-1.6,1.7c-3.1-2.1-6.4-1.9-8.9,0.3c-2.3,2.1-2.8,5.5-1.3,8.2c1.9,3.3,6.1,4.5,9.4,2.5
			c3.5-2.1,4.2-6.3,1.8-10C35.4,34,36,33.4,36.6,33z"/>
		<path class="st9" d="M35,34.6c2.5,3.7,1.7,7.9-1.8,10c-3.3,2-7.5,0.9-9.4-2.5c-1.5-2.7-1-6.1,1.3-8.2c2.4-2.3,5.7-2.4,8.9-0.3
			c-0.5,0.7-1,1.3-1.8,1.7c-1.6-1.1-3.3-1.1-4.9-0.1c-1.4,0.9-2.1,2.3-1.9,4.1c0.2,1.9,1.4,3.3,3.2,3.7c1.8,0.5,3.4-0.1,4.5-1.5
			c1.3-1.6,1.3-3.4,0.1-5.2C33.7,35.7,34.3,35.1,35,34.6z"/>
		<path class="st7" d="M33.3,36.4c1.2,1.8,1.1,3.5-0.1,5.2c-1.1,1.4-2.7,2-4.5,1.5c-1.8-0.5-3-1.9-3.2-3.7c-0.2-1.7,0.5-3.1,1.9-4.1
			c1.6-1.1,3.3-1,4.9,0.1c-0.4,0.7-1,1.2-1.6,1.6c-1.2-0.5-2.1-0.2-2.7,0.8c-0.5,0.9-0.4,1.8,0.3,2.6c0.8,0.8,1.7,0.8,2.6,0.3
			c1.1-0.6,1.4-1.6,0.8-2.7C32.1,37.3,32.6,36.8,33.3,36.4z"/>
		<path class="st8" d="M31.6,38c0.5,1.2,0.3,2.1-0.8,2.7c-0.9,0.5-1.8,0.5-2.6-0.3c-0.8-0.8-0.9-1.7-0.3-2.6c0.6-1,1.6-1.4,2.7-0.8
			c-0.4,0.4-0.7,0.8-1.1,1.3c-0.3,0.3-0.5,0.7-0.2,1c0.4,0.4,0.7,0.1,1-0.2C30.8,38.7,31.2,38.3,31.6,38z"/>
	</g>
</g>
<g class="st0">
	<g>
		<path class="st10" d="M142.1,45c0,0,0,0.1,0,0.1c-0.1,1.1,0.3,2.6-0.3,3.3c-0.7,0.7-2.2,0.2-3.4,0.2c-4.7,0-9.4,0-14.2,0
			c-1.2,0-1.6-0.3-1.4-1.5c0.1-0.7,0-1.5-0.1-2.2c0-0.8,0.1-1.7,0.1-2.5c-0.1-1.1,0.2-1.7,1.4-1.5c0.6,0.1,1.1-0.1,1.6-0.6
			c0.8-1.1,1.7-2.1,2.6-3.2c-0.5-0.4-1.3-0.6-1.3-1.2c-0.2-1.5-1-1.1-1.8-0.7c-0.1-0.3-0.3-0.7-0.4-1c0.5-0.3,1-0.5,1.4-0.8
			c1.9-0.9,2.1-1.9,0.8-3.6c-0.8-1.1-0.5-2.5,0.8-2.9c1-0.3,0.9-0.8,0.6-1.5c-0.2-0.4-0.2-0.9-0.4-1.3c-0.5-1.2-0.8-2.9-1.9-3.2
			c-1.8-0.4-1.3-1.5-1.3-2.5c0-0.9,0-1.8-0.1-2.7c0.2-0.6-0.3-1.6,0.3-1.7c1.2-0.2,2.5-0.5,3.7,0.2c0,0.5,0,1.1-0.1,1.6
			c-0.1,0.6,0.2,0.9,0.8,0.9c0.6,0,0.9-0.2,0.9-0.8c0-0.6,0-1.3,0-1.9c1.3,0,2.7-0.5,3.9,0.3c0,0.6,0,1.2-0.1,1.7
			c0,0.6,0.3,0.7,0.8,0.7c0.5,0,0.9-0.1,0.8-0.7c0-0.6-0.1-1.2-0.1-1.7c1.1-0.7,2.4-0.4,3.5-0.3c0.8,0.1,0.2,1.2,0.5,1.8
			c0,0.9-0.1,1.8-0.1,2.6c-0.1,1,0.5,2.4-1.3,2.4c-0.2,0-0.3,0.3-0.5,0.5c-0.9,1.4-1.4,3-1.9,4.6c-0.1,0.3-0.2,0.6,0.2,0.7
			c1.1,0.4,2.1,1.4,3.2,0.3c0.2,0.3,0.4,0.7,0.5,1c-0.2,0.1-0.3,0.2-0.5,0.3c-2.8,1.4-3.3,3.1-1.8,5.7c0.4,0.8,0.5,1.7-0.2,2.1
			c-1.5,0.9-0.7,1.5,0,2.3c1.1,1.2,1.8,2.9,3.9,2.5c0.5-0.1,0.6,0.4,0.6,0.8C142.1,42.9,142.1,43.9,142.1,45z M132.5,42.1
			c-1.5,0-3,0-4.4,0c-1.3,0-3.1-0.6-3.8,0.3c-0.8,0.9-0.1,2.6-0.3,4c-0.1,0.9,0.3,1.2,1.2,1.2c3.9,0,7.7,0,11.6,0
			c1.4,0,3.2,0.6,4-0.3c0.8-0.9,0.1-2.7,0.3-4.2c0.1-0.8-0.2-1-1-1C137.4,42.1,135,42.1,132.5,42.1z M127.7,20.9
			c1.1,1.8,1.8,3.5,2.2,5.3c0.1,0.5,0.4,0.7,1,0.7c1,0,2.1,0,3.1,0c0.5,0,0.7-0.2,0.9-0.6c0.5-1.9,1.2-3.6,2.2-5.4
			C133.9,20.9,131,20.9,127.7,20.9z M132.4,19.7c1,0,2.1,0,3.1,0c3.5,0,3.5,0,3.3-3.5c0-0.6,0-1.1-0.8-1.1c-0.9,0-0.9,0.5-0.9,1.1
			c0,0.6,0.3,1.5-0.2,1.6c-1,0.2-2.2,0.3-3.2,0c-0.7-0.2-0.3-1.1-0.3-1.7c0-0.6-0.1-1-0.9-1c-0.8,0-0.8,0.5-0.8,1.1
			c0,0.6,0.3,1.5-0.2,1.6c-1,0.3-2.2,0.3-3.2,0.1c-0.8-0.2-0.4-1.1-0.4-1.6c0-0.9-0.5-1.5-1.2-1.1c-1.3,0.9-0.3,2.4-0.6,3.6
			c-0.1,0.6,0.1,1,0.8,0.9c0.2,0,0.5,0,0.7,0C129.2,19.7,130.8,19.7,132.4,19.7z M137.8,40.9c-1.4-3.1-3.6-4.6-6.9-3.9
			c-2.2,0.4-2.6,2.6-4.2,3.9C130.7,40.9,134.2,40.9,137.8,40.9z M132.6,30.7c-0.9,0-1.9,0-2.8,0c-0.9,0-0.7,0.6-0.7,1.1
			c0,0.5-0.3,1.3,0.7,1.3c1.8,0,3.6,0,5.3,0c0.6,0,0.7-0.2,0.8-0.8c0.1-1.2-0.1-1.9-1.6-1.6C133.8,30.8,133.1,30.7,132.6,30.7z
			 M132.4,35.9c1.1,0,2.3,0,3.4,0c0.6,0,1.2-0.1,1.2-0.8c0-0.7-0.5-0.9-1.1-0.9c-2.3,0-4.5,0-6.8,0c-0.6,0-1.1,0.2-1.1,0.9
			c0,0.6,0.5,0.8,1.1,0.8C130.1,35.9,131.3,35.9,132.4,35.9z M132.3,29.6c1.1,0,2.3,0,3.4,0c0.6,0,1.3-0.1,1.3-0.9
			c0-0.7-0.6-0.8-1.2-0.8c-2.3,0-4.5,0-6.8,0c-0.6,0-1.1,0.2-1.1,0.9c0,0.7,0.6,0.8,1.2,0.8C130.1,29.6,131.2,29.6,132.3,29.6z"/>
		<path class="st11" d="M124.8,15.9c0,0.9,0,1.8,0.1,2.7c0,1-0.4,2.1,1.3,2.5c1.1,0.3,1.4,2,1.9,3.2c0.2,0.4,0.2,0.9,0.4,1.3
			c0.3,0.7,0.4,1.2-0.6,1.5c-1.3,0.4-1.6,1.8-0.8,2.9c1.3,1.8,1.1,2.7-0.8,3.6c-0.5,0.2-1,0.5-1.4,0.8c-0.7-0.6-1.6-0.7-2.5-0.9
			c-1.1-1.8-2.3-3.5-3.4-5.3c0.9-2.1,0.3-3.5-1.8-4.1c-0.1-1.3,0.8-2.1,1.4-3C120.3,18.9,122.2,16.9,124.8,15.9z"/>
		<path class="st11" d="M142.1,45c0-1.1,0-2.2-0.1-3.2c0-0.4,0-0.9-0.6-0.8c-2.1,0.4-2.8-1.3-3.9-2.5c-0.7-0.7-1.5-1.4,0-2.3
			c0.7-0.4,0.7-1.4,0.2-2.1c-1.5-2.6-1-4.3,1.8-5.7c0.2-0.1,0.3-0.2,0.5-0.3c0.7,0.6,1.6,0.7,2.4,0.6c1.2,1.9,2.3,3.8,3.5,5.7
			c-0.9,2.1-0.3,3.1,2,3.2C146.8,40.7,144.9,43.2,142.1,45z"/>
		<path class="st11" d="M139.5,27.1c-1.2,1.1-2.2,0.1-3.2-0.3c-0.4-0.2-0.2-0.5-0.2-0.7c0.5-1.6,1-3.2,1.9-4.6
			c0.1-0.2,0.3-0.5,0.5-0.5c1.8,0,1.3-1.4,1.3-2.4c0.1-0.9,0.1-1.8,0.1-2.6c5.9,3.3,9.1,8.2,9.2,14.9c0,1.3,0,2.6,0,3.8
			c-0.6-0.6-1.4-0.9-2.2-0.9c-1.2-1.9-2.4-3.8-3.6-5.7c0.6-1,0.8-2-0.1-3c-0.6-0.7-1.2-1.3-2.1-0.9c-1,0.5-1.6,1.4-1.7,2.6
			C139.5,26.9,139.5,27,139.5,27.1z"/>
		<path class="st11" d="M125.3,35.3c0.8-0.4,1.6-0.8,1.8,0.7c0.1,0.6,0.9,0.7,1.3,1.2c-0.9,1.1-1.8,2.1-2.6,3.2
			c-0.4,0.5-0.9,0.7-1.6,0.6c-1.2-0.2-1.5,0.4-1.4,1.5c0.1,0.8,0,1.7-0.1,2.5c-1.6-0.2-2.3-1.6-3.2-2.6c-3.6-4.1-4.8-8.9-3.8-14.3
			c0.7,0.4,1.5,0.7,2.4,0.6c1.1,1.8,2.3,3.6,3.4,5.4c-0.5,1-0.8,2,0.1,3c0.6,0.7,1.4,0.9,2.3,0.6C125,37.4,125.3,36.4,125.3,35.3z"
			/>
		<path class="st12" d="M118.1,28.7c-0.9,0.1-1.7-0.2-2.4-0.6c-0.8-2-0.4-3.1,1.5-4c2.1,0.6,2.7,2,1.8,4.1
			C118.7,28.3,118.4,28.5,118.1,28.7z"/>
		<path class="st12" d="M147,33.8c0.8,0.1,1.6,0.3,2.2,0.9c0.5,1.3,0.2,2.3-1.1,3c-2.3-0.1-2.9-1.1-2-3.2
			C146.5,34.4,146.8,34.2,147,33.8z"/>
		<path class="st11" d="M130.5,14.2c0,0.6,0,1.3,0,1.9c0,0.6-0.2,0.8-0.9,0.8c-0.6,0-0.9-0.2-0.8-0.9c0-0.5,0-1.1,0.1-1.6
			C129.4,14.3,130,14.2,130.5,14.2z"/>
		<path class="st11" d="M135.9,14.4c0,0.6,0.1,1.2,0.1,1.7c0,0.6-0.3,0.7-0.8,0.7c-0.5,0-0.9-0.1-0.8-0.7c0-0.6,0.1-1.2,0.1-1.7
			C134.9,14.4,135.4,14.4,135.9,14.4z"/>
		<path class="st13" d="M132.5,42.1c2.5,0,4.9,0,7.4,0c0.8,0,1.1,0.2,1,1c-0.1,1.4,0.6,3.2-0.3,4.2c-0.8,0.9-2.6,0.3-4,0.3
			c-3.9,0-7.7,0-11.6,0c-0.9,0-1.3-0.2-1.2-1.2c0.1-1.4-0.5-3.1,0.3-4c0.8-0.9,2.5-0.2,3.8-0.3C129.5,42,131,42.1,132.5,42.1z
			 M129,44.7c0-0.4-0.2-0.5-0.5-0.5c-0.3,0-0.6,0.1-0.6,0.5c0,0.4,0.2,0.6,0.6,0.6C128.9,45.2,129,45,129,44.7z M137,44.7
			c0-0.4-0.2-0.5-0.5-0.5c-0.3,0-0.6,0.1-0.6,0.5c0,0.4,0.2,0.6,0.6,0.6C136.9,45.2,137,45,137,44.7z"/>
		<path class="st14" d="M127.7,20.9c3.2,0,6.2,0,9.3,0c-1,1.8-1.7,3.5-2.2,5.4c-0.1,0.4-0.4,0.6-0.9,0.6c-1,0-2.1,0-3.1,0
			c-0.5,0-0.8-0.2-1-0.7C129.5,24.4,128.8,22.6,127.7,20.9z"/>
		<path class="st14" d="M132.4,19.7c-1.6,0-3.2,0-4.7,0c-0.2,0-0.5,0-0.7,0c-0.7,0.1-0.9-0.3-0.8-0.9c0.2-1.2-0.7-2.7,0.6-3.6
			c0.7-0.5,1.2,0.1,1.2,1.1c0,0.6-0.5,1.5,0.4,1.6c1,0.2,2.2,0.2,3.2-0.1c0.5-0.1,0.2-1.1,0.2-1.6c0-0.6,0-1.1,0.8-1.1
			c0.8,0,0.8,0.4,0.9,1c0,0.6-0.4,1.6,0.3,1.7c1,0.2,2.2,0.2,3.2,0c0.6-0.1,0.2-1.1,0.2-1.6c0-0.7,0-1.1,0.9-1.1
			c0.8,0,0.8,0.5,0.8,1.1c0.1,3.5,0.1,3.5-3.3,3.5C134.4,19.7,133.4,19.7,132.4,19.7z"/>
		<path class="st13" d="M137.8,40.9c-3.6,0-7.2,0-11.1,0c1.7-1.4,2-3.5,4.2-3.9C134.3,36.3,136.4,37.8,137.8,40.9z"/>
		<path class="st13" d="M132.6,30.7c0.6,0,1.2,0.1,1.8,0c1.4-0.2,1.7,0.4,1.6,1.6c-0.1,0.6-0.2,0.8-0.8,0.8c-1.8,0-3.6,0-5.3,0
			c-1,0-0.7-0.8-0.7-1.3c0-0.5-0.2-1.2,0.7-1.1C130.7,30.7,131.6,30.7,132.6,30.7z"/>
		<path class="st11" d="M132.4,35.9c-1.1,0-2.3,0-3.4,0c-0.6,0-1-0.2-1.1-0.8c0-0.7,0.5-0.9,1.1-0.9c2.3,0,4.5,0,6.8,0
			c0.6,0,1.1,0.2,1.1,0.9c0,0.7-0.6,0.8-1.2,0.8C134.7,35.9,133.5,35.9,132.4,35.9z"/>
		<path class="st14" d="M132.3,29.6c-1.1,0-2.2,0-3.2,0c-0.6,0-1.1-0.1-1.2-0.8c0-0.7,0.5-0.9,1.1-0.9c2.3,0,4.5,0,6.8,0
			c0.6,0,1.2,0.2,1.2,0.8c0,0.8-0.6,0.9-1.3,0.9C134.6,29.6,133.4,29.6,132.3,29.6z"/>
		<path class="st12" d="M139.5,27.1c0-0.1,0-0.2,0-0.3c0.1-1.2,0.6-2.1,1.7-2.6c0.9-0.4,1.6,0.2,2.1,0.9c0.8,1,0.7,2,0.1,3
			c-0.3,0.1-0.6,0.3-0.8,0.6c-0.9,0.1-1.7-0.1-2.4-0.6C139.9,27.7,139.7,27.4,139.5,27.1z"/>
		<path class="st12" d="M125.3,35.3c0,1.1-0.3,2.1-1.4,2.5c-0.9,0.3-1.6,0.1-2.3-0.6c-0.9-1-0.5-2-0.1-3c0.4-0.1,0.8-0.2,0.9-0.7
			c0.9,0.1,1.8,0.2,2.5,0.9C125,34.7,125.1,35,125.3,35.3z"/>
		<path class="st10" d="M122.4,33.5c-0.1,0.4-0.5,0.5-0.9,0.7c-1.1-1.8-2.2-3.6-3.4-5.4c0.3-0.2,0.6-0.4,0.9-0.6
			C120.1,29.9,121.2,31.7,122.4,33.5z"/>
		<path class="st10" d="M142.5,28.7c0.2-0.3,0.5-0.5,0.8-0.6c1.2,1.9,2.4,3.8,3.6,5.7c-0.2,0.4-0.5,0.6-1,0.7
			C144.9,32.5,143.7,30.6,142.5,28.7z"/>
		<path class="st10" d="M129,44.7c0,0.3-0.1,0.6-0.5,0.6c-0.4,0-0.6-0.2-0.6-0.6c0-0.4,0.2-0.5,0.6-0.5
			C128.8,44.1,129,44.3,129,44.7z"/>
		<path class="st10" d="M137,44.7c0,0.3-0.1,0.6-0.5,0.6c-0.4,0-0.6-0.2-0.6-0.6c0-0.4,0.2-0.5,0.6-0.5
			C136.8,44.1,137,44.3,137,44.7z"/>
	</g>
</g>
<g class="st0">
	<g>
		<path class="st15" d="M13,118.9c-1-2.3-2.1-4.7-3.1-7c-1.1-2.6-0.5-4.6,2.2-5.4c2.7-0.8,3.3-2.7,4-5.1c1.2-3.8,2.8-7.6,4.3-11.3
			c0.4-1,0.7-2,1.2-2.9c0.8-1.8,2.6-2.7,4.4-2c5.4,2.1,10.9,4,16.1,6.5c1.7,0.8,2.5,2.6,1.8,4.3c-2.3,5.6-4.1,11.5-6.9,16.9
			c-0.3,0.5-0.1,0.8,0,1.2c0.5,1.1,1,2.2,1.4,3.4c0.7,1.9,0.1,3.7-1.7,4.5c-5.1,2.3-10.3,4.6-15.5,6.8c-2,0.9-3.8,0-4.8-2.3
			C15.2,124,14.1,121.4,13,118.9z M35.3,112.6c0.8-0.3,1.2-1,1.5-1.7c1.9-5,3.9-9.9,5.8-14.9c0.6-1.6,0.1-2.7-1.4-3.4
			c-4.9-2.3-9.9-4.1-14.9-6.1c-1.9-0.7-3.1-0.2-3.8,1.7c-1.9,4.9-4,9.8-5.6,14.9c-0.6,1.7-0.1,2.9,1.6,3.6c4.9,1.9,9.8,3.8,14.7,5.8
			C33.9,112.8,34.6,112.9,35.3,112.6z M28.4,124.3c2.4-1,4.8-2.1,7.2-3.1c1-0.4,1.8-1,1.8-2.2c0-1.7-1-3.1-1.7-4.6
			c-0.4-0.9-1.4-0.1-2.1-0.4c-0.5-0.2-1-0.4-1.6-0.6c-4.3-1.7-8.6-3.4-12.9-5c-1.1-0.4-2.2-0.7-3-1.7c-0.4-0.5-0.8-0.3-1.2-0.1
			c-1,0.4-1.9,0.8-2.9,1.3c-1.3,0.7-1.7,1.8-1.2,3.1c2.2,5.1,4.4,10.2,6.7,15.2c0.8,1.8,1.9,2.1,3.8,1.3
			C23.8,126.4,26.1,125.3,28.4,124.3z"/>
		<path class="st16" d="M35.3,112.6c-0.7,0.3-1.4,0.2-2.1-0.1c-4.9-1.9-9.8-3.8-14.7-5.8c-1.7-0.7-2.2-1.8-1.6-3.6
			c1.6-5.1,3.7-9.9,5.6-14.9c0.7-1.9,1.9-2.4,3.8-1.7c5,2,10,3.8,14.9,6.1c1.5,0.7,2,1.8,1.4,3.4c-1.9,5-3.9,9.9-5.8,14.9
			C36.5,111.6,36.1,112.3,35.3,112.6z M32,98.8c-0.4-1.2-1.9-1.9-3.1-1.5c-1.2,0.4-1.9,1.9-1.4,3.1c0.4,1.2,1.9,1.9,3.1,1.5
			C31.8,101.5,32.4,100,32,98.8z M27.1,93.9c1.2-0.5,1.8-2,1.3-3.2c-0.5-1.2-2-1.8-3.2-1.3c-1.2,0.5-1.8,1.9-1.3,3.2
			C24.4,93.7,25.9,94.4,27.1,93.9z M39.6,95.3c-0.6-1.2-2-1.8-3.2-1.2c-1.2,0.5-1.7,2.1-1.2,3.2c0.5,1.2,2.1,1.7,3.2,1.2
			C39.6,97.9,40.2,96.4,39.6,95.3z M24.1,102c-0.6-1.2-2-1.7-3.2-1.2c-1.2,0.6-1.7,2-1.1,3.2c0.6,1.2,2,1.7,3.2,1.2
			C24.2,104.7,24.7,103.2,24.1,102z M34,109.6c1.2-0.5,1.8-2,1.3-3.2c-0.5-1.2-2-1.8-3.2-1.2c-1.2,0.5-1.8,1.9-1.3,3.2
			C31.4,109.5,32.8,110.1,34,109.6z"/>
		<path class="st17" d="M28.4,124.3c-2.3,1-4.7,2.1-7,3.1c-1.9,0.8-3,0.5-3.8-1.3c-2.3-5.1-4.5-10.1-6.7-15.2
			c-0.5-1.3-0.1-2.4,1.2-3.1c0.9-0.5,1.9-0.9,2.9-1.3c0.4-0.2,0.8-0.3,1.2,0.1c0.8,1,1.9,1.3,3,1.7c4.3,1.7,8.6,3.4,12.9,5
			c0.5,0.2,1.1,0.3,1.6,0.6c0.7,0.3,1.7-0.5,2.1,0.4c0.7,1.5,1.7,2.9,1.7,4.6c0,1.1-0.8,1.7-1.8,2.2
			C33.2,122.2,30.8,123.3,28.4,124.3z M17.1,113.3c1.2-0.6,1.8-2,1.2-3.2c-0.5-1.2-2-1.7-3.3-1.1c-1.2,0.6-1.7,1.9-1.2,3.1
			C14.4,113.3,15.9,113.8,17.1,113.3z M34,116.3c-0.5-1.2-2-1.8-3.2-1.2c-1.1,0.5-1.7,1.9-1.2,3.1c0.5,1.2,1.9,1.8,3.2,1.3
			C34,118.9,34.6,117.5,34,116.3z M25.1,122.2c-0.2-0.3-0.4-0.5-0.8-0.4c-0.4,0.2-0.6,0.4-0.4,0.9c0.1,0.3,0.3,0.5,0.7,0.4
			C25.1,122.9,25.3,122.7,25.1,122.2z"/>
		<path class="st18" d="M32,98.8c0.4,1.2-0.2,2.7-1.5,3.1c-1.2,0.4-2.7-0.2-3.1-1.5c-0.4-1.2,0.2-2.7,1.4-3.1
			C30.1,96.9,31.6,97.6,32,98.8z"/>
		<path class="st7" d="M27.1,93.9c-1.2,0.5-2.7-0.2-3.2-1.3c-0.5-1.2,0.1-2.7,1.3-3.2c1.2-0.5,2.7,0.1,3.2,1.3
			C28.9,91.9,28.3,93.4,27.1,93.9z"/>
		<path class="st7" d="M39.6,95.3c0.5,1.2,0,2.7-1.2,3.2c-1.2,0.5-2.7,0-3.2-1.2c-0.5-1.1,0.1-2.7,1.2-3.2
			C37.6,93.5,39.1,94.1,39.6,95.3z"/>
		<path class="st7" d="M24.1,102c0.6,1.2,0.1,2.7-1.1,3.2c-1.2,0.6-2.6,0-3.2-1.2c-0.6-1.2-0.1-2.7,1.1-3.2
			C22.1,100.3,23.6,100.8,24.1,102z"/>
		<path class="st7" d="M34,109.6c-1.2,0.5-2.7,0-3.2-1.2c-0.5-1.2,0.1-2.6,1.3-3.2c1.2-0.5,2.7,0,3.2,1.2
			C35.8,107.6,35.2,109.1,34,109.6z"/>
		<path class="st7" d="M17.1,113.3c-1.2,0.6-2.7,0-3.2-1.2c-0.5-1.2,0-2.5,1.2-3.1c1.2-0.6,2.7-0.1,3.3,1.1
			C18.9,111.3,18.3,112.7,17.1,113.3z"/>
		<path class="st7" d="M34,116.3c0.6,1.3,0,2.7-1.2,3.2c-1.2,0.5-2.7-0.1-3.2-1.3c-0.5-1.2,0.1-2.6,1.2-3.1
			C32,114.5,33.5,115,34,116.3z"/>
		<path class="st15" d="M25.1,122.2c0.2,0.4,0,0.7-0.4,0.9c-0.4,0.1-0.6,0-0.7-0.4c-0.2-0.4,0-0.7,0.4-0.9
			C24.7,121.7,24.9,121.9,25.1,122.2z"/>
	</g>
</g>
<g class="st0">
	<g>
		<path class="st19" d="M74.5,34.7c1.9,0.4,3.6,1.4,4.8,3c0.5,0.6,1,0.8,1.7,0.8c2.5,0,4.9,0.5,7.2,1.6c0.7,0.3,1.2,0.3,1.9-0.1
			c4-1.9,8.6-0.8,11,2.8c2.4,3.5,1.9,8.2-1.4,11.2c-0.5,0.5-0.8,0.9-0.8,1.7c0.2,7.2-2.7,12.8-8.9,16.6c-0.9,0.5-0.9,0.9-0.3,1.7
			c0.4,0.5,0.8,1.1,1.1,1.7c0.2,0.4,0.6,0.8,0,1.2c-0.6,0.4-0.9,0-1-0.4c-1-2.8-2.8-2.6-5.3-2c-6.1,1.4-11.5-0.2-16.1-4.5
			c-1-0.9-1.7-1-2.7-0.2c-0.6,0.5-1.2,0.8-1.8,1.2c-0.3,0.2-0.6,0.3-0.9-0.1c-0.3-0.4-0.2-0.7,0.2-1c0,0,0.1-0.1,0.1-0.1
			c0.9-0.7,2.6-1,2.7-2.1c0.1-1-1.1-2-1.6-3.1c-2.4-5.2-2.5-10.5,0-15.7c0.4-0.9,0.5-1.7,0.1-2.7c-1.2-3.2-0.6-6.1,1.5-8.7
			C68.1,35.1,71.3,34,74.5,34.7z M77.1,73.2c9.1,2,18.2-3.8,20.2-12.9c1.9-9-4-18.2-12.9-20.1c-9.2-1.9-18.3,4-20.3,13.2
			C62.2,62.1,68.1,71.2,77.1,73.2z M98.6,53c3-2.6,3.4-6.7,1.2-9.7c-2.1-2.9-6-3.8-9.2-1.9C94.9,44.2,97.5,48.1,98.6,53z M65.9,46.1
			c3.1-4.2,7.2-6.6,12.3-7.5c-2.3-2.9-6.1-3.6-9.2-1.8C65.7,38.7,64.5,42.3,65.9,46.1z"/>
		<path class="st20" d="M77.1,73.2c-9-2-14.9-11.1-13-19.9c2-9.2,11.1-15.1,20.3-13.2c8.9,1.9,14.8,11.1,12.9,20.1
			C95.4,69.4,86.3,75.2,77.1,73.2z M84.2,42c-8.3-1.9-16.5,3.2-18.2,11.4c-1.8,8.1,3.4,16.2,11.5,18.1c8.1,1.8,16.4-3.4,18.2-11.6
			C97.4,51.9,92.2,43.8,84.2,42z"/>
		<path class="st21" d="M98.6,53c-1.2-4.9-3.8-8.8-8-11.7c3.1-1.8,7-1,9.2,1.9C102.1,46.3,101.6,50.4,98.6,53z"/>
		<path class="st21" d="M65.9,46.1c-1.5-3.8-0.2-7.5,3-9.3c3.1-1.8,6.9-1.1,9.2,1.8C73.1,39.5,69.1,41.9,65.9,46.1z"/>
		<path class="st22" d="M84.2,42c8.1,1.8,13.2,9.9,11.5,17.9c-1.8,8.2-10,13.4-18.2,11.6c-8.1-1.8-13.3-9.9-11.5-18.1
			C67.7,45.3,75.9,40.2,84.2,42z M81.4,50.6c-0.5,1.5-0.2,3.5-2.4,4.5c-1.1,0.5-1.1,2.1-0.2,3.2c0.8,1.1,2.1,1.5,3.1,0.6
			c1.1-1,2.1-0.7,3.2-0.5c0.8,0.2,1.5,0.4,2.3,0.5c0.4,0.1,0.9,0.3,1.1-0.4c0.2-0.7-0.2-0.9-0.8-1c-1.1-0.2-2.2-0.5-3.3-0.7
			c-1.4-0.3-2.6-2.2-2.3-3.6c0.4-1.8,0.8-3.6,1.2-5.5c0.1-0.4,0.3-0.9-0.4-1.1c-0.8-0.2-0.8,0.3-0.9,0.8
			C81.9,48.4,81.7,49.4,81.4,50.6z M72.1,48.3c0.2-0.5-0.2-0.8-0.5-0.9c-0.3-0.1-0.6,0.2-0.8,0.5c-0.2,0.5,0.2,0.7,0.5,0.9
			C71.7,49,71.8,48.5,72.1,48.3z M93.6,53c-0.1-0.4-0.1-0.9-0.6-0.9c-0.3,0-0.7,0.1-0.8,0.5c0,0.3,0,0.7,0.4,0.8
			C93,53.6,93.4,53.5,93.6,53z M72.1,66.8c0.4,0,0.6-0.2,0.8-0.5c0.2-0.5-0.2-0.7-0.6-0.9c-0.4-0.1-0.6,0.3-0.7,0.5
			C71.3,66.3,71.8,66.5,72.1,66.8z M84.8,68.1c-0.4,0.1-0.8,0.1-0.9,0.6c0,0.3,0.1,0.8,0.5,0.8c0.3,0,0.9,0,0.9-0.6
			C85.3,68.6,85.2,68.2,84.8,68.1z M69.4,60.5c-0.2-0.2,0-0.8-0.7-0.7C68.4,59.9,68,60,68,60.4c0,0.4,0.1,0.9,0.6,0.8
			C69,61.1,69.4,61.1,69.4,60.5z M90.1,66c0.3,0,0.6-0.3,0.7-0.6c0.1-0.5-0.2-0.8-0.6-0.8c-0.5-0.1-0.7,0.3-0.8,0.7
			C89.4,65.6,89.7,65.8,90.1,66z"/>
		<path class="st23" d="M81.4,50.6c0.2-1.1,0.5-2.1,0.7-3.1c0.1-0.5,0.2-1,0.9-0.8c0.7,0.2,0.5,0.7,0.4,1.1
			c-0.4,1.8-0.8,3.6-1.2,5.5c-0.3,1.5,0.8,3.3,2.3,3.6c1.1,0.3,2.2,0.5,3.3,0.7c0.6,0.1,1,0.3,0.8,1c-0.2,0.7-0.7,0.4-1.1,0.4
			c-0.8-0.1-1.6-0.3-2.3-0.5c-1.1-0.3-2.1-0.5-3.2,0.5c-1,0.9-2.3,0.5-3.1-0.6c-0.8-1.1-0.9-2.6,0.2-3.2
			C81.2,54,80.9,52.1,81.4,50.6z M81,55.5c-0.6-0.1-1.2,0.1-1.3,0.9c-0.2,0.7,0.2,1.2,0.8,1.4c0.6,0.1,1.1-0.1,1.3-0.8
			C82.1,56.3,81.8,55.8,81,55.5z"/>
		<path class="st23" d="M72.1,48.3c-0.2,0.2-0.4,0.6-0.8,0.5c-0.3-0.1-0.8-0.4-0.5-0.9c0.1-0.3,0.4-0.6,0.8-0.5
			C71.8,47.5,72.2,47.8,72.1,48.3z"/>
		<path class="st23" d="M93.6,53c-0.2,0.4-0.6,0.5-1,0.4c-0.4-0.1-0.4-0.5-0.4-0.8c0-0.4,0.5-0.5,0.8-0.5
			C93.5,52.2,93.5,52.7,93.6,53z"/>
		<path class="st23" d="M72.1,66.8c-0.3-0.2-0.8-0.4-0.5-0.9c0.1-0.3,0.4-0.7,0.7-0.5c0.3,0.1,0.7,0.4,0.6,0.9
			C72.7,66.5,72.5,66.8,72.1,66.8z"/>
		<path class="st23" d="M84.8,68.1c0.4,0.1,0.4,0.5,0.4,0.8c0,0.5-0.5,0.6-0.9,0.6c-0.4,0-0.5-0.5-0.5-0.8
			C84,68.1,84.4,68.2,84.8,68.1z"/>
		<path class="st23" d="M69.4,60.5c0,0.6-0.4,0.6-0.7,0.6c-0.6,0.1-0.6-0.4-0.6-0.8c0-0.4,0.4-0.5,0.7-0.6
			C69.3,59.8,69.2,60.3,69.4,60.5z"/>
		<path class="st23" d="M90.1,66c-0.4-0.2-0.7-0.4-0.7-0.7c0-0.4,0.3-0.8,0.8-0.7c0.4,0.1,0.7,0.4,0.6,0.8
			C90.7,65.7,90.4,65.9,90.1,66z"/>
		<path class="st21" d="M81,55.5c0.7,0.3,1,0.8,0.8,1.5c-0.2,0.6-0.7,0.9-1.3,0.8c-0.7-0.2-1-0.7-0.8-1.4
			C79.9,55.7,80.4,55.5,81,55.5z"/>
	</g>
</g>
<g class="st0">
	<g>
		<path class="st24" d="M125.1,122.9c-0.4,0-0.8-0.2-0.7-0.6c0.3-1.5-0.7-1.5-1.7-1.7c-8.8-1.8-15-8.7-15.7-17.6c-0.1-1,0-2-1.5-1.9
			c-0.5,0-0.6-0.4-0.6-0.8c0-0.4,0.3-0.7,0.7-0.6c1.4,0.3,1.4-0.7,1.6-1.6c1.8-8.9,8.7-15.1,17.7-15.9c1-0.1,1.9,0,1.7-1.4
			c-0.1-0.4,0.3-0.6,0.7-0.6c0.5,0,0.8,0.3,0.7,0.8c-0.3,1.3,0.6,1.3,1.5,1.5c9,1.8,15.2,8.7,15.9,17.9c0.1,0.9,0,1.8,1.3,1.6
			c0.5-0.1,0.8,0.3,0.7,0.8c-0.1,0.6-0.5,0.7-0.9,0.6c-1.1-0.2-1.2,0.4-1.3,1.2c-1.9,9.4-8.6,15.4-18.2,16.2
			c-0.9,0.1-1.4,0.2-1.4,1.2C125.9,122.5,125.7,122.9,125.1,122.9z M124.5,117c0.5-1.4-0.1-1.9-1.4-2.2c-5.9-1.4-9.9-5.9-10.5-11.8
			c-0.2-1.4-0.6-1.8-1.9-1.5c-2.4-0.3-2.5-0.3-2.2,2c1,7.8,6.4,13.7,13.9,15.4C124.6,119.4,124.6,119.4,124.5,117z M126.2,117.1
			c-0.3,2.4-0.3,2.5,2,2.1c7.8-1,13.7-6.4,15.4-13.9c0.5-2.2,0.5-2.2-1.9-2.1c-1.4-0.5-1.9,0.1-2.2,1.4c-1.4,5.9-5.9,9.9-11.9,10.5
			C126.3,115.4,126,115.9,126.2,117.1z M141.9,101.5c2.4,0.3,2.5,0.3,2.2-2c-1-7.7-6.3-13.7-13.9-15.5c-2.3-0.6-2.3-0.5-2.2,1.9
			c-0.5,1.4,0.1,1.9,1.5,2.2c5.8,1.4,9.9,5.9,10.6,11.9C140.1,101.4,140.6,101.8,141.9,101.5z M126.3,85.9c0.3-2.4,0.3-2.5-2-2.2
			c-7.7,1-13.7,6.3-15.5,13.9c-0.6,2.3-0.5,2.3,1.9,2.2c1.2,0.4,1.8,0.1,2.1-1.3c1.3-5.8,6-10,12-10.7
			C126.2,87.6,126.6,87.1,126.3,85.9z M115.9,101.7c-2.2-0.3-2.3-0.2-1.8,1.9c1.1,4.9,4,8.2,8.8,9.7c2,0.6,2,0.6,2-1.6
			c0.2-0.5-0.1-1.5,1-1.3c0.9,0.1,0.4,0.9,0.6,1.4c-0.3,2.1-0.2,2.2,1.8,1.8c5-1,8.3-3.9,9.8-8.8c0.6-2,0.6-2-1.6-2
			c-0.5-0.2-1.3,0.2-1.4-0.8c0-1.1,0.9-0.6,1.4-0.8c2.1,0.2,2.2,0.2,1.8-1.8c-1-5-3.9-8.3-8.8-9.8c-2-0.6-2-0.6-2,1.6
			c-0.2,0.5,0.2,1.3-0.8,1.4c-1.1,0-0.6-0.9-0.8-1.4c0.3-2.1,0.2-2.2-1.8-1.8c-5,0.9-8.3,3.8-9.9,8.6c-0.7,2-0.6,2.1,1.6,2.1
			c0.5,0.2,1.3-0.2,1.3,0.8C117.3,102,116.4,101.6,115.9,101.7z"/>
		<path class="st25" d="M126.5,111.9c-0.2-0.5,0.3-1.3-0.6-1.4c-1.1-0.1-0.7,0.8-1,1.3c-5.7-1.4-8.2-4.2-9-10
			c0.5-0.2,1.5,0.3,1.4-0.8c0-1-0.9-0.6-1.3-0.8c1.4-5.7,4.2-8.2,10-9c0.2,0.5-0.3,1.5,0.8,1.4c1,0,0.5-0.9,0.8-1.4
			c5.7,1.4,8.2,4.2,9,10c-0.5,0.2-1.5-0.3-1.4,0.8c0,1,0.9,0.6,1.4,0.8C135.1,108.6,132.3,111.1,126.5,111.9z M126.6,95.9
			c-0.9,0-0.8,1-1.5,1.3c-1.2,0.5-1.7,1.6-1.5,2.9c0.3,1.3,1.1,2,2.4,2.3c0.6,0.1,1.1,0.3,1.3,0.9c0.2,0.7,0.1,1.2-0.5,1.6
			c-0.7,0.4-1.3,0.2-1.8-0.5c-0.4-0.7-0.9-1.2-1.5-0.3c-0.3,0.5,0.1,1.3,0.6,1.6c0.8,0.4,1.1,2,2.1,1.4c1.2-0.7,2.7-1.4,2.7-3.2
			c0-1.6-0.8-2.5-2.4-2.9c-0.8-0.2-1.4-0.4-1.4-1.4c0-0.5,0.2-1,0.7-1.2c0.9-0.4,1.4,0.1,1.8,0.8c0.4,0.7,1,0.9,1.4,0.1
			C129.3,98.7,127.2,95.8,126.6,95.9z"/>
		<path class="st26" d="M110.7,99.8c-2.5,0.1-2.5,0-1.9-2.2c1.8-7.5,7.8-12.9,15.5-13.9c2.3-0.3,2.4-0.3,2,2.2
			C118.3,85.6,111.3,91.8,110.7,99.8z"/>
		<path class="st26" d="M128,85.9c-0.1-2.5,0-2.5,2.2-1.9c7.5,1.8,12.9,7.8,13.9,15.5c0.3,2.3,0.3,2.4-2.2,2
			C142.2,93.5,135.9,86.5,128,85.9z"/>
		<path class="st26" d="M141.8,103.2c2.4-0.1,2.4-0.1,1.9,2.1c-1.7,7.6-7.7,12.9-15.4,13.9c-2.4,0.3-2.4,0.3-2-2.1
			C133.6,118,141.9,110.2,141.8,103.2z"/>
		<path class="st26" d="M124.5,117c0.1,2.4,0.1,2.4-2.1,1.9c-7.6-1.7-13-7.7-13.9-15.4c-0.3-2.3-0.3-2.4,2.2-2
			C110.3,109.4,116.5,116.4,124.5,117z"/>
		<path class="st27" d="M128,85.9c8,0.6,14.2,7.6,13.9,15.6c-1.3,0.3-1.8-0.1-1.9-1.5c-0.7-5.9-4.7-10.5-10.6-11.9
			C128,87.8,127.4,87.3,128,85.9z"/>
		<path class="st27" d="M110.7,99.8c0.6-8,7.6-14.2,15.6-13.9c0.3,1.3-0.1,1.8-1.5,1.9c-6,0.7-10.6,4.9-12,10.7
			C112.5,99.9,111.9,100.2,110.7,99.8z"/>
		<path class="st27" d="M124.5,117c-8-0.6-14.2-7.6-13.9-15.6c1.3-0.3,1.8,0.1,1.9,1.5c0.6,5.9,4.7,10.4,10.5,11.8
			C124.5,115.2,125,115.7,124.5,117z"/>
		<path class="st27" d="M141.8,103.2c0.1,7-8.2,14.7-15.6,13.9c-0.3-1.3,0.1-1.8,1.5-1.9c5.9-0.6,10.4-4.7,11.9-10.5
			C140,103.3,140.4,102.7,141.8,103.2z"/>
		<path class="st28" d="M126,91.1c-5.8,0.8-8.6,3.2-10,9c-2.2,0-2.3-0.1-1.6-2.1c1.6-4.8,4.9-7.7,9.9-8.6
			C126.3,89,126.3,89,126,91.1z"/>
		<path class="st28" d="M115.9,101.7c0.8,5.9,3.2,8.6,9,10c0,2.2,0,2.2-2,1.6c-4.8-1.5-7.8-4.8-8.8-9.7
			C113.6,101.5,113.7,101.5,115.9,101.7z"/>
		<path class="st28" d="M136.6,101.3c-0.8-5.9-3.3-8.6-9-10c0-2.2,0-2.2,2-1.6c4.9,1.5,7.8,4.8,8.8,9.8
			C138.8,101.5,138.8,101.5,136.6,101.3z"/>
		<path class="st28" d="M126.5,111.9c5.8-0.8,8.6-3.2,10.1-9c2.1,0,2.2,0,1.6,2c-1.5,4.9-4.8,7.8-9.8,8.8
			C126.2,114,126.2,114,126.5,111.9z"/>
		<path class="st24" d="M126.6,95.9c0.6,0,2.8,2.8,2.5,3.4c-0.4,0.8-1,0.6-1.4-0.1c-0.4-0.7-0.9-1.2-1.8-0.8
			c-0.5,0.2-0.7,0.6-0.7,1.2c0,0.9,0.7,1.2,1.4,1.4c1.5,0.4,2.4,1.3,2.4,2.9c0,1.8-1.5,2.5-2.7,3.2c-1,0.5-1.3-1-2.1-1.4
			c-0.5-0.3-1-1.1-0.6-1.6c0.5-0.8,1.1-0.3,1.5,0.3c0.4,0.7,1,0.9,1.8,0.5c0.6-0.3,0.8-0.9,0.5-1.6c-0.2-0.6-0.7-0.8-1.3-0.9
			c-1.3-0.2-2.1-1-2.4-2.3c-0.3-1.3,0.3-2.4,1.5-2.9C125.8,96.8,125.6,95.8,126.6,95.9z"/>
	</g>
</g>
</svg>
