<?xml version="1.0" encoding="utf-8"?>
<!-- Generator: Adobe Illustrator 19.2.1, SVG Export Plug-In . SVG Version: 6.00 Build 0)  -->
<svg version="1.1" id="Layer_1" xmlns="http://www.w3.org/2000/svg" xmlns:xlink="http://www.w3.org/1999/xlink" x="0px" y="0px"
	 viewBox="0 0 96 54" style="enable-background:new 0 0 96 54;" xml:space="preserve">
<style type="text/css">
	.st0{fill:#8ADBD0;}
	.st1{opacity:0.3;}
	.st2{fill:#207CBA;}
</style>
<g>
	<g>
		<path class="st0" d="M79.2,40.7c-1.9,2-5.7,3.6-8.5,3.6H5c-2.8,0-5-2.3-5-5V27.7c0-2.8,0-7.3,0-10V5c0-2.8,2.3-5,5-5h65.7
			c2.8,0,6.6,1.6,8.6,3.5L94.4,18c2,1.9,2,5.1,0.1,7.1L79.2,40.7z"/>
	</g>
	<g class="st1">
		<path d="M79.2,50.1c-1.9,2.1-5.8,3.9-8.7,3.9H5.2C2.3,54,0,51.7,0,48.8v-13c0-2.9,0-7.5,0-10.4V11.3c0-2.9,2.3-5.2,5.2-5.2h65.3
			c2.9,0,6.8,1.7,8.8,3.8l15.1,15.7c2,2.1,2,5.5,0.1,7.6L79.2,50.1z"/>
	</g>
	<g>
		<path class="st2" d="M79.2,41c-1.9,1.8-5.7,3.3-8.3,3.3H4.8c-2.7,0-4.8-2.2-4.8-4.8V29c0-2.7,0-7,0-9.7V7.8C0,5.2,2.2,3,4.8,3
			h66.1c2.7,0,6.4,1.5,8.4,3.2l15.1,13.6c2,1.8,2,4.7,0.1,6.6L79.2,41z"/>
	</g>
</g>
</svg>
