<?xml version="1.0" encoding="utf-8"?>
<!-- Generator: Adobe Illustrator 19.2.1, SVG Export Plug-In . SVG Version: 6.00 Build 0)  -->
<svg version="1.1" id="Layer_1" xmlns="http://www.w3.org/2000/svg" xmlns:xlink="http://www.w3.org/1999/xlink" x="0px" y="0px"
	 viewBox="0 0 230 76" style="enable-background:new 0 0 230 76;" xml:space="preserve">
<style type="text/css">
	.st0{opacity:0.4;}
	.st1{fill:#50565E;}
</style>
<g class="st0">
	<path class="st1" d="M43.9-50.1c5.1,1.3,9-2.8,8.9-7c0-4-3-7-7.6-7c-2.6-3.1-8.2-3.8-12-1.8c-1.1,0.6-1.9,1.7-2.9,1.9
		c-0.4,0.1-0.8,0-1.3,0c-2.9,0.3-5.3,2.8-5.9,5.4c-1.5,6.4,5.2,10.8,10.7,7.9c0.1,1.1-0.3,3,0.9,3.1c1.4,0.1,1-2,1-3
		c0-1.1,0.2-3.1-0.9-3.2c-0.7,0-1.3,0.9-1.9,1.3c-3.3,2.1-7.6-0.1-8-3.6c-0.5-3.7,2.4-6.4,5.8-6c0.9,0.1,3.2,1.6,3.4,0
		c0.1-0.9-0.7-0.8-1.3-1.4c3.3-2.8,8.7-1.5,10.9,0.8c0.7,0.7,1.6,3.3,2.7,3.2c1.5-0.2,0.3-2.1,0.2-2.5c2.8,0.9,4.5,2.8,4.1,6
		c-0.4,3.1-4.2,5.6-7.6,3.9c-0.7-0.3-1.7-1.6-2.4-1.5c-0.9,0.2-0.8,1.7-0.7,3.3c0,1-0.2,3.1,1.2,2.9c1.1-0.2,0.7-1.7,0.7-3.3
		C42.7-50.6,43.2-50.2,43.9-50.1z"/>
	<path class="st1" d="M28-45.9c1.2,0.1,4,2.2,4.4,0.8c0.6-2-4.1-2.6-5.4-2.8c-1.8-0.2-6,1.5-4,2.9C25-45.2,25.7-46.1,28-45.9z"/>
	<path class="st1" d="M45.4-47.1c-0.6,0.3-2.1,0.9-1.7,1.9c0.4,1.4,1.9-0.1,2.7-0.4c0.9-0.4,2.2-0.6,3.5-0.5
		c1.4,0.2,3.7,1.9,3.8,0.1c0-1.6-3.9-2-5.1-1.9C47.1-47.8,46.5-47.6,45.4-47.1z"/>
	<path class="st1" d="M31.3-42.8c-2.4,0.5-3.6,3.7-4.8,5.5c-2.9,4.8-3.8,9.2-6.7,14c-0.6,1-1.5,2.3-1.3,3.2
		c0.3,2.3,7.2,1.4,10.1,1.4c8.4-0.1,11.5-0.1,19.7-0.2c3.1,0,9.8,0.7,10.1-1.5c0.1-0.9-0.8-2.3-1.4-3.2c-3.2-4.9-4.3-9-7.4-13.9
		c-1-1.6-2.4-4.5-4-5.2c-1.4-0.6-3.9-0.1-5.8-0.2c-0.2,3,1,7.5-1.9,7.5c-2.8-0.1-1.5-4.6-1.8-7.4C34.4-42.8,32.8-43.1,31.3-42.8z"/>
	<path class="st1" d="M42-50.9c-0.1,1.6,0.4,3.1-0.7,3.3c-1.4,0.2-1.2-1.9-1.2-2.9c0-1.6-0.2-3.1,0.7-3.3c0.7-0.1,1.8,1.2,2.4,1.5
		c3.4,1.7,7.2-0.8,7.6-3.9c0.4-3.2-1.3-5-4.1-6c0.1,0.4,1.3,2.3-0.2,2.5c-1.1,0.1-2-2.4-2.7-3.2c-2.3-2.2-7.6-3.6-10.9-0.8
		c0.5,0.6,1.3,0.5,1.3,1.4c-0.1,1.6-2.4,0.1-3.4,0c-3.5-0.4-6.3,2.3-5.8,6c0.5,3.5,4.7,5.7,8,3.6c0.7-0.4,1.3-1.3,1.9-1.3
		c1.1,0.1,0.9,2.1,0.9,3.2c0,1,0.4,3.1-1,3c-1.2-0.1-0.8-2-0.9-3.1c-5.5,2.8-12.2-1.5-10.7-7.9c0.6-2.5,3-5,5.9-5.4
		c0.5,0,0.9,0.1,1.3,0c1-0.3,1.8-1.4,2.9-2c3.8-2,9.3-1.2,12,1.8c4.6,0,7.6,3,7.6,7c0,4.2-3.8,8.3-8.9,7
		C43.2-50.2,42.7-50.6,42-50.9z"/>
	<path class="st1" d="M23-44.9c-2-1.5,2.2-3.2,4-2.9c1.3,0.2,6.1,0.7,5.4,2.8c-0.4,1.4-3.2-0.7-4.4-0.8C25.7-46.1,25-45.2,23-44.9z"
		/>
	<path class="st1" d="M48.4-47.9c1.3-0.1,5.2,0.3,5.1,1.9c-0.1,1.8-2.4,0.1-3.8-0.1c-1.2-0.1-2.6,0.1-3.5,0.5
		c-0.8,0.3-2.3,1.8-2.7,0.4c-0.4-1.1,1.2-1.7,1.7-1.9C46.5-47.6,47.1-47.8,48.4-47.9z"/>
	<path class="st1" d="M36.2-43c0.3,2.8-1,7.3,1.8,7.4c2.9,0.1,1.6-4.5,1.9-7.5c1.9,0.2,4.4-0.4,5.8,0.2c1.6,0.7,3,3.6,4,5.2
		c3.1,4.9,4.2,9,7.4,13.9c0.6,0.9,1.5,2.3,1.4,3.2c-0.3,2.3-7,1.5-10.1,1.5c-8.2,0.1-11.3,0.1-19.7,0.2c-2.9,0-9.8,0.9-10.1-1.4
		c-0.1-0.9,0.7-2.2,1.3-3.2c2.9-4.7,3.8-9.2,6.7-14c1.1-1.9,2.4-5.1,4.8-5.5C32.8-43.1,34.4-42.8,36.2-43z"/>
</g>
<g class="st0">
	<path class="st1" d="M116.1-53.6c-3.5-2.1-8.1,0.1-8.5,3.9c-1.4-3.9-3.7-8.7-4-13.9c-0.1-2.2,0.1-4.9,2.5-3.9
		c1.1,0.5,2.3,1.8,3.1,2.8C111.9-61.6,114.4-57,116.1-53.6z"/>
	<path class="st1" d="M116.5-53.2C116.5-53.3,116.6-53.3,116.5-53.2c5,0.8,9.8,1.5,14,3.5c0.9,0.4,3,1.4,3,2.7c0,1.3-2,2-3.1,2.3
		c-4.1,1.2-9.9,1.1-14.9,0.8C118.9-45.1,119.8-51.2,116.5-53.2z"/>
	<path class="st1" d="M112.7-52c1.6-0.2,3.3,0.8,3.6,2.4c0.9,5-7.2,5.1-6.3,0C110.1-50.6,110.9-51.7,112.7-52z"/>
	<path class="st1" d="M107.4-49.1C107.5-49.2,107.5-49.1,107.4-49.1c0.2,4.1,3.3,6.6,7.5,5.5c0.1,0.3-0.3,0.6-0.5,0.8
		c-2.5,3.3-5.2,6.5-8.7,9c-0.9,0.7-3,2.4-4.5,1.7c-1.3-0.6-0.6-3.6-0.2-4.8C102.5-41.6,105.3-45.5,107.4-49.1z"/>
	<path class="st1" d="M116.2-20.3c-2.1,0-4.2,0-6.3,0c0.1-2,0.2-10.2,0.4-12c0.1-0.6,0-1.5,0.2-1.9c0.1-0.4,0.8-0.9,1.3-1.4
		c1.5-1.5,2.5-3.1,3.5-4.6C115.6-35.7,115.9-24.8,116.2-20.3z"/>
	<path class="st1" d="M120.4-19.3c0,0.7-0.5,1.2-1.2,1.2l-12.4,0c-0.7,0-1.2-0.5-1.2-1.2l0,0c0-0.7,0.5-1.2,1.2-1.2l12.4,0
		C119.8-20.5,120.4-19.9,120.4-19.3L120.4-19.3z"/>
</g>
<g class="st0">
	<path class="st1" d="M195.5-66.9c0.6,0.9,0.6,1.3,0.3,2.4c2.7,0.2,5.7,0.1,7.5,1.1c0,0.6,0,1.2,0,1.9c-2.8,1.3-7.2,0.3-11.2,0
		c-3.9-0.3-8.2-0.4-10.9-1.6c-0.1-0.9,0.1-1.5,0.3-2.1C185.8-66,190.9-67.4,195.5-66.9z"/>
	<path class="st1" d="M205.2-56.7c-3.3,1.1-8.4,0.3-13.1,0c-4.5-0.3-9.5-0.4-12.8-1.6c-0.1-1.1-0.1-2.2,0.9-2.4
		c4.8,0.1,10.2,0.4,15.6,0.8C199.4-59.7,205.6-60.3,205.2-56.7z"/>
	<path class="st1" d="M205.2-53.5c0,0.5,0,1.1,0,1.6c-3.3,1.1-8.2,0.3-12.8,0c-4.5-0.3-9.1-0.6-12.8-1.3c-1.6-4.8,7.8-2.3,13.7-1.9
		C198.2-54.8,203.2-55.1,205.2-53.5z"/>
	<path class="st1" d="M205.2-47.1c-7.8,0.9-18.5-0.3-25.9-1.6c-0.9-4.5,10.6-1.9,15-1.6C199-50,206-50.8,205.2-47.1z"/>
	<path class="st1" d="M203.3-44.2c0.2,3.6-3.4,4.1-3.7,7.2c0.5,1,2.3,0.9,3.1,1.6c1.6,3.3,0.6,8.3-2.2,9.6c0.5,2.1,0.5,5.4-0.3,7.2
		c-5.2,1.9-10.1,1.8-15.6,0.3c-1.7-2.4,0.2-4.5-0.6-7.2c-0.4-1.5-2.4-2.2-2.8-3.5c-1-3.2,0.2-7.4,3.4-7.7c1-1.9-2.4-1.7-1.6-4.3
		c0.4-0.1,0.8-0.4,0.9-0.8c3.4,0.2,4.9,2.1,4.7,5.3c2.3,0,4.6,0,6.9,0c0.3-2.2,1.1-4,2.5-5.3c-5.1-1.2-12.3-0.5-16.8-2.1
		c-0.6-4.5,7-2.1,12.2-1.6C197.6-45.1,201.5-45.5,203.3-44.2z M184.9-33.2c-0.4,2.5,0.4,3.9,1.6,5.1c3.9,0,7.7,0,11.5,0
		c1.1-1.2,2-2.6,1.6-5.1C194.7-33.2,189.8-33.2,184.9-33.2z M186.8-23.3c3.4-0.3,8.5,0.7,10.9-0.5c0-0.3,0-0.5,0-0.8
		c-3-0.6-7.4-0.1-10.9-0.3C186.8-24.4,186.8-23.9,186.8-23.3z M186.8-20.1c3.4-0.3,8.5,0.7,10.9-0.5c0-0.3,0-0.5,0-0.8
		c-3-0.6-7.4-0.1-10.9-0.3C186.8-21.2,186.8-20.7,186.8-20.1z"/>
</g>
</svg>
