<?xml version="1.0" encoding="utf-8"?>
<!-- Generator: Adobe Illustrator 17.0.0, SVG Export Plug-In . SVG Version: 6.00 Build 0)  -->
<!DOCTYPE svg PUBLIC "-//W3C//DTD SVG 1.1//EN" "http://www.w3.org/Graphics/SVG/1.1/DTD/svg11.dtd">
<svg version="1.1" id="Layer_2" xmlns="http://www.w3.org/2000/svg" xmlns:xlink="http://www.w3.org/1999/xlink" x="0px" y="0px"
	 width="291px" height="34px" viewBox="0 0 291 34" enable-background="new 0 0 291 34" xml:space="preserve">
<path opacity="0.7" fill="#FFFFFF" d="M180.192,15.161c-3.485,0-6.73,1.007-9.503,2.711C165.118,7.108,153.905,0,140.969,0
	C122.484,0,107.5,14.504,107.5,33.469h54.385h12.553H198.5C198.5,23.487,190.302,15.161,180.192,15.161z"/>
<path opacity="0.4" fill="#FFFFFF" d="M257.031,0c-12.936,0-24.15,7.109-29.721,17.873c-2.773-1.705-6.019-2.712-9.505-2.712
	c-10.11,0-18.306,8.326-18.306,18.308h24.062h12.551H290.5C290.5,14.504,275.514,0,257.031,0z"/>
<path opacity="0.7" fill="#FFFFFF" d="M94.762,21.962c-2.291,0-4.422,0.723-6.229,1.911c-3.355-5.816-9.622-9.591-16.818-9.591
	c-3.388,0-6.571,0.839-9.344,2.329C56.54,6.553,45.666,0,33.203,0C14.591,0-0.5,14.606-0.5,33.703h52.796h14.61h16.117h8.114H106.5
	C106.5,27.672,101.245,21.962,94.762,21.962z"/>
</svg>
