<?xml version="1.0" encoding="utf-8"?>
<!-- Generator: Adobe Illustrator 17.0.0, SVG Export Plug-In . SVG Version: 6.00 Build 0)  -->
<!DOCTYPE svg PUBLIC "-//W3C//DTD SVG 1.1//EN" "http://www.w3.org/Graphics/SVG/1.1/DTD/svg11.dtd">
<svg version="1.1" id="Layer_1" xmlns="http://www.w3.org/2000/svg" xmlns:xlink="http://www.w3.org/1999/xlink" x="0px" y="0px"
	 width="158px" height="17px" viewBox="0 0 158 17" enable-background="new 0 0 158 17" xml:space="preserve">
<g>
	<g>
		<g>
			<path fill="#EEBD00" d="M52,10.306c0,15-11.64,0-26.001,0c-14.355,0-25.999,15-25.999,0c0-14,11.642-9.634,25.997-9.634
				C40.358,0.672,52-3.694,52,10.306z"/>
		</g>
	</g>
</g>
<g>
	<g>
		<g>
			<path fill="#63BD22" d="M105,10.306c0,15-11.64,0-26.001,0c-14.355,0-25.999,15-25.999,0c0-14,11.642-9.634,25.997-9.634
				C93.358,0.672,105-3.694,105,10.306z"/>
		</g>
	</g>
</g>
<g>
	<g>
		<g>
			<path fill="#F32B36" d="M158,10.306c0,15-11.64,0-26.001,0c-14.355,0-25.999,15-25.999,0c0-14,11.642-9.634,25.997-9.634
				C146.358,0.672,158-3.694,158,10.306z"/>
		</g>
	</g>
</g>
</svg>
