<?xml version="1.0" encoding="utf-8"?>
<!-- Generator: Adobe Illustrator 17.0.0, SVG Export Plug-In . SVG Version: 6.00 Build 0)  -->
<!DOCTYPE svg PUBLIC "-//W3C//DTD SVG 1.1//EN" "http://www.w3.org/Graphics/SVG/1.1/DTD/svg11.dtd">
<svg version="1.1" id="Layer_1" xmlns="http://www.w3.org/2000/svg" xmlns:xlink="http://www.w3.org/1999/xlink" x="0px" y="0px"
	 width="215px" height="40px" viewBox="0.25 0 215 40" enable-background="new 0.25 0 215 40" xml:space="preserve">
<g>
	<path fill="#FFFFFF" d="M68.439,9.776c0.72,2.912,0.405,7.017,0.405,11.02c0,1.587,0,3.888,0,5.715c0,1.807,0.29,4.608-0.675,5.034
		c-1.085,0.479-3.233-2.016-4.053-2.721c-1.449-1.25-2.449-2.289-3.783-3.266c-2.222-0.211-5.317,0.457-6.888-0.408
		c-0.225-2.724-0.225-6.391,0-9.116c1.571-0.863,4.666-0.197,6.888-0.407c2.072-1.513,4.721-4.014,6.756-5.714
		C67.37,9.676,67.803,9.496,68.439,9.776z"/>
	<path fill="#FFFFFF" d="M73.438,12.633c1.844-0.913,3.737,3.332,4.053,6.396c0.312,3.065-0.033,4.903-1.217,7.347
		c-0.498,1.029-1.538,3.21-2.702,2.448c-1.242-0.814,0.587-2.527,1.081-3.674c1.187-2.752,0.903-6.929-0.27-9.388
		C73.938,14.832,72.781,13.906,73.438,12.633z"/>
	<path fill="#FFFFFF" d="M70.736,25.966c-0.862-1.945,1.114-3.114,0.809-6.123c-0.156-1.545-2.462-4.563-0.27-4.625
		C74.208,15.135,74.44,27.039,70.736,25.966z"/>
</g>
<path fill="#FFFFFF" d="M197.595,9.776c0.72,2.912,0.405,7.017,0.405,11.02c0,1.587,0,3.888,0,5.715c0,1.807,0.29,4.608-0.675,5.034
	c-1.085,0.479-3.233-2.016-4.053-2.721c-1.449-1.25-2.449-2.289-3.783-3.266c-2.222-0.211-5.317,0.457-6.888-0.408
	c-0.225-2.724-0.225-6.391,0-9.116c1.571-0.863,4.666-0.197,6.888-0.407c2.072-1.513,4.721-4.014,6.756-5.714
	C196.526,9.676,196.959,9.496,197.595,9.776z"/>
<g>
	<path fill="#FFFFFF" d="M101.03,6.332c7.306,0.117,15.077-0.235,22.091,0.177c0.292,5.771,0.292,12.771,0,18.541
		c-2.868,0.291-6.951,0.297-9.817,0c0-0.412,0-0.824,0-1.235c2.108-0.818,5.722-0.122,8.415-0.354c0-5.122,0-10.242,0-15.363
		c-6.079-0.412-12.916-0.058-19.285-0.176c-0.526,1.825,0.173,4.884-0.352,6.709c-0.409,0-0.817,0-1.227,0
		C100.351,12.698,100.091,7.985,101.03,6.332z"/>
	<path fill="#FFFFFF" d="M116.809,11.275c-0.088,2.854-0.359,5.524-0.35,8.477c-1.337-0.655-1.961-2.028-2.98-3.002
		c-3.469,2.628-6.271,5.928-9.468,8.829c-0.946-0.4-1.409-1.289-1.929-2.118c1.798-1.548,4.743-4.293,7.014-6.534
		c0.461-0.457,2.247-1.828,2.278-2.119c0.152-1.348-2.857-2.101-2.805-3.355C111.499,11.577,113.996,11.267,116.809,11.275z"/>
	<path fill="#FFFFFF" d="M108.92,16.043c0.854,0.461-0.918,1.14-1.052,1.765c-5.786,0-9.598,0-15.382,0
		c-0.409,4.827-0.06,10.418-0.176,15.54c6.429,0,10.881,0,17.31,0c0.008-3.598-0.004-8.706,0-12.891
		c0.659-0.283,1.244-1.568,1.754-1.413c-0.113,5.243,0.229,10.944-0.175,15.892c-7.48,0-12.985,0-20.467,0
		c-0.173-5.714-0.524-13.119,0.176-18.54C96.876,15.578,102.37,16.274,108.92,16.043z"/>
</g>
<g>
	<path fill="#FFFFFF" d="M13.084,34.563c0,0.951-0.849,1.902-2.03,1.902h-1.65c-1.182,0-2.32-0.951-2.32-1.902V23.088
		c0-0.952,1.139-1.623,2.32-1.623h1.65c1.181,0,2.03,0.671,2.03,1.623V34.563z"/>
	<path fill="#FFFFFF" d="M20.084,34.563c0,0.951,0.052,1.902-1.129,1.902h-1.649c-1.182,0-2.222-0.951-2.222-1.902V21.099
		c0-0.952,1.04-1.633,2.222-1.633h1.649c1.181,0,1.129,0.682,1.129,1.633V34.563z"/>
	<path fill="#FFFFFF" d="M28.084,34.563c0,0.951-0.047,1.902-1.229,1.902h-1.647c-1.182,0-3.124-0.951-3.124-1.902V16.125
		c0-0.952,1.942-1.66,3.124-1.66h1.647c1.181,0,1.229,0.708,1.229,1.66V34.563z"/>
	<path fill="#FFFFFF" d="M36.084,34.563c0,0.951-0.146,1.902-1.327,1.902H33.11c-1.182,0-3.025-0.951-3.025-1.902V11.152
		c0-0.952,1.844-1.687,3.025-1.687h1.647c1.181,0,1.327,0.735,1.327,1.687V34.563z"/>
	<g>
		<g>
			<path fill="#FFFFFF" d="M9.055,15.956c-1.14,0-1.828-0.058-1.858-0.061l0.069-0.769c0.135,0.011,13.758,1.143,21.561-7.116
				l0.556,0.532C23.077,15.214,13.15,15.956,9.055,15.956z"/>
		</g>
		<g>
			<g>
				<polygon fill="#FFFFFF" points="29.604,9.992 31.864,4.373 27.116,8.101 				"/>
			</g>
		</g>
	</g>
</g>
<path fill="#FFFFFF" d="M160.561,7.639c1.209,0.654-1.298,1.613-1.488,2.499c-8.187,0-10.729,0-18.916,0
	c-0.579,6.831-0.084,14.742-0.249,21.989c9.098,0,12.55,0,21.647,0c0.009-5.091-0.009-12.319,0-18.24
	c0.93-0.402,1.758-2.221,2.479-2c-0.159,7.419,0.323,15.487-0.247,22.489c-10.586,0-15.526,0-26.111,0
	c-0.246-8.086-0.743-18.564,0.248-26.236C146.368,6.981,151.294,7.965,160.561,7.639z"/>
<g>
	<path fill="#FFFFFF" d="M146.934,13.052l2.271,3.423c0.592,0.889,1.086,1.711,1.612,2.6h0.099c0.526-0.954,1.054-1.777,1.58-2.633
		l2.238-3.39h3.127l-5.431,7.701l5.595,8.229h-3.291l-2.337-3.588c-0.625-0.921-1.152-1.81-1.712-2.765h-0.065
		c-0.526,0.955-1.086,1.811-1.679,2.765l-2.304,3.588h-3.192l5.661-8.13l-5.398-7.8C143.708,13.052,146.934,13.052,146.934,13.052z"
		/>
</g>
<g>
	<path fill="#FFFFFF" d="M202.164,15.63l1.246,1.878c0.325,0.488,0.596,0.939,0.885,1.427h0.054
		c0.289-0.523,0.578-0.975,0.867-1.445l1.228-1.86h1.716l-2.98,4.226l3.07,4.515h-1.806l-1.282-1.969
		c-0.343-0.505-0.632-0.993-0.939-1.517h-0.036c-0.289,0.524-0.596,0.994-0.921,1.517l-1.264,1.969h-1.751l3.106-4.461l-2.962-4.28
		C200.394,15.63,202.164,15.63,202.164,15.63z"/>
</g>
</svg>
