<?xml version="1.0" encoding="utf-8"?>
<!-- Generator: Adobe Illustrator 16.0.0, SVG Export Plug-In . SVG Version: 6.00 Build 0)  -->
<!DOCTYPE svg PUBLIC "-//W3C//DTD SVG 1.1//EN" "http://www.w3.org/Graphics/SVG/1.1/DTD/svg11.dtd">
<svg version="1.1" id="Layer_1" xmlns="http://www.w3.org/2000/svg" xmlns:xlink="http://www.w3.org/1999/xlink" x="0px" y="0px"
	 width="17.036px" height="20.018px" viewBox="0 0 17.036 20.018" enable-background="new 0 0 17.036 20.018" xml:space="preserve">
<g>
	<path fill="#4D4D4E" d="M5.352,17.485c-0.186,0.131-0.382,0.246-0.587,0.349c-0.206,0.102-0.32,0.311-0.34,0.626
		c-0.186,0.037-0.366,0.046-0.541,0.027c-0.176-0.019-0.351-0.042-0.525-0.069c-0.176-0.028-0.352-0.046-0.526-0.056
		s-0.345,0.014-0.51,0.069c-0.227-0.093-0.484-0.148-0.772-0.167c-0.289-0.019-0.557-0.019-0.804,0
		c-0.104-0.111-0.201-0.25-0.294-0.417s-0.139-0.324-0.139-0.474c0.062-0.147,0.123-0.273,0.186-0.375
		c0.062-0.102,0.112-0.246,0.154-0.432c0.227-0.259,0.422-0.552,0.587-0.876s0.319-0.645,0.464-0.96
		c0.351-0.835,0.731-1.646,1.144-2.435c0.412-0.788,0.814-1.59,1.206-2.406C3.93,9.816,3.857,9.737,3.837,9.654
		C3.816,9.57,3.826,9.487,3.868,9.403C3.909,9.32,3.971,9.241,4.054,9.167C4.136,9.094,4.208,9.038,4.27,9
		c-0.104-0.203-0.2-0.421-0.293-0.653C3.884,8.115,3.724,7.999,3.497,7.999C3.455,7.925,3.42,7.837,3.389,7.734
		c-0.03-0.102-0.026-0.209,0.016-0.319C3.054,6.988,2.755,6.529,2.508,6.037C2.261,5.546,1.992,5.06,1.704,4.577
		C1.643,4.614,1.575,4.646,1.503,4.674C1.431,4.702,1.344,4.707,1.24,4.688C1.137,4.577,1.102,4.466,1.132,4.354
		C1.163,4.243,1.199,4.132,1.24,4.021c-0.227-0.26-0.459-0.505-0.695-0.737C0.308,3.052,0.158,2.723,0.097,2.296
		c0.082-0.074,0.165-0.103,0.247-0.084c0.206-0.24,0.407-0.473,0.603-0.695c0.196-0.223,0.356-0.482,0.479-0.779
		c0.041,0,0.072-0.014,0.093-0.042C1.539,0.668,1.57,0.664,1.611,0.682c0-0.037-0.011-0.073-0.031-0.111
		C1.56,0.533,1.57,0.497,1.611,0.459C2.085,0.274,2.632,0.195,3.25,0.223c0.618,0.028,1.226-0.014,1.823-0.125
		c0.475,0.761,0.969,1.493,1.484,2.198c0.515,0.705,1.03,1.419,1.545,2.142c0.021-0.185,0.078-0.352,0.171-0.501
		c0.092-0.147,0.185-0.296,0.277-0.444s0.165-0.307,0.217-0.474c0.051-0.167,0.057-0.37,0.016-0.611
		c0.144-0.204,0.319-0.38,0.525-0.529C9.515,1.729,9.73,1.591,9.958,1.461c0.227-0.13,0.458-0.26,0.695-0.39
		c0.236-0.13,0.448-0.278,0.634-0.445c0.123,0.056,0.211,0.069,0.263,0.042c0.051-0.027,0.128-0.079,0.231-0.153
		c0.33,0.038,0.639,0.065,0.928,0.084c0.288,0.019,0.571,0.027,0.85,0.027s0.562-0.018,0.851-0.056
		c0.288-0.037,0.598-0.102,0.927-0.194c0.124,0.111,0.253,0.223,0.387,0.334s0.222,0.287,0.263,0.528
		c-0.268,0.167-0.489,0.371-0.664,0.612c-0.176,0.241-0.346,0.496-0.511,0.765c-0.165,0.27-0.329,0.533-0.494,0.793
		s-0.361,0.482-0.588,0.668c0.021,0.093,0.011,0.157-0.03,0.194c-0.042,0.038-0.062,0.103-0.062,0.195
		c-0.309,0.241-0.54,0.552-0.695,0.932c-0.154,0.381-0.376,0.7-0.664,0.96c-0.165,0.371-0.351,0.709-0.557,1.016
		c-0.206,0.306-0.392,0.645-0.557,1.016c-0.082,0.019-0.139,0.06-0.17,0.125s-0.067,0.125-0.108,0.181
		c0.145,0.037,0.237,0.083,0.278,0.139C11.204,9,11.271,9.135,11.364,9.237c0.093,0.102,0.19,0.199,0.294,0.292
		c0.123,0.278,0.272,0.552,0.448,0.82c0.175,0.27,0.345,0.515,0.51,0.737c0.535,0.687,1.024,1.414,1.468,2.184
		c0.443,0.771,0.901,1.545,1.376,2.323c0.124,0.204,0.268,0.381,0.433,0.528c0.165,0.149,0.325,0.312,0.479,0.487
		c0.154,0.177,0.294,0.371,0.417,0.584c0.124,0.214,0.206,0.469,0.247,0.766c-0.041,0.019-0.113,0.027-0.216,0.027
		c-0.042,0.019-0.057,0.061-0.047,0.125c0.011,0.065-0.005,0.116-0.046,0.153c-0.351,0.278-0.686,0.566-1.005,0.862
		c-0.319,0.297-0.645,0.594-0.974,0.891c-0.165-0.056-0.351-0.121-0.557-0.195s-0.36-0.027-0.464,0.14
		c-0.185-0.111-0.376-0.167-0.571-0.167c-0.196,0-0.397,0.014-0.603,0.042c-0.207,0.027-0.413,0.046-0.618,0.056
		c-0.207,0.009-0.402-0.042-0.588-0.153c-0.104-0.019-0.165,0.009-0.186,0.083s-0.082,0.093-0.186,0.056
		c-0.062-0.056-0.118-0.143-0.17-0.264s-0.057-0.228-0.016-0.32c-0.186-0.26-0.351-0.579-0.494-0.96
		c-0.145-0.38-0.299-0.746-0.464-1.099c-0.104-0.167-0.196-0.39-0.278-0.668c-0.104-0.24-0.227-0.468-0.371-0.682
		c-0.145-0.213-0.237-0.486-0.278-0.82c-0.247-0.186-0.412-0.454-0.494-0.807c-0.145-0.074-0.247-0.157-0.31-0.251
		c-0.123,0.241-0.227,0.497-0.309,0.766c-0.083,0.269-0.217,0.505-0.402,0.709c-0.041,0.371-0.139,0.687-0.293,0.946
		c-0.155,0.26-0.294,0.528-0.418,0.807c-0.165,0.074-0.376,0.209-0.634,0.403c-0.258,0.195-0.499,0.395-0.726,0.599
		c-0.062,0.056-0.124,0.13-0.186,0.223c-0.062,0.093-0.129,0.171-0.201,0.236c-0.072,0.064-0.149,0.093-0.232,0.083
		c-0.082-0.009-0.154-0.088-0.216-0.236c0.103-0.223,0.231-0.412,0.387-0.57C5.027,17.815,5.187,17.652,5.352,17.485z M0.622,2.629
		c0.082-0.11,0.186-0.203,0.31-0.277c0.123-0.074,0.241-0.153,0.355-0.237c0.112-0.083,0.216-0.176,0.309-0.277
		C1.688,1.734,1.745,1.6,1.766,1.433C1.56,1.619,1.354,1.822,1.147,2.045S0.767,2.463,0.622,2.629z M0.9,17.681
		c0,0.056,0.021,0.061,0.062,0.014c0.041-0.046,0.082-0.051,0.124-0.014c-0.042-0.26,0.025-0.44,0.201-0.543
		c0.175-0.102,0.365-0.181,0.571-0.236s0.396-0.125,0.572-0.209c0.175-0.083,0.252-0.236,0.231-0.459
		c-0.186,0.056-0.386,0.131-0.603,0.223c-0.217,0.094-0.417,0.195-0.603,0.307s-0.335,0.246-0.448,0.403S0.858,17.495,0.9,17.681z
		 M0.993,3.158c0.041,0.019,0.072,0.046,0.093,0.083s0.051,0.056,0.093,0.056c0.124-0.204,0.268-0.38,0.433-0.528
		S1.94,2.444,2.106,2.24C1.899,2.389,1.704,2.532,1.519,2.671C1.333,2.811,1.158,2.973,0.993,3.158z M1.426,17.736
		c0.082,0.037,0.145,0.046,0.186,0.027c-0.021-0.056-0.026-0.097-0.016-0.125c0.011-0.027,0.005-0.051-0.016-0.069
		c0,0.056-0.025,0.083-0.077,0.083S1.426,17.681,1.426,17.736z M2.014,15.789c-0.042,0-0.073-0.019-0.093-0.056
		c-0.021-0.037-0.052-0.065-0.093-0.084c0,0.056-0.011,0.103-0.031,0.14s-0.042,0.083-0.062,0.139
		c0.227-0.074,0.468-0.153,0.727-0.236c0.257-0.084,0.396-0.218,0.417-0.403c-0.165,0.056-0.314,0.13-0.448,0.223
		C2.296,15.604,2.157,15.696,2.014,15.789z M2.848,3.158C2.725,3.325,2.601,3.487,2.477,3.645C2.354,3.803,2.198,3.937,2.014,4.048
		C1.992,4.123,1.967,4.174,1.936,4.201c-0.03,0.028-0.015,0.069,0.047,0.125c0.186-0.129,0.335-0.282,0.448-0.459
		c0.113-0.176,0.294-0.301,0.541-0.375C2.93,3.437,2.936,3.408,2.987,3.408c0.051,0,0.066-0.037,0.046-0.111
		C2.992,3.26,2.966,3.224,2.956,3.186C2.945,3.148,2.91,3.14,2.848,3.158z M3.312,16.818c-0.165,0.204-0.355,0.385-0.572,0.542
		c-0.216,0.158-0.458,0.302-0.726,0.432c0.185,0.019,0.355-0.005,0.51-0.069c0.154-0.065,0.294-0.153,0.417-0.265
		c0.124-0.111,0.247-0.223,0.371-0.334s0.258-0.204,0.402-0.278c-0.083,0-0.145-0.009-0.186-0.027
		C3.486,16.8,3.414,16.8,3.312,16.818z M2.539,14.676c-0.042-0.019-0.083-0.037-0.124-0.056s-0.083-0.046-0.124-0.083
		c0.021,0.093-0.005,0.181-0.077,0.264c-0.072,0.084-0.088,0.153-0.046,0.209c0.227-0.111,0.458-0.218,0.695-0.32
		c0.236-0.102,0.428-0.255,0.572-0.459c0.041,0,0.082-0.004,0.123-0.014c0.041-0.009,0.082-0.014,0.124-0.014
		c0-0.037,0.01-0.065,0.031-0.084c0.02-0.018,0.02-0.046,0-0.083C3.528,14.073,3.327,14.161,3.11,14.3
		C2.895,14.439,2.703,14.564,2.539,14.676z M8.319,5.829C8.236,5.532,8.107,5.3,7.933,5.133C7.758,4.967,7.618,4.734,7.516,4.438
		C7.33,4.289,7.176,4.108,7.052,3.896c-0.123-0.213-0.268-0.403-0.433-0.57c0-0.093-0.021-0.177-0.062-0.251
		c-0.31-0.296-0.583-0.635-0.819-1.016C5.501,1.679,5.259,1.312,5.012,0.96c-0.104-0.037-0.231-0.037-0.387,0
		C4.471,0.997,4.352,0.97,4.27,0.877C4.125,0.988,3.966,1.039,3.791,1.029C3.615,1.021,3.44,1.002,3.266,0.974
		C3.09,0.946,2.914,0.933,2.739,0.933S2.404,0.979,2.261,1.071c0.288,0.501,0.603,1.025,0.942,1.572s0.686,1.062,1.036,1.544
		c0.082,0.093,0.148,0.186,0.2,0.278S4.548,4.651,4.61,4.744c0.185,0.26,0.34,0.523,0.463,0.793
		c0.124,0.269,0.299,0.468,0.525,0.598c0.227,0.464,0.489,0.891,0.789,1.28c0.298,0.389,0.551,0.844,0.757,1.362
		c-0.433,0.687-0.819,1.378-1.159,2.073s-0.727,1.368-1.159,2.017c0,0.149-0.031,0.265-0.093,0.348
		c-0.062,0.084-0.093,0.2-0.093,0.349c-0.123,0.11-0.211,0.264-0.263,0.459c-0.052,0.194-0.119,0.375-0.201,0.542
		c-0.186,0.223-0.319,0.487-0.401,0.793c-0.083,0.306-0.217,0.57-0.402,0.793c0.104,0,0.227,0.047,0.371,0.139
		c0.145,0.094,0.299,0.158,0.464,0.195c0.268,0.056,0.557,0.074,0.865,0.056c0.31-0.019,0.608-0.046,0.896-0.084
		c0.062,0.019,0.113,0.047,0.155,0.084c0.041,0.037,0.103,0.056,0.185,0.056C6.763,15.761,7.16,14.89,7.5,13.98
		c0.34-0.908,0.716-1.799,1.129-2.671c-0.083-0.111-0.114-0.231-0.093-0.361c0.164,0.019,0.263-0.032,0.293-0.153
		c0.031-0.12,0.088-0.227,0.17-0.32c0.206,0.038,0.335,0.149,0.387,0.334c0.051,0.186,0.005,0.353-0.139,0.501
		c0.227,0.482,0.494,0.96,0.804,1.433c0.309,0.473,0.576,0.97,0.804,1.488c0.123,0.26,0.241,0.52,0.355,0.779
		c0.112,0.26,0.241,0.511,0.386,0.751c0.145,0.241,0.278,0.487,0.402,0.737c0.123,0.25,0.288,0.469,0.494,0.654
		c0.639-0.093,1.272-0.088,1.901,0.014c0.628,0.102,1.272,0.172,1.932,0.208c-0.103-0.203-0.247-0.412-0.433-0.626
		c-0.186-0.213-0.401-0.365-0.648-0.459c-0.371-0.556-0.727-1.117-1.067-1.683c-0.34-0.565-0.685-1.127-1.035-1.684
		c-0.206-0.334-0.428-0.658-0.665-0.974c-0.236-0.315-0.458-0.64-0.664-0.974c-0.228-0.352-0.438-0.7-0.634-1.043
		C10.982,9.59,10.74,9.278,10.452,9c0.082-0.092,0.088-0.189,0.016-0.292c-0.072-0.102-0.108-0.199-0.108-0.292
		c0.021-0.111,0.098-0.231,0.232-0.361c0.134-0.13,0.241-0.26,0.324-0.39c0.268-0.427,0.515-0.862,0.742-1.308
		c0.227-0.445,0.494-0.844,0.804-1.196c0.062-0.186,0.134-0.353,0.216-0.501s0.206-0.269,0.371-0.361
		c0.082-0.408,0.288-0.714,0.618-0.918c0.104-0.39,0.283-0.714,0.541-0.974s0.438-0.585,0.541-0.975
		c-0.475,0.038-0.907,0.005-1.298-0.097c-0.393-0.102-0.846-0.135-1.36-0.098c-0.042,0.037-0.072,0.056-0.093,0.056
		c-0.289,0.427-0.552,0.881-0.788,1.363c-0.237,0.482-0.521,0.937-0.851,1.363c-0.041,0.26-0.123,0.482-0.247,0.668
		S9.844,5.05,9.68,5.217C9.556,5.773,9.309,6.2,8.938,6.496C8.813,6.404,8.706,6.298,8.613,6.177S8.422,5.94,8.319,5.829z
		 M2.384,4.883C2.363,4.846,2.379,4.809,2.431,4.771C2.481,4.734,2.487,4.697,2.446,4.66C2.404,4.679,2.369,4.712,2.338,4.758
		S2.322,4.846,2.384,4.883z M2.601,5.355c0.021,0.186,0.077,0.316,0.17,0.39C2.863,5.819,2.93,5.931,2.972,6.079
		c0.227-0.093,0.406-0.218,0.541-0.376c0.134-0.157,0.263-0.329,0.386-0.515c0.021-0.036,0.067-0.056,0.14-0.056
		s0.087-0.046,0.046-0.139c-0.206,0.13-0.386,0.273-0.541,0.432c-0.154,0.157-0.324,0.311-0.51,0.459
		c-0.186-0.13-0.258-0.26-0.216-0.39C2.858,5.365,2.94,5.24,3.064,5.119c0.123-0.12,0.257-0.24,0.401-0.361
		C3.61,4.638,3.703,4.521,3.744,4.41C3.518,4.466,3.301,4.586,3.095,4.771S2.725,5.152,2.601,5.355z M2.972,13.785
		c0.144-0.073,0.272-0.152,0.387-0.236c0.112-0.083,0.272-0.134,0.479-0.152c0.041,0.037,0.062,0.079,0.062,0.125
		s0.021,0.088,0.062,0.125c0.041-0.148,0.113-0.315,0.216-0.501c0.104-0.185,0.124-0.324,0.062-0.417
		c-0.062,0.111-0.16,0.209-0.294,0.292c-0.135,0.083-0.269,0.162-0.402,0.236s-0.258,0.153-0.37,0.236
		C3.059,13.577,2.992,13.674,2.972,13.785z M2.972,15.288h0.186c-0.021-0.056-0.011-0.102,0.03-0.14
		c0.041-0.036,0.041-0.064,0-0.083c-0.041,0.056-0.082,0.093-0.123,0.111C3.022,15.195,2.992,15.232,2.972,15.288z M3.157,4.021
		C3.178,3.965,3.219,3.937,3.28,3.937c0.062,0,0.104-0.018,0.124-0.056C3.362,3.789,3.296,3.774,3.203,3.84
		C3.11,3.904,3.095,3.965,3.157,4.021z M4.332,5.689c0.041-0.037,0.077-0.037,0.107,0c0.031,0.037,0.047,0.037,0.047,0
		C4.444,5.652,4.414,5.611,4.394,5.564C4.373,5.519,4.342,5.477,4.301,5.439C4.239,5.588,4.156,5.713,4.054,5.814
		C3.95,5.917,3.878,6.042,3.837,6.19C3.755,6.283,3.662,6.353,3.559,6.399C3.455,6.445,3.394,6.534,3.373,6.663
		c0.165-0.147,0.341-0.292,0.525-0.431C4.084,6.093,4.229,5.912,4.332,5.689z M3.714,17.514c0.041,0,0.051,0.01,0.03,0.027
		c-0.021,0.02-0.011,0.047,0.031,0.084c0.082-0.074,0.18-0.093,0.294-0.056c0.112,0.037,0.148-0.009,0.107-0.14
		c0,0.02-0.036,0.042-0.107,0.07c-0.073,0.027-0.13,0.005-0.171-0.07c0.021-0.036,0.047-0.073,0.078-0.111
		c0.03-0.036,0.025-0.055-0.016-0.055c-0.021,0.055-0.058,0.097-0.108,0.125C3.801,17.416,3.755,17.458,3.714,17.514z M3.806,17.931
		c0.145,0.019,0.237-0.037,0.278-0.167c-0.103-0.018-0.165-0.004-0.186,0.042C3.878,17.853,3.848,17.894,3.806,17.931z M4.98,6.719
		C4.815,6.868,4.651,7.016,4.486,7.164S4.136,7.452,3.93,7.581C3.971,7.656,4.012,7.73,4.054,7.804
		c0.041,0.074,0.093,0.13,0.154,0.167c0-0.093-0.011-0.157-0.031-0.194c0.206-0.148,0.387-0.32,0.541-0.515
		C4.873,7.066,5.073,6.924,5.321,6.83C5.218,6.571,5.094,6.413,4.95,6.357C4.97,6.45,4.98,6.511,4.98,6.538
		C4.98,6.566,4.98,6.626,4.98,6.719z M4.27,10.67c0.206-0.093,0.412-0.199,0.618-0.32c0.206-0.12,0.351-0.245,0.434-0.376
		c-0.062,0.094-0.15,0.158-0.264,0.195s-0.222,0.069-0.324,0.098c-0.104,0.027-0.201,0.069-0.294,0.125S4.29,10.54,4.27,10.67z
		 M4.332,8.193c0,0.074,0.015,0.121,0.046,0.14s0.047,0.064,0.047,0.139c0.227-0.167,0.442-0.338,0.648-0.515
		c0.206-0.176,0.392-0.366,0.557-0.57c0-0.056-0.011-0.102-0.031-0.139C5.455,7.285,5.336,7.35,5.243,7.442S5.062,7.633,4.98,7.734
		C4.898,7.837,4.811,7.93,4.718,8.013S4.496,8.156,4.332,8.193z M4.548,6.302C4.61,6.32,4.651,6.307,4.672,6.26
		c0.021-0.046,0.051-0.088,0.093-0.125C4.723,6.061,4.688,5.986,4.656,5.912s-0.088-0.13-0.17-0.167
		c0.041,0.093,0.072,0.19,0.093,0.292C4.6,6.14,4.589,6.228,4.548,6.302z M4.919,9.278c0.103,0,0.206-0.046,0.31-0.139
		c0.103-0.093,0.205-0.167,0.309-0.223C5.352,8.991,5.146,9.111,4.919,9.278z M5.815,8.777C5.877,8.686,5.97,8.62,6.094,8.583
		S6.31,8.481,6.372,8.389C6.269,8.314,6.191,8.23,6.14,8.138S6.032,7.953,5.97,7.859c-0.082,0-0.145,0.056-0.186,0.167
		c0.124-0.018,0.196,0.028,0.217,0.14s0.041,0.231,0.062,0.361C6.021,8.564,5.959,8.602,5.877,8.639S5.773,8.722,5.815,8.777z
		 M8.351,4.938c0.041,0.019,0.128,0.019,0.263,0C8.747,4.92,8.834,4.883,8.876,4.827c-0.083,0.037-0.129,0.023-0.14-0.042
		C8.726,4.721,8.68,4.707,8.598,4.744c0.021,0.093-0.021,0.13-0.124,0.111S8.329,4.864,8.351,4.938z M9.463,13.118
		c-0.082,0.167-0.206,0.319-0.371,0.459c-0.165,0.139-0.258,0.292-0.278,0.459c0.124-0.093,0.264-0.223,0.418-0.39
		s0.313-0.324,0.479-0.473c-0.041-0.019-0.077-0.037-0.107-0.056C9.571,13.1,9.525,13.1,9.463,13.118z M9.556,3.965
		c0.041-0.037,0.077-0.069,0.108-0.098C9.695,3.84,9.73,3.816,9.772,3.798c0.103-0.037,0.118-0.06,0.046-0.069s-0.175,0-0.309,0.027
		C9.375,3.784,9.241,3.825,9.107,3.881S8.906,4.002,8.906,4.076c0.124,0,0.227-0.023,0.31-0.069C9.298,3.96,9.411,3.946,9.556,3.965
		z M8.999,4.8c0.062-0.037,0.134-0.061,0.217-0.07c0.082-0.009,0.144-0.051,0.186-0.125C9.34,4.642,9.262,4.66,9.169,4.66
		C9.077,4.66,9.02,4.707,8.999,4.8z M9.896,13.758c-0.123,0.167-0.258,0.324-0.401,0.473c-0.145,0.148-0.269,0.315-0.371,0.501
		c0.206-0.093,0.376-0.199,0.51-0.32c0.134-0.12,0.283-0.245,0.448-0.375c-0.041-0.037-0.062-0.098-0.062-0.181
		C10.02,13.771,9.978,13.739,9.896,13.758z M9.865,2.352c0.103-0.019,0.186-0.037,0.247-0.056s0.113-0.074,0.154-0.167
		c-0.082,0.037-0.165,0.061-0.247,0.069C9.937,2.208,9.885,2.259,9.865,2.352z M9.958,16.54c0.227-0.093,0.406-0.209,0.541-0.348
		c0.134-0.14,0.282-0.283,0.448-0.432c-0.021-0.037-0.047-0.106-0.078-0.209c-0.03-0.102-0.066-0.134-0.107-0.097
		c0.02,0.111-0.016,0.208-0.108,0.292c-0.093,0.083-0.196,0.157-0.31,0.223s-0.216,0.144-0.309,0.236S9.916,16.41,9.958,16.54z
		 M10.576,1.851c0.021,0.093,0.066,0.139,0.139,0.139s0.14,0.019,0.201,0.056c0-0.093,0.016-0.162,0.046-0.208
		c0.031-0.047,0.057-0.098,0.078-0.153c-0.104,0-0.181,0.023-0.232,0.069C10.756,1.8,10.679,1.832,10.576,1.851z M10.699,17.514
		c0.145-0.111,0.31-0.199,0.495-0.265c0.186-0.064,0.309-0.189,0.371-0.375c-0.165,0.093-0.33,0.199-0.495,0.319
		C10.905,17.314,10.781,17.421,10.699,17.514z M10.823,18.376c0.206-0.037,0.392-0.148,0.557-0.334
		c0.164-0.185,0.35-0.324,0.557-0.417c0-0.037,0.004-0.061,0.015-0.069c0.011-0.01-0.005-0.015-0.046-0.015
		c-0.165,0.149-0.376,0.278-0.634,0.39S10.864,18.19,10.823,18.376z M11.04,16.484c0.02-0.056,0.077-0.102,0.17-0.14
		c0.093-0.036,0.087-0.073-0.016-0.111c0,0.056-0.042,0.098-0.124,0.126C10.988,16.387,10.978,16.429,11.04,16.484z M11.874,19.267
		c0.165-0.019,0.288-0.023,0.371-0.015c0.082,0.01,0.195-0.004,0.34-0.041c0.206-0.445,0.505-0.854,0.896-1.225
		c-0.309,0.186-0.603,0.376-0.881,0.57C12.322,18.752,12.08,18.988,11.874,19.267z M13.42,19.211
		c0.227-0.037,0.412-0.111,0.557-0.223c0.144-0.111,0.278-0.236,0.401-0.376c0.124-0.139,0.252-0.269,0.387-0.39
		c0.134-0.12,0.304-0.208,0.51-0.264c0.062,0.037,0.108,0.116,0.14,0.236c0.03,0.121,0.025,0.228-0.016,0.319
		c0.144-0.073,0.268-0.157,0.371-0.25c0.103-0.093,0.205-0.186,0.309-0.278c-0.227-0.037-0.453-0.069-0.68-0.097
		c-0.228-0.028-0.454-0.032-0.681-0.015c-0.021,0.148-0.082,0.278-0.186,0.39c-0.103,0.111-0.227,0.219-0.37,0.32
		c-0.145,0.102-0.284,0.199-0.418,0.292S13.502,19.081,13.42,19.211z M14.471,19.294c0.165-0.037,0.325-0.134,0.479-0.292
		c0.154-0.157,0.294-0.311,0.417-0.459c-0.227,0.074-0.396,0.181-0.51,0.32C14.744,19.002,14.615,19.146,14.471,19.294z"/>
</g>
</svg>
