<?xml version="1.0" encoding="utf-8"?>
<!-- Generator: Adobe Illustrator 17.0.0, SVG Export Plug-In . SVG Version: 6.00 Build 0)  -->
<!DOCTYPE svg PUBLIC "-//W3C//DTD SVG 1.1//EN" "http://www.w3.org/Graphics/SVG/1.1/DTD/svg11.dtd">
<svg version="1.1" id="Layer_1" xmlns="http://www.w3.org/2000/svg" xmlns:xlink="http://www.w3.org/1999/xlink" x="0px" y="0px"
	 width="102px" height="92px" viewBox="0 0 102 92" enable-background="new 0 0 102 92" xml:space="preserve">
<g>
	<rect x="0" y="0" fill="#0063AE" width="41.788" height="92.614"/>
	<rect x="41.788" y="0" fill="#E63338" width="60.212" height="92.614"/>
	<path fill="#FFFFFF" d="M19.884,25.114c-0.058-0.002-0.103,0.02-0.134,0.065c-0.031,0.045-0.049,0.116-0.051,0.217
		c-0.004,0.11,0.006,0.185,0.033,0.234c0.027,0.048,0.07,0.075,0.126,0.075c0.06,0.002,0.105-0.017,0.138-0.058
		c0.031-0.044,0.049-0.12,0.054-0.229c0.004-0.097-0.008-0.174-0.035-0.224C19.989,25.144,19.944,25.116,19.884,25.114"/>
	<path fill="#FFFFFF" d="M22.03,25.112c-0.058,0.002-0.099,0.027-0.128,0.075c-0.027,0.046-0.037,0.119-0.033,0.218
		c0.004,0.108,0.021,0.187,0.053,0.23c0.031,0.047,0.074,0.07,0.132,0.068c0.058-0.004,0.101-0.029,0.132-0.072
		c0.027-0.045,0.041-0.122,0.035-0.229c-0.004-0.098-0.021-0.175-0.054-0.223C22.139,25.132,22.094,25.109,22.03,25.112"/>
	<path fill="#FFFFFF" d="M37.002,25.144c-0.243-0.292-0.879-0.147-0.879-0.147c0.344-1.02-0.599-1.292-0.599-1.292
		c-0.338-0.089-0.56-0.025-0.704,0.074c-0.002,0.002-0.006,0.004-0.01,0.006c-0.002,0.002-0.004,0.004-0.006,0.007
		c-0.025,0.019-0.047,0.034-0.068,0.055c-0.084,0.09-0.138,0.206-0.138,0.34c0,0.27,0.222,0.489,0.492,0.489
		c0.105,0,0.2-0.033,0.28-0.089c0.097-0.069,0.169-0.172,0.198-0.291c0.128,0.084,0.179,0.23,0.179,0.23
		c0.274,0.869-0.706,1.18-0.706,1.18c-2.154,0.647-3.476-0.466-3.476-0.466l0.375-0.203c0.13-0.057,0.249-0.075,0.342-0.075
		c-0.002,0.019-0.004,0.041-0.004,0.064c0,0.234,0.19,0.424,0.426,0.424c0.237,0,0.428-0.189,0.428-0.424
		c0-0.079-0.021-0.151-0.056-0.212l0.004-0.001c-0.02-0.03-0.033-0.047-0.033-0.047c-0.255-0.383-1.124-0.13-1.124-0.13
		c0.29-0.715,0.031-1.231,0.031-1.231c-0.159-0.264-0.13-0.361-0.13-0.361c0-0.255-0.062-0.278-0.062-0.278
		c-0.128-0.18-0.365-0.084-0.365-0.084c-0.35,0.076-0.426-0.066-0.426-0.066c-0.29-0.204-0.418-0.08-0.418-0.08
		c-0.124,0.085,0.049,0.301,0.049,0.301c-0.311,0-0.402,0.396-0.402,0.396c-0.128,0.655,0.416,0.71,0.416,0.71
		c0.387,0.02,0.395-0.296,0.395-0.296c0.047-0.302-0.383-0.32-0.383-0.32c0.074-0.179,0.202-0.175,0.202-0.175
		c0.453-0.112,0.661,0.398,0.661,0.398c0.36,0.573-0.105,1.113-0.105,1.113c-0.074,0.08-0.148,0.031-0.148,0.031
		c-0.255-0.108-0.622-0.38-0.622-0.38c-0.012-0.008-0.021-0.016-0.035-0.022H30.43c-0.167,0-0.348,0.055-0.47,0.102
		c0.175,0.185,0.743,0.663,0.743,0.663c-0.428,0.332-0.673,0.102-0.673,0.102c-0.204-0.22-0.156-0.594-0.126-0.745
		c-0.016,0.008-0.033,0.015-0.045,0.021c-0.196,0.086-0.397,0.166-0.597,0.246c0.202,0.348,0.523,0.879,0.523,0.879
		c-0.494,0.181-0.601-0.481-0.624-0.841c-0.095,0.037-0.192,0.075-0.288,0.11c0.023,0.08,0.025,0.14,0.025,0.14
		c0.033,0.366,0.364,0.804,0.364,0.804c-0.352-0.075-0.568,0.154-0.568,0.154c-0.222,0.19-0.22,0.447-0.204,0.549
		c0.008,0.131,0.115,0.236,0.249,0.236c0.136,0,0.249-0.112,0.249-0.251c0-0.134-0.105-0.243-0.239-0.251
		c0.111-0.271,0.371-0.054,0.371-0.054c0.379,0.343-0.216,0.729-0.216,0.729c-0.428,0.285-0.834-0.261-0.834-0.261
		c0.451-0.796,0.535-1.352,0.517-1.697c-0.152,0.054-0.309,0.104-0.465,0.154c0.214,0.717-0.288,1.129-0.288,1.129
		c-0.142-0.098-0.163-0.484-0.163-0.484c-0.043-0.166-0.093-0.323-0.146-0.469c-0.136,0.038-0.27,0.073-0.406,0.109
		c0.152,0.45,0.216,1.11,0.216,1.11c-0.08,0.094-0.323,0.119-0.323,0.119c-0.35,0.03-0.167-0.165-0.167-0.165
		c0.175-0.149,0.138-0.257,0.138-0.257c-0.105-0.24-0.488-0.017-0.488-0.017c-0.513,0.285-0.36,0.586-0.36,0.586
		c0.064,0.186,0.581,0.365,0.581,0.365c-0.278,0.213-0.814,0.126-0.881,0.112c-0.016-0.149-0.123-0.27-0.264-0.308
		c-0.021-0.006-0.035-0.01-0.035-0.01c-0.187-0.019-0.284,0.061-0.332,0.135c-0.027,0.034-0.047,0.071-0.062,0.112l-0.315-0.068
		c-0.222-0.032-0.344-0.663-0.412-1.213c-0.087,0.011-0.175,0.022-0.264,0.032c0.084,0.587,0.194,1.11,0.194,1.11
		c-0.111,0-0.573-0.323-0.573-0.323c-0.579-0.351-0.976-0.24-0.989-0.233c-0.29,0.051-0.509,0.306-0.509,0.609
		c0,0.342,0.278,0.621,0.62,0.621c0.334,0,0.609-0.269,0.618-0.604c0.22,0.105,0.42,0.229,0.42,0.229
		c0.556,0.37,1.079,0.412,1.221,0.413c0.039,0.21,0.222,0.363,0.441,0.363c0.167,0,0.319-0.093,0.393-0.235
		c1.186-0.04,1.621-0.565,1.621-0.565c0.126-0.164,0.154-0.067,0.154-0.067c0.435,0.63,1.277,0.246,1.277,0.246
		c0.163-0.08,0.198,0.025,0.198,0.025c0.171,0.271,0.432,0.127,0.432,0.127c0.334-0.171,0.138-0.381,0.138-0.381
		c-0.111-0.117,0.025-0.112,0.025-0.112c0.395,0.059,0.474-0.169,0.474-0.169c0.082-0.18-0.202-0.336-0.202-0.336
		c-0.08-0.099,0.074-0.179,0.074-0.179c0.233-0.135,0.196-0.272,0.196-0.272c0.295,0.004,0.274-0.129,0.274-0.129
		c0.006-0.119-0.365-0.113-0.365-0.113c-0.292-0.03-0.229-0.18-0.229-0.18c0.433-0.017,1.087-0.208,1.087-0.208
		c0.956,0.779,2.377,0.966,2.377,0.966c0.027,0.141-0.021,0.338-0.027,0.362c-0.01-0.002-0.018-0.002-0.027-0.002
		c-0.123,0-0.226,0.1-0.226,0.227c0,0.122,0.103,0.225,0.226,0.225c0.023,0,0.064-0.01,0.064-0.01
		c0.457-0.122,0.492-0.791,0.492-0.791c1.297,0.124,2.181-0.853,2.181-0.853c0.128-0.109,0.189-0.076,0.216-0.041
		c0.002,0,0.002,0,0.006,0.004c0.066,0.084,0.169,0.136,0.286,0.136c0.124,0,0.237-0.064,0.303-0.158
		c0.043-0.078,0.062-0.149,0.066-0.207V25.39v-0.004C37.082,25.237,37.002,25.144,37.002,25.144"/>
	<path fill="#FFFFFF" d="M12.892,23.807l-0.093,0.258l0.031,0.012c0.052,0.019,0.091,0.02,0.115,0.002
		c0.027-0.017,0.047-0.043,0.06-0.08c0.012-0.033,0.016-0.062,0.012-0.089c-0.006-0.023-0.018-0.044-0.035-0.057
		C12.966,23.839,12.935,23.822,12.892,23.807"/>
	<path fill="#FFFFFF" d="M19.808,20.931c0.111,0.039,0.222,0.091,0.325,0.154v-2.503l-0.325,0.246V20.931z"/>
	<path fill="#FFFFFF" d="M29.187,23.299c-0.091,0-0.161,0.027-0.161,0.027c-0.319,0.085-3.283,1.392-8.188,1.396
		c-4.906-0.004-7.871-1.311-8.19-1.396c0,0-0.068-0.027-0.161-0.027c-0.089,0-0.171,0.023-0.239,0.071l-1.005,0.789h0.006
		c0.294,0,0.618,0.155,0.628,0.158c2.616,1.146,5.612,1.615,8.961,1.647c3.349-0.032,6.345-0.502,8.957-1.647
		c0.014-0.004,0.338-0.158,0.632-0.158h0.002l-1.003-0.789C29.361,23.322,29.275,23.299,29.187,23.299 M19.872,24.84l0.21,0.01
		l-0.245,0.155h-0.047L19.872,24.84z M13.189,24.062c-0.014,0.045-0.043,0.076-0.08,0.096c-0.037,0.022-0.078,0.028-0.123,0.024
		c-0.043-0.004-0.095-0.021-0.161-0.043l-0.049-0.017l-0.058,0.155c-0.01,0.029-0.012,0.052-0.006,0.069
		c0.006,0.013,0.025,0.03,0.056,0.04l0.014,0.006l-0.018,0.052l-0.358-0.13l0.019-0.053l0.012,0.004
		c0.033,0.013,0.058,0.015,0.072,0.007c0.014-0.009,0.027-0.028,0.037-0.058l0.142-0.39c0.012-0.027,0.016-0.051,0.008-0.067
		c-0.006-0.016-0.025-0.027-0.056-0.04l-0.014-0.009l0.018-0.052l0.268,0.09c0.066,0.026,0.117,0.047,0.152,0.064
		c0.035,0.015,0.066,0.039,0.089,0.064c0.025,0.03,0.039,0.057,0.045,0.091C13.205,23.997,13.203,24.031,13.189,24.062 M14,24.491
		c-0.033,0.095-0.089,0.163-0.177,0.209c-0.087,0.047-0.189,0.051-0.303,0.016c-0.078-0.024-0.142-0.063-0.192-0.115
		c-0.051-0.052-0.078-0.11-0.087-0.174c-0.008-0.065-0.002-0.124,0.016-0.179c0.018-0.06,0.053-0.114,0.105-0.158
		c0.051-0.048,0.109-0.077,0.177-0.085c0.064-0.011,0.13-0.004,0.194,0.018c0.119,0.035,0.2,0.1,0.245,0.188
		C14.021,24.301,14.029,24.393,14,24.491 M14.706,24.838c0.021,0.073,0.041,0.116,0.054,0.135c0.014,0.017,0.031,0.03,0.05,0.033
		l-0.014,0.056l-0.212-0.057c-0.014-0.026-0.033-0.094-0.062-0.202c-0.012-0.053-0.021-0.089-0.029-0.107
		c-0.006-0.016-0.016-0.026-0.025-0.035c-0.01-0.007-0.035-0.017-0.072-0.023l-0.043,0.157c-0.008,0.031-0.01,0.056,0,0.07
		c0.004,0.016,0.025,0.028,0.062,0.036l0.008,0.003l-0.012,0.056l-0.365-0.098l0.014-0.055l0.016,0.005
		c0.033,0.008,0.054,0.008,0.07-0.004c0.014-0.009,0.025-0.028,0.031-0.058l0.107-0.399c0.008-0.034,0.01-0.053,0.004-0.071
		c-0.012-0.015-0.029-0.024-0.062-0.034l-0.014-0.006l0.016-0.054l0.27,0.074l0.062,0.015c0.06,0.017,0.103,0.028,0.128,0.039
		c0.027,0.013,0.052,0.03,0.074,0.051c0.025,0.023,0.041,0.05,0.049,0.08c0.01,0.033,0.01,0.063,0,0.09
		c-0.021,0.082-0.082,0.125-0.181,0.129C14.649,24.685,14.674,24.743,14.706,24.838 M15.852,25.298l-0.624-0.136l0.014-0.053h0.01
		c0.035,0.008,0.058,0.008,0.072-0.004c0.012-0.009,0.019-0.029,0.027-0.06l0.087-0.404c0.006-0.031,0.006-0.053-0.002-0.071
		c-0.01-0.015-0.029-0.023-0.064-0.034l-0.01-0.001l0.012-0.053l0.367,0.078l-0.014,0.053l-0.012-0.002
		c-0.035-0.005-0.058-0.005-0.074,0.006c-0.01,0.01-0.02,0.029-0.027,0.061l-0.08,0.391c-0.008,0.03-0.01,0.049-0.01,0.062
		c0.002,0.007,0.01,0.017,0.019,0.025c0.014,0.012,0.037,0.02,0.074,0.027c0.06,0.014,0.107,0.008,0.144-0.016
		c0.037-0.022,0.064-0.058,0.085-0.11l0.056,0.013L15.852,25.298z M16.62,25.437l-0.342-0.062l0.012-0.057
		c0.029,0.006,0.049,0.006,0.056,0.003c0.01-0.006,0.016-0.012,0.016-0.02c0.002-0.009,0.002-0.021-0.002-0.036l-0.004-0.015
		l-0.012-0.053l-0.21-0.041l-0.019,0.033c-0.016,0.023-0.023,0.039-0.025,0.049c-0.004,0.017,0,0.027,0.01,0.037
		c0.012,0.009,0.029,0.016,0.054,0.02l-0.01,0.056l-0.227-0.041l0.01-0.055c0.043,0.01,0.086-0.022,0.128-0.093l0.309-0.495
		l0.058,0.012l0.121,0.572c0.01,0.058,0.025,0.093,0.041,0.106c0.014,0.013,0.031,0.022,0.047,0.024L16.62,25.437z M17.798,25.603
		l-0.216-0.03c-0.018-0.024-0.047-0.089-0.087-0.193c-0.018-0.053-0.035-0.086-0.043-0.101c-0.012-0.016-0.021-0.025-0.031-0.029
		c-0.01-0.008-0.035-0.013-0.076-0.018l-0.019,0.165c-0.002,0.031-0.002,0.053,0.008,0.067c0.008,0.016,0.031,0.025,0.064,0.03
		h0.014l-0.008,0.057l-0.375-0.049l0.008-0.06l0.014,0.002c0.035,0.006,0.058,0,0.07-0.009c0.014-0.011,0.021-0.033,0.025-0.062
		l0.054-0.41c0.002-0.031,0-0.056-0.008-0.069c-0.01-0.015-0.031-0.024-0.064-0.028l-0.014-0.002l0.006-0.056l0.28,0.037
		l0.062,0.008c0.062,0.007,0.107,0.016,0.136,0.025c0.025,0.008,0.053,0.02,0.078,0.04c0.027,0.018,0.045,0.044,0.058,0.071
		c0.012,0.03,0.016,0.058,0.012,0.091c-0.012,0.081-0.064,0.132-0.163,0.15c0.023,0.02,0.054,0.075,0.095,0.161
		c0.035,0.071,0.058,0.116,0.072,0.128c0.017,0.015,0.037,0.025,0.056,0.025L17.798,25.603z M18.566,25.68l-0.346-0.034l0.006-0.055
		c0.031,0.002,0.051,0.002,0.058-0.003c0.008-0.006,0.014-0.015,0.014-0.023c0.002-0.009,0-0.02-0.006-0.035l-0.006-0.015
		l-0.014-0.053l-0.214-0.021l-0.019,0.032c-0.01,0.026-0.016,0.041-0.018,0.051c0,0.016,0.004,0.028,0.014,0.035
		c0.01,0.008,0.029,0.014,0.054,0.015l-0.006,0.058l-0.229-0.022l0.006-0.057c0.045,0.004,0.085-0.028,0.122-0.1l0.266-0.519
		l0.062,0.006l0.163,0.564c0.016,0.053,0.031,0.088,0.049,0.101c0.016,0.014,0.033,0.019,0.049,0.021L18.566,25.68z M19.318,25.081
		l-0.439,0.561l0.161,0.012c0.045,0.001,0.078,0.001,0.101-0.006c0.019-0.006,0.043-0.022,0.06-0.041
		c0.018-0.019,0.035-0.049,0.049-0.087l0.06,0.005l-0.029,0.208l-0.626-0.047l0.002-0.045l0.433-0.563l-0.113-0.01
		c-0.072-0.005-0.121,0-0.146,0.016c-0.023,0.013-0.045,0.045-0.068,0.096l-0.052-0.006l0.023-0.185l0.587,0.044L19.318,25.081z
		 M20.15,25.68c-0.074,0.067-0.167,0.096-0.288,0.091c-0.084-0.001-0.155-0.021-0.218-0.058c-0.062-0.039-0.105-0.087-0.128-0.147
		c-0.025-0.059-0.035-0.117-0.033-0.172c0.002-0.067,0.021-0.124,0.058-0.183c0.039-0.062,0.087-0.103,0.148-0.126
		c0.06-0.03,0.126-0.039,0.194-0.039c0.124,0.007,0.22,0.044,0.286,0.119c0.066,0.072,0.099,0.162,0.097,0.266
		C20.261,25.527,20.222,25.611,20.15,25.68 M21.177,25.138c-0.019,0-0.033,0.006-0.051,0.011c-0.016,0.011-0.025,0.024-0.029,0.039
		c-0.008,0.018-0.01,0.038-0.01,0.068l-0.002,0.535h-0.068l-0.451-0.513v0.321c-0.002,0.052,0.008,0.085,0.025,0.099
		c0.02,0.016,0.045,0.022,0.072,0.022v0.056h-0.26V25.72c0.021,0,0.041-0.005,0.056-0.015c0.018-0.014,0.029-0.025,0.031-0.038
		c0.004-0.016,0.01-0.037,0.01-0.069l0.002-0.357c0-0.072-0.035-0.107-0.101-0.107v-0.059l0.237,0.004l0.381,0.428l0.002-0.256
		c0-0.076-0.033-0.115-0.097-0.115v-0.057l0.253,0.002V25.138z M22.341,25.652c-0.068,0.074-0.161,0.112-0.28,0.119
		c-0.084,0.001-0.157-0.011-0.22-0.045c-0.066-0.031-0.111-0.078-0.142-0.133c-0.029-0.059-0.047-0.116-0.049-0.174
		c0-0.061,0.014-0.122,0.047-0.186c0.033-0.061,0.078-0.107,0.136-0.137c0.06-0.033,0.122-0.05,0.19-0.051
		c0.124-0.007,0.224,0.025,0.295,0.094c0.072,0.069,0.111,0.155,0.115,0.258C22.438,25.493,22.409,25.58,22.341,25.652
		 M22.934,25.708L22.93,25.65l0.008-0.002c0.035-0.002,0.058-0.011,0.068-0.022c0.01-0.017,0.012-0.038,0.01-0.07l-0.037-0.411
		c-0.002-0.032-0.01-0.054-0.021-0.065c-0.01-0.012-0.035-0.017-0.07-0.015l-0.01,0.003l-0.004-0.057l0.373-0.033l0.006,0.057
		l-0.014,0.001c-0.035,0.002-0.058,0.013-0.066,0.025c-0.01,0.015-0.014,0.037-0.01,0.069l0.035,0.396
		c0.002,0.03,0.004,0.051,0.008,0.06c0.006,0.009,0.014,0.017,0.031,0.021c0.014,0.008,0.039,0.008,0.076,0.004
		c0.06-0.004,0.105-0.023,0.134-0.057c0.025-0.033,0.045-0.077,0.052-0.128l0.052-0.005l0.018,0.231L22.934,25.708z M24.003,25.603
		l-0.006-0.054c0.031-0.005,0.051-0.01,0.056-0.019c0.006-0.006,0.008-0.013,0.008-0.022c0-0.007-0.006-0.018-0.012-0.03
		l-0.008-0.016l-0.025-0.05l-0.214,0.025l-0.01,0.035c-0.008,0.028-0.012,0.045-0.01,0.053c0.002,0.018,0.01,0.028,0.021,0.033
		c0.01,0.006,0.029,0.006,0.054,0.005l0.01,0.054l-0.231,0.028l-0.004-0.055c0.043-0.007,0.074-0.047,0.093-0.125l0.156-0.564
		l0.058-0.008l0.28,0.513c0.029,0.049,0.051,0.082,0.068,0.091c0.019,0.008,0.037,0.009,0.052,0.009l0.008,0.056L24.003,25.603z
		 M25.206,24.913c-0.014-0.03-0.029-0.053-0.045-0.071c-0.016-0.017-0.033-0.028-0.049-0.03c-0.014-0.005-0.037-0.004-0.066,0.002
		l-0.111,0.017l0.037,0.239l0.054-0.009c0.025-0.006,0.045-0.013,0.052-0.026c0.01-0.012,0.012-0.035,0.008-0.07l0.056-0.011
		l0.037,0.238l-0.054,0.009c-0.008-0.036-0.018-0.061-0.031-0.068c-0.012-0.012-0.031-0.016-0.056-0.009l-0.054,0.009l0.029,0.188
		c0.006,0.029,0.014,0.052,0.027,0.063c0.012,0.011,0.037,0.014,0.072,0.007l0.014-0.001l0.01,0.054l-0.373,0.062l-0.008-0.058
		l0.01-0.004c0.035-0.002,0.054-0.013,0.064-0.027c0.008-0.015,0.008-0.037,0.004-0.067l-0.066-0.411
		c-0.004-0.032-0.012-0.05-0.025-0.061c-0.012-0.012-0.037-0.015-0.07-0.01l-0.014,0.002l-0.008-0.055l0.579-0.092l0.033,0.183
		L25.206,24.913z M26.017,24.741l0.045,0.23c0.012,0.049,0.016,0.089,0.016,0.123c0,0.031-0.01,0.062-0.029,0.097
		c-0.016,0.034-0.045,0.065-0.082,0.086c-0.037,0.029-0.084,0.045-0.134,0.057c-0.053,0.009-0.101,0.01-0.148,0
		c-0.045-0.009-0.08-0.023-0.109-0.047c-0.025-0.023-0.047-0.05-0.062-0.078c-0.016-0.029-0.023-0.065-0.033-0.107l-0.054-0.274
		c-0.004-0.031-0.016-0.052-0.029-0.063c-0.012-0.009-0.037-0.009-0.074-0.002l-0.012-0.054l0.362-0.073l0.012,0.057l-0.012,0.001
		c-0.035,0.007-0.054,0.017-0.062,0.03c-0.01,0.017-0.01,0.039-0.002,0.069l0.051,0.272c0.012,0.049,0.021,0.085,0.037,0.114
		c0.014,0.026,0.035,0.048,0.066,0.06c0.033,0.018,0.068,0.021,0.105,0.012c0.043-0.005,0.074-0.024,0.099-0.052
		c0.025-0.027,0.039-0.054,0.043-0.088c0.002-0.031-0.002-0.077-0.01-0.131l-0.047-0.229c-0.014-0.071-0.056-0.099-0.122-0.086
		l-0.012-0.055l0.255-0.05l0.012,0.055c-0.016,0.003-0.031,0.01-0.045,0.022c-0.014,0.011-0.023,0.023-0.023,0.041
		C26.011,24.695,26.011,24.714,26.017,24.741 M26.336,25.218l-0.014-0.056l0.014-0.003c0.031-0.01,0.051-0.019,0.06-0.033
		c0.008-0.018,0.008-0.037,0.002-0.071l-0.097-0.402c-0.008-0.034-0.018-0.051-0.031-0.06c-0.014-0.011-0.037-0.011-0.07-0.004
		l-0.014,0.004l-0.012-0.057l0.579-0.134l0.053,0.174l-0.054,0.014c-0.019-0.028-0.037-0.054-0.053-0.068
		c-0.016-0.014-0.031-0.023-0.047-0.025c-0.012-0.002-0.035,0-0.064,0.008l-0.128,0.029l0.056,0.235l0.062-0.014
		c0.029-0.009,0.047-0.018,0.056-0.03c0.006-0.015,0.008-0.039,0-0.073l0.058-0.013l0.054,0.231l-0.056,0.012
		c-0.002-0.004-0.002-0.007-0.002-0.01c-0.004-0.019-0.014-0.034-0.025-0.049c-0.012-0.015-0.035-0.018-0.07-0.009l-0.064,0.015
		l0.039,0.17c0.01,0.032,0.014,0.051,0.021,0.058c0.006,0.011,0.016,0.018,0.035,0.018c0.018,0.004,0.043,0,0.078-0.006
		c0.041-0.013,0.074-0.023,0.093-0.039c0.018-0.019,0.031-0.041,0.041-0.072c0.012-0.032,0.016-0.065,0.016-0.099l0.056-0.015
		l0.049,0.226L26.336,25.218z M27.634,24.89c-0.025-0.019-0.078-0.067-0.155-0.147c-0.039-0.039-0.066-0.064-0.08-0.076
		c-0.016-0.009-0.029-0.015-0.041-0.017c-0.012,0-0.037,0.004-0.074,0.015l0.047,0.159c0.006,0.03,0.018,0.052,0.031,0.06
		c0.016,0.009,0.037,0.009,0.072,0l0.01-0.004l0.018,0.055l-0.364,0.099l-0.016-0.054l0.014-0.002c0.033-0.01,0.052-0.02,0.06-0.038
		c0.006-0.015,0.006-0.037-0.002-0.067l-0.113-0.398c-0.01-0.033-0.018-0.052-0.033-0.061c-0.014-0.01-0.035-0.01-0.068,0
		l-0.016,0.001l-0.016-0.054l0.27-0.075l0.06-0.017c0.06-0.015,0.105-0.028,0.134-0.031c0.029-0.004,0.06,0,0.089,0.007
		c0.031,0.007,0.058,0.023,0.082,0.045c0.021,0.021,0.037,0.049,0.043,0.076c0.025,0.08-0.006,0.149-0.087,0.202
		c0.027,0.011,0.08,0.049,0.152,0.114c0.056,0.051,0.095,0.08,0.117,0.088c0.021,0.007,0.041,0.009,0.06,0.002l0.016,0.055
		L27.634,24.89z M27.961,24.792l-0.012-0.043l0.189-0.686l-0.107,0.035c-0.07,0.024-0.113,0.045-0.13,0.064
		c-0.02,0.023-0.027,0.062-0.025,0.118l-0.054,0.02l-0.047-0.184l0.56-0.182l0.014,0.045l-0.192,0.685l0.154-0.051
		c0.043-0.013,0.074-0.027,0.089-0.041c0.019-0.015,0.031-0.038,0.041-0.06c0.01-0.027,0.014-0.06,0.014-0.099l0.054-0.017
		l0.054,0.2L27.961,24.792z M29.011,24.432l-0.021-0.052c0.031-0.013,0.047-0.021,0.053-0.028c0.004-0.01,0.006-0.02,0.002-0.029
		c-0.004-0.007-0.01-0.015-0.019-0.024l-0.012-0.014l-0.037-0.042l-0.2,0.075l-0.002,0.039c0,0.026,0.002,0.045,0.004,0.051
		c0.006,0.02,0.018,0.026,0.029,0.03c0.014,0,0.031-0.002,0.056-0.011l0.019,0.053l-0.216,0.082l-0.019-0.052
		c0.041-0.017,0.06-0.067,0.064-0.147l0.008-0.582l0.058-0.021l0.397,0.428c0.037,0.045,0.068,0.068,0.087,0.072
		c0.021,0.002,0.037,0.002,0.054-0.004l0.019,0.053L29.011,24.432z"/>
	<polygon fill="#FFFFFF" points="28.773,24.258 28.933,24.196 28.777,24.032 	"/>
	<path fill="#FFFFFF" d="M27.502,10.427c0.039-0.012-0.019-0.201,0.169-0.215c0.169-0.009,0.424,0.139,0.455,0.3
		c0.039,0.184-0.113,0.63,0.474,0.696c0,0-0.006,0.091-0.014,0.187h-0.002c-0.01,0.104-0.035,0.214-0.084,0.31
		c0.037-0.002,0.072-0.002,0.109,0c0.785,0.037,1.227-0.024,1.452-0.26c0,0,0.134-0.145,0.204-0.285
		c0.198-0.411,0.227-0.78,0.123-1.083h-0.002c-0.008-0.019-0.014-0.04-0.021-0.059c-0.014-0.037-0.031-0.072-0.05-0.106
		c-0.177-0.311-0.634-0.71-1.201-0.898c-0.037-0.01-0.076-0.016-0.117-0.016c-0.006,0-0.01-0.004-0.01-0.008
		c0-0.002,0.01-0.007,0.023-0.009L29.009,8.98h0.002c0.016-0.004,0.124,0.004,0.124,0.004c0.422,0.05,1.135,0.469,1.277,0.894
		c0.138-0.083,0.259-0.323,0.28-0.528h0.002c0.012-0.038-0.018-0.295,0.091-0.521c0.033-0.068,0-0.146-0.058-0.176
		c-0.058-0.027-0.136-0.002-0.169,0.065c-0.105,0.217-0.354,0.098-0.249-0.12c0.033-0.071,0-0.147-0.056-0.176
		c-0.06-0.027-0.138-0.005-0.171,0.062c-0.101,0.211-0.34,0.094-0.243-0.115c0.033-0.068,0.002-0.147-0.054-0.175
		c-0.058-0.028-0.14-0.005-0.173,0.064c-0.103,0.218-0.35,0.096-0.247-0.122c0.031-0.069,0-0.147-0.058-0.176
		c-0.058-0.025-0.138-0.004-0.169,0.065c-0.08,0.161-0.14,0.256-0.21,0.33c0.472,0.095,0.966,0.351,1.285,0.68
		c0,0,0.13,0.145,0.144,0.173c0,0.002,0.002,0.002,0.004,0.006c0,0-0.002,0-0.004-0.004c0.012,0.023,0.018,0.042,0.014,0.048
		c-0.004,0.006-0.014,0.002-0.016-0.004c-0.047-0.059-0.099-0.109-0.15-0.147c-0.525-0.438-0.986-0.621-1.361-0.672
		c-0.255,0.029-0.181,0.312-0.154,0.498c-0.426-0.092-0.748,0.223-0.776,0.517c0,0.11,0.023,0.223,0.082,0.347
		C28,9.805,27.998,9.818,27.992,9.82c-0.018,0.009-0.08-0.041-0.113-0.128c-0.027-0.064-0.045-0.14-0.054-0.216
		c-0.348,0.019-0.665,0.203-0.64,0.521C27.199,10.189,27.419,10.422,27.502,10.427 M28.723,9.942
		c0.089-0.107,0.12,0.356,0.482,0.223C28.945,10.476,28.599,10.155,28.723,9.942 M28.698,9.713c0.138-0.084,0.26-0.361,0.472-0.226
		c0.099,0.054,0.196,0.156,0.305,0.236c0.111,0.08,0.233,0.148,0.284,0.248c0.062,0.126-0.103,0.425-0.294,0.158
		c-0.122-0.198-0.299-0.559-0.577-0.417c-0.227,0.114-0.383,0.277-0.441,0.123C28.429,9.758,28.61,9.76,28.698,9.713 M27.706,9.771
		c-0.06,0.13-0.249,0.13-0.274,0.295C27.279,9.925,27.568,9.607,27.706,9.771"/>
	<path fill="#FFFFFF" d="M27.347,24.336c-0.025-0.012-0.066-0.009-0.122,0.005c-0.008,0.003-0.016,0.009-0.025,0.011l0.068,0.254
		c0.058-0.016,0.093-0.03,0.111-0.043c0.018-0.014,0.031-0.03,0.037-0.052c0.004-0.025,0.004-0.05-0.006-0.084
		C27.395,24.378,27.374,24.351,27.347,24.336"/>
	<path fill="#FFFFFF" d="M21.394,26.81c0.122-0.06,0.148-0.202,0.148-0.202c0.025-0.354-0.233-0.515-0.239-0.519
		c-0.154,0.004-0.307,0.007-0.465,0.009l0,0h-0.002c-0.155-0.002-0.309-0.005-0.465-0.009c-0.006,0.004-0.262,0.165-0.239,0.519
		c0,0,0.025,0.142,0.148,0.202c0,0-0.327,0.139-0.33,0.364c0,0-0.039,0.169,0.251,0.402c0,0,0.212,0.236,0.272,0.416
		c0,0,0.018,0.251,0.365,0.251c0.346,0,0.363-0.251,0.363-0.251c0.062-0.18,0.272-0.416,0.272-0.416
		c0.29-0.233,0.255-0.402,0.255-0.402C21.721,26.949,21.394,26.81,21.394,26.81"/>
	<path fill="#FFFFFF" d="M15.534,9.875c0.589,0.327,1.343,0.282,1.611,0.24c0.144-0.032,0.297-0.081,0.457-0.191
		c0.021-0.014,0.041-0.028,0.06-0.043c0.008-0.008,0.016-0.015,0.025-0.021c0.237-0.205,0.379-0.522,0.361-0.935
		C18.047,8.916,18.057,8.9,18.067,8.9c0.027,0,0.062,0.11,0.06,0.251c-0.002,0.162-0.039,0.35-0.105,0.509
		c0,0.023,0.002,0.052,0.004,0.079c0.01,0.06,0.031,0.121,0.066,0.162c0.113,0.123,0.391,0.164,0.61,0.078
		c0.01-0.006,0.025-0.004,0.025,0.005c0.002,0.03-0.146,0.184-0.416,0.184c-0.052,0-0.109-0.003-0.165-0.017
		c0.152,0.252,0.571,0.431,1.003,0.404c0.008-0.002,0.025,0.007,0.025,0.017c0,0.026-0.107,0.063-0.251,0.063
		c-0.198,0-0.437-0.049-0.616-0.141c0.206,0.251,0.562,0.474,1.168,0.56c0.018,0.07-0.457,0.016-0.593-0.032
		c0.28,1.097,0.869,0.972,0.879,1.048c-0.173,0.057-0.295,0.268-0.171,0.506c0.624-0.224,1.087-0.241,1.227-0.241
		c0.14,0,0.62,0.02,1.258,0.253c0.07-0.094,0.072-0.191,0.037-0.285c-0.093-0.273-0.939-0.487-1.732-0.256
		c-0.033,0.013-0.068,0.032-0.103,0.055c-0.002,0.003-0.008,0.003-0.01-0.002c-0.002-0.004,0.002-0.011,0.012-0.021l0,0
		c0.012-0.015,0.103-0.067,0.103-0.067c0.348-0.184,1.067-0.253,1.462-0.055c0.002,0,0.002-0.002,0.006,0
		c0.338,0.149,0.638-0.265,0.531-0.48c0.249,0.017,0.437-0.14,0.453-0.388c-0.053,0.028-0.093,0.049-0.13,0.064v0.001
		c-0.087,0.045-0.173,0.049-0.183,0.036c-0.002-0.003,0-0.009,0-0.012h-0.002c0.002,0,0.004-0.003,0.006-0.003
		c0.002-0.001,0.004-0.003,0.006-0.003c0.037-0.018,0.072-0.035,0.105-0.053c0.465-0.267,0.686-0.79,0.641-0.952
		c-0.041,0.093-0.185,0.173-0.323,0.175c-0.074,0.005-0.119-0.01-0.121-0.02c-0.002-0.01,0.008-0.016,0.016-0.016
		c0.056-0.005,0.105-0.031,0.156-0.064c0.163-0.117,0.311-0.332,0.383-0.508c-0.288-0.274-0.389-0.597-0.554-1.024
		c-0.062-0.157-0.198-0.325-0.397-0.339c-0.012,0-0.066-0.003-0.084,0c-0.025,0.001-0.049,0.008-0.072,0.013
		c-0.004,0.002-0.012,0-0.014-0.004c0.22-0.184,0.463,0.015,0.605,0.096c0.023-0.407,0.169-0.51,0.183-0.505
		c0.006,0.002,0.006,0.017,0.002,0.018c-0.28,0.835,0.272,1.626,0.711,1.883c0.581,0.312,1.637,0.359,2.338-0.238h-0.002
		c-0.126,0.038-0.259,0.059-0.379,0.061c-0.14,0.005-0.249-0.029-0.251-0.055c0-0.011,0.016-0.02,0.025-0.018
		c0.095,0.004,0.183-0.002,0.262-0.013c1.007-0.261,1.048-1.504,0.881-1.583c-0.006,0.011-0.01,0.008-0.016-0.011
		c-0.023,0.076-0.053,0.15-0.084,0.215c-0.062,0.128-0.144,0.207-0.165,0.198c-0.01-0.005-0.01-0.022-0.006-0.03
		c0.222-0.387,0.214-0.689,0.099-1.066c-0.078-0.202-0.196-0.404-0.389-0.541c-0.509-0.355-1.528-0.416-2.08,0.015
		c-0.192-0.193-0.435-0.339-0.721-0.44c-0.07,0.312-0.412,0.728-0.713,0.941c-0.06,0.038-0.231,0.154-0.301,0.154
		c0,0-0.07-0.013-0.01-0.068c0.54-0.335,0.807-0.744,0.813-1.255v-0.01c-0.014-0.256-0.082-0.734-0.393-1.075
		c-0.49-0.537-1.816-0.608-2.422-0.102c-0.157,0.167-0.26,0.373-0.313,0.625c0.064-0.185,0.206-0.372,0.488-0.462
		c0.268-0.083,0.783-0.026,0.859,0.286c-0.455-0.466-1.281-0.122-1.396,0.67V6.059c-0.012,0.051-0.041,0.055-0.041,0.055h-0.002
		c-0.023-0.002-0.052-0.006-0.041-0.358c0.01-0.221,0.078-0.496,0.177-0.725c-1.017-0.183-2.235,0.314-2.214,1.828
		c0.016,0.211,0.089,0.409,0.286,0.635c0.037,0.043,0.008,0.062,0.008,0.062c-0.029,0.014-0.155-0.071-0.231-0.172
		c-0.101-0.138-0.19-0.322-0.233-0.5c-0.64-0.228-1.034-0.233-1.396-0.2c-0.373,0.036-0.867,0.367-1.04,0.595
		c-0.076,0.101-0.167,0.243-0.229,0.367c-0.124,0.241-0.216,0.552-0.183,0.903C14.812,9.141,15.104,9.64,15.534,9.875 M25.617,6.773
		c0.233,0.075,0.414,0.264,0.546,0.556c0.111,0.254,0.064,0.515-0.014,0.663c-0.002,0.006-0.006,0.006-0.014,0.004
		c-0.004-0.004-0.01-0.009-0.006-0.015c0.027-0.149-0.016-0.4-0.103-0.6c-0.049-0.11-0.152-0.295-0.311-0.34
		c0.097,0.141,0.165,0.257,0.206,0.355c0.06,0.135,0.062,0.213,0.064,0.277c0.008,0.295-0.136,0.629-0.272,0.753
		c-0.004,0-0.012,0-0.018-0.003c-0.006-0.004-0.006-0.011-0.004-0.016c0.154-0.358,0.165-0.67,0.039-0.953
		c-0.012-0.026-0.027-0.056-0.045-0.086c-0.111-0.2-0.301-0.432-0.589-0.423c0.138,0.096,0.255,0.241,0.332,0.417
		c0.165,0.376,0.132,0.804-0.072,0.976c-0.006,0.002-0.012,0.002-0.016,0c-0.004-0.006-0.006-0.011-0.006-0.014
		c0-0.052,0.006-0.106,0.014-0.156c0.012-0.123,0.012-0.25-0.018-0.392c-0.155-0.66-0.7-0.892-1.093-0.503
		C24.24,7.274,24.664,6.484,25.617,6.773 M21.624,11.454c-0.087-0.041-0.091-0.217-0.08-0.298c0.033-0.217,0.286-0.317,0.4-0.435
		C21.972,10.719,21.956,11.067,21.624,11.454 M21.544,10.846c-0.126-0.223,0.21-0.501,0.286-0.72
		C22.238,10.063,21.723,10.784,21.544,10.846 M22.613,5.653c0.021,0.339-0.165,0.442-0.202,0.425
		c-0.012-0.004-0.016-0.027-0.01-0.04c0.093-0.226,0.056-0.583-0.119-0.791c-0.126-0.15-0.352-0.231-0.371-0.254
		C21.894,4.965,22.504,5.111,22.613,5.653 M21.704,8.948c0.294,0.123-0.148,0.716-0.183,0.827c0.068-0.031,0.305-0.288,0.402-0.21
		c0.152,0.126-0.313,0.737-0.435,0.779C20.831,9.487,21.67,9.233,21.704,8.948 M21.272,10.401c0.051,0.406,0.126,0.948-0.07,1.304
		c-0.105-0.03-0.047-0.218-0.047-0.299c0-0.461-0.012-0.906-0.126-1.291c-0.054-0.191-0.21-0.802-0.616-1.579
		C20.568,8.718,21.184,9.675,21.272,10.401 M18.529,8.337c0.303,0.477,1.091,1.121,2.08,1.389c0.336,0.094,0.498,1.171,0.227,1.706
		c-0.311,0.012-0.348-0.212-0.406-0.444c0.138,0.108,0.329,0.255,0.315,0.007c-0.117-0.1-0.811-0.28-0.63-0.584
		c0.115-0.164,0.488,0.501,0.595,0.278c0.064-0.447-1.332-0.588-1.291-0.973c0.008-0.207,1.098,0.533,1.256,0.515
		c-0.012-0.236-1.627-0.893-2.119-1.773c-0.035-0.064-0.052-0.119-0.043-0.126C18.519,8.327,18.527,8.332,18.529,8.337
		 M16.039,9.571c0.375-0.094,0.702-0.293,0.605-0.644c-0.025-0.099-0.113-0.18-0.253-0.193c-0.208-0.018-0.348,0.133-0.453,0.29
		c0.023-0.327,0.229-0.539,0.56-0.503c0.175,0.02,0.41,0.182,0.445,0.366C17.046,9.404,16.574,9.617,16.039,9.571 M16.084,7.122
		c0.457-0.168,0.927,0.012,1.168,0.248c0.75,0.738,0.338,1.776,0.111,1.833c0.157-0.432,0.237-1.083-0.441-1.251
		c-0.529-0.131-1.005,0.263-1.25,0.485c0.157-0.487,0.686-0.849,1.39-0.696c-0.146-0.405-0.669-0.576-1.275-0.241
		c-0.148,0.08-0.255,0.175-0.354,0.261C15.54,7.454,15.792,7.23,16.084,7.122"/>
	<polygon fill="#FFFFFF" points="23.815,25.374 23.986,25.355 23.877,25.157 	"/>
	<path fill="#FFFFFF" d="M19.272,20.796c0.097,0.015,0.208,0.036,0.321,0.066v-1.871l-0.321,0.246V20.796z"/>
	<path fill="#FFFFFF" d="M17.441,20.343v-2.941h0.212v3.075c0.097,0.052,0.204,0.1,0.325,0.142v-3.217h0.214v3.283
		c0.101,0.023,0.21,0.045,0.325,0.057v-3.341h0.218v3.357c0.045,0.001,0.089,0.006,0.136,0.006c0.027,0,0.093,0.002,0.187,0.007
		V19.4l-0.189,0.143l1.839-2.574l0.002,0.001l-0.002-0.002h0.002h-0.002l-0.663-0.971H17.68l3.025,0.972L19.6,17.374l-0.412-0.296
		h-1.833c-0.031,0.101-0.074,0.211-0.123,0.324c-0.035,0.081-0.074,0.162-0.117,0.248v2.397
		C17.184,20.128,17.289,20.236,17.441,20.343 M19.056,17.402h0.214v0.949l-0.214,0.636V17.402z"/>
	<path fill="#FFFFFF" d="M22.524,16.864h1.491c-0.031-0.122-0.049-0.229-0.06-0.324h-0.978L22.524,16.864z"/>
	<path fill="#FFFFFF" d="M20.347,21.241c0.101,0.09,0.192,0.195,0.262,0.324l0.016,0.026c0.012,0.02,0.029,0.044,0.045,0.074v-3.491
		l-0.323,0.246V21.241z"/>
	<polygon fill="#FFFFFF" points="18.086,25.382 18.255,25.4 18.189,25.183 	"/>
	<path fill="#FFFFFF" d="M20.708,16.969l1.802,2.545v1.264c0.126-0.011,0.22-0.013,0.253-0.013c0.025,0,0.049-0.005,0.072-0.005
		v-3.358h0.216v3.347c0.117-0.011,0.226-0.025,0.325-0.049v-3.299h0.214v3.242c0.121-0.038,0.228-0.082,0.325-0.129v-3.113h0.216
		v2.99c0.123-0.083,0.226-0.169,0.299-0.244c0.008-0.012,0.014-0.024,0.023-0.036v-2.215c-0.103-0.176-0.185-0.34-0.249-0.495
		h-0.002c-0.049-0.115-0.091-0.223-0.124-0.324h-1.851l-0.414,0.296l-0.807-0.296l-0.295-0.109l3.027-0.972h-2.366l-0.062-0.207
		h2.663c0.014-0.112,0.035-0.222,0.06-0.325h-2.821l-0.066-0.217h2.947c0.037-0.114,0.076-0.224,0.121-0.325h-3.165l-0.066-0.215
		h3.328c0.06-0.119,0.121-0.227,0.181-0.323h-3.606l-0.066-0.215h3.808c0.109-0.155,0.19-0.257,0.216-0.284
		c0.016-0.02,0.021-0.034,0.023-0.041h-4.144l-0.016-0.047v0.047v0.325v0.215v0.323v0.215v0.325v0.217v0.325v1.178v0.002
		L20.708,16.969z M22.298,17.402h0.212v2.029L22.298,18.8V17.402z"/>
	<path fill="#FFFFFF" d="M20.205,15.466h-2.766c0.021,0.103,0.039,0.211,0.047,0.324h2.62L20.205,15.466z"/>
	<path fill="#FFFFFF" d="M16.902,19.714v-1.636C16.774,18.392,16.581,19.066,16.902,19.714"/>
	<path fill="#FFFFFF" d="M18.891,26.454c-0.012-0.006-0.41-0.117-0.987,0.233c0,0-0.463,0.322-0.572,0.322
		c0,0,0.107-0.522,0.192-1.11c-0.089-0.009-0.177-0.019-0.262-0.031c-0.07,0.551-0.192,1.181-0.414,1.214l-0.317,0.066
		c-0.012-0.04-0.033-0.077-0.058-0.111c-0.051-0.074-0.148-0.154-0.334-0.134c0,0-0.014,0.003-0.033,0.009
		c-0.142,0.039-0.251,0.159-0.264,0.307c-0.066,0.016-0.605,0.103-0.883-0.111c0,0,0.519-0.18,0.579-0.365
		c0,0,0.156-0.302-0.356-0.585c0,0-0.385-0.226-0.49,0.017c0,0-0.037,0.108,0.136,0.256c0,0,0.185,0.196-0.167,0.165
		c0,0-0.241-0.024-0.319-0.119c0,0,0.062-0.661,0.216-1.11c-0.138-0.036-0.272-0.071-0.406-0.108
		c-0.052,0.146-0.105,0.301-0.148,0.468c0,0-0.021,0.386-0.163,0.484c0,0-0.502-0.41-0.286-1.128
		c-0.157-0.048-0.313-0.1-0.466-0.152c-0.018,0.342,0.066,0.9,0.517,1.695c0,0-0.408,0.543-0.832,0.26c0,0-0.599-0.386-0.218-0.728
		c0,0,0.26-0.218,0.371,0.053c-0.134,0.008-0.239,0.118-0.239,0.252c0,0.137,0.111,0.251,0.249,0.251
		c0.134,0,0.243-0.106,0.251-0.237c0.012-0.102,0.018-0.36-0.206-0.549c0,0-0.216-0.228-0.568-0.155c0,0,0.331-0.436,0.364-0.802
		c0,0,0.002-0.062,0.025-0.14c-0.095-0.036-0.19-0.073-0.288-0.11c-0.021,0.36-0.13,1.022-0.624,0.839c0,0,0.319-0.53,0.523-0.879
		c-0.198-0.077-0.395-0.156-0.589-0.242c-0.012-0.006-0.031-0.013-0.052-0.022c0.029,0.15,0.078,0.522-0.124,0.744
		c0,0-0.247,0.229-0.674-0.104c0,0,0.566-0.476,0.743-0.662c-0.121-0.046-0.303-0.101-0.467-0.101h-0.155
		c-0.01,0.007-0.021,0.014-0.033,0.021c0,0-0.371,0.272-0.624,0.38c0,0-0.074,0.048-0.148-0.031c0,0-0.463-0.539-0.105-1.112
		c0,0,0.21-0.51,0.661-0.399c0,0,0.128-0.003,0.204,0.176c0,0-0.432,0.018-0.385,0.32c0,0,0.008,0.317,0.397,0.296
		c0,0,0.542-0.053,0.414-0.711c0,0-0.091-0.394-0.4-0.394c0,0,0.173-0.218,0.047-0.303c0,0-0.128-0.124-0.418,0.08
		c0,0-0.076,0.144-0.426,0.067c0,0-0.235-0.097-0.365,0.084c0,0-0.06,0.023-0.06,0.278c0,0,0.025,0.098-0.132,0.361
		c0,0-0.087,0.177-0.101,0.463c-0.109-0.084-0.231-0.146-0.361-0.167C9.08,23.518,9.064,22.652,8.88,22.23
		c-0.043-0.098,0.084-0.537,0.087-1.007c1.306-0.276,1.798-1.274,1.934-1.717c0.2-0.721-0.07-1.456-0.101-1.652
		c-0.002-0.023,0.021-0.023,0.033,0c0.058,0.11,0.103,0.224,0.142,0.34c0.632,0.048,1.063-0.051,1.367-0.163
		c0.016-0.009,0.033-0.014,0.047-0.019c0.023-0.01,0.043-0.018,0.064-0.026c0.052-0.023,0.105-0.049,0.155-0.072
		c0.02-0.01,0.037-0.019,0.053-0.028c0.914-0.468,1.328-1.225,1.578-1.655c-0.128-0.027-0.521-0.152-0.651-0.352
		c0.334,0.027,0.591,0.169,0.925,0.17c0.496,0.004,0.826-0.273,1.372-0.207c0,0.03,0.072,0.258,0.422,0.402
		c0.01,0.311,0.031,0.575,0.128,0.822c0.025,0.074,0.045,0.102,0.045,0.102s-0.41,0.314-0.301,0.582
		c0.029,0.071,0.056,0.142,0.082,0.204c-0.02,0-0.039-0.002-0.058-0.009c-0.06-0.028-0.132,0.079-0.224,0.222
		c-0.047,0.074-0.262,0.52-0.099,0.56c0.033,0.007,0.066,0.009,0.101,0.012c-0.087,0.461-0.08,1.064,0.301,1.624l0.004,0.008
		c0.023,0.039,0.614,1.005,2.202,1.005h0.021c0.159,0,1.555,0.027,2.053,0.956c0.029,0.053,0.14,0.209,0.261,0.209
		c0.122,0,0.231-0.155,0.26-0.208c0.498-0.93,1.893-0.957,2.053-0.957h0.021c1.588,0,2.179-0.966,2.202-1.005l0.002-0.008
		c0.196-0.283,0.29-0.576,0.329-0.859c0.311-0.171,0.295-0.873,0.297-0.998c0.087,0.125,0.272,0.475,0.659,0.567
		c-0.062,0.331-0.043,0.878,0.313,0.95c0.109,0.011,0.202-0.151,0.173-0.274c0.307,0.876,0.051,1.417,0.282,1.482
		c0.297,0.004,0.309-0.519,0.336-0.534c0.025,0.047,0.121,0.204,0.128,0.441c0.004,0.272-0.037,0.543,0.087,0.589
		c0.408,0.069,0.214-1.131,0.533-1.011c-0.08,0.533-0.002,0.83,0.218,0.919c-0.008,0.241-0.033,0.477-0.136,0.477
		c-0.587,0.132-1.126-0.332-1.639-0.194c-0.035-0.021-0.054-0.034-0.054-0.034c-0.945-0.508-1.541-0.121-1.602-0.173
		c-0.264-0.245-0.365,0.122-0.443,0.08c-0.494-0.28-0.768,0.194-0.896,0.218c-0.115,0.017-0.329-0.249-0.554,0.309
		c-0.105,0.246-0.655,0.351-0.698,0.364c-0.222,0.026-0.274-0.125-0.274-0.125c-0.019-0.064-0.043-0.118-0.064-0.161
		c-0.021-0.043-0.047-0.076-0.08-0.11c-0.074-0.068-0.154-0.082-0.226-0.075c-0.161,0.013-0.29,0.147-0.29,0.312
		c0,0.071,0.021,0.135,0.062,0.189c0.018,0.016,0.068-0.054,0.14-0.051c0.121,0.007,0.22,0.099,0.22,0.221v0.004
		c0.016,0.252-0.367,0.505-0.367,0.505c-0.224,0.198-0.5-0.078-0.5-0.078c-0.161-0.124-0.264-0.137-0.264-0.137
		c-0.161,0.006-0.235,0.177-0.235,0.177s-0.076-0.171-0.237-0.177c0,0-0.105,0.013-0.264,0.137c0,0-0.278,0.276-0.5,0.078
		c0,0-0.383-0.253-0.367-0.505v-0.004c0-0.121,0.097-0.214,0.22-0.221c0.074-0.003,0.122,0.067,0.138,0.051
		c0.041-0.053,0.064-0.118,0.064-0.189c0-0.165-0.128-0.299-0.294-0.312c-0.068-0.007-0.15,0.007-0.222,0.075
		c-0.033,0.034-0.06,0.067-0.08,0.11c-0.023,0.044-0.047,0.097-0.066,0.161c0,0-0.051,0.152-0.272,0.125
		c-0.045-0.014-0.595-0.119-0.696-0.364c-0.231-0.558-0.441-0.293-0.556-0.309c-0.13-0.023-0.402-0.498-0.896-0.218
		c-0.078,0.042-0.179-0.325-0.445-0.08c-0.051,0.044-0.519-0.247-1.273,0.027c-0.047-0.088-0.286-0.134-0.352-0.161
		c-0.154-0.043-0.29-0.164-0.389-0.213c-0.21-0.108-0.556-0.039-0.799-0.068c-0.093-0.014-0.227-0.065-0.307-0.113
		c-0.315-0.193-0.673-0.431-0.871-0.712c-0.033-0.046-0.111-0.153-0.124-0.17c-0.095-0.121-0.146-0.211-0.22-0.413
		c-0.107-0.385,0.058-0.797,0.117-1.188c0.025-0.186,0.031-0.261,0.039-0.372c-0.301,0.078-0.698,0.085-1.184-0.051
		c0.122,0.414,0.146,0.851,0.099,1.192c0.189,0.143,0.299,0.376,0.313,0.488c0.023,0.197-0.07,0.402,0.047,0.56
		c0.169,0.235,0.546,0.45,0.776,0.607c0.08,0.05,1.143,0.873,1.281,0.903c0.152,0.03,0.245-0.082,0.379-0.059
		c0.045,0.012,0.08,0.045,0.115,0.072c0,0,0.089,0.099,0.222,0.184c-0.323,0.2-0.725,0.444-1.023,0.592c0,0-0.48,0.26-0.253,0.266
		c0,0,0.334-0.012,0.364,0.061c0,0-0.142,0.055-0.356,0.151c0.502,0.18,1.015,0.341,1.538,0.483c0.332-0.329,0.76-0.681,1.176-0.838
		c0,0,0.601,0.024,0.797-0.413c0.062-0.135,0.313,0.252,0.842-0.039c0.047-0.026,0.126,0.115,0.276,0.156
		c0.049,0.014-0.216,0.051-0.161,0.284c0.01,0.029-0.43,0.004-0.571,0.247c-0.043,0.07-0.974,0.05-1.798,0.748
		c0.155,0.038,0.311,0.074,0.468,0.107c0.274-0.206,0.605-0.346,0.987-0.325c0,0,0.507,0.032,0.719,0.635
		c0.317,0.045,0.638,0.084,0.96,0.117c-0.004-0.003-0.006-0.004-0.01-0.004c0.087-0.038,0.533-0.257,0.332-0.519
		c0,0-0.107-0.133-0.29,0.043c0,0-0.119,0.106-0.169-0.06c0,0-0.012-0.094-0.06-0.174c0,0-0.087-0.129,0.085-0.068
		c0,0,0.161,0.049,0.313,0.028c0.157-0.01,0.282-0.139,0.282-0.3c0-0.167-0.117-0.325-0.284-0.325c-0.006,0-0.035,0.008-0.035,0.024
		c0.023,0.02,0.041,0.05,0.041,0.086c0,0.06-0.051,0.124-0.111,0.11c-0.181-0.051-0.128-0.404,0.12-0.416
		c0,0,0.218,0.012,0.402,0.232c0,0,0.422,0.631,0.811,0.766c0.027,0.009-0.068,0.227,0.179,0.303
		c0.027,0.007-0.006,0.197,0.247,0.178c0.006,0,0.056,0.086,0.117,0.22c0.22,0.005,0.443,0.008,0.669,0.008
		c0.222,0,0.445-0.003,0.669-0.008c0.058-0.134,0.107-0.22,0.115-0.22c0.253,0.019,0.22-0.171,0.247-0.178
		c0.249-0.076,0.15-0.295,0.179-0.303c0.389-0.135,0.809-0.766,0.809-0.766c0.185-0.221,0.402-0.232,0.402-0.232
		c0.251,0.012,0.303,0.365,0.121,0.416c-0.058,0.015-0.109-0.05-0.109-0.11c0-0.036,0.017-0.066,0.043-0.086
		c-0.004-0.017-0.031-0.024-0.039-0.024c-0.165,0-0.28,0.157-0.28,0.325c0,0.161,0.123,0.291,0.278,0.3
		c0.152,0.02,0.313-0.028,0.313-0.028c0.175-0.061,0.087,0.068,0.087,0.068c-0.05,0.08-0.062,0.174-0.062,0.174
		c-0.049,0.166-0.167,0.06-0.167,0.06c-0.185-0.176-0.292-0.043-0.292-0.043c-0.198,0.262,0.245,0.481,0.332,0.519
		c-0.002,0-0.006,0.001-0.008,0.004c0.323-0.033,0.643-0.072,0.96-0.117c0.212-0.603,0.717-0.635,0.717-0.635
		c0.383-0.021,0.715,0.119,0.99,0.325c0.155-0.033,0.313-0.069,0.468-0.107c-0.824-0.699-1.755-0.678-1.798-0.748
		c-0.142-0.243-0.581-0.218-0.573-0.247c0.054-0.232-0.208-0.27-0.161-0.284c0.15-0.041,0.229-0.182,0.28-0.156
		c0.525,0.291,0.779-0.096,0.84,0.039c0.194,0.437,0.795,0.413,0.795,0.413c0.416,0.156,0.844,0.509,1.176,0.838
		c0.48-0.129,0.951-0.277,1.409-0.439c0-0.006-0.004-0.013-0.006-0.017c-0.006-0.025-0.016-0.051-0.027-0.078
		c-0.004-0.01-0.006-0.017-0.01-0.024l-0.002-0.002c-0.018-0.04-0.043-0.082-0.066-0.122l0,0c-0.121-0.203-0.295-0.402-0.354-0.469
		c-0.002,0-0.002,0-0.004-0.002c-0.012-0.013-0.017-0.019-0.016-0.02c-0.004,0,0.344-0.529,0.56-0.168
		c0.021,0.046-0.019,0.172-0.237,0.172c0,0.002,0.255,0.396,0.317,0.669c0.002,0,0.004-0.001,0.008-0.001
		c0.107-0.042,0.183-0.065,0.222-0.079c0.019-0.006,0.041-0.008,0.062-0.013c-0.136-0.267-0.338-0.417-0.282-0.505
		c0.052-0.022,0.241,0.071,0.35-0.087c0.025-0.039,0.052-0.232,0.078-0.437c0.136,0.074,0.294,0.078,0.344,0.082
		c0.356-0.01,0.49-0.547,0.393-0.723c0.052-0.033,0.262-0.205,0.282-0.159c0.111,0.254,0.692,0.526,0.641-0.046
		c0.091,0.277,0.161,0.594,0.482,0.569c0.237-0.056,0.084-0.457,0.167-0.457c0.07,0.118,0.167,0.575,0.515,0.465
		c0.105-0.041,0.187-0.119,0.19-0.273c0.018-0.44-1.244-2.747-1.357-3.745c-0.021-0.009-0.039-0.015-0.06-0.023
		c-0.122-0.062-0.134-0.261-0.115-0.406c0.002-0.011,0.006-0.018,0.008-0.026c-0.152-0.029-0.391-0.162-0.43-0.582
		c0-0.379,0.167-0.567,0.202-0.567c0.014,0,0.019,0.025,0.012,0.037c-0.095,0.297-0.165,0.653,0.052,0.851
		c0.045,0.037,0.124,0.076,0.22,0.085c0.066-0.127,0.156-0.19,0.173-0.189c0.014,0.002,0.01,0.02,0.006,0.03
		c-0.119,0.204-0.115,0.485-0.006,0.614c0.052,0.058,0.154,0.099,0.231,0.103c0.35-0.126,0.529-0.799,0.608-1.007
		c0.233,0.051-0.379,1.403,0.093,1.694c0.194-0.017,0.305-0.24,0.377-0.437c0.15,0.399-0.5,1.238-0.031,1.427
		c0.288,0.073,0.389-0.662,0.397-0.569c0.082,1.124-0.505,1.665-0.13,1.839c0.317,0.149,0.428-0.766,0.428-0.651
		c-0.012,1.195-0.612,1.53-0.356,1.739c0.295,0.119,0.507-0.605,0.503-0.433c-0.025,1.072-0.562,1.354-0.325,1.694
		c0.276,0.389,0.789-0.699,0.817-0.495c0.031,0.25-0.583,1.49-0.229,1.577c0.299,0.071,0.399-0.353,0.428-0.441
		c0.921-3.082,0.952-6.083,0.892-7.092c-0.093-1.576-0.218-2.986-0.601-4.282c-0.233-0.797-0.684-2.429-1.738-2.652
		c-0.496-0.104-0.871,0.355-0.861,0.771c0.006,0.356,0.255,0.528,0.148,0.883c-0.134,0.229-0.266,0.481-0.331,0.738
		c-0.064,0.256,0.163,0.36,0.091,0.632c-0.319-0.046-0.488,0.219-0.96,0.123c-0.434,0.178-0.867,0.1-0.871,0.086
		c-0.002-0.005,0.012-0.013,0.021-0.011c0.472-0.013,0.9-0.169,0.989-0.376c0.095-0.317,0.037-0.79-0.2-0.966
		c-0.268,0.057-0.404,0.29-1.345,0.234c-0.776-0.047-0.968,0.098-1.077,0.568c-0.045-0.076-0.049-0.137-0.041-0.223
		c0.031-0.258,0.288-0.417,0.603-0.45c0.064-0.113,0.074-0.198,0.074-0.324c-0.142-0.011-0.208-0.014-0.387,0.015
		c-0.369,0.057-0.879,0.266-1.005,0.635c-0.016,0.045-0.027,0.122-0.027,0.193c0.004,0.059,0.012,0.115,0.027,0.165
		c0.014,0.039,0.031,0.078,0.039,0.119c0.119,0.254,0.41,0.397,1.034,0.427c0.01-0.002,0.025,0.009,0.023,0.019
		c-0.004,0.026-0.126,0.051-0.284,0.033c0,0-0.579,0.004-0.836-0.299c-0.019,0.021-0.037,0.042-0.047,0.053
		c-0.157,0.161-0.443,0.315-0.7,0.329c-0.282,0.013-0.593-0.168-0.704-0.319c-0.375-0.503,0.111-1.373,0.103-1.695
		c-0.023-0.866-1.199-0.477-1.631-0.25c-0.513,0.269-0.923,0.706-1.269,1.132c-0.183,0.227-0.389,0.509-0.496,0.752
		c0.152,0.072,0.599,0.265,0.939,0.273l0.019,0.001c0.018,0.002,0.06,0.006,0.119,0.006c0.177,0,0.513-0.03,0.762-0.238
		c0.021-0.02,0.122-0.101,0.27-0.101c0.109,0,0.21,0.043,0.297,0.124c0.06,0.05,0.803,0.641,1.046,0.808
		c0.033,0.022,0.105,0.086,0.119,0.189c0.01,0.059-0.002,0.155-0.091,0.259c-0.056,0.063-0.43,0.501-0.673,1.095
		c-0.037,0.086-0.07,0.176-0.097,0.269c-0.091,0.316-0.154,0.821,0.288,0.976c0,0,0.486,0.126,0.449-0.68
		c0,0,0.078,0.517,0.457,0.501c0.161-0.007,0.305-0.166,0.278-0.514l0.002,0.002c-0.035-0.335-0.029-0.716,0.035-1.137
		c0.002-0.016,0.006-0.028,0.008-0.044c0.006,0.007,0.016,0.042,0.037,0.207c0.023,0.209-0.124,2.08,1.411,3.347
		c0,0-0.647-0.317-1.096-1.112c-0.26,0.155-0.614,0.484-0.451,1.187c0.084,0.238,0.249,0.465,0.379,0.536
		c0.006,0.006,0.018,0.019,0.018,0.032c0,0.032-0.084,0.094-0.224-0.048l0,0c-0.021-0.021-0.043-0.047-0.064-0.076
		c-0.053-0.08-0.093-0.156-0.124-0.233c-0.177-0.152-0.34-0.319-0.5-0.484l-0.002-0.004c-0.123-0.25-0.054-0.998-0.785-1
		c0,0-0.027-0.002-0.068,0h-0.002c-0.035,0.002-0.078,0.005-0.124,0.017c-0.01,0.002-0.019,0.002-0.025,0.003
		c-0.192-0.653-0.14-1.07-0.13-1.134c0.15-0.945,0.818-1.731,0.894-1.818c0.029-0.03,0.06-0.078,0.052-0.124
		c-0.006-0.038-0.031-0.06-0.039-0.064l-0.004-0.004c-0.253-0.169-0.98-0.751-1.061-0.817l-0.008-0.007
		c-0.054-0.052-0.113-0.079-0.179-0.079c-0.089,0-0.157,0.059-0.157,0.059c-0.294,0.244-0.673,0.282-0.875,0.282
		c-0.068,0-0.117-0.006-0.14-0.01h-0.012c-0.422-0.012-0.951-0.263-1.054-0.315c-0.725-0.302-1.283-0.315-1.388-0.315
		c-0.103,0-0.663,0.013-1.388,0.315c-0.103,0.051-0.634,0.303-1.054,0.315h-0.008c-0.019,0.002-0.07,0.01-0.146,0.01
		c-0.198,0-0.579-0.038-0.871-0.279l-0.004-0.006c0,0-0.066-0.056-0.157-0.056c-0.062,0-0.122,0.027-0.177,0.079l-0.006,0.007
		c-0.082,0.066-0.813,0.648-1.063,0.817l-0.004,0.004c-0.006,0.004-0.035,0.026-0.039,0.064c-0.006,0.046,0.025,0.093,0.051,0.124
		c0.078,0.087,0.746,0.874,0.896,1.818c0.006,0.036,0.025,0.178,0.008,0.41c-0.062-0.2-0.121-0.374-0.167-0.503
		c-0.019-0.104-0.056-0.194-0.105-0.274l-0.002-0.002c-0.101-0.161-0.253-0.279-0.416-0.37c-0.132-0.075-0.276-0.094-0.4-0.184
		c-0.194-0.133-0.399-0.275-0.527-0.525c-0.004-0.486-0.257-0.847-0.257-0.847c0.07-0.033,0.365,0.18,0.391,0.704
		c0.344-0.363,0.519-0.895,0.645-1.48c0.262-0.362,0.999-0.219,1.279-0.171c0.074,0.011,0.196,0.038,0.251,0.08
		c0.078,0.057,0.095,0.182,0.206,0.228c0.117,0.048,0.249,0.013,0.389,0c0.045,0.053,0.074,0.121,0.105,0.188
		c0.047-0.002,0.08-0.004,0.093-0.006l0.006-0.001h0.014c0.397-0.008,0.943-0.272,0.993-0.296l0.01-0.007
		c0.019-0.008,0.039-0.015,0.058-0.023c-0.155-0.195-0.399-0.253-0.616-0.288c-0.274-0.045-0.424-0.277-0.686-0.331
		c-0.068-0.017-0.297-0.052-0.375-0.023c-0.581,0.074-0.993-0.144-1.534-0.183c-0.517-0.038-0.533,0.314-0.719,0.606
		c-0.072,0.11-0.154,0.237-0.241,0.319c-0.142,0.138-0.307,0.143-0.478,0.276c-0.008-0.005-0.016-0.011-0.025-0.017
		c-0.033-0.18-0.107-0.466-0.239-0.664c-0.004-0.004-0.006-0.006-0.008-0.01c-0.014-0.021-0.023-0.042-0.037-0.064
		c-0.282-0.441-0.601-0.779-1.225-0.925c-0.119-0.048-0.138-0.055-0.218-0.117c-0.099-0.081-0.027-0.173,0-0.183
		c0.181-0.102,0.486-0.067,0.688-0.16c0.494-0.23,0.321-0.649,0.126-0.684c-0.253-0.045-0.702-0.165-0.791-0.219
		c-0.121-0.075-0.192-0.284-0.389-0.353c-0.15-0.048-0.276-0.043-0.41-0.025c-0.121,0.018-0.198,0.107-0.288,0.092
		c0.115-0.159,0.309-0.239,0.562-0.261c-0.218-0.059-0.144-0.414-0.346-0.494c-0.085-0.015-0.212,0.024-0.354,0.096
		c-0.016-0.111-0.078-0.485-0.286-0.608c-0.165-0.096-0.225,0.053-0.216,0.151c0.006,0.084,0.255,0.19,0.295,0.573
		c-0.041,0.028-0.084,0.058-0.128,0.089c-0.033-0.159-0.107-0.402-0.268-0.497c-0.165-0.096-0.226,0.05-0.216,0.148
		c0.008,0.083,0.224,0.176,0.288,0.503c-0.058,0.046-0.113,0.095-0.165,0.143c-0.336-0.089-0.41-0.326-0.492-0.342
		c-0.095-0.019-0.251,0.027-0.171,0.203c0.08,0.175,0.329,0.273,0.482,0.319c-0.035,0.039-0.072,0.078-0.103,0.117
		c-0.389-0.076-0.468-0.338-0.554-0.356c-0.093-0.02-0.251,0.028-0.171,0.202c0.103,0.225,0.488,0.325,0.585,0.347
		c-0.064,0.107-0.095,0.201-0.08,0.272c-0.303-0.036-0.834,0.126-0.735,0.48c0.101,0.072,0.455-0.22,0.781-0.056
		c0.216,0.334,0.562,0.35,0.642,0.409c0.119,0.098,0.14,0.268,0.192,0.428c0.097,0.285,0.299,0.518,0.468,0.774
		c0.185,0.285,0.377,0.579,0.571,0.823c0.025,0.067,0.047,0.139,0.033,0.242c-0.22,0.351-0.881,0.763-1.153,1.017
		c-0.272,0.257-2.865,2.229-3.19,3.086c-0.07,0.195-0.113,0.441-0.103,0.699c-0.156,0.084-0.435,0.033-0.513-0.057
		c-0.173-0.202,0.177-0.395,0.091-0.664c-0.039-0.103-0.175-0.141-0.286-0.103c-0.192,0.068-0.231,0.454-0.138,0.685
		c0.027,0.067,0.13,0.151,0.054,0.2c-0.095,0.039-0.157-0.059-0.157-0.196c-0.052,0.038-0.105,0.13-0.08,0.225
		c0.051,0.189,0.28,0.192,0.356,0.243c-0.01,0.084-0.138,0.123-0.224,0.044c-0.144,0.21,0.017,0.29,0.05,0.297
		c0.156,0.027,0.325-0.114,0.424-0.126c0.045,0.107-0.031,0.141-0.194,0.185c0.259,0.314,0.49-0.226,0.778-0.161
		c0.091,0.019,0.904,0.78,0.766,1.361c-0.008,0.032-0.039,0.115-0.056,0.138c-0.183,0.222-0.48,0.395-0.688,0.606
		c-0.424,0.271,0.406,1.976,0.34,2.849C8.604,24.063,8.948,24,9.146,24.556C8.938,24.56,8.73,24.61,8.627,24.767
		c0,0-0.014,0.017-0.033,0.047l0.004,0.002c-0.035,0.061-0.056,0.133-0.056,0.211c0,0.236,0.19,0.426,0.428,0.426
		c0.235,0,0.426-0.19,0.426-0.426c0-0.021-0.004-0.044-0.006-0.062c0.095,0,0.214,0.017,0.344,0.074l0.375,0.204
		c0,0-1.32,1.111-3.476,0.465c0,0-0.98-0.311-0.704-1.18c0,0,0.049-0.147,0.179-0.23c0.027,0.12,0.099,0.221,0.196,0.291
		c0.08,0.056,0.177,0.089,0.28,0.089c0.272,0,0.49-0.218,0.49-0.489c0-0.133-0.052-0.251-0.136-0.339
		c-0.021-0.022-0.043-0.037-0.068-0.055c0-0.005-0.004-0.007-0.008-0.009c-0.002-0.001-0.004-0.003-0.006-0.005
		c-0.148-0.098-0.367-0.163-0.706-0.075c0,0-0.943,0.273-0.599,1.294c0,0-0.636-0.146-0.877,0.146c0,0-0.084,0.092-0.076,0.242
		v0.004v0.006c0.006,0.059,0.023,0.129,0.066,0.207c0.068,0.094,0.177,0.158,0.303,0.158c0.115,0,0.22-0.052,0.286-0.136
		c0.002-0.003,0.006-0.003,0.006-0.003c0.025-0.035,0.087-0.069,0.218,0.041c0,0,0.884,0.977,2.179,0.851c0,0,0.035,0.67,0.49,0.792
		c0,0,0.043,0.01,0.066,0.01c0.124,0,0.226-0.102,0.226-0.225c0-0.126-0.101-0.226-0.226-0.226c-0.01,0-0.017,0-0.025,0.002
		c-0.008-0.025-0.056-0.222-0.031-0.363c0,0,1.421-0.188,2.379-0.965c0,0,0.655,0.19,1.089,0.208c0,0,0.06,0.149-0.231,0.179
		c0,0-0.373-0.005-0.363,0.114c0,0-0.025,0.133,0.27,0.129c0,0-0.037,0.135,0.2,0.27c0,0,0.152,0.08,0.072,0.181
		c0,0-0.282,0.156-0.2,0.335c0,0,0.078,0.228,0.472,0.17c0,0,0.136-0.006,0.025,0.112c0,0-0.196,0.209,0.136,0.381
		c0,0,0.262,0.143,0.433-0.127c0,0,0.037-0.106,0.196-0.026c0,0,0.844,0.383,1.279-0.247c0,0,0.027-0.096,0.156,0.069
		c0,0,0.433,0.524,1.619,0.563c0.076,0.143,0.226,0.236,0.395,0.236c0.218,0,0.399-0.155,0.437-0.363
		c0.144-0.002,0.665-0.043,1.223-0.414c0,0,0.2-0.123,0.418-0.227c0.012,0.333,0.284,0.603,0.622,0.603
		c0.342,0,0.62-0.278,0.62-0.621C19.404,26.76,19.184,26.506,18.891,26.454 M14.931,21.798c-0.002,0.014-0.006,0.024-0.016,0.034
		c-0.002,0.005-0.008,0.008-0.014,0.014c-0.006,0.005-0.01,0.01-0.017,0.015c-0.031,0.014-0.072,0.02-0.123,0.021
		c-0.082,0-0.171-0.013-0.231-0.023c-0.008,0.055,0.021,0.092,0.066,0.122c0,0.001,0,0.001,0,0.001c0,0.002,0.004,0.002,0.004,0.002
		c0.019,0.013,0.039,0.025,0.06,0.034c0.035,0.016,0.07,0.033,0.099,0.048c0.006,0.078-0.132,0.126-0.194,0.126
		c-0.136,0-0.229-0.153-0.276-0.243c-0.01-0.01-0.023-0.018-0.039-0.028c-0.01-0.007-0.019-0.015-0.031-0.02
		c-0.119-0.067-0.297-0.088-0.472-0.097c0.031-0.314,0.892-0.099,0.914-0.094c0.087,0.025,0.2,0.025,0.274,0.072
		C14.935,21.787,14.931,21.791,14.931,21.798 M27.951,22.545h-0.002c-0.006,0.015-0.012,0.032-0.014,0.047
		c-0.163-0.002-0.509-0.243-0.513-0.245c-0.049-0.031-0.2-0.117-0.329-0.072h-0.002l-0.002,0.001
		c-0.138,0.061-0.202,0.205-0.28,0.275c-0.012-0.028-0.018-0.055-0.021-0.08c-0.002-0.004-0.002-0.007-0.004-0.01
		c-0.004-0.024-0.006-0.047-0.006-0.066v-0.026c0-0.018,0.002-0.037,0.006-0.053c0.002-0.008,0.006-0.017,0.01-0.026
		c0.008-0.022,0.017-0.045,0.031-0.063c0.008-0.011,0.016-0.022,0.023-0.033c0.006-0.007,0.014-0.014,0.023-0.021
		c0.012-0.011,0.025-0.021,0.043-0.029c0.006-0.005,0.01-0.007,0.016-0.011c0.074-0.039,0.169-0.056,0.266-0.049l-0.002-0.002
		c0.13,0.01,0.264,0.056,0.363,0.142c0.117,0.103,0.35,0.132,0.494,0.14C28.05,22.365,27.98,22.465,27.951,22.545 M31.474,11.923
		c0.062-0.258,0.422-0.571,0.422-0.715c-0.002-0.156-0.175-0.339-0.194-0.552c-0.029-0.333,0.224-0.658,0.556-0.589
		c0.212,0.045,0.354,0.228,0.486,0.385c0.052,0.06,0.124,0.116,0.169,0.169c0.385,0.472,0.688,1.316,0.873,1.992
		c0.548,1.993,0.805,5.128,0.152,8.592c-0.058,0.299-0.204,1.057-0.231,0.991c0.634-5.72,0.286-7.135,0.179-7.116
		c-0.089,0.034-0.194,0.708-0.511,0.502c-0.309-0.198,0.713-1.461,0.305-2.158c-0.093-0.111-0.177,0.157-0.34,0.109
		c-0.424-0.138,0.229-1.226,0.105-1.341c-0.089-0.082-0.408-0.147-0.418-0.553c-0.002-0.182,0.121-0.329-0.027-0.483
		c-0.117-0.114-0.097,0.107-0.22,0.051c-0.196-0.209-0.016-0.446-0.113-0.602c-0.054-0.041-0.19,0.128-0.297,0.043
		c-0.117-0.095,0.064-0.278-0.08-0.346c-0.185,0.026-0.461,0.23-0.404,0.534c0.027,0.158,0.216,0.263,0.202,0.442
		c-0.008,0.155-0.198,0.337-0.235,0.417c-0.272,0.617,0.187,0.745,0.123,0.961c-0.029,0.105-0.226,0.165-0.35,0.116
		C31.456,12.703,31.419,12.151,31.474,11.923 M30.647,13.145c0.089-0.009,0.202-0.032,0.286-0.054
		c0.087-0.029,0.154-0.116,0.249-0.116c0.033,0.037-0.037,0.078-0.07,0.103c-0.093,0.08-0.323,0.2-0.476,0.236
		c-0.297,0.074-0.575-0.032-0.7-0.214C30.158,13.03,30.35,13.182,30.647,13.145 M25.411,10.992
		c-0.014,0.015-0.043,0.015-0.052,0.007c-0.241-0.124-0.702-0.116-1.032,0.058c-0.239,0.127-0.434,0.369-0.472,0.389
		c-0.039,0.017,0.395-0.644,1.114-0.713C25.397,10.735,25.444,10.954,25.411,10.992 M26.966,12.985
		c-0.099,0.176-0.245,0.38-0.466,0.434c-0.41,0.099-0.818-0.235-0.832-0.284c-0.021-0.049,0.336,0.167,0.678,0.142
		c0.257-0.019,0.459-0.196,0.605-0.315C26.966,12.941,26.983,12.963,26.966,12.985 M27.607,19.41
		c0.342,0.131,0.805,0.058,1.042-0.128c0.01-0.01,0.039-0.014,0.054,0c0.035,0.035,0.002,0.286-0.435,0.374
		c-0.723,0.053-1.196-0.606-1.157-0.591C27.148,19.075,27.358,19.314,27.607,19.41 M25.753,18.097
		c0.006,0.005,0.01,0.012,0.014,0.019c0.002,0.007,0.004,0.013,0.006,0.02c0.002,0.01,0.004,0.019,0.006,0.03
		c0.002,0.01,0.002,0.018,0.004,0.028c0,0.015,0.002,0.029,0.002,0.047v0.022c0,0.067-0.004,0.15-0.002,0.242
		c0,0.015,0,0.028,0,0.043c0.002,0,0.002,0.002,0.002,0.002c0.002,0.054,0.006,0.113,0.014,0.176
		c0.018,0.132-0.012,0.313-0.085,0.432c-0.012,0.017-0.023,0.032-0.035,0.047c-0.012,0.013-0.025,0.023-0.037,0.035
		c-0.002,0-0.004,0.002-0.004,0.004c-0.012,0.007-0.025,0.015-0.039,0.02c-0.002,0.001-0.004,0.003-0.008,0.003
		c-0.014,0.006-0.027,0.011-0.037,0.013c-0.004,0-0.01,0.001-0.014,0.001c-0.014,0.002-0.025,0-0.039-0.001h-0.018
		c-0.012-0.005-0.025-0.008-0.039-0.015c-0.008-0.001-0.014-0.003-0.021-0.007c-0.014-0.006-0.027-0.015-0.041-0.021
		c-0.006-0.006-0.017-0.011-0.025-0.016c-0.016-0.012-0.033-0.026-0.049-0.039c-0.008-0.008-0.012-0.012-0.021-0.017
		c0,0-0.091-0.156,0.049-0.174c0.021,0.021,0.041,0.039,0.056,0.052c0.004,0.003,0.008,0.008,0.012,0.009
		c0.014,0.009,0.025,0.016,0.035,0.019c0.004,0.002,0.008,0.003,0.012,0.003c0.014,0.004,0.025,0.004,0.035,0
		c0.002,0,0.002-0.001,0.004-0.003c0.01-0.004,0.017-0.011,0.023-0.019c0.004-0.004,0.006-0.007,0.008-0.011
		c0.004-0.007,0.01-0.017,0.014-0.028c0.002-0.006,0.004-0.009,0.006-0.015c0.006-0.014,0.012-0.033,0.016-0.052
		c0-0.007,0.002-0.016,0.002-0.022c0.002-0.013,0.004-0.03,0.006-0.045c0.002-0.012,0.002-0.021,0.004-0.034
		c0.002-0.013,0.002-0.025,0.004-0.04c0.018-0.243,0.002-0.579,0.074-0.691c0.006-0.013,0.014-0.02,0.021-0.024
		c0.002-0.002,0.006-0.004,0.008-0.006c0.008-0.004,0.016-0.009,0.025-0.009H25.7h0.004c0.014,0,0.025,0.004,0.037,0.011
		C25.743,18.088,25.749,18.094,25.753,18.097 M24.911,17.103c0.002-0.002,0.004-0.002,0.006-0.003
		c0.062-0.042,0.136-0.072,0.216-0.088c0.037-0.007,0.078-0.008,0.119-0.008h0.006c0.043,0,0.086,0.005,0.128,0.016
		c0.023,0.002,0.109,0.155,0.146,0.312l0,0c0.01,0.037,0.076,0.272,0.157,0.352c0.08,0.078,0.047,0.234-0.146,0.209h-0.012
		c-0.206-0.035-0.439-0.355-0.342-0.675c-0.056-0.012-0.103-0.012-0.148-0.006h-0.006c-0.025,0.004-0.051,0.011-0.072,0.02
		c-0.008,0.001-0.014,0.003-0.021,0.008c-0.014,0.005-0.025,0.015-0.039,0.022c-0.012,0.005-0.021,0.01-0.033,0.019
		c-0.049,0.043-0.066,0.116-0.138,0.12C24.738,17.277,24.81,17.174,24.911,17.103 M16.865,17.823
		c0.568-0.98,0.511-1.652,0.494-1.777c0-1.083-0.678-1.902-0.756-1.992c-0.076-0.086-0.084-0.166-0.078-0.216
		c0.014-0.101,0.087-0.158,0.113-0.168c0.154-0.105,0.484-0.311,0.624-0.398l0.062-0.041c0.012-0.008,0.037-0.018,0.051-0.018
		c0.043,0,0.078,0.028,0.14,0.076c0.134,0.107,0.385,0.3,0.822,0.3c0.076,0,0.156-0.008,0.237-0.02
		c0.229-0.034,0.603-0.225,0.608-0.226c0.117-0.063,0.26-0.123,0.327-0.154l0.031-0.013c0.614-0.257,1.131-0.275,1.277-0.275
		c0.142,0,0.661,0.019,1.271,0.273l0.033,0.013c0.064,0.028,0.212,0.092,0.331,0.156c0.002,0.002,0.377,0.192,0.605,0.226
		c0.082,0.012,0.163,0.02,0.239,0.02c0.437,0,0.686-0.193,0.822-0.3c0.062-0.048,0.097-0.076,0.14-0.076
		c0.018,0,0.047,0.012,0.06,0.024c-0.004-0.003,0.025,0.015,0.068,0.041c0.146,0.092,0.459,0.292,0.622,0.4
		c0.01,0,0.086,0.057,0.099,0.155c0.006,0.053-0.002,0.132-0.08,0.218c-0.076,0.09-0.754,0.91-0.754,1.977
		c-0.016,0.14-0.074,0.813,0.496,1.792c0.027,0.052,0.634,1.183-0.039,2.171c-0.054,0.089-0.585,0.91-1.967,0.91
		c-0.126,0-1.236,0.021-1.615,0.728c-0.002,0-0.008,0.014-0.021,0.031c-0.045,0.078-0.185,0.302-0.247,0.427
		c-0.012,0.022-0.037,0.037-0.062,0.037c-0.027,0-0.052-0.014-0.064-0.037c-0.06-0.124-0.202-0.349-0.247-0.427
		c-0.014-0.017-0.021-0.031-0.021-0.031c-0.377-0.707-1.489-0.728-1.613-0.728c-1.388,0-1.917-0.82-1.971-0.913
		C16.212,18.978,16.857,17.834,16.865,17.823 M16.515,16.598c0.074,0.065,0.128,0.245,0.152,0.472
		c0.002,0.019,0.004,0.037,0.006,0.055c0.002,0.024,0.004,0.049,0.006,0.075c0,0.019,0.002,0.041,0.002,0.061
		c0.002,0.02,0.002,0.038,0.002,0.056v0.052c0,0.029-0.002,0.061-0.004,0.092c0,0.018-0.002,0.037-0.002,0.057
		c-0.002,0.021-0.004,0.041-0.006,0.063c-0.002,0.015-0.004,0.032-0.004,0.047c-0.002,0.031-0.008,0.062-0.012,0.094
		c-0.004,0.02-0.006,0.039-0.01,0.06c-0.002,0.02-0.008,0.04-0.01,0.06c-0.002,0.017-0.006,0.034-0.01,0.048
		c-0.004,0.021-0.01,0.04-0.014,0.058c-0.008,0.029-0.014,0.057-0.023,0.086c-0.006,0.017-0.012,0.034-0.016,0.051
		c-0.006,0.017-0.012,0.033-0.018,0.051c-0.006,0.015-0.012,0.031-0.017,0.045c-0.012,0.029-0.023,0.055-0.037,0.08
		c-0.004,0.013-0.012,0.023-0.018,0.034c-0.01,0.017-0.02,0.033-0.031,0.05c-0.006,0.013-0.014,0.021-0.019,0.032
		c-0.016,0.023-0.033,0.045-0.051,0.065c-0.006,0.006-0.01,0.012-0.018,0.015c-0.014,0.017-0.031,0.032-0.047,0.045
		c-0.006,0.005-0.014,0.011-0.021,0.017c-0.021,0.017-0.045,0.03-0.068,0.041c-0.004,0.002-0.006,0.002-0.008,0.004
		c-0.025,0.011-0.047,0.019-0.074,0.023c-0.006,0.002-0.012,0.005-0.018,0.005c-0.031,0.005-0.06,0.009-0.091,0.007
		c-0.012-0.019-0.014-0.043-0.014-0.061c0-0.087,0.091-0.166,0.132-0.269c0.039-0.092,0.031-0.155,0.084-0.224
		c0.093-0.011,0.169,0.021,0.196-0.063c-0.136-0.111-0.146-0.335,0.029-0.515C16.719,17.209,16.467,16.665,16.515,16.598
		 M16.434,15.753c-0.111,0.024-0.132-0.466-0.725-0.35c-0.321,0.144-0.56,0.055-0.762-0.029C15.79,14.9,16.496,15.38,16.434,15.753
		 M11.518,10.903c-0.134-0.299,0.35-0.714,0.468-0.751c0.274-0.101,0.478,0.067,0.778,0.112c0.173,0.027,0.362-0.002,0.504,0.013
		c0.323,0.026,0.237,0.262,0.183,0.297c-0.27,0.077-0.422-0.129-0.651-0.163c-0.167-0.018-0.348,0.075-0.513,0.059
		c-0.148-0.011-0.257-0.105-0.389,0c-0.014,0.01-0.202,0.153-0.161,0.331C11.749,10.923,11.576,10.978,11.518,10.903 M11.829,10.843
		c0.362,0.135,0.393-0.327,0.482-0.22C12.435,10.835,12.089,11.156,11.829,10.843 M12.513,11.864
		c0.568,0.045,1.128,0.052,1.485,0.253c0.016,0.009,0.027,0.018,0.043,0.028c0.111,0.075,0.406,0.309,0.537,0.748
		c-0.48-0.301-0.655-0.37-1.057-0.514C13.127,12.243,12.678,12.179,12.513,11.864 M9.665,24.373
		c-0.006-0.002-0.012-0.005-0.019-0.007c-0.074-0.034-0.148-0.083-0.198-0.118c-0.064,0.098,0.058,0.197,0.119,0.281
		c-0.01,0.032-0.043,0.047-0.082,0.052L9.48,24.58c-0.047,0.007-0.101-0.001-0.136-0.017l0,0c-0.004,0-0.006-0.002-0.008-0.002
		c-0.122-0.057-0.144-0.236-0.146-0.334c-0.006-0.085-0.053-0.24-0.208-0.327c0.243-0.154,0.608,0.233,0.645,0.264
		c0,0.002,0,0.002,0,0.002H9.63v0.002c0.052,0.042,0.121,0.08,0.173,0.127c0.016,0.017,0.033,0.031,0.045,0.051
		C9.817,24.414,9.749,24.407,9.665,24.373"/>
	<path fill="#FFFFFF" d="M13.568,24.113c-0.041,0.035-0.076,0.098-0.107,0.194c-0.033,0.104-0.043,0.183-0.029,0.236
		c0.016,0.053,0.049,0.088,0.105,0.107c0.054,0.017,0.105,0.012,0.146-0.024c0.041-0.031,0.08-0.097,0.113-0.203
		c0.029-0.092,0.039-0.17,0.025-0.224c-0.014-0.055-0.047-0.093-0.107-0.113C13.658,24.068,13.611,24.079,13.568,24.113"/>
	<path fill="#FFFFFF" d="M17.419,24.912c-0.008-0.003-0.016-0.003-0.029-0.005l-0.035,0.262c0.058,0.005,0.099,0.009,0.119,0.004
		c0.021-0.004,0.039-0.017,0.053-0.035c0.016-0.017,0.023-0.044,0.029-0.079c0.006-0.048,0-0.084-0.021-0.105
		C17.513,24.931,17.476,24.918,17.419,24.912"/>
	<path fill="#FFFFFF" d="M14.509,24.327c-0.008-0.002-0.018-0.004-0.027-0.007l-0.07,0.255c0.056,0.017,0.095,0.022,0.119,0.02
		c0.021-0.002,0.039-0.013,0.056-0.025c0.016-0.019,0.029-0.043,0.037-0.077c0.014-0.048,0.012-0.085-0.006-0.107
		C14.601,24.36,14.562,24.343,14.509,24.327"/>
	<polygon fill="#FFFFFF" points="16.165,25.102 16.333,25.133 16.284,24.912 	"/>
	<path fill="#FFFFFF" d="M23.957,16.001h-0.229l-0.453,0.327h0.665c-0.002-0.11,0.008-0.186,0.012-0.228
		C23.951,16.067,23.955,16.033,23.957,16.001"/>
	<path fill="#FFFFFF" d="M24.666,18.273v1.446C24.927,19.103,24.806,18.595,24.666,18.273"/>
	<path fill="#FFFFFF" d="M17.417,16.864h1.472l-0.451-0.324h-0.954C17.47,16.637,17.448,16.747,17.417,16.864"/>
	<path fill="#FFFFFF" d="M22.246,13.613c-0.113-0.059-0.251-0.117-0.315-0.146c-0.019-0.008-0.029-0.016-0.037-0.018
		c-0.146-0.059-0.284-0.104-0.414-0.139h-1.543c-0.13,0.035-0.268,0.08-0.414,0.139c-0.008,0.003-0.019,0.011-0.037,0.018
		c-0.066,0.029-0.202,0.086-0.311,0.146c-0.004,0-0.021,0.009-0.045,0.019h3.159C22.265,13.622,22.248,13.613,22.246,13.613"/>
	<path fill="#FFFFFF" d="M24.254,13.413c-0.004-0.003-0.012-0.008-0.016-0.011c-0.006,0.002-0.008,0.003-0.012,0.008
		c-0.062,0.048-0.173,0.136-0.323,0.223h0.659C24.446,13.551,24.33,13.471,24.254,13.413"/>
	<path fill="#FFFFFF" d="M20.887,21.789c0.049-0.081,0.095-0.157,0.121-0.198l0.016-0.028c0.053-0.094,0.117-0.179,0.189-0.254
		v-2.782l-0.325-0.247V21.789z"/>
	<path fill="#FFFFFF" d="M21.433,21.123c0.105-0.068,0.214-0.124,0.325-0.168v-2.011l-0.325-0.246V21.123z"/>
	<path fill="#FFFFFF" d="M21.974,20.881c0.115-0.034,0.222-0.058,0.325-0.075v-1.454l-0.325-0.247V20.881z"/>
	<path fill="#FFFFFF" d="M17.497,16.001c0,0.011,0.002,0.02,0.002,0.029c0.006,0.041,0.016,0.145,0.006,0.297h0.636l-0.455-0.327
		H17.497z"/>
	<path fill="#FFFFFF" d="M17.32,13.398c-0.085,0.055-0.229,0.145-0.365,0.234h0.756C17.551,13.549,17.411,13.461,17.32,13.398"/>
	<path fill="#FFFFFF" d="M20.269,15.248l0.099-0.325h-3.093c0.041,0.102,0.08,0.21,0.111,0.325H20.269z"/>
	<path fill="#FFFFFF" d="M20.695,13.847h-4.03c0,0,0,0.006-0.002,0.007c-0.004,0.041,0.023,0.081,0.045,0.106
		c0.021,0.024,0.082,0.098,0.163,0.211h3.725L20.695,13.847z"/>
	<path fill="#FFFFFF" d="M20.531,14.387h-3.524c0.058,0.094,0.117,0.201,0.175,0.322h3.25L20.531,14.387z"/>
	<path fill="#FFFFFF" d="M51.206,14.883c-0.041-1.477-0.082-2.964-0.132-4.449h-0.033c-0.14,0.689-0.278,1.281-0.418,1.732
		l-0.69,2.717h-1.452l-0.822-3.464c-0.074-0.32-0.163-0.656-0.229-0.985h-0.041l-0.099,4.449h-0.986l0.214-5.582h1.814
		c0.142,0.427,0.675,2.766,0.995,4.556h0.039c0.371-1.782,1.026-4.13,1.166-4.556h1.691l0.214,5.582H51.206z"/>
	<path fill="#FFFFFF" d="M53.692,14.883v-3.235l-0.459-0.098v-0.689h1.526v4.022H53.692z M53.659,9.219h1.083v0.978h-1.083V9.219z"
		/>
	<path fill="#FFFFFF" d="M58.223,14.883v-2.388c0-0.609-0.231-0.896-0.723-0.896c-0.28,0-0.517,0.124-0.706,0.247v3.037H55.72
		v-4.023h0.739l0.163,0.46c0.229-0.27,0.674-0.541,1.271-0.541c1.021,0,1.423,0.6,1.423,1.617v2.487H58.223z"/>
	<path fill="#FFFFFF" d="M60.521,14.883v-3.235l-0.459-0.098v-0.689h1.526v4.022H60.521z M60.488,9.219h1.085v0.978h-1.085V9.219z"
		/>
	<path fill="#FFFFFF" d="M63.476,11.92c0,0.624,1.74,0.435,1.74,1.75c0,0.73-0.54,1.297-1.584,1.297
		c-0.484,0-0.935-0.14-1.205-0.295l0.22-0.747c0.19,0.132,0.583,0.279,0.953,0.279c0.354,0,0.593-0.196,0.593-0.443
		c0-0.723-1.716-0.484-1.716-1.854c0-0.592,0.451-1.125,1.536-1.125c0.418,0,0.853,0.083,1.131,0.197l-0.148,0.779
		c-0.27-0.123-0.614-0.205-0.968-0.205C63.657,11.551,63.476,11.691,63.476,11.92"/>
	<path fill="#FFFFFF" d="M67.572,14.966c-0.713,0-1.215-0.419-1.215-1.429v-1.913h-0.591v-0.763h0.607v-0.698l1.052-0.345v1.043
		h1.075v0.763h-1.075v1.971c0,0.278,0.132,0.46,0.42,0.46c0.229,0,0.459-0.09,0.624-0.173l0.163,0.788
		C68.394,14.81,67.999,14.966,67.572,14.966"/>
	<path fill="#FFFFFF" d="M70.06,13.16c0,0.64,0.36,0.993,1.034,0.993c0.418,0,0.82-0.173,1.174-0.346l0.204,0.756
		c-0.336,0.181-0.869,0.401-1.51,0.401c-1.256,0-1.987-0.771-1.987-2.1c0-1.239,0.591-2.086,1.88-2.086
		c1.215,0,1.701,0.903,1.701,1.913v0.468H70.06z M70.806,11.567c-0.533,0-0.746,0.484-0.746,0.961h1.468
		C71.528,12.01,71.364,11.567,70.806,11.567"/>
	<path fill="#FFFFFF" d="M75.649,11.757c-0.132-0.041-0.311-0.066-0.502-0.066c-0.286,0-0.54,0.123-0.721,0.271v2.922h-1.067v-4.022
		h0.746c0.041,0.189,0.084,0.361,0.117,0.541h0.031c0.123-0.288,0.484-0.616,0.96-0.616c0.214,0,0.369,0.033,0.461,0.058
		C75.666,11.148,75.666,11.451,75.649,11.757"/>
	<path fill="#FFFFFF" d="M76.626,14.883v-3.235l-0.461-0.098v-0.689h1.526v4.022H76.626z M76.593,9.219h1.083v0.978h-1.083V9.219z"
		/>
	<path fill="#FFFFFF" d="M82.273,12.865c0,1.37-0.69,2.1-1.887,2.1c-1.209,0-1.89-0.721-1.89-2.1c0-1.183,0.657-2.086,1.89-2.086
		C81.601,10.779,82.273,11.682,82.273,12.865 M81.173,12.865c0-0.97-0.288-1.306-0.787-1.306c-0.502,0-0.781,0.346-0.781,1.306
		c0,0.935,0.255,1.312,0.781,1.312C80.911,14.177,81.173,13.825,81.173,12.865"/>
	<path fill="#FFFFFF" d="M87.485,11.173c-0.066-0.23-0.097-0.436-0.097-0.739V9.219h1.065v5.664h-0.869l-0.124-0.442
		c-0.163,0.246-0.55,0.524-1.065,0.524c-0.912,0-1.643-0.656-1.643-2.093c0-1.33,0.754-2.094,1.732-2.094
		C86.919,10.779,87.263,10.927,87.485,11.173 M87.388,11.781c-0.165-0.099-0.42-0.197-0.733-0.197c-0.507,0-0.828,0.344-0.828,1.281
		c0,0.96,0.303,1.321,0.813,1.321c0.27,0,0.542-0.131,0.748-0.345V11.781z"/>
	<path fill="#FFFFFF" d="M90.35,13.16c0,0.64,0.36,0.993,1.032,0.993c0.42,0,0.822-0.173,1.176-0.346l0.204,0.756
		c-0.336,0.181-0.869,0.401-1.51,0.401c-1.256,0-1.987-0.771-1.987-2.1c0-1.239,0.591-2.086,1.88-2.086
		c1.215,0,1.701,0.903,1.701,1.913v0.468H90.35z M91.097,11.567c-0.533,0-0.746,0.484-0.746,0.961h1.47
		C91.82,12.01,91.655,11.567,91.097,11.567"/>
	<polygon fill="#FFFFFF" points="46.41,23.092 46.41,17.51 49.818,17.51 49.818,18.421 47.485,18.421 47.485,19.808 49.268,19.808 
		49.186,20.761 47.485,20.761 47.485,22.197 49.818,22.197 49.818,23.092 	"/>
	<path fill="#FFFFFF" d="M53.134,23.092v-2.389c0-0.608-0.231-0.895-0.723-0.895c-0.28,0-0.515,0.123-0.706,0.246v3.038h-1.075
		v-4.022h0.739l0.163,0.459c0.229-0.271,0.675-0.541,1.273-0.541c1.019,0,1.419,0.599,1.419,1.617v2.487H53.134z"/>
	<path fill="#FFFFFF" d="M56.031,21.368c0,0.641,0.361,0.993,1.034,0.993c0.42,0,0.82-0.172,1.174-0.345l0.206,0.755
		c-0.336,0.181-0.871,0.403-1.51,0.403c-1.256,0-1.987-0.773-1.987-2.102c0-1.239,0.591-2.085,1.88-2.085
		c1.215,0,1.699,0.902,1.699,1.912v0.468H56.031z M56.777,19.776c-0.533,0-0.746,0.484-0.746,0.96h1.47
		C57.5,20.218,57.337,19.776,56.777,19.776"/>
	<path fill="#FFFFFF" d="M61.621,19.965c-0.132-0.041-0.311-0.067-0.502-0.067c-0.286,0-0.54,0.124-0.721,0.272v2.922h-1.067V19.07
		h0.746c0.041,0.189,0.082,0.361,0.115,0.542h0.033c0.124-0.288,0.484-0.616,0.96-0.616c0.214,0,0.369,0.032,0.459,0.057
		C61.637,19.356,61.637,19.661,61.621,19.965"/>
	<path fill="#FFFFFF" d="M65.142,19.07h0.698v3.925c0,1.034-0.713,1.772-1.946,1.772c-0.647,0-1.248-0.205-1.592-0.427l0.27-0.821
		c0.257,0.182,0.774,0.411,1.258,0.411c0.632,0,0.96-0.345,0.96-0.927l0.023-0.337c-0.171,0.239-0.566,0.509-1.042,0.509
		c-0.912,0-1.633-0.657-1.633-2.093c0-1.332,0.754-2.095,1.732-2.095c0.474,0,0.879,0.205,1.116,0.444L65.142,19.07z M64.782,20.03
		c-0.157-0.131-0.42-0.238-0.723-0.238c-0.509,0-0.846,0.345-0.846,1.281c0,0.961,0.311,1.321,0.813,1.321
		c0.272,0,0.542-0.123,0.756-0.344V20.03z"/>
	<path fill="#FFFFFF" d="M66.685,18.447l-0.107-0.616l2.076-0.582c0.027,0.106,0.117,0.68,0.142,0.787L66.685,18.447z
		 M67.136,23.092v-3.235l-0.459-0.099v-0.688h1.526v4.022H67.136z"/>
	<path fill="#FFFFFF" d="M71.702,23.092l-0.15-0.475c-0.204,0.278-0.616,0.558-1.174,0.558c-0.805,0-1.353-0.517-1.353-1.289
		c0-0.747,0.558-1.191,1.526-1.191h0.846V20.49c0-0.517-0.303-0.681-0.715-0.681c-0.474,0-0.892,0.123-1.223,0.271l-0.27-0.764
		c0.402-0.172,0.968-0.329,1.6-0.329c1.141,0,1.643,0.526,1.643,1.552v2.552H71.702z M71.397,21.335h-0.665
		c-0.461,0-0.657,0.214-0.657,0.517c0,0.369,0.204,0.591,0.607,0.591c0.255,0,0.519-0.115,0.715-0.27V21.335z"/>
	<path fill="#FFFFFF" d="M49.816,87.605c-0.612,0.29-1.122,0.418-1.693,0.418c-1.357,0-1.994-0.954-1.994-2.391
		c0-1.376,0.686-2.31,2.103-2.31c0.69,0,1.133,0.168,1.491,0.403l-0.377,0.665c-0.255-0.168-0.638-0.289-1.108-0.289
		c-0.813,0-1.182,0.617-1.182,1.516c0,1.069,0.391,1.652,1.155,1.652c0.295,0,0.577-0.059,0.793-0.16v-0.833h-0.626l-0.047-0.652
		h1.485V87.605z"/>
	<path fill="#FFFFFF" d="M53.486,86.304c0,1.122-0.566,1.72-1.545,1.72c-0.988,0-1.545-0.593-1.545-1.72
		c0-0.967,0.537-1.707,1.545-1.707C52.934,84.597,53.486,85.337,53.486,86.304 M52.584,86.304c0-0.792-0.233-1.069-0.643-1.069
		s-0.64,0.283-0.64,1.069c0,0.766,0.208,1.074,0.64,1.074C52.37,87.378,52.584,87.09,52.584,86.304"/>
	<path fill="#FFFFFF" d="M54.958,85c0.148-0.201,0.504-0.402,0.873-0.402c0.772,0,1.33,0.551,1.33,1.708
		c0,1.134-0.671,1.718-1.438,1.718c-0.468,0-0.744-0.182-0.952-0.465l-0.161,0.397h-0.468v-4.633h0.879v1.148L54.958,85z
		 M55.018,87.043c0.134,0.181,0.363,0.335,0.599,0.335c0.381,0,0.665-0.281,0.665-1.073c0-0.787-0.249-1.062-0.653-1.062
		c-0.22,0-0.463,0.115-0.61,0.261V87.043z"/>
	<path fill="#FFFFFF" d="M58.095,87.955v-2.647l-0.375-0.08v-0.564h1.248v3.29H58.095z M58.068,83.322h0.888v0.799h-0.888V83.322z"
		/>
	<path fill="#FFFFFF" d="M60.521,86.546c0,0.524,0.295,0.813,0.846,0.813c0.342,0,0.673-0.142,0.96-0.283l0.167,0.619
		c-0.276,0.147-0.712,0.33-1.234,0.33c-1.028,0-1.627-0.634-1.627-1.72c0-1.014,0.486-1.707,1.54-1.707
		c0.993,0,1.39,0.74,1.39,1.566v0.383H60.521z M61.132,85.243c-0.435,0-0.61,0.396-0.61,0.786h1.201
		C61.722,85.605,61.588,85.243,61.132,85.243"/>
	<path fill="#FFFFFF" d="M65.095,85.397c-0.107-0.033-0.255-0.053-0.41-0.053c-0.233,0-0.441,0.101-0.589,0.223v2.389h-0.875v-3.291
		h0.612c0.035,0.155,0.066,0.297,0.093,0.445h0.027c0.101-0.236,0.397-0.506,0.785-0.506c0.175,0,0.303,0.027,0.377,0.048
		C65.109,84.901,65.109,85.148,65.095,85.397"/>
	<path fill="#FFFFFF" d="M67.669,87.955v-1.955c0-0.497-0.189-0.731-0.591-0.731c-0.228,0-0.424,0.101-0.577,0.201v2.484H65.62
		v-3.29h0.605l0.134,0.376c0.189-0.222,0.552-0.444,1.042-0.444c0.832,0,1.162,0.491,1.162,1.324v2.034H67.669z"/>
	<path fill="#FFFFFF" d="M72.237,86.304c0,1.122-0.564,1.72-1.545,1.72c-0.986,0-1.545-0.593-1.545-1.72
		c0-0.967,0.538-1.707,1.545-1.707C71.687,84.597,72.237,85.337,72.237,86.304 M71.337,86.304c0-0.792-0.235-1.069-0.645-1.069
		c-0.408,0-0.638,0.283-0.638,1.069c0,0.766,0.208,1.074,0.638,1.074C71.123,87.378,71.337,87.09,71.337,86.304"/>
	<path fill="#FFFFFF" d="M76.506,84.921c-0.054-0.189-0.082-0.357-0.082-0.605v-0.994h0.873v4.633h-0.711l-0.101-0.362
		c-0.134,0.201-0.451,0.432-0.873,0.432c-0.746,0-1.343-0.539-1.343-1.715c0-1.088,0.618-1.713,1.417-1.713
		C76.041,84.597,76.323,84.719,76.506,84.921 M76.424,85.418c-0.134-0.081-0.342-0.161-0.599-0.161
		c-0.416,0-0.678,0.283-0.678,1.048c0,0.785,0.249,1.081,0.665,1.081c0.222,0,0.445-0.106,0.612-0.282V85.418z"/>
	<path fill="#FFFFFF" d="M78.85,86.546c0,0.524,0.296,0.813,0.846,0.813c0.342,0,0.671-0.142,0.96-0.283l0.167,0.619
		c-0.274,0.147-0.711,0.33-1.234,0.33c-1.026,0-1.625-0.634-1.625-1.72c0-1.014,0.484-1.707,1.538-1.707
		c0.993,0,1.39,0.74,1.39,1.566v0.383H78.85z M79.461,85.243c-0.435,0-0.61,0.396-0.61,0.786h1.201
		C80.051,85.605,79.917,85.243,79.461,85.243"/>
	<path fill="#FFFFFF" d="M84.89,88.023c-1.277,0-1.954-0.86-1.954-2.371c0-1.392,0.671-2.331,1.954-2.331
		c0.618,0,1.174,0.134,1.543,0.382l-0.336,0.699c-0.233-0.174-0.643-0.31-1.114-0.31c-0.752,0-1.127,0.559-1.127,1.552
		c0,1.048,0.375,1.606,1.114,1.606c0.443,0,0.886-0.188,1.196-0.416l0.282,0.707C85.998,87.848,85.487,88.023,84.89,88.023"/>
	<path fill="#FFFFFF" d="M87.053,87.955v-4.633h0.879v1.216c0,0.228-0.074,0.457-0.086,0.509c0.189-0.228,0.463-0.45,0.931-0.45
		c0.949,0,1.217,0.491,1.217,1.324v2.034h-0.892v-1.955c0-0.087-0.014-0.154-0.047-0.201c-0.029-0.369-0.216-0.53-0.544-0.53
		c-0.229,0-0.424,0.101-0.579,0.201v2.484H87.053z"/>
	<path fill="#FFFFFF" d="M90.978,87.955v-2.647l-0.377-0.08v-0.564h1.25v3.29H90.978z M90.951,83.322h0.886v0.799h-0.886V83.322z"/>
	<path fill="#FFFFFF" d="M92.65,87.083v-3.76h0.867v3.713c0,0.277,0.167,0.318,0.531,0.318v0.617c0,0-0.255,0.053-0.484,0.053
		C92.893,88.023,92.65,87.668,92.65,87.083"/>
	<path fill="#FFFFFF" d="M95.379,86.546c0,0.524,0.295,0.813,0.846,0.813c0.342,0,0.671-0.142,0.96-0.283l0.167,0.619
		c-0.274,0.147-0.711,0.33-1.234,0.33c-1.028,0-1.627-0.634-1.627-1.72c0-1.014,0.486-1.707,1.54-1.707
		c0.993,0,1.39,0.74,1.39,1.566v0.383H95.379z M95.989,85.243c-0.437,0-0.61,0.396-0.61,0.786h1.201
		C96.58,85.605,96.446,85.243,95.989,85.243"/>
</g>
</svg>
