<svg id="Capa_1" data-name="Capa 1" xmlns="http://www.w3.org/2000/svg" viewBox="0 0 405.36 133.63"><defs><style>.cls-1{fill:#fff;}.cls-2{fill:#7bbbe8;}</style></defs><title>logo nuevo emtelco_peque</title><path class="cls-1" d="M162.25,44.9a18.19,18.19,0,0,0-13.11-6h-0.21c-4.86,0-9.08.48-14.84,6.29a15.48,15.48,0,0,0-13.56-6.37c-4.4.3-7.16,1-10.35,4.26a5.32,5.32,0,0,0-10.18.56,0.92,0.92,0,0,0-.08.38V86.11a0.81,0.81,0,0,0,0,.18c0,0.14,0,.27,0,0.4a5.25,5.25,0,0,0,10.49,0,4.49,4.49,0,0,0,0-.56h0V57c1.41-7.54,6.11-8.56,10.53-8.56,2.49,0,7.25,2.88,7.49,8.34V86.11s0,0.08,0,.11a4.53,4.53,0,0,0,0,.46,5.25,5.25,0,0,0,10.49,0,4.5,4.5,0,0,0,0-.46s0-.07,0-0.11L139,57a10.19,10.19,0,0,1,9.81-8.54H149c6.52,0.14,7.89,7,7.89,8.34V86.13a4.37,4.37,0,0,0,0,.56,5.25,5.25,0,0,0,10.49,0,3.87,3.87,0,0,0,0-.39,0.83,0.83,0,0,0,0-.19V56.43c0.18-3.63-1.76-8.05-5.07-11.52"/><path class="cls-1" d="M261.54,21.42a1.62,1.62,0,0,0,0-.23v-0.3a0.84,0.84,0,0,0-.08-0.36,5.23,5.23,0,0,0-10.29,0,0.88,0.88,0,0,0-.08.38v0.3a1.6,1.6,0,0,0,0,.23,1.62,1.62,0,0,0,0,.23V86.21a1.59,1.59,0,0,0,0,.23,5.25,5.25,0,0,0,10.49,0,1.62,1.62,0,0,0,0-.23V21.65a1.6,1.6,0,0,0,0-.23"/><path class="cls-1" d="M196.46,82.61c-0.26,0-.87.07-2,0.21-1,.12-2.33.28-2.71,0.28a6.42,6.42,0,0,1-1.72-.21,2,2,0,0,1-1-.75,4.76,4.76,0,0,1-.77-2,20.26,20.26,0,0,1-.29-3.86v-27h6.5l0.32,0a4.33,4.33,0,0,0,.43-8.64,0.93,0.93,0,0,0-.26,0h-7V29.79a1.78,1.78,0,0,0,0-.24,5.24,5.24,0,0,0-10.49,0,5.13,5.13,0,0,0,.1,1V40.67h-5.11a0.83,0.83,0,0,0-.29.05,4.33,4.33,0,0,0,.54,8.62l0.32,0h4.53v26.6c0,2.34.08,4.46,0.24,6.3a12,12,0,0,0,1.51,5.06,8.08,8.08,0,0,0,3.81,3.3,16.88,16.88,0,0,0,6.72,1.07c0.79,0,3.27-.16,5.08-0.27l1.55-.1a4.34,4.34,0,0,0,0-8.67"/><path class="cls-1" d="M98.22,62.28a65.34,65.34,0,0,0-1.66-8.15,23.49,23.49,0,0,0-4.82-8.31,20.82,20.82,0,0,0-7.62-5.22,26.31,26.31,0,0,0-9.87-1.8,25.27,25.27,0,0,0-9.63,1.8A21.15,21.15,0,0,0,57,45.82a24.08,24.08,0,0,0-4.91,8.31A32.72,32.72,0,0,0,50.37,65.2a32.9,32.9,0,0,0,1.78,11.17,22.88,22.88,0,0,0,5.11,8.35,22.21,22.21,0,0,0,7.91,5.16,27.86,27.86,0,0,0,10.11,1.77,29.26,29.26,0,0,0,8-1.06,21.94,21.94,0,0,0,6.13-2.78c0.76-.47,3.06-1.89,3.06-4.48A5,5,0,0,0,92,81.26,3,3,0,0,0,91.8,81l-0.09-.16a2.69,2.69,0,0,0-.15-0.27,2.74,2.74,0,0,0-.2-0.26l0,0a4.32,4.32,0,0,0-3.91-1.76c-0.5.06-1.41,0.38-4.36,2.33l-0.14.09a12.09,12.09,0,0,1-3.57,1.55,16.21,16.21,0,0,1-4.09.53,15.29,15.29,0,0,1-5.28-.9,11.54,11.54,0,0,1-4.26-2.77,14.22,14.22,0,0,1-3-4.87c-0.21-.54-0.41-1.16-0.62-1.91A0.81,0.81,0,0,0,62,72.37a21.34,21.34,0,0,1-.83-4.18h32a5.57,5.57,0,0,0,4.17-1.69,5,5,0,0,0,.83-4.12V62.28ZM70.35,59.55l-0.2,0H61.61a20.86,20.86,0,0,1,1.51-5A13.7,13.7,0,0,1,66,50.43a10.49,10.49,0,0,1,3.75-2.35,13.32,13.32,0,0,1,4.53-.77,11.79,11.79,0,0,1,8.6,3.19c2.06,2,3.47,5,4.22,9.05H70.35Z"/><path class="cls-1" d="M247.93,62.28a65.58,65.58,0,0,0-1.66-8.15,23.5,23.5,0,0,0-4.82-8.31,20.83,20.83,0,0,0-7.62-5.22A26.33,26.33,0,0,0,224,38.8a25.28,25.28,0,0,0-9.63,1.8,21.14,21.14,0,0,0-7.57,5.22,24.11,24.11,0,0,0-4.91,8.31,32.73,32.73,0,0,0-1.76,11.08,32.92,32.92,0,0,0,1.78,11.17A22.88,22.88,0,0,0,207,84.72a22.22,22.22,0,0,0,7.91,5.16A27.85,27.85,0,0,0,225,91.65a29.25,29.25,0,0,0,8-1.06,21.93,21.93,0,0,0,6.13-2.78c0.76-.47,3.06-1.89,3.06-4.48a5,5,0,0,0-.46-2.07,2.88,2.88,0,0,0-.16-0.31l-0.08-.16a2.63,2.63,0,0,0-.15-0.27c-0.06-.09-0.13-0.17-0.2-0.25l0,0a4.33,4.33,0,0,0-3.91-1.76c-0.5.06-1.41,0.38-4.36,2.33l-0.14.09a12.09,12.09,0,0,1-3.56,1.55A16.21,16.21,0,0,1,225,83a15.29,15.29,0,0,1-5.28-.9,11.54,11.54,0,0,1-4.26-2.77,14.23,14.23,0,0,1-3-4.87c-0.21-.54-0.41-1.16-0.62-1.91a0.81,0.81,0,0,0-.05-0.15,21.37,21.37,0,0,1-.83-4.18h32a5.56,5.56,0,0,0,4.17-1.69,5,5,0,0,0,.83-4.12V62.28Zm-26.79-2.74-0.2,0h-9.61a20.87,20.87,0,0,1,1.51-5,13.74,13.74,0,0,1,2.83-4.11,10.49,10.49,0,0,1,3.75-2.35A13.32,13.32,0,0,1,224,47.3a11.79,11.79,0,0,1,8.6,3.19c2.06,2,3.47,5,4.22,9.05H221.14Z"/><path class="cls-1" d="M302.61,74.87A5,5,0,0,0,298,77.95a0.94,0.94,0,0,0-.14.23l0,0.11c-0.06.13-.11,0.26-0.18,0.38a7.19,7.19,0,0,1-2.1,2.44,9.23,9.23,0,0,1-3.06,1.43,14.49,14.49,0,0,1-3.74.48,11.31,11.31,0,0,1-9.47-4.32c-2.32-2.93-3.49-7.41-3.49-13.33a28.42,28.42,0,0,1,1-7.74,16.46,16.46,0,0,1,2.67-5.57,11.11,11.11,0,0,1,4.07-3.33,12.17,12.17,0,0,1,5.26-1.13,12.35,12.35,0,0,1,3.7.55,9.82,9.82,0,0,1,3.07,1.57,7.75,7.75,0,0,1,1.85,2.13,0.81,0.81,0,0,0,.31.28,4.85,4.85,0,0,0,3.64,1.65,4.9,4.9,0,0,0,4.9-4.9,4.81,4.81,0,0,0-.83-2.7,0.9,0.9,0,0,0-.15-0.27,16.86,16.86,0,0,0-2.42-2.4,19,19,0,0,0-6.21-3.27,26,26,0,0,0-7.87-1.12,25.71,25.71,0,0,0-9.53,1.72,20.72,20.72,0,0,0-7.5,5.05,22.58,22.58,0,0,0-4.83,8.25,34.56,34.56,0,0,0-1.68,11.22,34.56,34.56,0,0,0,1.68,11.22,22.78,22.78,0,0,0,4.83,8.27,20.59,20.59,0,0,0,7.5,5.08,25.72,25.72,0,0,0,9.54,1.72,26,26,0,0,0,7.48-1.05,19.64,19.64,0,0,0,6.27-3.15,17,17,0,0,0,4.1-4.55,4.94,4.94,0,0,0,1-3,5,5,0,0,0-5-5"/><path class="cls-1" d="M331.46,39.13c-13,0-23.51,11.78-23.51,26.26s10.55,26.26,23.51,26.26S355,79.87,355,65.39s-10.55-26.26-23.51-26.26m13.62,26.25c0,9.23-6.16,16.74-13.73,16.74s-13.73-7.51-13.73-16.74,6.16-16.74,13.73-16.74,13.73,7.51,13.73,16.74"/><path class="cls-2" d="M260.13,96a9,9,0,0,1,2.43.33,8.29,8.29,0,0,1,2,.84A6.28,6.28,0,0,1,266,98.21a1.5,1.5,0,0,1,.5.94,1.12,1.12,0,0,1-.29.81,0.87,0.87,0,0,1-.64.31,1.19,1.19,0,0,1-.69-0.32l-1.07-.84a5.84,5.84,0,0,0-1.56-.85,6.06,6.06,0,0,0-2.1-.33,5.39,5.39,0,0,0-3.62,1.32,8.32,8.32,0,0,0-2.35,3.41,12,12,0,0,0-.8,4.35,11.3,11.3,0,0,0,.76,4.19,6.78,6.78,0,0,0,2.38,3.08,6.68,6.68,0,0,0,4,1.17,7.44,7.44,0,0,0,2.16-.28,6.81,6.81,0,0,0,1.51-.64q0.59-.36,1.12-0.74a1.67,1.67,0,0,1,.74-0.39,0.84,0.84,0,0,1,.65.26,1.13,1.13,0,0,1,.24.79,1.38,1.38,0,0,1-.48.86,5.51,5.51,0,0,1-1.4,1,9.79,9.79,0,0,1-2.12.8,10.05,10.05,0,0,1-2.55.31,9.69,9.69,0,0,1-4.08-.8,8,8,0,0,1-2.93-2.27A9.69,9.69,0,0,1,251.6,111a13.83,13.83,0,0,1-.56-4,14.76,14.76,0,0,1,.57-4.1,11.14,11.14,0,0,1,1.71-3.53A8.15,8.15,0,0,1,260.13,96"/><path class="cls-2" d="M274.07,104.26l5.11-7.51a2.34,2.34,0,0,1,.5-0.59,1,1,0,0,1,.6-0.17,1.07,1.07,0,0,1,.69.25,0.73,0.73,0,0,1,.31.58,2,2,0,0,1-.42,1l-5.62,8.14,6.77,9.67a2.18,2.18,0,0,1,.42,1,0.71,0.71,0,0,1-.31.58,1.11,1.11,0,0,1-.69.24,1,1,0,0,1-.59-0.15,3,3,0,0,1-.53-0.61l-6.24-9-6.24,9a2.44,2.44,0,0,1-.51.59,1,1,0,0,1-.61.16,1.07,1.07,0,0,1-.69-0.24,0.72,0.72,0,0,1-.29-0.58,2.22,2.22,0,0,1,.4-1l6.77-9.67-5.62-8.14a2.11,2.11,0,0,1-.42-1,0.73,0.73,0,0,1,.31-0.58,1.07,1.07,0,0,1,.69-0.25,1,1,0,0,1,.62.18,2.26,2.26,0,0,1,.49.58Z"/><path class="cls-2" d="M295.28,104.73l5.17,6,0.82-1.2q0.44-.64.92-1.46a8.35,8.35,0,0,1,.77-1.15,0.92,0.92,0,0,1,1.37-.06,1,1,0,0,1,.24.69,2.37,2.37,0,0,1-.26.78,12.08,12.08,0,0,1-.87,1.5q-0.62.94-1.76,2.41l2.69,3a1.41,1.41,0,0,1,.47.9,1,1,0,0,1-1.06,1.15,0.69,0.69,0,0,1-.41-0.11,4.89,4.89,0,0,1-.56-0.56l-2.33-2.72a11.84,11.84,0,0,1-1.82,1.77,8.54,8.54,0,0,1-2.17,1.24,6.46,6.46,0,0,1-2.38.46,7,7,0,0,1-5-1.74,6.05,6.05,0,0,1-1.82-4.59,6,6,0,0,1,1.3-3.79,12.55,12.55,0,0,1,3.68-3,15.92,15.92,0,0,1-1.89-2.46,3.74,3.74,0,0,1-.5-1.85,3.94,3.94,0,0,1,.53-2A3.64,3.64,0,0,1,292,96.5a5.57,5.57,0,0,1,2.51-.52,5.29,5.29,0,0,1,3.3,1,3.35,3.35,0,0,1,1.31,2.83,3.82,3.82,0,0,1-.54,2,6,6,0,0,1-1.35,1.57,17.32,17.32,0,0,1-1.92,1.35m3.83,7.61-5.68-6.6a8,8,0,0,0-2.83,2.3,4.83,4.83,0,0,0-1,3,4.77,4.77,0,0,0,.56,2.33,3.86,3.86,0,0,0,1.57,1.57,4.78,4.78,0,0,0,2.32.55,5.51,5.51,0,0,0,2.69-.77,7,7,0,0,0,2.4-2.34M297,100a2,2,0,0,0-.73-1.6,2.88,2.88,0,0,0-1.9-.61,2.72,2.72,0,0,0-1.67.52A2,2,0,0,0,292,100a2.33,2.33,0,0,0,.49,1.34q0.49,0.69,1.53,1.9a10.29,10.29,0,0,0,2.34-1.66A2.27,2.27,0,0,0,297,100"/><path class="cls-2" d="M310.86,116.12V97.28a1.07,1.07,0,0,1,1.29-1.12h3.77a7.61,7.61,0,0,1,2.81.47,4.76,4.76,0,0,1,2.9,2.92,5.66,5.66,0,0,1,.32,1.89,4.58,4.58,0,0,1-.74,2.77,5.13,5.13,0,0,1-2.2,1.62v0.06a5.42,5.42,0,0,1,3.36,1.72,5.25,5.25,0,0,1,1.2,3.59,6.41,6.41,0,0,1-.72,3,5.32,5.32,0,0,1-2.2,2.2,7.52,7.52,0,0,1-3.69.82h-4.8a1.46,1.46,0,0,1-1-.27,1.07,1.07,0,0,1-.31-0.84m2.1-18v7.07H316a4,4,0,0,0,1.93-.47,3.44,3.44,0,0,0,1.38-1.32,3.66,3.66,0,0,0,.49-1.88,3.44,3.44,0,0,0-.24-1.29,3.19,3.19,0,0,0-.72-1.07,3.44,3.44,0,0,0-1.19-.76,4.36,4.36,0,0,0-1.61-.28H313Zm0,8.86v8.3h3.75a5.23,5.23,0,0,0,3.5-1.07,3.81,3.81,0,0,0,1.25-3.07,4.18,4.18,0,0,0-.34-1.7,3.72,3.72,0,0,0-1-1.32,4.45,4.45,0,0,0-1.51-.85,6.07,6.07,0,0,0-2-.3H313Z"/><path class="cls-2" d="M326.83,109.18v6.88q0,1.34-1.05,1.35t-1.05-1.35V97.28A1.08,1.08,0,0,1,326,96.16h5a6.36,6.36,0,0,1,3.65,1,5.88,5.88,0,0,1,2.12,2.44,7,7,0,0,1,.66,2.91,7.36,7.36,0,0,1-.77,3.33,5.73,5.73,0,0,1-2.35,2.45,7.62,7.62,0,0,1-3.86.91h-3.69Zm0-11.06v9.13h3.86a4.85,4.85,0,0,0,2.63-.67,4.12,4.12,0,0,0,1.56-1.71,5,5,0,0,0,.5-2.21,5,5,0,0,0-.5-2.19,4.08,4.08,0,0,0-1.56-1.69,4.89,4.89,0,0,0-2.63-.66h-3.86Z"/><path class="cls-2" d="M337.29,106.69a13.85,13.85,0,0,1,.57-4,11,11,0,0,1,1.7-3.45,8.24,8.24,0,0,1,2.8-2.42,7.94,7.94,0,0,1,3.78-.88,8,8,0,0,1,3.81.89,8.14,8.14,0,0,1,2.79,2.39,11,11,0,0,1,1.68,3.44,14.17,14.17,0,0,1,0,8,11,11,0,0,1-1.67,3.43,8.18,8.18,0,0,1-2.81,2.4,8.49,8.49,0,0,1-7.58,0,8.13,8.13,0,0,1-2.81-2.42,11.06,11.06,0,0,1-1.69-3.45,13.93,13.93,0,0,1-.57-4m8.84,8.76a5.52,5.52,0,0,0,3.76-1.29,7.32,7.32,0,0,0,2.15-3.29,13.43,13.43,0,0,0,0-8.35,7.4,7.4,0,0,0-2.14-3.31,6.11,6.11,0,0,0-7.53,0,7.31,7.31,0,0,0-2.13,3.32,13.59,13.59,0,0,0,0,8.31,7.24,7.24,0,0,0,2.14,3.3,5.53,5.53,0,0,0,3.76,1.3"/></svg>