<?xml version="1.0" encoding="utf-8"?>
<!-- Generator: Adobe Illustrator 17.0.0, SVG Export Plug-In . SVG Version: 6.00 Build 0)  -->
<!DOCTYPE svg PUBLIC "-//W3C//DTD SVG 1.1//EN" "http://www.w3.org/Graphics/SVG/1.1/DTD/svg11.dtd">
<svg version="1.1" id="Layer_1" xmlns="http://www.w3.org/2000/svg" xmlns:xlink="http://www.w3.org/1999/xlink" x="0px" y="0px"
	 width="443px" height="36px" viewBox="0 0 443 36" enable-background="new 0 0 443 36" xml:space="preserve">
<polygon fill="#FF8400" points="442.604,35.877 0.396,35.877 5.834,17.602 0.396,0.123 442.604,0.123 435.449,17.593 "/>
<g>
	<g>
		<path fill="#FFFFFF" stroke="#FFFFFF" stroke-width="0.8703" stroke-miterlimit="10" d="M34.238,6.563
			c0.715,0,1.787-0.029,3.216-0.09c1.43-0.059,2.501-0.09,3.216-0.09c0.298,0,0.446,0.15,0.446,0.447s-0.148,0.447-0.446,0.447
			c-0.715,0-1.732,0.029-3.052,0.088c-1.32,0.061-2.269,0.09-2.844,0.09c0.02,0.279,0.198,1.926,0.536,4.943l0.238,2.174
			c0.396-0.1,0.823-0.16,1.28-0.18c0.456-0.02,0.992-0.014,1.607,0.016s1.003,0.045,1.161,0.045c0.298,0,0.447,0.148,0.447,0.445
			c0,0.299-0.149,0.447-0.447,0.447c-0.237,0-0.665-0.016-1.28-0.045s-1.131-0.033-1.548-0.014s-0.794,0.078-1.132,0.178
			c0.06,0.734,0.109,1.42,0.149,2.055c0.06,0.973,0.094,1.975,0.104,3.008c0.01,1.031,0.005,2.268-0.015,3.707
			s-0.029,2.436-0.029,2.992c0,0.219-0.05,0.615-0.149,1.191c-0.06,0.377-0.069,0.684-0.029,0.922
			c0.02,0.119-0.005,0.234-0.074,0.342c-0.07,0.109-0.164,0.176-0.283,0.195s-0.233-0.006-0.343-0.076
			c-0.109-0.068-0.174-0.162-0.193-0.281c-0.06-0.338-0.05-0.756,0.03-1.252c0.099-0.535,0.148-0.883,0.148-1.041
			c0-0.576,0.01-1.574,0.03-2.992c0.02-1.42,0.024-2.646,0.015-3.678c-0.011-1.031-0.045-2.025-0.104-2.979
			c-0.06-1.15-0.219-2.838-0.477-5.061c-0.278-2.363-0.457-4.07-0.536-5.121V7.278c-0.06-0.08-0.089-0.17-0.089-0.268
			C33.791,6.711,33.94,6.563,34.238,6.563z"/>
		<path fill="#FFFFFF" stroke="#FFFFFF" stroke-width="0.8703" stroke-miterlimit="10" d="M45.671,7.098
			c0.972-0.119,2.64-0.107,5.002,0.029c0.119,0,0.218,0.051,0.298,0.15c0.079,0.1,0.119,0.207,0.119,0.326s-0.05,0.219-0.149,0.299
			s-0.208,0.119-0.327,0.119c-2.303-0.139-3.9-0.148-4.794-0.029c0.06,0.873,0.219,2.342,0.477,4.406l0.238,2.174
			c0.417-0.061,0.863-0.09,1.34-0.09s1.032,0.006,1.667,0.016c0.636,0.01,1.072,0.014,1.311,0.014c0.298,0,0.446,0.148,0.446,0.447
			c0,0.297-0.148,0.447-0.446,0.447c-0.278,0-0.729-0.006-1.354-0.016c-0.626-0.01-1.161-0.016-1.608-0.016
			c-0.446,0-0.868,0.021-1.266,0.061c0.06,0.754,0.109,1.449,0.149,2.084c0.06,0.973,0.094,1.975,0.104,3.008
			c0.01,1.031,0.004,2.268-0.016,3.707s-0.029,2.436-0.029,2.992c0,0.219-0.05,0.615-0.149,1.191
			c-0.02,0.098-0.029,0.188-0.029,0.268c0.675,0.078,1.399,0.123,2.174,0.133c0.773,0.012,1.662,0,2.664-0.029
			c1.003-0.029,1.752-0.045,2.248-0.045c0.298,0,0.447,0.148,0.447,0.447c0,0.297-0.149,0.447-0.447,0.447
			c-0.456,0-1.186,0.014-2.188,0.043c-1.002,0.031-1.9,0.041-2.694,0.031s-1.538-0.055-2.233-0.135
			c-0.06,0.16-0.169,0.258-0.327,0.299c-0.119,0.02-0.233-0.006-0.343-0.076c-0.109-0.068-0.174-0.162-0.193-0.281
			c-0.06-0.338-0.05-0.756,0.03-1.252c0.099-0.535,0.148-0.883,0.148-1.041c0-0.576,0.01-1.574,0.03-2.992
			c0.02-1.42,0.024-2.646,0.015-3.678c-0.011-1.031-0.045-2.025-0.104-2.979c-0.06-1.15-0.219-2.838-0.477-5.061
			c-0.278-2.363-0.457-4.07-0.536-5.121c0-0.119,0.04-0.229,0.119-0.328s0.179-0.148,0.298-0.148
			C45.443,6.901,45.572,6.959,45.671,7.098z"/>
		<path fill="#FFFFFF" stroke="#FFFFFF" stroke-width="0.8703" stroke-miterlimit="10" d="M58.176,7.127
			c0,0.953-0.06,2.244-0.179,3.871c-0.159,1.807-0.248,3.078-0.268,3.813c-0.06,1.826-0.021,4.217,0.119,7.176
			c0.178,3.869,0.268,6.152,0.268,6.848c0.596,0.08,1.235,0.129,1.921,0.148c0.685,0.02,1.508,0.016,2.471-0.014
			c0.963-0.031,1.633-0.045,2.01-0.045c0.298,0,0.447,0.148,0.447,0.445c0,0.299-0.149,0.447-0.447,0.447
			c-0.258,0-0.948,0.016-2.069,0.045s-2.06,0.025-2.813-0.016c-0.715-0.02-1.42-0.088-2.114-0.207
			c-0.119-0.02-0.213-0.086-0.282-0.195c-0.07-0.107-0.095-0.223-0.075-0.342l0.06-0.119c0-1.27-0.079-3.592-0.238-6.967
			c-0.159-3.176-0.208-5.578-0.148-7.205c0.02-0.754,0.108-2.045,0.268-3.871c0.119-1.607,0.179-2.879,0.179-3.813
			c0-0.117,0.045-0.223,0.134-0.313c0.09-0.088,0.194-0.133,0.313-0.133s0.223,0.045,0.313,0.133
			C58.131,6.905,58.176,7.01,58.176,7.127z"/>
		<path fill="#FFFFFF" stroke="#FFFFFF" stroke-width="0.8703" stroke-miterlimit="10" d="M69.341,6.772
			c0.198,1.031,0.238,2.441,0.119,4.227c-0.139,2.145-0.198,3.514-0.179,4.109c0.278,5.996,0.526,10.67,0.745,14.023
			c0,0.119-0.04,0.229-0.119,0.328c-0.08,0.1-0.179,0.148-0.298,0.148s-0.229-0.039-0.328-0.119c-0.1-0.078-0.148-0.178-0.148-0.297
			c-0.219-3.355-0.467-8.029-0.744-14.023c-0.021-0.518,0.039-1.926,0.179-4.229c0.099-1.688,0.06-3.018-0.119-3.99
			c-0.021-0.119,0.004-0.232,0.074-0.342c0.069-0.109,0.164-0.174,0.283-0.193s0.232,0.004,0.342,0.074
			C69.257,6.557,69.322,6.653,69.341,6.772z"/>
		<path fill="#FFFFFF" stroke="#FFFFFF" stroke-width="0.8703" stroke-miterlimit="10" d="M79.494,11.297
			c-0.1-0.834-0.353-1.604-0.76-2.309c-0.407-0.703-0.858-1.186-1.354-1.443c-0.457-0.258-0.884-0.258-1.28,0
			c-0.517,0.338-0.953,1.053-1.311,2.145c-0.298,0.932-0.481,1.99-0.551,3.17c-0.069,1.182-0.079,2.59-0.029,4.229
			c0.049,1.637,0.064,2.773,0.045,3.408c0,0.338-0.025,0.834-0.075,1.49c-0.05,0.654-0.074,1.131-0.074,1.428
			c0,0.299,0.02,0.766,0.06,1.4c0.159,1.291,0.486,2.352,0.982,3.186c0.615,1.033,1.419,1.51,2.412,1.43
			c0.516-0.039,0.883-0.199,1.102-0.477c0.456-0.576,0.725-1.648,0.804-3.217c0.02-0.555,0.015-1.295-0.015-2.217
			c-0.03-0.924-0.045-1.455-0.045-1.594c0-0.297,0.149-0.447,0.447-0.447c0.297,0,0.446,0.15,0.446,0.447
			c0,0.139,0.015,0.676,0.045,1.607c0.029,0.934,0.034,1.678,0.015,2.234c-0.08,1.766-0.407,3.006-0.982,3.721
			c-0.397,0.496-0.982,0.775-1.757,0.834c-1.351,0.1-2.432-0.525-3.246-1.875c-0.556-0.953-0.923-2.125-1.102-3.514
			c-0.04-0.695-0.06-1.201-0.06-1.52c0-0.316,0.025-0.818,0.075-1.502c0.049-0.686,0.074-1.156,0.074-1.416
			c0.02-0.555,0.005-1.672-0.045-3.35c-0.05-1.676-0.035-3.141,0.045-4.391c0.079-1.252,0.277-2.373,0.596-3.365
			c0.396-1.289,0.952-2.154,1.667-2.59c0.675-0.457,1.399-0.477,2.174-0.061c0.635,0.357,1.195,0.949,1.682,1.771
			c0.486,0.824,0.789,1.713,0.908,2.666c0.02,0.119-0.01,0.229-0.089,0.326c-0.08,0.1-0.179,0.16-0.298,0.18s-0.229-0.01-0.327-0.09
			C79.574,11.516,79.514,11.416,79.494,11.297z"/>
		<path fill="#FFFFFF" stroke="#FFFFFF" stroke-width="0.8703" stroke-miterlimit="10" d="M85.21,6.772
			c0.198,1.031,0.238,2.441,0.119,4.227c-0.139,2.145-0.198,3.514-0.179,4.109c0.278,5.996,0.526,10.67,0.745,14.023
			c0,0.119-0.04,0.229-0.119,0.328c-0.08,0.1-0.179,0.148-0.298,0.148s-0.229-0.039-0.328-0.119c-0.1-0.078-0.148-0.178-0.148-0.297
			c-0.219-3.355-0.467-8.029-0.744-14.023c-0.021-0.518,0.039-1.926,0.179-4.229c0.099-1.688,0.06-3.018-0.119-3.99
			c-0.021-0.119,0.004-0.232,0.074-0.342c0.069-0.109,0.164-0.174,0.283-0.193s0.232,0.004,0.342,0.074
			C85.126,6.557,85.191,6.653,85.21,6.772z"/>
		<path fill="#FFFFFF" stroke="#FFFFFF" stroke-width="0.8703" stroke-miterlimit="10" d="M90.153,6.979
			C90.37,7,90.579,7.03,90.778,7.069s0.367,0.084,0.507,0.135c0.139,0.049,0.302,0.129,0.491,0.238
			c0.188,0.109,0.322,0.193,0.401,0.252l0.447,0.299l0.417,0.297c1.469,0.973,2.724,2.254,3.766,3.842
			c1.043,1.588,1.742,3.285,2.1,5.09c0.396,1.906,0.367,3.752-0.09,5.539c-0.456,1.768-1.39,3.305-2.799,4.615
			c-0.952,0.893-2.67,1.559-5.15,1.994c-0.06,0.219-0.209,0.328-0.447,0.328c-0.297,0-0.446-0.148-0.446-0.447
			c0-0.654-0.04-1.736-0.119-3.244c-0.079-1.469-0.109-2.561-0.089-3.275c0-0.139,0.015-0.77,0.044-1.891
			c0.03-1.121,0.045-1.803,0.045-2.041s0.005-0.848,0.015-1.83s0.005-1.672-0.015-2.07c-0.02-0.396-0.04-1.012-0.06-1.846
			s-0.055-1.508-0.104-2.023c-0.05-0.518-0.114-1.117-0.193-1.803c-0.079-0.684-0.179-1.324-0.298-1.92
			c-0.02-0.119,0.005-0.232,0.075-0.342c0.069-0.109,0.163-0.174,0.282-0.193c0.219-0.041,0.377,0.029,0.477,0.207H90.153z
			 M90.867,28.448c2.223-0.396,3.741-0.973,4.556-1.727c1.27-1.191,2.113-2.602,2.53-4.229s0.447-3.324,0.09-5.092
			c-0.357-1.687-1.022-3.279-1.995-4.779c-0.973-1.498-2.134-2.705-3.483-3.617c-0.1-0.061-0.243-0.154-0.432-0.283
			c-0.189-0.129-0.323-0.213-0.402-0.252l-0.327-0.238c-0.159-0.08-0.288-0.139-0.388-0.18l-0.357-0.09
			c-0.139-0.039-0.288-0.068-0.446-0.088c0.337,2.123,0.521,4.609,0.551,7.457c0.03,2.85-0.005,5.316-0.104,7.4
			c-0.02,0.654,0.01,1.736,0.09,3.244C90.808,27.147,90.847,27.971,90.867,28.448z"/>
		<path fill="#FFFFFF" stroke="#FFFFFF" stroke-width="0.8703" stroke-miterlimit="10" d="M105.993,6.176
			c0.356-0.041,0.694,0.039,1.012,0.238c0.119,0.059,0.238,0.139,0.357,0.238c0.119,0.059,0.188,0.158,0.209,0.297
			c0.316,0.377,0.614,0.904,0.893,1.578c0.298,0.754,0.625,1.826,0.982,3.215c0.774,3.217,1.24,5.926,1.399,8.129
			c0.04,0.695,0.085,1.684,0.135,2.963c0.049,1.281,0.108,2.428,0.179,3.439c0.068,1.012,0.193,1.965,0.372,2.857
			c0.02,0.119-0.006,0.234-0.075,0.344s-0.163,0.174-0.282,0.193s-0.233-0.006-0.343-0.074c-0.109-0.07-0.174-0.164-0.193-0.283
			c-0.159-0.953-0.278-1.945-0.357-2.979c-0.079-1.031-0.145-2.191-0.193-3.482c-0.05-1.291-0.095-2.264-0.134-2.918
			c-0.1-1.449-0.328-3.066-0.686-4.854c-0.119,0-0.521-0.016-1.205-0.045c-0.686-0.029-1.206-0.045-1.563-0.045
			c-1.132,0.02-2.015,0.16-2.65,0.418c0.04,0.455,0.09,0.951,0.149,1.488c0.06,0.654,0.168,1.627,0.327,2.918
			s0.258,2.193,0.298,2.709c0.02,0.277,0.06,1.459,0.119,3.543c0.039,1.43,0.139,2.57,0.298,3.424
			c0.02,0.119-0.005,0.234-0.074,0.344c-0.07,0.107-0.164,0.172-0.283,0.193c-0.119,0.02-0.233-0.006-0.343-0.074
			c-0.109-0.07-0.174-0.164-0.193-0.283c-0.159-0.934-0.258-2.125-0.298-3.574c-0.06-2.043-0.1-3.215-0.119-3.512
			c-0.04-0.496-0.139-1.391-0.298-2.68c-0.158-1.291-0.268-2.264-0.327-2.918c-0.258-2.521-0.298-4.377-0.119-5.568
			c0.238-1.49,0.596-2.689,1.072-3.604c0.377-0.715,0.804-1.191,1.28-1.43c0.158-0.078,0.327-0.129,0.506-0.148
			C105.884,6.196,105.934,6.176,105.993,6.176z M109.089,14.186c-0.158-0.695-0.337-1.43-0.535-2.205
			c-0.318-1.369-0.626-2.41-0.924-3.125c-0.258-0.615-0.525-1.082-0.804-1.4c-0.079-0.1-0.169-0.178-0.268-0.238
			c-0.298-0.139-0.576-0.148-0.834-0.029c-0.298,0.158-0.596,0.506-0.894,1.043c-0.416,0.832-0.734,1.934-0.952,3.305
			c-0.119,0.734-0.149,1.717-0.09,2.947c0.695-0.238,1.588-0.367,2.68-0.387C106.529,14.096,107.403,14.125,109.089,14.186z"/>
		<path fill="#FFFFFF" stroke="#FFFFFF" stroke-width="0.8703" stroke-miterlimit="10" d="M115.58,6.979
			c0.218,0.021,0.427,0.051,0.625,0.09s0.367,0.084,0.507,0.135c0.139,0.049,0.302,0.129,0.491,0.238
			c0.188,0.109,0.322,0.193,0.401,0.252l0.447,0.299l0.417,0.297c1.469,0.973,2.724,2.254,3.766,3.842
			c1.043,1.588,1.742,3.285,2.1,5.09c0.396,1.906,0.367,3.752-0.09,5.539c-0.456,1.768-1.39,3.305-2.799,4.615
			c-0.952,0.893-2.67,1.559-5.15,1.994c-0.06,0.219-0.209,0.328-0.447,0.328c-0.297,0-0.446-0.148-0.446-0.447
			c0-0.654-0.04-1.736-0.119-3.244c-0.079-1.469-0.109-2.561-0.089-3.275c0-0.139,0.015-0.77,0.044-1.891
			c0.03-1.121,0.045-1.803,0.045-2.041s0.005-0.848,0.015-1.83s0.005-1.672-0.015-2.07c-0.02-0.396-0.04-1.012-0.06-1.846
			s-0.055-1.508-0.104-2.023c-0.05-0.518-0.114-1.117-0.193-1.803c-0.079-0.684-0.179-1.324-0.298-1.92
			c-0.02-0.119,0.005-0.232,0.075-0.342c0.069-0.109,0.163-0.174,0.282-0.193c0.219-0.041,0.377,0.029,0.477,0.207H115.58z
			 M116.295,28.448c2.223-0.396,3.741-0.973,4.556-1.727c1.27-1.191,2.113-2.602,2.53-4.229s0.447-3.324,0.09-5.092
			c-0.357-1.687-1.022-3.279-1.995-4.779c-0.973-1.498-2.134-2.705-3.483-3.617c-0.1-0.061-0.243-0.154-0.432-0.283
			c-0.189-0.129-0.323-0.213-0.402-0.252l-0.327-0.238c-0.159-0.08-0.288-0.139-0.388-0.18l-0.357-0.09
			c-0.139-0.039-0.288-0.068-0.446-0.088c0.337,2.123,0.521,4.609,0.551,7.457c0.03,2.85-0.005,5.316-0.104,7.4
			c-0.02,0.654,0.01,1.736,0.09,3.244C116.236,27.147,116.275,27.971,116.295,28.448z"/>
		<path fill="#FFFFFF" stroke="#FFFFFF" stroke-width="0.8703" stroke-miterlimit="10" d="M128.175,7.098
			c0.972-0.119,2.64-0.107,5.002,0.029c0.119,0,0.218,0.051,0.298,0.15c0.079,0.1,0.119,0.207,0.119,0.326s-0.05,0.219-0.149,0.299
			s-0.208,0.119-0.327,0.119c-2.303-0.139-3.9-0.148-4.794-0.029c0.06,0.873,0.219,2.342,0.477,4.406l0.238,2.174
			c0.417-0.061,0.863-0.09,1.34-0.09s1.032,0.006,1.667,0.016c0.636,0.01,1.072,0.014,1.311,0.014c0.298,0,0.446,0.148,0.446,0.447
			c0,0.297-0.148,0.447-0.446,0.447c-0.278,0-0.729-0.006-1.354-0.016c-0.626-0.01-1.161-0.016-1.608-0.016
			c-0.446,0-0.868,0.021-1.266,0.061c0.06,0.754,0.109,1.449,0.149,2.084c0.06,0.973,0.094,1.975,0.104,3.008
			c0.01,1.031,0.004,2.268-0.016,3.707s-0.029,2.436-0.029,2.992c0,0.219-0.05,0.615-0.149,1.191
			c-0.02,0.098-0.029,0.188-0.029,0.268c0.675,0.078,1.399,0.123,2.174,0.133c0.773,0.012,1.662,0,2.664-0.029
			c1.003-0.029,1.752-0.045,2.248-0.045c0.298,0,0.447,0.148,0.447,0.447c0,0.297-0.149,0.447-0.447,0.447
			c-0.456,0-1.186,0.014-2.188,0.043c-1.002,0.031-1.9,0.041-2.694,0.031s-1.538-0.055-2.233-0.135
			c-0.06,0.16-0.169,0.258-0.327,0.299c-0.119,0.02-0.233-0.006-0.343-0.076c-0.109-0.068-0.174-0.162-0.193-0.281
			c-0.06-0.338-0.05-0.756,0.03-1.252c0.099-0.535,0.148-0.883,0.148-1.041c0-0.576,0.01-1.574,0.03-2.992
			c0.02-1.42,0.024-2.646,0.015-3.678c-0.011-1.031-0.045-2.025-0.104-2.979c-0.06-1.15-0.219-2.838-0.477-5.061
			c-0.278-2.363-0.457-4.07-0.536-5.121c0-0.119,0.04-0.229,0.119-0.328s0.179-0.148,0.298-0.148
			C127.947,6.901,128.075,6.959,128.175,7.098z"/>
		<path fill="#FFFFFF" stroke="#FFFFFF" stroke-width="0.8703" stroke-miterlimit="10" d="M145.027,12.696
			c0-0.197,0.016-0.5,0.045-0.908c0.03-0.406,0.045-0.68,0.045-0.818c0.02-0.654-0.021-1.16-0.119-1.518
			c-0.14-0.418-0.348-0.885-0.625-1.4c-0.318-0.596-0.586-0.934-0.805-1.012c-0.337-0.139-0.714,0.039-1.131,0.535
			s-0.665,0.992-0.744,1.488c-0.08,0.398-0.119,0.801-0.119,1.207s0.029,0.834,0.089,1.279c0.06,0.447,0.124,0.84,0.193,1.178
			c0.069,0.336,0.169,0.768,0.298,1.295c0.129,0.525,0.224,0.947,0.283,1.266c0.794,3.988,1.27,6.906,1.429,8.754
			c0.02,0.236,0.064,0.605,0.135,1.102c0.069,0.496,0.113,0.793,0.134,0.893c0.119,0.873,0.129,1.598,0.029,2.174
			c-0.119,0.635-0.407,1.082-0.863,1.34c-0.397,0.199-0.863,0.219-1.399,0.059c-0.437-0.139-0.849-0.377-1.235-0.715
			c-0.388-0.336-0.66-0.703-0.819-1.102c-0.417-1.051-0.576-2.41-0.477-4.078c0.02-0.238,0.055-0.68,0.104-1.326
			c0.05-0.645,0.079-1.07,0.09-1.279c0.01-0.209,0.004-0.631-0.016-1.266c0-0.119,0.04-0.229,0.119-0.328
			c0.079-0.098,0.179-0.148,0.298-0.148s0.229,0.041,0.328,0.119c0.099,0.08,0.148,0.18,0.148,0.299
			c0.02,0.674,0.024,1.125,0.015,1.354s-0.04,0.676-0.089,1.34c-0.05,0.666-0.085,1.098-0.104,1.295
			c-0.1,1.529,0.04,2.75,0.417,3.662c0.099,0.279,0.293,0.541,0.58,0.789c0.288,0.25,0.591,0.422,0.908,0.521
			c0.298,0.1,0.536,0.1,0.715,0c0.198-0.1,0.328-0.336,0.388-0.715c0.099-0.477,0.089-1.102-0.03-1.875
			c0-0.1-0.04-0.396-0.119-0.893s-0.129-0.885-0.148-1.162c-0.14-1.707-0.616-4.586-1.43-8.635l-0.268-1.221
			c-0.119-0.535-0.214-0.982-0.283-1.34s-0.139-0.773-0.208-1.25c-0.07-0.477-0.104-0.943-0.104-1.4
			c0-0.455,0.039-0.912,0.119-1.369c0.119-0.635,0.437-1.27,0.953-1.906c0.714-0.834,1.438-1.092,2.173-0.773
			c0.397,0.178,0.805,0.654,1.221,1.43c0.317,0.555,0.546,1.082,0.686,1.578c0.139,0.436,0.198,1.041,0.179,1.816
			c0,0.119-0.016,0.377-0.045,0.773c-0.03,0.396-0.045,0.695-0.045,0.893c0,0.299-0.148,0.447-0.446,0.447
			S145.027,12.995,145.027,12.696z"/>
		<path fill="#FFFFFF" stroke="#FFFFFF" stroke-width="0.8703" stroke-miterlimit="10" d="M165.72,6.563
			c-0.08,0.674-0.109,1.627-0.09,2.857c0.02,1.471,0.02,2.453,0,2.949c-0.02,0.555-0.04,1.012-0.06,1.369
			c0.179,0.039,0.357,0.07,0.536,0.09c0.119,0.02,0.213,0.084,0.283,0.193c0.069,0.109,0.094,0.223,0.074,0.342
			s-0.085,0.213-0.193,0.283c-0.109,0.07-0.224,0.094-0.343,0.074s-0.248-0.039-0.387-0.061c-0.1,3.197-0.03,5.926,0.208,8.189
			c0.317,3.037,0.477,5.23,0.477,6.58c0,0.297-0.148,0.447-0.446,0.447s-0.447-0.15-0.447-0.447c0-1.291-0.159-3.443-0.476-6.461
			c-0.238-2.264-0.309-5.063-0.209-8.396c-0.417-0.041-0.953-0.051-1.607-0.031c-1.509,0.041-2.372,0.061-2.591,0.061
			c-0.02,2.045,0.079,5.379,0.298,10.004c0.02,0.299,0.01,1.102-0.029,2.412c-0.04,0.934,0,1.678,0.118,2.232
			c0.02,0.119-0.005,0.234-0.074,0.344s-0.163,0.174-0.282,0.193s-0.234-0.006-0.343-0.074c-0.109-0.07-0.174-0.164-0.193-0.283
			c-0.119-0.596-0.159-1.41-0.119-2.441c0.039-1.291,0.049-2.064,0.029-2.322c-0.278-6.115-0.357-10.6-0.238-13.459
			c0-0.059,0.01-0.432,0.03-1.117c0.02-0.684,0.039-1.156,0.06-1.414c0.02-0.258,0.069-0.641,0.148-1.146s0.179-0.947,0.298-1.324
			c0.04-0.1,0.114-0.18,0.224-0.238c0.108-0.061,0.218-0.07,0.327-0.029c0.109,0.039,0.193,0.113,0.253,0.223
			s0.069,0.223,0.03,0.342c-0.1,0.338-0.184,0.734-0.253,1.191c-0.07,0.457-0.114,0.805-0.134,1.043
			c-0.021,0.238-0.04,0.689-0.06,1.354c-0.021,0.666-0.03,1.059-0.03,1.178c-0.04,0.773-0.06,1.588-0.06,2.441
			c0.198,0,1.052-0.02,2.561-0.061c0.675-0.02,1.23-0.01,1.668,0.029c0.02-0.258,0.039-0.715,0.06-1.369
			c0.02-0.477,0.02-1.43,0-2.857c-0.021-1.252,0.01-2.234,0.089-2.949c0.02-0.139,0.074-0.248,0.164-0.326
			c0.089-0.08,0.198-0.109,0.327-0.09s0.233,0.074,0.313,0.164C165.709,6.338,165.74,6.444,165.72,6.563z"/>
		<path fill="#FFFFFF" stroke="#FFFFFF" stroke-width="0.8703" stroke-miterlimit="10" d="M173.58,6.176
			c0.357-0.041,0.694,0.039,1.013,0.238c0.119,0.059,0.238,0.139,0.357,0.238c0.119,0.059,0.188,0.158,0.208,0.297
			c0.317,0.377,0.615,0.904,0.894,1.578c0.298,0.754,0.625,1.826,0.982,3.215c0.774,3.217,1.24,5.926,1.399,8.129
			c0.039,0.695,0.084,1.684,0.134,2.963c0.05,1.281,0.109,2.428,0.179,3.439s0.193,1.965,0.372,2.857
			c0.02,0.119-0.005,0.234-0.074,0.344c-0.07,0.109-0.164,0.174-0.283,0.193s-0.233-0.006-0.342-0.074
			c-0.109-0.07-0.175-0.164-0.194-0.283c-0.158-0.953-0.277-1.945-0.356-2.979c-0.08-1.031-0.145-2.191-0.194-3.482
			s-0.094-2.264-0.134-2.918c-0.1-1.449-0.327-3.066-0.685-4.854c-0.119,0-0.521-0.016-1.206-0.045s-1.206-0.045-1.563-0.045
			c-1.131,0.02-2.015,0.16-2.649,0.418c0.039,0.455,0.089,0.951,0.148,1.488c0.06,0.654,0.169,1.627,0.328,2.918
			c0.158,1.291,0.258,2.193,0.298,2.709c0.02,0.277,0.06,1.459,0.118,3.543c0.04,1.43,0.139,2.57,0.298,3.424
			c0.02,0.119-0.005,0.234-0.074,0.344c-0.069,0.107-0.164,0.172-0.282,0.193c-0.119,0.02-0.234-0.006-0.343-0.074
			c-0.109-0.07-0.174-0.164-0.193-0.283c-0.159-0.934-0.259-2.125-0.298-3.574c-0.06-2.043-0.1-3.215-0.119-3.512
			c-0.04-0.496-0.14-1.391-0.298-2.68c-0.159-1.291-0.268-2.264-0.327-2.918c-0.259-2.521-0.298-4.377-0.119-5.568
			c0.238-1.49,0.595-2.689,1.071-3.604c0.377-0.715,0.804-1.191,1.28-1.43c0.159-0.078,0.328-0.129,0.507-0.148
			C173.471,6.196,173.521,6.176,173.58,6.176z M176.677,14.186c-0.159-0.695-0.338-1.43-0.536-2.205
			c-0.317-1.369-0.625-2.41-0.923-3.125c-0.258-0.615-0.526-1.082-0.804-1.4c-0.08-0.1-0.169-0.178-0.269-0.238
			c-0.298-0.139-0.575-0.148-0.833-0.029c-0.298,0.158-0.596,0.506-0.894,1.043c-0.417,0.832-0.734,1.934-0.953,3.305
			c-0.119,0.734-0.148,1.717-0.089,2.947c0.694-0.238,1.588-0.367,2.68-0.387C174.116,14.096,174.99,14.125,176.677,14.186z"/>
		<path fill="#FFFFFF" stroke="#FFFFFF" stroke-width="0.8703" stroke-miterlimit="10" d="M187.723,12.696
			c0-0.197,0.016-0.5,0.045-0.908c0.03-0.406,0.045-0.68,0.045-0.818c0.02-0.654-0.021-1.16-0.119-1.518
			c-0.14-0.418-0.348-0.885-0.625-1.4c-0.318-0.596-0.586-0.934-0.805-1.012c-0.337-0.139-0.714,0.039-1.131,0.535
			s-0.665,0.992-0.744,1.488c-0.08,0.398-0.119,0.801-0.119,1.207s0.029,0.834,0.089,1.279c0.06,0.447,0.124,0.84,0.193,1.178
			c0.069,0.336,0.169,0.768,0.298,1.295c0.129,0.525,0.224,0.947,0.283,1.266c0.794,3.988,1.27,6.906,1.429,8.754
			c0.02,0.236,0.064,0.605,0.135,1.102c0.069,0.496,0.113,0.793,0.134,0.893c0.119,0.873,0.129,1.598,0.029,2.174
			c-0.119,0.635-0.407,1.082-0.863,1.34c-0.397,0.199-0.863,0.219-1.399,0.059c-0.437-0.139-0.849-0.377-1.235-0.715
			c-0.388-0.336-0.66-0.703-0.819-1.102c-0.417-1.051-0.576-2.41-0.477-4.078c0.02-0.238,0.055-0.68,0.104-1.326
			c0.05-0.645,0.079-1.07,0.09-1.279c0.01-0.209,0.004-0.631-0.016-1.266c0-0.119,0.04-0.229,0.119-0.328
			c0.079-0.098,0.179-0.148,0.298-0.148s0.229,0.041,0.328,0.119c0.099,0.08,0.148,0.18,0.148,0.299
			c0.02,0.674,0.024,1.125,0.015,1.354s-0.04,0.676-0.089,1.34c-0.05,0.666-0.085,1.098-0.104,1.295
			c-0.1,1.529,0.04,2.75,0.417,3.662c0.099,0.279,0.293,0.541,0.58,0.789c0.288,0.25,0.591,0.422,0.908,0.521
			c0.298,0.1,0.536,0.1,0.715,0c0.198-0.1,0.328-0.336,0.388-0.715c0.099-0.477,0.089-1.102-0.03-1.875
			c0-0.1-0.04-0.396-0.119-0.893s-0.129-0.885-0.148-1.162c-0.14-1.707-0.616-4.586-1.43-8.635l-0.268-1.221
			c-0.119-0.535-0.214-0.982-0.283-1.34s-0.139-0.773-0.208-1.25c-0.07-0.477-0.104-0.943-0.104-1.4
			c0-0.455,0.039-0.912,0.119-1.369c0.119-0.635,0.437-1.27,0.953-1.906c0.714-0.834,1.438-1.092,2.173-0.773
			c0.397,0.178,0.805,0.654,1.221,1.43c0.317,0.555,0.546,1.082,0.686,1.578c0.139,0.436,0.198,1.041,0.179,1.816
			c0,0.119-0.016,0.377-0.045,0.773c-0.03,0.396-0.045,0.695-0.045,0.893c0,0.299-0.148,0.447-0.446,0.447
			S187.723,12.995,187.723,12.696z"/>
		<path fill="#FFFFFF" stroke="#FFFFFF" stroke-width="0.8703" stroke-miterlimit="10" d="M208.624,11.297
			c-0.1-0.834-0.353-1.604-0.759-2.309c-0.407-0.703-0.859-1.186-1.355-1.443c-0.456-0.258-0.883-0.258-1.28,0
			c-0.516,0.338-0.952,1.053-1.31,2.145c-0.298,0.932-0.481,1.99-0.551,3.17c-0.07,1.182-0.08,2.59-0.03,4.229
			c0.05,1.637,0.064,2.773,0.045,3.408c0,0.338-0.025,0.834-0.074,1.49c-0.05,0.654-0.074,1.131-0.074,1.428
			c0,0.299,0.02,0.766,0.06,1.4c0.158,1.291,0.485,2.352,0.982,3.186c0.615,1.033,1.419,1.51,2.411,1.43
			c0.517-0.039,0.884-0.199,1.102-0.477c0.457-0.576,0.725-1.648,0.805-3.217c0.02-0.555,0.015-1.295-0.016-2.217
			c-0.029-0.924-0.044-1.455-0.044-1.594c0-0.297,0.148-0.447,0.446-0.447s0.446,0.15,0.446,0.447c0,0.139,0.016,0.676,0.045,1.607
			c0.03,0.934,0.034,1.678,0.015,2.234c-0.079,1.766-0.406,3.006-0.982,3.721c-0.397,0.496-0.982,0.775-1.757,0.834
			c-1.35,0.1-2.432-0.525-3.245-1.875c-0.556-0.953-0.923-2.125-1.102-3.514c-0.04-0.695-0.06-1.201-0.06-1.52
			c0-0.316,0.024-0.818,0.074-1.502c0.05-0.686,0.074-1.156,0.074-1.416c0.02-0.555,0.005-1.672-0.044-3.35
			c-0.05-1.676-0.035-3.141,0.044-4.391c0.079-1.252,0.278-2.373,0.596-3.365c0.397-1.289,0.953-2.154,1.668-2.59
			c0.674-0.457,1.399-0.477,2.173-0.061c0.636,0.357,1.196,0.949,1.683,1.771c0.486,0.824,0.789,1.713,0.908,2.666
			c0.02,0.119-0.011,0.229-0.09,0.326c-0.079,0.1-0.179,0.16-0.297,0.18c-0.119,0.02-0.229-0.01-0.328-0.09
			C208.703,11.516,208.644,11.416,208.624,11.297z"/>
		<path fill="#FFFFFF" stroke="#FFFFFF" stroke-width="0.8703" stroke-miterlimit="10" d="M218.628,10.284
			c1.092,4.289,1.419,8.863,0.983,13.727c0,0.041-0.016,0.273-0.045,0.701c-0.03,0.426-0.064,0.818-0.104,1.176
			s-0.1,0.695-0.179,1.012c-0.338,1.449-1.002,2.244-1.995,2.383c-1.032,0.139-1.935-0.377-2.709-1.549
			c-0.497-0.754-0.884-1.668-1.161-2.74c-0.397-1.627-0.606-4.098-0.626-7.414c0-3.295,0.219-5.756,0.655-7.383
			c0.397-1.49,0.804-2.502,1.221-3.037c0.417-0.516,0.883-0.725,1.399-0.625s1.042,0.545,1.578,1.34l0.328,0.506
			c0.099,0.059,0.158,0.139,0.179,0.238l0.06,0.207c0.197,0.357,0.347,0.736,0.446,1.133
			C218.698,10.077,218.688,10.186,218.628,10.284z M217.407,9.182c-0.1-0.158-0.278-0.436-0.535-0.832
			c-0.378-0.576-0.695-0.885-0.953-0.924c-0.179-0.039-0.357,0.059-0.536,0.297c-0.357,0.438-0.725,1.34-1.102,2.711
			c-0.397,1.527-0.591,3.91-0.581,7.145c0.01,3.236,0.214,5.629,0.61,7.176c0.238,0.994,0.576,1.828,1.013,2.502
			c0.575,0.854,1.191,1.23,1.846,1.131c0.576-0.078,0.993-0.645,1.251-1.697c0.06-0.297,0.108-0.605,0.148-0.922
			c0.04-0.318,0.075-0.686,0.104-1.102c0.03-0.418,0.045-0.656,0.045-0.715C219.214,18.592,218.778,13.668,217.407,9.182z"/>
		<path fill="#FFFFFF" stroke="#FFFFFF" stroke-width="0.8703" stroke-miterlimit="10" d="M226.459,11.149
			c-0.119-0.1-0.169-0.219-0.149-0.357c0.02-0.16,0.04-0.299,0.06-0.418c-0.179-1.051-0.397-1.787-0.655-2.203
			c-0.118-0.197-0.347-0.258-0.685-0.178c-0.219,0.039-0.437,0.129-0.655,0.268c-0.04,0.992-0.055,1.682-0.044,2.068
			c0.01,0.387,0.044,1.082,0.104,2.084c0.06,1.004,0.1,1.703,0.119,2.1c0.278,7.107,0.417,12.08,0.417,14.918
			c0,0.297-0.148,0.447-0.446,0.447s-0.446-0.15-0.446-0.447c0-2.838-0.14-7.791-0.417-14.857c-0.021-0.377-0.06-1.033-0.119-1.965
			c-0.06-0.934-0.095-1.609-0.104-2.025c-0.01-0.418-0.005-1.102,0.015-2.055l-0.06-0.059c-0.198-0.238-0.188-0.447,0.03-0.627
			l0.089-0.088l0.06-0.477c0.02-0.119,0.079-0.219,0.179-0.299c0.1-0.078,0.209-0.107,0.328-0.088
			c0.197,0.02,0.327,0.129,0.387,0.326c0.119-0.039,0.238-0.068,0.357-0.09c0.754-0.197,1.31-0.01,1.667,0.566
			c0.139,0.238,0.258,0.527,0.357,0.863c0.079-0.139,0.159-0.258,0.238-0.357c0.277-0.436,0.641-0.783,1.087-1.041
			s0.908-0.396,1.385-0.418c0.516,0,0.972,0.154,1.369,0.463c0.397,0.307,0.675,0.758,0.834,1.354
			c0.158,0.656,0.263,1.355,0.313,2.1c0.049,0.744,0.074,1.604,0.074,2.576c0,0.893,0.01,1.568,0.03,2.023
			c0.039,0.914,0.079,2.234,0.119,3.961c0.039,1.727,0.069,2.809,0.089,3.246c0.1,2.877,0.269,5.24,0.506,7.086
			c0.02,0.119-0.01,0.229-0.089,0.328c-0.079,0.098-0.179,0.158-0.298,0.178s-0.229-0.01-0.327-0.09
			c-0.1-0.078-0.159-0.178-0.179-0.297c-0.238-1.865-0.407-4.258-0.507-7.176c-0.02-0.438-0.05-1.52-0.089-3.246
			c-0.04-1.688-0.079-2.996-0.119-3.93c-0.02-0.457-0.029-1.156-0.029-2.1s-0.025-1.762-0.075-2.457
			c-0.05-0.693-0.153-1.35-0.313-1.965c-0.179-0.773-0.615-1.16-1.31-1.16c-0.695,0.02-1.28,0.367-1.757,1.041
			c-0.259,0.398-0.438,0.963-0.536,1.697c0.079,0.518,0.148,1.111,0.208,1.787c0.06,0.695,0.114,1.604,0.164,2.725
			s0.074,1.742,0.074,1.861s-0.04,0.229-0.119,0.326c-0.079,0.1-0.179,0.148-0.298,0.148s-0.228-0.039-0.327-0.119
			c-0.1-0.078-0.148-0.178-0.148-0.297s-0.025-0.738-0.075-1.861c-0.05-1.121-0.104-2.02-0.163-2.693
			C226.538,11.852,226.498,11.485,226.459,11.149z"/>
		<path fill="#FFFFFF" stroke="#FFFFFF" stroke-width="0.8703" stroke-miterlimit="10" d="M237.863,6.325
			c1.23-0.377,2.273-0.328,3.127,0.148c0.933,0.518,1.519,1.42,1.757,2.709c0.218,1.152,0.108,2.363-0.328,3.633
			c-0.417,1.271-1.092,2.244-2.024,2.918c-0.199,0.139-0.422,0.254-0.67,0.344c-0.248,0.088-0.457,0.148-0.625,0.178
			c-0.169,0.029-0.393,0.061-0.67,0.09c-0.278,0.029-0.467,0.055-0.566,0.074s-0.188,0-0.268-0.061
			c-0.06,0.518-0.07,2.641-0.03,6.373s0.06,5.855,0.06,6.371c0,0.299-0.148,0.447-0.446,0.447s-0.446-0.148-0.446-0.447
			c0-0.992-0.016-2.551-0.045-4.674c-0.03-2.125-0.04-4.006-0.03-5.643c0.01-1.639,0.055-3.201,0.135-4.689
			c0.02-0.377,0.039-1.607,0.06-3.693c0.02-1.23,0.079-2.252,0.179-3.066c-0.06-0.039-0.1-0.09-0.119-0.148
			c-0.1-0.258-0.03-0.447,0.208-0.566c0.02-0.119,0.079-0.217,0.179-0.297c0.099-0.08,0.208-0.109,0.327-0.09
			C237.703,6.254,237.783,6.286,237.863,6.325z M237.624,15.555c0.04,0,0.079-0.01,0.119-0.029l0.626-0.09
			c0.238-0.02,0.426-0.039,0.565-0.061c0.139-0.02,0.293-0.059,0.462-0.119c0.168-0.059,0.322-0.139,0.461-0.238
			c0.794-0.574,1.374-1.408,1.742-2.5c0.367-1.092,0.461-2.145,0.282-3.156c-0.198-1.012-0.635-1.707-1.31-2.084
			c-0.695-0.396-1.578-0.406-2.65-0.031c-0.1,0.834-0.159,1.887-0.179,3.156c-0.04,2.482-0.06,3.732-0.06,3.752L237.624,15.555z"/>
		<path fill="#FFFFFF" stroke="#FFFFFF" stroke-width="0.8703" stroke-miterlimit="10" d="M247.569,7.127
			c0,0.953-0.06,2.244-0.178,3.871c-0.159,1.807-0.249,3.078-0.269,3.813c-0.06,1.826-0.02,4.217,0.119,7.176
			c0.179,3.869,0.268,6.152,0.268,6.848c0.596,0.08,1.236,0.129,1.921,0.148s1.509,0.016,2.472-0.014
			c0.962-0.031,1.632-0.045,2.01-0.045c0.298,0,0.446,0.148,0.446,0.445c0,0.299-0.148,0.447-0.446,0.447
			c-0.259,0-0.948,0.016-2.069,0.045c-1.122,0.029-2.06,0.025-2.814-0.016c-0.714-0.02-1.419-0.088-2.113-0.207
			c-0.119-0.02-0.214-0.086-0.283-0.195c-0.069-0.107-0.095-0.223-0.074-0.342l0.06-0.119c0-1.27-0.08-3.592-0.238-6.967
			c-0.159-3.176-0.209-5.578-0.149-7.205c0.02-0.754,0.109-2.045,0.269-3.871c0.119-1.607,0.179-2.879,0.179-3.813
			c0-0.117,0.044-0.223,0.134-0.313c0.089-0.088,0.193-0.133,0.313-0.133s0.224,0.045,0.313,0.133
			C247.525,6.905,247.569,7.01,247.569,7.127z"/>
		<path fill="#FFFFFF" stroke="#FFFFFF" stroke-width="0.8703" stroke-miterlimit="10" d="M257.87,7.098
			c0.973-0.119,2.64-0.107,5.002,0.029c0.119,0,0.219,0.051,0.298,0.15s0.119,0.207,0.119,0.326s-0.05,0.219-0.148,0.299
			c-0.1,0.08-0.209,0.119-0.328,0.119c-2.303-0.139-3.9-0.148-4.793-0.029c0.06,0.873,0.218,2.342,0.476,4.406l0.238,2.174
			c0.417-0.061,0.864-0.09,1.34-0.09c0.477,0,1.032,0.006,1.668,0.016c0.635,0.01,1.071,0.014,1.31,0.014
			c0.298,0,0.447,0.148,0.447,0.447c0,0.297-0.149,0.447-0.447,0.447c-0.278,0-0.729-0.006-1.354-0.016s-1.161-0.016-1.607-0.016
			c-0.447,0-0.869,0.021-1.266,0.061c0.06,0.754,0.108,1.449,0.148,2.084c0.06,0.973,0.095,1.975,0.104,3.008
			c0.01,1.031,0.005,2.268-0.015,3.707c-0.021,1.439-0.03,2.436-0.03,2.992c0,0.219-0.05,0.615-0.148,1.191
			c-0.021,0.098-0.03,0.188-0.03,0.268c0.675,0.078,1.399,0.123,2.174,0.133c0.774,0.012,1.662,0,2.665-0.029
			c1.002-0.029,1.752-0.045,2.248-0.045c0.298,0,0.446,0.148,0.446,0.447c0,0.297-0.148,0.447-0.446,0.447
			c-0.457,0-1.187,0.014-2.188,0.043c-1.003,0.031-1.901,0.041-2.694,0.031c-0.795-0.01-1.539-0.055-2.233-0.135
			c-0.06,0.16-0.169,0.258-0.328,0.299c-0.118,0.02-0.233-0.006-0.342-0.076c-0.109-0.068-0.174-0.162-0.193-0.281
			c-0.06-0.338-0.05-0.756,0.029-1.252c0.1-0.535,0.149-0.883,0.149-1.041c0-0.576,0.01-1.574,0.029-2.992
			c0.02-1.42,0.024-2.646,0.015-3.678s-0.044-2.025-0.104-2.979c-0.06-1.15-0.219-2.838-0.477-5.061
			c-0.278-2.363-0.457-4.07-0.536-5.121c0-0.119,0.039-0.229,0.119-0.328c0.079-0.1,0.179-0.148,0.298-0.148
			C257.642,6.901,257.771,6.959,257.87,7.098z"/>
		<path fill="#FFFFFF" stroke="#FFFFFF" stroke-width="0.8703" stroke-miterlimit="10" d="M272.728,7.01
			c0.119,1.469,0.149,3.563,0.09,6.281c-0.06,3.037-0.06,5.102,0,6.193c0.039,0.676,0.179,2.342,0.416,5.002
			c0.198,2.244,0.298,3.922,0.298,5.033c0,0.297-0.148,0.445-0.446,0.445s-0.446-0.148-0.446-0.445c0-1.092-0.1-2.75-0.298-4.973
			c-0.238-2.621-0.378-4.289-0.417-5.002c-0.06-1.133-0.06-3.227,0-6.283c0.06-2.699,0.029-4.764-0.09-6.193v-0.09
			c-1.111,0.021-2.084,0.1-2.918,0.238c-0.119,0.02-0.228-0.004-0.327-0.074c-0.1-0.068-0.159-0.168-0.179-0.297
			s0.005-0.244,0.074-0.344c0.069-0.098,0.174-0.158,0.313-0.178c0.715-0.119,1.459-0.193,2.233-0.223
			c0.774-0.031,1.757-0.031,2.948,0c1.19,0.029,1.925,0.043,2.203,0.043c0.298,0,0.446,0.15,0.446,0.447
			c0,0.299-0.148,0.447-0.446,0.447c-0.417,0-1.013-0.01-1.786-0.029c-0.774-0.02-1.33-0.031-1.668-0.031V7.01z"/>
		<path fill="#FFFFFF" stroke="#FFFFFF" stroke-width="0.8703" stroke-miterlimit="10" d="M283.03,6.176
			c0.357-0.041,0.694,0.039,1.013,0.238c0.119,0.059,0.238,0.139,0.357,0.238c0.119,0.059,0.188,0.158,0.208,0.297
			c0.317,0.377,0.615,0.904,0.894,1.578c0.298,0.754,0.625,1.826,0.982,3.215c0.774,3.217,1.24,5.926,1.399,8.129
			c0.039,0.695,0.084,1.684,0.134,2.963c0.05,1.281,0.109,2.428,0.179,3.439s0.193,1.965,0.372,2.857
			c0.02,0.119-0.005,0.234-0.074,0.344c-0.07,0.109-0.164,0.174-0.283,0.193s-0.233-0.006-0.342-0.074
			c-0.109-0.07-0.175-0.164-0.194-0.283c-0.158-0.953-0.277-1.945-0.356-2.979c-0.08-1.031-0.145-2.191-0.194-3.482
			s-0.094-2.264-0.134-2.918c-0.1-1.449-0.327-3.066-0.685-4.854c-0.119,0-0.521-0.016-1.206-0.045s-1.206-0.045-1.563-0.045
			c-1.131,0.02-2.015,0.16-2.649,0.418c0.039,0.455,0.089,0.951,0.148,1.488c0.06,0.654,0.169,1.627,0.328,2.918
			c0.158,1.291,0.258,2.193,0.298,2.709c0.02,0.277,0.06,1.459,0.118,3.543c0.04,1.43,0.139,2.57,0.298,3.424
			c0.02,0.119-0.005,0.234-0.074,0.344c-0.069,0.107-0.164,0.172-0.282,0.193c-0.119,0.02-0.234-0.006-0.343-0.074
			c-0.109-0.07-0.174-0.164-0.193-0.283c-0.159-0.934-0.259-2.125-0.298-3.574c-0.06-2.043-0.1-3.215-0.119-3.512
			c-0.04-0.496-0.14-1.391-0.298-2.68c-0.159-1.291-0.268-2.264-0.327-2.918c-0.259-2.521-0.298-4.377-0.119-5.568
			c0.238-1.49,0.595-2.689,1.071-3.604c0.377-0.715,0.804-1.191,1.28-1.43c0.159-0.078,0.328-0.129,0.507-0.148
			C282.92,6.196,282.97,6.176,283.03,6.176z M286.126,14.186c-0.159-0.695-0.338-1.43-0.536-2.205
			c-0.317-1.369-0.625-2.41-0.923-3.125c-0.258-0.615-0.526-1.082-0.804-1.4c-0.08-0.1-0.169-0.178-0.269-0.238
			c-0.298-0.139-0.575-0.148-0.833-0.029c-0.298,0.158-0.596,0.506-0.894,1.043c-0.417,0.832-0.734,1.934-0.953,3.305
			c-0.119,0.734-0.148,1.717-0.089,2.947c0.694-0.238,1.588-0.367,2.68-0.387C283.566,14.096,284.439,14.125,286.126,14.186z"/>
		<path fill="#FFFFFF" stroke="#FFFFFF" stroke-width="0.8703" stroke-miterlimit="10" d="M292.617,6.979
			c0.218,0.021,0.426,0.051,0.625,0.09c0.198,0.039,0.367,0.084,0.506,0.135c0.139,0.049,0.303,0.129,0.491,0.238
			s0.322,0.193,0.402,0.252l0.446,0.299l0.417,0.297c1.469,0.973,2.725,2.254,3.767,3.842s1.742,3.285,2.099,5.09
			c0.397,1.906,0.367,3.752-0.089,5.539c-0.457,1.768-1.39,3.305-2.799,4.615c-0.953,0.893-2.67,1.559-5.151,1.994
			c-0.06,0.219-0.208,0.328-0.446,0.328c-0.298,0-0.446-0.148-0.446-0.447c0-0.654-0.04-1.736-0.119-3.244
			c-0.08-1.469-0.109-2.561-0.09-3.275c0-0.139,0.015-0.77,0.045-1.891c0.029-1.121,0.045-1.803,0.045-2.041s0.004-0.848,0.015-1.83
			c0.01-0.982,0.005-1.672-0.015-2.07c-0.021-0.396-0.04-1.012-0.06-1.846c-0.021-0.834-0.056-1.508-0.104-2.023
			c-0.05-0.518-0.114-1.117-0.193-1.803c-0.08-0.684-0.179-1.324-0.298-1.92c-0.021-0.119,0.005-0.232,0.074-0.342
			s0.164-0.174,0.283-0.193c0.218-0.041,0.377,0.029,0.477,0.207H292.617z M293.331,28.448c2.224-0.396,3.741-0.973,4.556-1.727
			c1.271-1.191,2.114-2.602,2.531-4.229s0.446-3.324,0.089-5.092c-0.357-1.687-1.022-3.279-1.995-4.779
			c-0.973-1.498-2.134-2.705-3.483-3.617c-0.1-0.061-0.243-0.154-0.432-0.283s-0.323-0.213-0.402-0.252l-0.327-0.238
			c-0.159-0.08-0.288-0.139-0.387-0.18l-0.357-0.09c-0.14-0.039-0.288-0.068-0.447-0.088c0.338,2.123,0.521,4.609,0.552,7.457
			c0.029,2.85-0.006,5.316-0.104,7.4c-0.021,0.654,0.01,1.736,0.089,3.244C293.272,27.147,293.312,27.971,293.331,28.448z"/>
		<path fill="#FFFFFF" stroke="#FFFFFF" stroke-width="0.8703" stroke-miterlimit="10" d="M310.363,10.284
			c1.092,4.289,1.419,8.863,0.983,13.727c0,0.041-0.016,0.273-0.045,0.701c-0.03,0.426-0.064,0.818-0.104,1.176
			s-0.1,0.695-0.179,1.012c-0.338,1.449-1.002,2.244-1.995,2.383c-1.032,0.139-1.935-0.377-2.709-1.549
			c-0.497-0.754-0.884-1.668-1.161-2.74c-0.397-1.627-0.606-4.098-0.626-7.414c0-3.295,0.219-5.756,0.655-7.383
			c0.397-1.49,0.804-2.502,1.221-3.037c0.417-0.516,0.883-0.725,1.399-0.625s1.042,0.545,1.578,1.34l0.328,0.506
			c0.099,0.059,0.158,0.139,0.179,0.238l0.06,0.207c0.197,0.357,0.347,0.736,0.446,1.133
			C310.432,10.077,310.422,10.186,310.363,10.284z M309.142,9.182c-0.1-0.158-0.278-0.436-0.535-0.832
			c-0.378-0.576-0.695-0.885-0.953-0.924c-0.179-0.039-0.357,0.059-0.536,0.297c-0.357,0.438-0.725,1.34-1.102,2.711
			c-0.397,1.527-0.591,3.91-0.581,7.145c0.01,3.236,0.214,5.629,0.61,7.176c0.238,0.994,0.576,1.828,1.013,2.502
			c0.575,0.854,1.191,1.23,1.846,1.131c0.576-0.078,0.993-0.645,1.251-1.697c0.06-0.297,0.108-0.605,0.148-0.922
			c0.04-0.318,0.075-0.686,0.104-1.102c0.03-0.418,0.045-0.656,0.045-0.715C310.949,18.592,310.512,13.668,309.142,9.182z"/>
		<path fill="#FFFFFF" stroke="#FFFFFF" stroke-width="0.8703" stroke-miterlimit="10" d="M325.489,7.098
			c0.972-0.119,2.64-0.107,5.002,0.029c0.119,0,0.218,0.051,0.298,0.15c0.079,0.1,0.119,0.207,0.119,0.326s-0.05,0.219-0.149,0.299
			s-0.208,0.119-0.327,0.119c-2.303-0.139-3.9-0.148-4.794-0.029c0.06,0.873,0.219,2.342,0.477,4.406l0.238,2.174
			c0.417-0.061,0.863-0.09,1.34-0.09s1.032,0.006,1.667,0.016c0.636,0.01,1.072,0.014,1.311,0.014c0.298,0,0.446,0.148,0.446,0.447
			c0,0.297-0.148,0.447-0.446,0.447c-0.278,0-0.729-0.006-1.354-0.016c-0.626-0.01-1.161-0.016-1.608-0.016
			c-0.446,0-0.868,0.021-1.266,0.061c0.06,0.754,0.109,1.449,0.149,2.084c0.06,0.973,0.094,1.975,0.104,3.008
			c0.01,1.031,0.004,2.268-0.016,3.707s-0.029,2.436-0.029,2.992c0,0.219-0.05,0.615-0.149,1.191
			c-0.02,0.098-0.029,0.188-0.029,0.268c0.675,0.078,1.399,0.123,2.174,0.133c0.773,0.012,1.662,0,2.664-0.029
			c1.003-0.029,1.752-0.045,2.248-0.045c0.298,0,0.447,0.148,0.447,0.447c0,0.297-0.149,0.447-0.447,0.447
			c-0.456,0-1.186,0.014-2.188,0.043c-1.002,0.031-1.9,0.041-2.694,0.031s-1.538-0.055-2.233-0.135
			c-0.06,0.16-0.169,0.258-0.327,0.299c-0.119,0.02-0.233-0.006-0.343-0.076c-0.109-0.068-0.174-0.162-0.193-0.281
			c-0.06-0.338-0.05-0.756,0.03-1.252c0.099-0.535,0.148-0.883,0.148-1.041c0-0.576,0.01-1.574,0.03-2.992
			c0.02-1.42,0.024-2.646,0.015-3.678c-0.011-1.031-0.045-2.025-0.104-2.979c-0.06-1.15-0.219-2.838-0.477-5.061
			c-0.278-2.363-0.457-4.07-0.536-5.121c0-0.119,0.04-0.229,0.119-0.328s0.179-0.148,0.298-0.148
			C325.26,6.901,325.389,6.959,325.489,7.098z"/>
		<path fill="#FFFFFF" stroke="#FFFFFF" stroke-width="0.8703" stroke-miterlimit="10" d="M337.992,7.127
			c0,0.953-0.06,2.244-0.178,3.871c-0.159,1.807-0.249,3.078-0.269,3.813c-0.06,1.826-0.02,4.217,0.119,7.176
			c0.179,3.869,0.268,6.152,0.268,6.848c0.596,0.08,1.236,0.129,1.921,0.148s1.509,0.016,2.472-0.014
			c0.962-0.031,1.632-0.045,2.01-0.045c0.298,0,0.446,0.148,0.446,0.445c0,0.299-0.148,0.447-0.446,0.447
			c-0.259,0-0.948,0.016-2.069,0.045c-1.122,0.029-2.06,0.025-2.814-0.016c-0.714-0.02-1.419-0.088-2.113-0.207
			c-0.119-0.02-0.214-0.086-0.283-0.195c-0.069-0.107-0.095-0.223-0.074-0.342l0.06-0.119c0-1.27-0.08-3.592-0.238-6.967
			c-0.159-3.176-0.209-5.578-0.149-7.205c0.02-0.754,0.109-2.045,0.269-3.871c0.119-1.607,0.179-2.879,0.179-3.813
			c0-0.117,0.044-0.223,0.134-0.313c0.089-0.088,0.193-0.133,0.313-0.133s0.224,0.045,0.313,0.133
			C337.949,6.905,337.992,7.01,337.992,7.127z"/>
		<path fill="#FFFFFF" stroke="#FFFFFF" stroke-width="0.8703" stroke-miterlimit="10" d="M363.866,7.069
			c0,1.33-0.034,3.324-0.104,5.984c-0.07,2.66-0.104,4.656-0.104,5.984c0,0.318,0.049,1.33,0.148,3.037c0.1,1.709,0.1,2.76,0,3.156
			c-0.198,1.846-0.595,3.137-1.19,3.871c-0.338,0.418-0.74,0.646-1.206,0.686c-0.467,0.039-0.889-0.09-1.266-0.387
			c-1.271-0.934-1.965-2.451-2.084-4.557c-0.04-0.496-0.04-1.35,0-2.561c0.02-1.031,0-1.807-0.06-2.322
			c-0.021-0.139,0.01-0.254,0.089-0.342c0.079-0.09,0.184-0.145,0.313-0.164s0.238,0.01,0.328,0.09
			c0.089,0.078,0.144,0.178,0.164,0.297c0.06,0.557,0.079,1.381,0.06,2.471c-0.04,1.172-0.04,1.996,0,2.473
			c0.099,1.826,0.674,3.125,1.727,3.9c0.477,0.338,0.883,0.297,1.221-0.119c0.496-0.615,0.834-1.768,1.013-3.455
			c0.119-0.357,0.123-1.344,0.015-2.963c-0.109-1.617-0.164-2.654-0.164-3.111c0-1.328,0.034-3.324,0.104-5.984
			c0.069-2.66,0.104-4.654,0.104-5.984c0-0.297,0.148-0.447,0.446-0.447S363.866,6.772,363.866,7.069z"/>
		<path fill="#FFFFFF" stroke="#FFFFFF" stroke-width="0.8703" stroke-miterlimit="10" d="M374.199,6.711
			c0.02,0.635-0.011,1.41-0.09,2.322l-0.208,2.234c-0.219,4.049-0.309,7.115-0.269,9.199c0.02,1.488,0.1,2.789,0.238,3.9
			c0.139,0.1,0.209,0.229,0.209,0.387c0,0.279-0.011,0.566-0.03,0.865c0.219,1.428,0.546,2.6,0.982,3.512
			c0.119,0.26,0.045,0.453-0.223,0.582c-0.269,0.129-0.472,0.055-0.61-0.225c-0.219-0.477-0.417-1.031-0.596-1.666
			c-0.119,0.377-0.268,0.703-0.446,0.982c-0.417,0.674-0.943,1.041-1.578,1.102c-0.695,0.039-1.449-0.318-2.264-1.072
			c-0.734-0.674-1.171-1.459-1.31-2.352c-0.08-0.557-0.14-1.166-0.179-1.832c-0.04-0.664-0.055-1.439-0.045-2.322
			s0.02-1.563,0.03-2.039c0.01-0.477,0.044-1.252,0.104-2.322c0.06-1.072,0.09-1.688,0.09-1.848
			c0.039-0.754,0.049-2.332,0.029-4.734c-0.02-2.023,0.03-3.611,0.149-4.764c0.02-0.139,0.074-0.248,0.164-0.326
			c0.089-0.08,0.197-0.109,0.327-0.09c0.129,0.02,0.233,0.074,0.313,0.164c0.079,0.088,0.109,0.193,0.09,0.313
			c-0.119,1.131-0.169,2.699-0.149,4.703c0.02,2.402,0.01,4.002-0.029,4.795c0,0.158-0.03,0.773-0.09,1.846
			s-0.095,1.836-0.104,2.293s-0.02,1.121-0.029,1.994c-0.011,0.875,0.005,1.633,0.045,2.279c0.039,0.645,0.099,1.234,0.179,1.771
			c0.099,0.674,0.436,1.279,1.012,1.816c0.636,0.574,1.171,0.854,1.608,0.832c0.337-0.02,0.635-0.248,0.893-0.684
			c0.377-0.615,0.626-1.508,0.745-2.68c-0.238-1.449-0.378-3.166-0.417-5.152c-0.04-2.023,0.049-5.121,0.268-9.289l0.209-2.264
			c0.079-0.873,0.108-1.598,0.089-2.172c0-0.139,0.04-0.254,0.119-0.344s0.184-0.133,0.313-0.133s0.238,0.039,0.328,0.119
			C374.154,6.493,374.199,6.592,374.199,6.711z"/>
		<path fill="#FFFFFF" stroke="#FFFFFF" stroke-width="0.8703" stroke-miterlimit="10" d="M378.664,7.098
			c0.972-0.119,2.64-0.107,5.002,0.029c0.119,0,0.218,0.051,0.298,0.15c0.079,0.1,0.119,0.207,0.119,0.326s-0.05,0.219-0.149,0.299
			s-0.208,0.119-0.327,0.119c-2.303-0.139-3.9-0.148-4.794-0.029c0.06,0.873,0.219,2.342,0.477,4.406l0.238,2.174
			c0.417-0.061,0.863-0.09,1.34-0.09s1.032,0.006,1.667,0.016c0.636,0.01,1.072,0.014,1.311,0.014c0.298,0,0.446,0.148,0.446,0.447
			c0,0.297-0.148,0.447-0.446,0.447c-0.278,0-0.729-0.006-1.354-0.016c-0.626-0.01-1.161-0.016-1.608-0.016
			c-0.446,0-0.868,0.021-1.266,0.061c0.06,0.754,0.109,1.449,0.149,2.084c0.06,0.973,0.094,1.975,0.104,3.008
			c0.01,1.031,0.004,2.268-0.016,3.707s-0.029,2.436-0.029,2.992c0,0.219-0.05,0.615-0.149,1.191
			c-0.02,0.098-0.029,0.188-0.029,0.268c0.675,0.078,1.399,0.123,2.174,0.133c0.773,0.012,1.662,0,2.664-0.029
			c1.003-0.029,1.752-0.045,2.248-0.045c0.298,0,0.447,0.148,0.447,0.447c0,0.297-0.149,0.447-0.447,0.447
			c-0.456,0-1.186,0.014-2.188,0.043c-1.002,0.031-1.9,0.041-2.694,0.031s-1.538-0.055-2.233-0.135
			c-0.06,0.16-0.169,0.258-0.327,0.299c-0.119,0.02-0.233-0.006-0.343-0.076c-0.109-0.068-0.174-0.162-0.193-0.281
			c-0.06-0.338-0.05-0.756,0.03-1.252c0.099-0.535,0.148-0.883,0.148-1.041c0-0.576,0.01-1.574,0.03-2.992
			c0.02-1.42,0.024-2.646,0.015-3.678c-0.011-1.031-0.045-2.025-0.104-2.979c-0.06-1.15-0.219-2.838-0.477-5.061
			c-0.278-2.363-0.457-4.07-0.536-5.121c0-0.119,0.04-0.229,0.119-0.328s0.179-0.148,0.298-0.148
			C378.436,6.901,378.565,6.959,378.664,7.098z"/>
		<path fill="#FFFFFF" stroke="#FFFFFF" stroke-width="0.8703" stroke-miterlimit="10" d="M395.904,21.034
			c0.873-0.219,2.104-0.328,3.691-0.328c0.298,0,0.447,0.148,0.447,0.447c0,0.297-0.149,0.445-0.447,0.445
			c-0.535,0-0.952,0.012-1.25,0.031c0.079,0.078,0.119,0.178,0.119,0.297c0,0.139,0.015,0.676,0.045,1.607
			c0.029,0.934,0.034,1.678,0.015,2.234c-0.08,1.766-0.407,3.006-0.982,3.721c-0.397,0.496-0.982,0.775-1.757,0.834
			c-1.351,0.1-2.432-0.525-3.246-1.875c-0.556-0.953-0.923-2.125-1.102-3.514c-0.04-0.695-0.06-1.201-0.06-1.52
			c0-0.316,0.025-0.818,0.075-1.502c0.049-0.686,0.074-1.156,0.074-1.416c0.02-0.555,0.005-1.672-0.045-3.35
			c-0.05-1.676-0.035-3.141,0.045-4.391c0.079-1.252,0.277-2.373,0.596-3.365c0.396-1.289,0.952-2.154,1.667-2.59
			c0.675-0.457,1.399-0.477,2.174-0.061c0.635,0.357,1.195,0.949,1.682,1.771c0.486,0.824,0.789,1.713,0.908,2.666
			c0.02,0.119-0.01,0.229-0.089,0.326c-0.08,0.1-0.179,0.16-0.298,0.18s-0.229-0.01-0.327-0.09c-0.1-0.078-0.159-0.178-0.179-0.297
			c-0.1-0.834-0.353-1.604-0.76-2.309c-0.407-0.703-0.858-1.186-1.354-1.443c-0.457-0.258-0.884-0.258-1.28,0
			c-0.517,0.338-0.953,1.053-1.311,2.145c-0.298,0.932-0.481,1.99-0.551,3.17c-0.069,1.182-0.079,2.59-0.029,4.229
			c0.049,1.637,0.064,2.773,0.045,3.408c0,0.338-0.025,0.834-0.075,1.49c-0.05,0.654-0.074,1.131-0.074,1.428
			c0,0.299,0.02,0.766,0.06,1.4c0.158,1.291,0.486,2.352,0.982,3.186c0.615,1.033,1.419,1.51,2.412,1.43
			c0.516-0.039,0.883-0.199,1.102-0.477c0.456-0.576,0.725-1.648,0.804-3.217c0.02-0.555,0.015-1.295-0.015-2.217
			c-0.03-0.924-0.045-1.455-0.045-1.594c0-0.1,0.03-0.188,0.09-0.268c-0.557,0.039-1.063,0.129-1.519,0.268
			c-0.119,0.02-0.233,0-0.343-0.059c-0.109-0.061-0.179-0.15-0.208-0.27c-0.03-0.119-0.016-0.232,0.044-0.342
			S395.784,21.073,395.904,21.034z"/>
		<path fill="#FFFFFF" stroke="#FFFFFF" stroke-width="0.8703" stroke-miterlimit="10" d="M408.706,10.284
			c1.092,4.289,1.419,8.863,0.983,13.727c0,0.041-0.016,0.273-0.045,0.701c-0.03,0.426-0.064,0.818-0.104,1.176
			s-0.1,0.695-0.179,1.012c-0.338,1.449-1.002,2.244-1.995,2.383c-1.032,0.139-1.935-0.377-2.709-1.549
			c-0.497-0.754-0.884-1.668-1.161-2.74c-0.397-1.627-0.606-4.098-0.626-7.414c0-3.295,0.219-5.756,0.655-7.383
			c0.397-1.49,0.804-2.502,1.221-3.037c0.417-0.516,0.883-0.725,1.399-0.625s1.042,0.545,1.578,1.34l0.328,0.506
			c0.099,0.059,0.158,0.139,0.179,0.238l0.06,0.207c0.197,0.357,0.347,0.736,0.446,1.133
			C408.776,10.077,408.766,10.186,408.706,10.284z M407.486,9.182c-0.1-0.158-0.278-0.436-0.535-0.832
			c-0.378-0.576-0.695-0.885-0.953-0.924c-0.179-0.039-0.357,0.059-0.536,0.297c-0.357,0.438-0.725,1.34-1.102,2.711
			c-0.397,1.527-0.591,3.91-0.581,7.145c0.01,3.236,0.214,5.629,0.61,7.176c0.238,0.994,0.576,1.828,1.013,2.502
			c0.575,0.854,1.191,1.23,1.846,1.131c0.576-0.078,0.993-0.645,1.251-1.697c0.06-0.297,0.108-0.605,0.148-0.922
			c0.04-0.318,0.075-0.686,0.104-1.102c0.03-0.418,0.045-0.656,0.045-0.715C409.292,18.592,408.856,13.668,407.486,9.182z"/>
	</g>
	<g>
		<g>
			<path fill="#FFFFFF" d="M425.477,5.277c0.054,0.463,0.07,0.916,0.042,1.371c-0.03,0.451-0.063,0.887-0.1,1.31
				c-0.038,0.387-0.066,0.775-0.085,1.172c-0.02,0.397-0.047,0.779-0.085,1.147c-0.04,0.368-0.1,0.731-0.184,1.09
				c-0.084,0.361-0.148,0.725-0.185,1.092c-0.021,0.24-0.023,0.479-0.015,0.717c0.01,0.244,0.015,0.482,0.015,0.721
				c0,0.238,0.015,0.479,0.042,0.719c0.028,0.238,0.041,0.478,0.041,0.718c0,0.146-0.009,0.298-0.026,0.454
				c-0.02,0.156-0.029,0.309-0.029,0.457c0.038,0.535,0.108,1.072,0.214,1.613c0.105,0.543,0.175,1.092,0.213,1.643
				c0.036,0.389,0.057,0.781,0.057,1.176c0,0.395,0.047,0.775,0.141,1.146c-0.074,0.164-0.103,0.344-0.085,0.537
				c0.02,0.195,0.078,0.355,0.172,0.484c-0.172,0.148-0.284,0.341-0.342,0.582c-0.056,0.236-0.132,0.477-0.227,0.717
				c-0.134,0.037-0.236,0.037-0.313,0c-0.077-0.037-0.15-0.082-0.228-0.139c-0.076,0.02-0.112,0.064-0.112,0.139
				c0,0.072-0.038,0.111-0.113,0.111c-0.228-0.039-0.47-0.027-0.725,0.025c-0.257,0.057-0.509,0.057-0.753,0
				c-0.096,0-0.143,0.031-0.143,0.1c0,0.063-0.047,0.076-0.142,0.037c-0.134-0.053-0.283-0.096-0.456-0.123
				c-0.17-0.027-0.344-0.045-0.522-0.055c-0.184-0.008-0.357-0.027-0.527-0.057c-0.172-0.025-0.313-0.088-0.425-0.178
				c-0.059-0.645-0.144-1.348-0.258-2.111c-0.113-0.767-0.198-1.533-0.255-2.31c-0.02-0.289-0.058-0.615-0.114-0.963
				c-0.056-0.35-0.104-0.708-0.141-1.077c-0.04-0.188-0.078-0.358-0.114-0.526c-0.037-0.165-0.076-0.34-0.113-0.525
				c-0.077-0.367-0.129-0.75-0.156-1.144c-0.029-0.396-0.072-0.786-0.128-1.174c-0.039-0.258-0.077-0.5-0.114-0.732
				c-0.038-0.231-0.074-0.519-0.112-0.869c-0.04-0.199-0.073-0.424-0.102-0.66c-0.027-0.242-0.059-0.498-0.1-0.777
				c-0.018-0.184-0.051-0.381-0.1-0.594c-0.047-0.211-0.088-0.418-0.126-0.62c-0.018-0.202-0.024-0.403-0.016-0.593
				c0.01-0.195-0.061-0.363-0.213-0.512c0.113-0.201,0.143-0.434,0.087-0.691c-0.058-0.258-0.087-0.507-0.087-0.744
				c0.17-0.147,0.316-0.313,0.439-0.5c0.125-0.183,0.254-0.369,0.384-0.551c0.135-0.184,0.272-0.353,0.413-0.512
				c0.141-0.154,0.318-0.291,0.524-0.398c0.056-0.096,0.055-0.156-0.013-0.195c-0.066-0.035-0.053-0.08,0.042-0.137
				c0.151-0.018,0.27-0.01,0.355,0.029c0.085,0.033,0.166,0.072,0.242,0.107c0.076,0.46,0.133,0.963,0.171,1.506
				c0.037,0.545,0.075,1.072,0.114,1.59c0.017,0.147,0.022,0.289,0.015,0.426c-0.012,0.138,0.002,0.248,0.04,0.318
				c0.039,0.129,0.097,0.228,0.171,0.291c0.076,0.064,0.123,0.15,0.142,0.261c-0.058,0.11-0.131,0.214-0.227,0.305
				c0.152,0.644,0.227,1.372,0.227,2.183c0,0.811,0.019,1.564,0.057,2.266c0.02,0.256,0.041,0.509,0.07,0.755
				c0.031,0.251,0.044,0.503,0.044,0.759c0.038,0.721,0.072,1.43,0.1,2.13c0.026,0.7,0.081,1.399,0.155,2.099
				c0.038,0.348,0.085,0.685,0.144,1.006c0.056,0.324,0.094,0.695,0.113,1.117c0.112,0.096,0.221,0.168,0.326,0.225
				c0.103,0.055,0.231,0.066,0.384,0.027c0.132-0.037,0.217-0.111,0.257-0.223c0.036-0.109,0.132-0.164,0.282-0.164
				c0.094,0.038,0.161,0.086,0.199,0.152c0.038,0.064,0.066,0.135,0.084,0.207c0.098-0.037,0.194-0.063,0.3-0.084
				c0.104-0.018,0.214-0.026,0.325-0.026c0.021-0.126,0.087-0.202,0.199-0.22c0.114-0.019,0.219-0.047,0.313-0.085
				c0-0.108-0.026-0.196-0.084-0.261c-0.057-0.066-0.085-0.152-0.085-0.264c-0.038-0.094-0.015-0.129,0.07-0.109
				c0.085,0.016,0.117-0.011,0.099-0.084c-0.073-0.223-0.105-0.445-0.084-0.674c0.017-0.232,0.017-0.466,0-0.707
				c-0.039-0.643-0.12-1.297-0.241-1.959c-0.125-0.664-0.195-1.327-0.213-1.99c-0.021-0.311-0.023-0.648-0.016-1.008
				c0.01-0.359-0.005-0.725-0.041-1.09c-0.059-0.775-0.012-1.519,0.142-2.237c0.151-0.718,0.255-1.511,0.313-2.376
				c0.036-0.57,0.079-1.16,0.127-1.767c0.05-0.609,0.072-1.253,0.072-1.935c-0.57-0.201-1.139-0.279-1.707-0.233
				c-0.568,0.047-1.182,0.069-1.846,0.069c-0.074-0.096-0.183-0.154-0.325-0.18c-0.144-0.03-0.214-0.123-0.214-0.293
				c0.208-0.035,0.435-0.057,0.682-0.064c0.246-0.012,0.493-0.018,0.739-0.018c0.568,0,1.145,0.018,1.734,0.043
				C424.527,4.934,425.038,5.057,425.477,5.277z M419.393,10.555c0.099-0.017,0.143-0.076,0.143-0.166
				c0-0.092,0.029-0.156,0.085-0.193c-0.111-0.074-0.217-0.119-0.311-0.137c0,0.09,0.018,0.171,0.056,0.23
				C419.404,10.357,419.412,10.443,419.393,10.555z M420.361,12.128c-0.056,0.112-0.132,0.222-0.228,0.331
				c-0.094,0.111-0.176,0.231-0.241,0.361c-0.067,0.125-0.11,0.26-0.128,0.398c-0.02,0.139,0.009,0.28,0.085,0.43
				c0.134-0.314,0.278-0.629,0.441-0.94c0.161-0.313,0.261-0.624,0.299-0.938c0.036-0.055,0.089-0.081,0.155-0.081
				c0.065,0,0.089-0.04,0.07-0.114c0-0.035,0.006-0.072,0.016-0.109c0.008-0.037-0.006-0.053-0.044-0.053
				c-0.097,0.09-0.165,0.195-0.214,0.316C420.528,11.847,420.455,11.982,420.361,12.128z M419.992,14.529
				c0.074-0.09,0.112-0.17,0.112-0.233c0-0.065,0.029-0.161,0.085-0.29c-0.094-0.018-0.149-0.063-0.17-0.141
				c-0.018-0.07-0.076-0.117-0.17-0.135c0.038,0.146,0.058,0.287,0.058,0.43C419.907,14.296,419.935,14.419,419.992,14.529z
				 M419.907,8.592c0.094-0.108,0.165-0.225,0.214-0.344c0.045-0.119,0.145-0.207,0.297-0.262c-0.036-0.092-0.048-0.168-0.029-0.235
				c0.02-0.064-0.007-0.135-0.083-0.208c-0.076,0.147-0.167,0.322-0.271,0.512C419.931,8.248,419.888,8.426,419.907,8.592z
				 M420.675,14.393c-0.078,0.149-0.152,0.295-0.229,0.442c-0.076,0.146-0.132,0.302-0.17,0.47
				c-0.038,0.018-0.087,0.049-0.143,0.096c-0.057,0.045-0.038,0.088,0.056,0.125c0.192-0.424,0.437-0.736,0.74-0.939
				c0.019-0.092,0.004-0.178-0.043-0.261c-0.048-0.085-0.033-0.161,0.043-0.237c-0.076,0.038-0.129,0.088-0.157,0.152
				C420.745,14.308,420.71,14.355,420.675,14.393z M420.189,6.963c0.116,0.02,0.167-0.012,0.16-0.096
				c-0.012-0.083-0.035-0.152-0.073-0.207c0.018,0.092,0.004,0.145-0.044,0.166C420.187,6.846,420.172,6.893,420.189,6.963z
				 M420.189,6.164c0.04,0.053,0.067,0.057,0.087,0.011c0.018-0.046,0-0.076-0.058-0.095c0,0.019-0.004,0.033-0.015,0.041
				C420.195,6.129,420.189,6.145,420.189,6.164z M420.219,16.602c0.038,0,0.058,0.056,0.058,0.166
				c0.056-0.035,0.108-0.092,0.155-0.166c0.048-0.072,0.103-0.132,0.173-0.176c0.064-0.047,0.13-0.078,0.196-0.086
				c0.067-0.01,0.139,0.031,0.214,0.124c-0.038-0.165-0.038-0.358,0-0.583c0.038-0.217-0.009-0.355-0.142-0.41
				c-0.133,0.166-0.233,0.359-0.299,0.58C420.508,16.271,420.389,16.457,420.219,16.602z M420.276,9.172
				c0.018,0.074,0.061,0.119,0.129,0.141c0.064,0.017,0.1,0.073,0.1,0.166c0,0.053-0.017,0.117-0.044,0.191
				c-0.029,0.072-0.062,0.146-0.1,0.221c-0.02,0.057-0.047,0.123-0.085,0.207c-0.038,0.084-0.031,0.127,0.029,0.127
				c0.018-0.076,0.064-0.149,0.141-0.223c0.076-0.076,0.124-0.156,0.144-0.25c0.036-0.146,0.032-0.307-0.017-0.483
				c-0.045-0.175-0.089-0.323-0.127-0.454c0,0.09-0.028,0.152-0.085,0.18C420.306,9.021,420.276,9.08,420.276,9.172z
				 M420.675,10.634c-0.059,0.041-0.081,0.071-0.07,0.1c0.009,0.026,0.026,0.041,0.054,0.041c0.029,0,0.052-0.009,0.072-0.026
				C420.749,10.73,420.731,10.692,420.675,10.634z M420.731,19.666c0.018,0.055,0.018,0.123,0,0.195
				c-0.021,0.076,0,0.119,0.057,0.137c0.02-0.09,0.061-0.168,0.128-0.234c0.067-0.063,0.129-0.121,0.186-0.182
				c0.055-0.051,0.097-0.121,0.126-0.203c0.029-0.084,0.006-0.18-0.071-0.293c-0.073,0.039-0.122,0.084-0.141,0.139
				c-0.02,0.057-0.032,0.115-0.044,0.182c-0.009,0.063-0.028,0.119-0.056,0.164C420.887,19.617,420.825,19.648,420.731,19.666z
				 M420.731,13.146c0.076,0.041,0.112,0.018,0.112-0.066c0-0.084-0.018-0.123-0.056-0.123c-0.038,0.057-0.048,0.088-0.029,0.096
				C420.775,13.063,420.769,13.094,420.731,13.146z M420.815,17.349c0-0.091,0.053-0.173,0.155-0.235
				c0.105-0.063,0.101-0.125-0.012-0.18c0,0.092-0.04,0.166-0.116,0.223C420.769,17.209,420.758,17.275,420.815,17.349z
				 M420.872,18.289c0.058,0,0.114,0,0.172,0c0.057,0,0.104-0.02,0.141-0.059c0-0.072-0.014-0.129-0.041-0.164
				c-0.028-0.038-0.061-0.082-0.1-0.139c-0.02,0.094-0.049,0.156-0.085,0.191C420.919,18.158,420.892,18.215,420.872,18.289z
				 M421.015,21.656c0.095-0.205,0.194-0.416,0.299-0.637c0.102-0.217,0.08-0.459-0.072-0.715c-0.057,0.238-0.147,0.459-0.271,0.659
				C420.849,21.169,420.862,21.397,421.015,21.656z M421.101,22.76c0.075-0.126,0.079-0.174,0.015-0.137
				C421.048,22.658,421.044,22.705,421.101,22.76z M421.185,23.203c0.038-0.109,0.01-0.164-0.084-0.164
				C421.101,23.131,421.129,23.185,421.185,23.203z M421.299,22.4c-0.02-0.09,0.033-0.168,0.156-0.219
				c0.123-0.055,0.129-0.11,0.014-0.166c0,0.092-0.049,0.16-0.142,0.205C421.232,22.268,421.223,22.328,421.299,22.4z
				 M422.064,23.119c-0.092,0.107-0.208,0.223-0.34,0.332c-0.133,0.108-0.141,0.256-0.027,0.443c0.094-0.037,0.171-0.037,0.227,0
				c0.056,0.034,0.104,0.034,0.141,0c0-0.129,0.025-0.235,0.072-0.32c0.048-0.082,0.104-0.161,0.171-0.232
				c0.065-0.074,0.128-0.145,0.185-0.207c0.056-0.064,0.094-0.143,0.111-0.236c-0.074,0.018-0.126,0.012-0.155-0.014
				c-0.027-0.025-0.062-0.051-0.097-0.068c-0.038,0.037-0.073,0.078-0.101,0.125c-0.029,0.043-0.062,0.088-0.1,0.121h-0.058
				L422.064,23.119z M422.577,23.895c0.113,0.034,0.246,0.049,0.398,0.039c0.152-0.008,0.294-0.022,0.426-0.039
				c0.02-0.094-0.003-0.139-0.07-0.139c-0.066,0-0.091-0.049-0.071-0.138c0.094-0.112,0.176-0.239,0.241-0.392
				c0.066-0.143,0.184-0.234,0.356-0.272c0.094-0.019,0.149,0.004,0.17,0.07c0.018,0.063,0.077,0.094,0.171,0.094
				c0.037-0.057,0.075-0.109,0.111-0.164c0.04-0.057,0.078-0.121,0.116-0.195c-0.475-0.037-0.825,0.043-1.052,0.238
				c-0.227,0.189-0.445,0.397-0.653,0.62c0-0.038-0.02-0.05-0.058-0.044c-0.039,0.01-0.039,0.023,0,0.044
				c0.076,0.036,0.081,0.076,0.015,0.122C422.609,23.787,422.577,23.838,422.577,23.895z"/>
		</g>
		<g>
			<path fill="#FFFFFF" d="M421.895,26.324c0.038,0.348,0.085,0.684,0.144,1.006c0.056,0.324,0.094,0.695,0.113,1.117
				c0.112,0.096,0.221,0.168,0.326,0.225c0.103,0.055,0.231,0.066,0.384,0.027c0.132-0.037,0.217-0.111,0.257-0.223
				c0.036-0.109,0.132-0.164,0.282-0.164c0.094,0.038,0.161,0.086,0.199,0.152c0.038,0.065,0.066,0.135,0.084,0.207
				c0.098-0.037,0.194-0.063,0.3-0.084c0.104-0.017,0.214-0.026,0.325-0.026c0.021-0.126,0.087-0.202,0.199-0.22
				c0.114-0.02,0.219-0.047,0.313-0.085c0-0.108-0.026-0.196-0.084-0.261c-0.057-0.067-0.085-0.152-0.085-0.264
				c-0.038-0.094-0.015-0.129,0.07-0.109c0.085,0.016,0.117-0.011,0.099-0.084c-0.073-0.223-0.105-0.445-0.084-0.674
				c0.017-0.232,0.017-0.466,0-0.707 M425.39,26.891c0,0.395,0.047,0.775,0.141,1.146c-0.074,0.164-0.103,0.344-0.085,0.537
				c0.02,0.195,0.078,0.355,0.172,0.484c-0.172,0.148-0.284,0.341-0.342,0.582c-0.056,0.236-0.132,0.476-0.227,0.717
				c-0.134,0.037-0.236,0.037-0.313,0c-0.077-0.037-0.15-0.082-0.228-0.139c-0.076,0.02-0.112,0.065-0.112,0.139
				c0,0.072-0.038,0.111-0.113,0.111c-0.228-0.039-0.47-0.027-0.725,0.025c-0.257,0.057-0.509,0.057-0.753,0
				c-0.096,0-0.143,0.031-0.143,0.1c0,0.063-0.047,0.076-0.142,0.037c-0.134-0.053-0.283-0.096-0.456-0.123
				c-0.17-0.027-0.344-0.045-0.522-0.055c-0.184-0.008-0.357-0.027-0.527-0.057c-0.172-0.025-0.313-0.088-0.425-0.178
				c-0.059-0.644-0.144-1.348-0.258-2.111c-0.076-0.507-0.436-1.68-0.169-2.143c0.258-0.451,1.339-0.605,1.797-0.641
				c0.412-0.031,0.796,0.058,1.208,0.053c0.726-0.009,1.44,0.041,2.109,0.061C425.406,25.441,425.39,26.783,425.39,26.891z
				 M421.015,27.871c0.095-0.205,0.194-0.416,0.299-0.637c0.102-0.217,0.08-0.459-0.072-0.715c-0.057,0.238-0.147,0.459-0.271,0.659
				C420.849,27.384,420.862,27.612,421.015,27.871z M421.101,28.975c0.075-0.126,0.079-0.174,0.015-0.137
				C421.048,28.873,421.044,28.92,421.101,28.975z M421.185,29.418c0.038-0.109,0.01-0.164-0.084-0.164
				C421.101,29.346,421.129,29.399,421.185,29.418z M421.299,28.615c-0.02-0.09,0.033-0.168,0.156-0.219
				c0.123-0.055,0.129-0.11,0.014-0.166c0,0.092-0.049,0.16-0.142,0.205C421.232,28.482,421.223,28.543,421.299,28.615z
				 M422.064,29.334c-0.092,0.108-0.208,0.223-0.34,0.332c-0.133,0.108-0.141,0.256-0.027,0.443c0.094-0.037,0.171-0.037,0.227,0
				c0.056,0.034,0.104,0.034,0.141,0c0-0.129,0.025-0.235,0.072-0.32c0.048-0.082,0.104-0.161,0.171-0.232
				c0.065-0.074,0.128-0.145,0.185-0.207c0.056-0.064,0.094-0.143,0.111-0.236c-0.074,0.018-0.126,0.012-0.155-0.014
				c-0.027-0.025-0.062-0.051-0.097-0.068c-0.038,0.037-0.073,0.078-0.101,0.125c-0.029,0.043-0.062,0.088-0.1,0.121h-0.058
				L422.064,29.334z M422.577,30.109c0.113,0.034,0.246,0.049,0.398,0.039c0.152-0.008,0.294-0.022,0.426-0.039
				c0.02-0.094-0.003-0.139-0.07-0.139c-0.066,0-0.091-0.049-0.071-0.138c0.094-0.112,0.176-0.239,0.241-0.392
				c0.066-0.143,0.184-0.234,0.356-0.271c0.094-0.02,0.149,0.004,0.17,0.07c0.018,0.063,0.077,0.094,0.171,0.094
				c0.037-0.057,0.075-0.109,0.111-0.164c0.04-0.057,0.078-0.121,0.116-0.195c-0.475-0.037-0.825,0.043-1.052,0.238
				c-0.227,0.189-0.445,0.397-0.653,0.62c0-0.038-0.02-0.05-0.058-0.044c-0.039,0.01-0.039,0.023,0,0.044
				c0.076,0.036,0.081,0.076,0.015,0.122C422.609,30.002,422.577,30.053,422.577,30.109z"/>
		</g>
	</g>
	<g>
		<g>
			<path fill="#FFFFFF" d="M17.197,30.239c-0.054-0.463-0.07-0.916-0.042-1.371c0.03-0.451,0.063-0.887,0.101-1.311
				c0.038-0.387,0.066-0.775,0.085-1.172c0.019-0.396,0.047-0.779,0.085-1.146c0.04-0.368,0.1-0.731,0.184-1.09
				c0.084-0.361,0.149-0.725,0.185-1.092c0.021-0.24,0.022-0.478,0.015-0.717c-0.01-0.244-0.015-0.482-0.015-0.721
				c0-0.238-0.015-0.478-0.042-0.719c-0.028-0.238-0.041-0.479-0.041-0.718c0-0.147,0.009-0.298,0.026-0.454
				c0.021-0.156,0.029-0.309,0.029-0.457c-0.038-0.535-0.108-1.072-0.214-1.613c-0.104-0.543-0.175-1.092-0.213-1.642
				c-0.036-0.389-0.057-0.781-0.057-1.176c0-0.395-0.047-0.775-0.141-1.146c0.074-0.164,0.103-0.344,0.085-0.537
				c-0.021-0.195-0.078-0.356-0.172-0.484c0.172-0.148,0.284-0.341,0.342-0.582c0.056-0.236,0.132-0.477,0.227-0.717
				c0.134-0.037,0.236-0.037,0.313,0c0.077,0.037,0.15,0.082,0.229,0.139c0.076-0.02,0.112-0.065,0.112-0.139
				c0-0.072,0.038-0.111,0.113-0.111c0.228,0.039,0.47,0.027,0.725-0.025c0.257-0.057,0.509-0.057,0.753,0
				c0.096,0,0.143-0.031,0.143-0.1c0-0.063,0.047-0.076,0.142-0.037c0.134,0.053,0.283,0.096,0.456,0.123
				c0.17,0.027,0.344,0.045,0.522,0.055c0.184,0.008,0.357,0.027,0.527,0.057c0.172,0.025,0.313,0.088,0.425,0.178
				c0.059,0.644,0.143,1.348,0.258,2.111c0.113,0.768,0.198,1.533,0.255,2.311c0.02,0.289,0.058,0.615,0.114,0.963
				c0.056,0.35,0.104,0.708,0.141,1.077c0.04,0.188,0.078,0.358,0.114,0.526c0.037,0.165,0.076,0.34,0.113,0.525
				c0.077,0.367,0.129,0.75,0.156,1.145c0.029,0.396,0.072,0.786,0.128,1.174c0.039,0.258,0.077,0.5,0.114,0.732
				c0.038,0.23,0.074,0.52,0.112,0.869c0.04,0.199,0.073,0.424,0.102,0.66c0.027,0.242,0.059,0.498,0.1,0.777
				c0.018,0.184,0.051,0.381,0.1,0.594c0.047,0.211,0.088,0.418,0.126,0.62c0.018,0.202,0.024,0.403,0.016,0.593
				c-0.01,0.195,0.061,0.363,0.213,0.512c-0.113,0.201-0.143,0.434-0.087,0.691c0.058,0.258,0.087,0.507,0.087,0.744
				c-0.17,0.146-0.316,0.313-0.439,0.5c-0.125,0.183-0.254,0.369-0.384,0.551c-0.135,0.184-0.271,0.353-0.413,0.512
				c-0.141,0.154-0.318,0.291-0.524,0.398c-0.056,0.096-0.055,0.156,0.013,0.195c0.066,0.035,0.053,0.08-0.042,0.137
				c-0.151,0.018-0.27,0.01-0.354-0.029c-0.085-0.033-0.166-0.072-0.242-0.107c-0.076-0.46-0.133-0.963-0.171-1.506
				c-0.037-0.545-0.075-1.072-0.114-1.59c-0.017-0.146-0.022-0.289-0.015-0.426c0.012-0.138-0.002-0.248-0.04-0.318
				c-0.039-0.129-0.097-0.229-0.171-0.291c-0.076-0.064-0.123-0.15-0.142-0.261c0.058-0.11,0.131-0.214,0.227-0.305
				c-0.152-0.643-0.227-1.372-0.227-2.183c0-0.811-0.019-1.565-0.057-2.266c-0.02-0.256-0.041-0.509-0.07-0.755
				c-0.031-0.251-0.044-0.503-0.044-0.759c-0.038-0.721-0.072-1.43-0.1-2.13c-0.026-0.7-0.081-1.399-0.155-2.099
				c-0.038-0.348-0.085-0.685-0.144-1.006c-0.056-0.324-0.094-0.695-0.113-1.117c-0.112-0.096-0.221-0.168-0.326-0.225
				c-0.103-0.055-0.232-0.066-0.384-0.027c-0.132,0.037-0.217,0.111-0.257,0.223c-0.036,0.109-0.132,0.164-0.282,0.164
				c-0.094-0.038-0.161-0.086-0.199-0.152c-0.038-0.064-0.066-0.135-0.084-0.207c-0.098,0.037-0.194,0.063-0.3,0.084
				c-0.104,0.018-0.214,0.026-0.325,0.026c-0.021,0.126-0.087,0.202-0.199,0.22c-0.114,0.019-0.219,0.047-0.313,0.085
				c0,0.108,0.026,0.196,0.084,0.261c0.057,0.066,0.085,0.152,0.085,0.264c0.038,0.094,0.015,0.129-0.07,0.109
				c-0.085-0.016-0.117,0.011-0.099,0.084c0.073,0.223,0.104,0.445,0.084,0.674c-0.017,0.232-0.017,0.466,0,0.707
				c0.039,0.644,0.12,1.297,0.241,1.959c0.125,0.664,0.195,1.327,0.213,1.99c0.02,0.311,0.023,0.649,0.016,1.008
				c-0.01,0.359,0.005,0.725,0.041,1.09c0.059,0.775,0.012,1.52-0.142,2.237c-0.151,0.718-0.255,1.511-0.313,2.376
				c-0.036,0.57-0.079,1.16-0.127,1.767c-0.05,0.609-0.072,1.253-0.072,1.934c0.57,0.201,1.139,0.279,1.707,0.233
				c0.568-0.047,1.182-0.069,1.846-0.069c0.074,0.096,0.183,0.154,0.325,0.18c0.144,0.03,0.214,0.123,0.214,0.293
				c-0.208,0.035-0.436,0.057-0.682,0.064c-0.246,0.012-0.493,0.018-0.739,0.018c-0.568,0-1.145-0.018-1.734-0.043
				C18.147,30.583,17.636,30.46,17.197,30.239z M23.281,24.962c-0.099,0.017-0.143,0.076-0.143,0.166
				c0,0.092-0.029,0.156-0.085,0.193c0.111,0.074,0.217,0.119,0.311,0.137c0-0.09-0.018-0.171-0.056-0.23
				C23.27,25.159,23.262,25.073,23.281,24.962z M22.313,23.389c0.056-0.112,0.132-0.222,0.228-0.331
				c0.094-0.111,0.176-0.23,0.241-0.361c0.067-0.125,0.11-0.26,0.128-0.398c0.021-0.139-0.009-0.28-0.085-0.43
				c-0.134,0.314-0.278,0.629-0.441,0.941c-0.161,0.313-0.261,0.624-0.299,0.938c-0.036,0.055-0.089,0.081-0.155,0.081
				c-0.065,0-0.089,0.04-0.07,0.114c0,0.035-0.006,0.072-0.016,0.109c-0.008,0.037,0.006,0.053,0.044,0.053
				c0.097-0.09,0.165-0.195,0.214-0.316C22.146,23.67,22.219,23.534,22.313,23.389z M22.682,20.987
				c-0.074,0.09-0.112,0.17-0.112,0.233c0,0.065-0.029,0.161-0.085,0.29c0.094,0.018,0.149,0.063,0.17,0.141
				c0.018,0.07,0.076,0.117,0.17,0.135c-0.038-0.146-0.058-0.287-0.058-0.43C22.767,21.221,22.739,21.098,22.682,20.987z
				 M22.767,26.925c-0.094,0.107-0.165,0.225-0.214,0.344c-0.045,0.119-0.144,0.207-0.297,0.262
				c0.036,0.092,0.048,0.168,0.029,0.235c-0.02,0.064,0.007,0.135,0.083,0.208c0.076-0.146,0.167-0.322,0.271-0.512
				C22.743,27.269,22.786,27.091,22.767,26.925z M21.999,21.124c0.078-0.149,0.152-0.295,0.229-0.442
				c0.076-0.146,0.132-0.302,0.17-0.47c0.038-0.018,0.087-0.049,0.143-0.096c0.057-0.045,0.038-0.088-0.056-0.125
				c-0.192,0.424-0.437,0.736-0.74,0.939c-0.018,0.092-0.004,0.178,0.043,0.261c0.048,0.085,0.033,0.161-0.043,0.237
				c0.076-0.038,0.129-0.088,0.157-0.152C21.929,21.209,21.964,21.161,21.999,21.124z M22.484,28.554
				c-0.116-0.02-0.167,0.012-0.16,0.096c0.012,0.083,0.035,0.152,0.073,0.207c-0.018-0.092-0.004-0.145,0.044-0.166
				C22.487,28.671,22.502,28.624,22.484,28.554z M22.484,29.353c-0.04-0.053-0.067-0.057-0.087-0.011
				c-0.018,0.046,0,0.076,0.058,0.095c0-0.019,0.004-0.033,0.015-0.041C22.479,29.388,22.484,29.372,22.484,29.353z M22.455,18.915
				c-0.038,0-0.058-0.056-0.058-0.166c-0.056,0.035-0.108,0.092-0.155,0.166c-0.048,0.072-0.104,0.132-0.173,0.176
				c-0.064,0.047-0.13,0.078-0.196,0.086c-0.067,0.01-0.139-0.031-0.214-0.124c0.038,0.165,0.038,0.358,0,0.583
				c-0.038,0.217,0.009,0.356,0.142,0.41c0.133-0.166,0.233-0.359,0.299-0.58C22.166,19.245,22.285,19.06,22.455,18.915z
				 M22.397,26.345c-0.018-0.074-0.061-0.119-0.129-0.141c-0.064-0.018-0.1-0.073-0.1-0.166c0-0.053,0.017-0.117,0.044-0.191
				c0.029-0.072,0.062-0.146,0.1-0.221c0.02-0.057,0.047-0.123,0.085-0.207c0.038-0.084,0.031-0.127-0.029-0.127
				c-0.019,0.076-0.064,0.149-0.141,0.223c-0.076,0.076-0.124,0.156-0.143,0.25c-0.036,0.146-0.032,0.307,0.017,0.483
				c0.045,0.175,0.089,0.323,0.127,0.454c0-0.09,0.028-0.152,0.085-0.18C22.368,26.495,22.397,26.437,22.397,26.345z M21.999,24.883
				c0.059-0.041,0.081-0.071,0.07-0.1c-0.009-0.026-0.026-0.041-0.054-0.041c-0.029,0-0.052,0.009-0.072,0.026
				C21.925,24.786,21.943,24.824,21.999,24.883z M21.943,15.851c-0.018-0.055-0.018-0.123,0-0.195c0.021-0.076,0-0.119-0.057-0.137
				c-0.02,0.09-0.062,0.168-0.128,0.234c-0.067,0.063-0.129,0.121-0.186,0.182c-0.055,0.051-0.097,0.121-0.126,0.203
				c-0.029,0.084-0.006,0.18,0.071,0.293c0.073-0.039,0.122-0.084,0.141-0.139c0.02-0.057,0.032-0.115,0.044-0.182
				c0.009-0.063,0.028-0.119,0.056-0.164C21.787,15.899,21.849,15.868,21.943,15.851z M21.943,22.37
				c-0.076-0.041-0.112-0.018-0.112,0.066s0.018,0.123,0.056,0.123c0.038-0.057,0.048-0.088,0.029-0.096
				C21.898,22.454,21.905,22.423,21.943,22.37z M21.858,18.168c0,0.091-0.053,0.173-0.155,0.235
				c-0.105,0.063-0.101,0.125,0.012,0.18c0-0.092,0.04-0.166,0.116-0.223C21.905,18.308,21.916,18.241,21.858,18.168z
				 M21.802,17.228c-0.058,0-0.114,0-0.172,0c-0.057,0-0.103,0.019-0.141,0.059c0,0.072,0.014,0.129,0.041,0.164
				c0.028,0.038,0.062,0.082,0.1,0.139c0.021-0.094,0.049-0.156,0.085-0.191C21.755,17.358,21.782,17.302,21.802,17.228z
				 M21.659,13.86c-0.095,0.205-0.194,0.416-0.299,0.637c-0.102,0.217-0.08,0.459,0.072,0.715c0.057-0.238,0.147-0.459,0.271-0.659
				C21.825,14.348,21.812,14.119,21.659,13.86z M21.573,12.757c-0.075,0.126-0.079,0.174-0.015,0.137
				C21.626,12.858,21.63,12.812,21.573,12.757z M21.489,12.313c-0.038,0.109-0.01,0.164,0.084,0.164
				C21.573,12.386,21.545,12.332,21.489,12.313z M21.375,13.116c0.02,0.09-0.033,0.168-0.156,0.219
				c-0.123,0.055-0.129,0.11-0.014,0.166c0-0.092,0.049-0.16,0.142-0.205C21.441,13.249,21.451,13.188,21.375,13.116z
				 M20.609,12.397c0.092-0.107,0.208-0.223,0.34-0.332c0.133-0.108,0.141-0.256,0.027-0.443c-0.094,0.037-0.171,0.037-0.227,0
				c-0.056-0.034-0.104-0.034-0.141,0c0,0.129-0.025,0.235-0.072,0.32c-0.048,0.082-0.103,0.161-0.171,0.233
				c-0.065,0.074-0.128,0.144-0.185,0.207c-0.056,0.064-0.094,0.143-0.111,0.236c0.074-0.018,0.126-0.012,0.155,0.014
				c0.027,0.025,0.061,0.051,0.097,0.068c0.038-0.037,0.073-0.078,0.101-0.125c0.029-0.043,0.062-0.088,0.1-0.121h0.058
				L20.609,12.397z M20.097,11.622c-0.113-0.034-0.246-0.049-0.397-0.039c-0.152,0.008-0.294,0.021-0.426,0.039
				c-0.02,0.094,0.003,0.139,0.07,0.139c0.066,0,0.091,0.049,0.071,0.138c-0.094,0.112-0.176,0.239-0.241,0.392
				c-0.066,0.143-0.184,0.234-0.356,0.271c-0.094,0.019-0.149-0.004-0.17-0.07c-0.018-0.063-0.077-0.094-0.171-0.094
				c-0.037,0.057-0.075,0.109-0.111,0.164c-0.04,0.057-0.078,0.121-0.116,0.195c0.475,0.037,0.825-0.043,1.052-0.238
				c0.228-0.189,0.445-0.397,0.653-0.62c0,0.038,0.019,0.05,0.058,0.044c0.039-0.01,0.039-0.023,0-0.044
				c-0.076-0.036-0.081-0.076-0.015-0.122C20.064,11.729,20.097,11.679,20.097,11.622z"/>
		</g>
		<g>
			<path fill="#FFFFFF" d="M20.779,9.192c-0.038-0.348-0.085-0.684-0.144-1.006c-0.056-0.324-0.094-0.695-0.113-1.117
				c-0.112-0.096-0.221-0.168-0.326-0.225c-0.103-0.055-0.232-0.066-0.384-0.027c-0.132,0.037-0.217,0.111-0.257,0.223
				c-0.036,0.109-0.132,0.164-0.282,0.164c-0.094-0.038-0.161-0.086-0.199-0.152c-0.038-0.064-0.066-0.135-0.084-0.207
				c-0.098,0.037-0.194,0.063-0.3,0.084c-0.104,0.018-0.214,0.026-0.325,0.026c-0.021,0.126-0.087,0.202-0.199,0.22
				c-0.114,0.019-0.219,0.047-0.313,0.085c0,0.108,0.026,0.196,0.084,0.261c0.057,0.066,0.085,0.152,0.085,0.264
				c0.038,0.094,0.015,0.129-0.07,0.109c-0.085-0.016-0.117,0.011-0.099,0.084c0.073,0.223,0.104,0.445,0.084,0.674
				c-0.017,0.232-0.017,0.466,0,0.707 M17.284,8.626c0-0.394-0.047-0.775-0.141-1.146c0.074-0.164,0.103-0.344,0.085-0.537
				c-0.021-0.195-0.078-0.355-0.172-0.484c0.172-0.148,0.284-0.341,0.342-0.582c0.056-0.236,0.132-0.477,0.227-0.717
				c0.134-0.037,0.236-0.037,0.313,0c0.077,0.037,0.15,0.082,0.229,0.139c0.076-0.019,0.112-0.064,0.112-0.139
				c0-0.072,0.038-0.111,0.113-0.111c0.228,0.039,0.47,0.027,0.725-0.025c0.257-0.057,0.509-0.057,0.753,0
				c0.096,0,0.143-0.031,0.143-0.1c0-0.063,0.047-0.076,0.142-0.037c0.134,0.053,0.283,0.096,0.456,0.123
				c0.17,0.027,0.344,0.045,0.522,0.055c0.184,0.008,0.357,0.027,0.527,0.057c0.172,0.025,0.313,0.088,0.425,0.178
				c0.059,0.645,0.143,1.348,0.258,2.111c0.076,0.507,0.436,1.68,0.169,2.143c-0.258,0.451-1.339,0.606-1.797,0.641
				c-0.412,0.031-0.796-0.058-1.208-0.053c-0.726,0.009-1.44-0.041-2.109-0.061C17.268,10.075,17.284,8.733,17.284,8.626z
				 M21.659,7.646c-0.095,0.205-0.194,0.416-0.299,0.637c-0.102,0.217-0.08,0.459,0.072,0.715c0.057-0.238,0.147-0.459,0.271-0.659
				C21.825,8.133,21.812,7.904,21.659,7.646z M21.573,6.542c-0.075,0.126-0.079,0.174-0.015,0.137
				C21.626,6.644,21.63,6.597,21.573,6.542z M21.489,6.099c-0.038,0.109-0.01,0.164,0.084,0.164
				C21.573,6.171,21.545,6.117,21.489,6.099z M21.375,6.901c0.02,0.09-0.033,0.168-0.156,0.219c-0.123,0.055-0.129,0.11-0.014,0.166
				c0-0.092,0.049-0.16,0.142-0.205C21.441,7.034,21.451,6.974,21.375,6.901z M20.609,6.183c0.092-0.107,0.208-0.223,0.34-0.332
				c0.133-0.108,0.141-0.256,0.027-0.443c-0.094,0.037-0.171,0.037-0.227,0c-0.056-0.034-0.104-0.034-0.141,0
				c0,0.129-0.025,0.235-0.072,0.32c-0.048,0.082-0.103,0.161-0.171,0.232c-0.065,0.074-0.128,0.144-0.185,0.207
				c-0.056,0.064-0.094,0.143-0.111,0.236c0.074-0.018,0.126-0.012,0.155,0.014c0.027,0.025,0.061,0.051,0.097,0.068
				c0.038-0.037,0.073-0.078,0.101-0.125c0.029-0.043,0.062-0.088,0.1-0.121h0.058L20.609,6.183z M20.097,5.407
				c-0.113-0.034-0.246-0.049-0.397-0.039c-0.152,0.008-0.294,0.022-0.426,0.039c-0.02,0.094,0.003,0.139,0.07,0.139
				c0.066,0,0.091,0.049,0.071,0.138c-0.094,0.112-0.176,0.239-0.241,0.392c-0.066,0.142-0.184,0.234-0.356,0.271
				c-0.094,0.02-0.149-0.004-0.17-0.07c-0.018-0.063-0.077-0.094-0.171-0.094c-0.037,0.057-0.075,0.109-0.111,0.164
				c-0.04,0.057-0.078,0.121-0.116,0.195c0.475,0.037,0.825-0.043,1.052-0.238c0.228-0.189,0.445-0.398,0.653-0.62
				c0,0.038,0.019,0.05,0.058,0.044c0.039-0.01,0.039-0.023,0-0.044c-0.076-0.036-0.081-0.076-0.015-0.122
				C20.064,5.515,20.097,5.464,20.097,5.407z"/>
		</g>
	</g>
</g>
</svg>
