<?xml version="1.0" encoding="utf-8"?>
<!-- Generator: Adobe Illustrator 17.0.0, SVG Export Plug-In . SVG Version: 6.00 Build 0)  -->
<!DOCTYPE svg PUBLIC "-//W3C//DTD SVG 1.1//EN" "http://www.w3.org/Graphics/SVG/1.1/DTD/svg11.dtd">
<svg version="1.1" id="Layer_1" xmlns="http://www.w3.org/2000/svg" xmlns:xlink="http://www.w3.org/1999/xlink" x="0px" y="0px"
	 width="123px" height="54px" viewBox="0 0 123 54" enable-background="new 0 0 123 54" xml:space="preserve">
<g>
	<g>
		<path fill="#959393" d="M14.529,49.263c18.609-12.649,46.259-8.958,46.259-8.958L32,14.916V0C25,0,10.163,9.492,0.212,21.361
			c0,0,18.859-0.793,28.168,3.27C20.186,31.121,14.529,49.263,14.529,49.263z"/>
	</g>
	<path fill="#333333" d="M31.505,14.919L61,40.305v-5.13V13.451C50,13.675,31.505,14.919,31.505,14.919z"/>
</g>
<g>
	<path fill="#959393" d="M108.457,54.63C82.938,35.516,62.205,40.672,62.205,40.672L91,15.283V0.367
		c10,3.294,25.417,12.448,31.781,26.361c0,0-18.922-2.6-28.23,1.465C104.437,35.662,108.457,54.63,108.457,54.63z"/>
	<path fill="#333333" d="M91.495,15.286L62,40.672v-5.13V13.818C73,14.042,91.495,15.286,91.495,15.286z"/>
</g>
</svg>
