<?xml version="1.0" encoding="utf-8"?>
<!-- Generator: Adobe Illustrator 17.0.0, SVG Export Plug-In . SVG Version: 6.00 Build 0)  -->
<!DOCTYPE svg PUBLIC "-//W3C//DTD SVG 1.1//EN" "http://www.w3.org/Graphics/SVG/1.1/DTD/svg11.dtd">
<svg version="1.1" id="Layer_1" xmlns="http://www.w3.org/2000/svg" xmlns:xlink="http://www.w3.org/1999/xlink" x="0px" y="0px"
	 width="416px" height="416px" viewBox="0 0 416 416" enable-background="new 0 0 416 416" xml:space="preserve">
<g>
	<path fill="#EEBD00" d="M409.046,154.211c6.992,26.095,8.858,52.858,5.547,79.546c-3.429,27.63-12.192,53.806-26.232,78.124
		c-0.147,0.255-0.352,0.593-0.353,0.592L208.372,208.761l-0.095-0.373l180.338-103.976
		C397.527,119.955,404.346,136.672,409.046,154.211z"/>
	<path fill="#F32B36" d="M312.133,27.912c24.318,14.04,45.159,32.421,61.943,54.636c5.127,6.786,9.806,13.839,14.034,21.136
		L208.598,207.24L208.523,0c8.432,0.012,16.88,0.537,25.322,1.586C261.476,5.015,287.814,13.872,312.133,27.912z"/>
	<path fill="#63BD22" d="M82.636,42.102c21.457-16.212,45.567-27.977,71.662-34.97c17.539-4.699,35.378-7.071,53.294-7.124
		l0.171,208.083l-0.37,0.104L27.758,104.484c-0.002-0.001,0.188-0.347,0.336-0.602C42.134,79.563,60.422,58.887,82.636,42.102z"/>
	<path fill="#EEBD00" d="M7.22,261.88c-6.992-26.095-8.781-52.992-5.47-79.679c3.355-27.037,12.218-53.347,25.519-76.845
		l179.159,103.438l-178.45,103.03C18.965,296.179,11.956,279.554,7.22,261.88z"/>
	<path fill="#F32B36" d="M182.421,414.505c-27.631-3.429-53.97-12.285-78.289-26.325c-24.318-14.04-45.158-32.422-61.943-54.637
		c-5.044-6.676-9.578-13.742-13.752-20.911l178.921-103.302l0.049,0.028l-0.001,206.601
		C199.111,415.929,190.722,415.535,182.421,414.505z"/>
	<path fill="#63BD22" d="M208.335,415.953l0.002-206.057l179.161,103.439c-13.701,23.267-32.055,44.097-53.792,60.522
		c-21.456,16.211-45.567,27.976-71.662,34.97C244.372,413.561,226.391,415.936,208.335,415.953z"/>
	<g>
		<path fill="#488B19" d="M131.847,72.385c6.658-1.83,8.444-8.964,5.685-13.775c-2.628-4.582-7.873-6.052-13.176-3.109
			c-4.996-1.804-11.814,0.944-14.89,5.618c-0.902,1.369-1.1,3.177-2.036,4.088c-0.369,0.36-0.924,0.453-1.43,0.82
			c-3.048,2.219-4.206,6.631-3.239,9.891c2.46,8.304,12.889,8.937,17.323,2.189c0.796,1.177,1.539,3.645,3.005,2.951
			c1.725-0.816-0.098-2.975-0.744-4.101c-0.698-1.218-1.758-3.674-3.068-3.06c-0.801,0.373-0.884,1.786-1.38,2.689
			c-2.48,4.521-8.748,4.752-11.517,1.055c-2.926-3.908-1.429-8.834,2.797-10.66c1.146-0.496,4.741-0.246,3.847-2.206
			c-0.502-1.101-1.34-0.44-2.374-0.83c1.994-5.332,8.954-7.244,12.986-6.132c1.33,0.366,3.966,2.736,5.159,1.861
			c1.61-1.181-1.081-2.593-1.418-2.983c3.819-0.729,6.963,0.304,8.524,4.168c1.524,3.78-1.179,9.157-6.166,9.376
			c-0.985,0.042-2.997-0.793-3.755-0.183c-0.984,0.791,0.228,2.435,1.265,4.241c0.656,1.148,1.736,3.711,3.209,2.541
			c1.173-0.933-0.356-2.403-1.265-4.241C130.161,72.568,131.007,72.616,131.847,72.385z"/>
		<path fill="#488B19" d="M116.359,87.401c1.456-0.637,6.025-0.058,5.622-1.909c-0.594-2.726-6.366-0.312-7.983,0.341
			c-2.249,0.907-5.921,5.535-2.726,5.945C113.332,90.12,113.527,88.639,116.359,87.401z"/>
		<path fill="#488B19" d="M135.449,74.847c-0.478,0.67-1.819,2.319-0.718,3.334c1.391,1.281,2.131-1.296,2.825-2.204
			c0.777-1.018,2.16-2.18,3.643-2.82c1.69-0.73,5.475-0.204,4.35-2.349c-0.971-1.847-5.7,0.227-7.085,1.144
			C137.044,72.892,136.369,73.561,135.449,74.847z"/>
		<path fill="#488B19" d="M122.111,88.776c-2.451,2.089-1.792,6.564-1.902,9.416c-0.287,7.373,1.541,13.005,1.271,20.305
			c-0.056,1.522-0.168,3.594,0.542,4.508c1.857,2.393,9.164-3.064,12.485-4.97c9.592-5.499,13.074-7.496,22.424-12.857
			c3.532-2.023,11.71-5.504,10.595-8.265c-0.45-1.115-2.384-2.092-3.618-2.746c-6.789-3.6-10.74-7.574-17.383-11.21
			c-2.195-1.202-5.628-3.589-7.909-3.352c-2.028,0.209-4.508,2.401-6.786,3.451c1.639,3.537,6.052,7.955,2.656,9.725
			c-3.21,1.672-4.633-4.31-6.832-7.33C125.66,86.755,123.633,87.48,122.111,88.776z"/>
		<path fill="#488B19" d="M129.19,72.594c0.909,1.838,2.438,3.308,1.265,4.241c-1.473,1.171-2.553-1.392-3.209-2.541
			c-1.037-1.806-2.249-3.45-1.265-4.241c0.758-0.61,2.77,0.225,3.755,0.183c4.987-0.219,7.69-5.596,6.166-9.376
			c-1.562-3.865-4.705-4.897-8.524-4.168c0.337,0.39,3.028,1.802,1.418,2.983c-1.193,0.875-3.829-1.495-5.159-1.861
			c-4.032-1.112-10.992,0.8-12.986,6.132c1.034,0.39,1.872-0.271,2.374,0.83c0.894,1.96-2.701,1.71-3.847,2.206
			c-4.227,1.826-5.724,6.752-2.797,10.66c2.768,3.696,9.037,3.466,11.517-1.055c0.496-0.903,0.579-2.315,1.38-2.689
			c1.31-0.614,2.37,1.842,3.068,3.06c0.646,1.126,2.47,3.285,0.744,4.101c-1.466,0.694-2.209-1.774-3.005-2.951
			c-4.434,6.747-14.862,6.115-17.323-2.189c-0.967-3.26,0.191-7.672,3.239-9.891c0.506-0.368,1.061-0.46,1.43-0.82
			c0.937-0.912,1.134-2.72,2.036-4.088c3.076-4.673,9.894-7.422,14.89-5.618c5.303-2.943,10.548-1.472,13.176,3.109
			c2.759,4.811,0.974,11.945-5.685,13.775C131.007,72.616,130.161,72.568,129.19,72.594z"/>
		<path fill="#488B19" d="M111.272,91.779c-3.194-0.411,0.477-5.038,2.726-5.945c1.617-0.653,7.389-3.067,7.983-0.341
			c0.402,1.851-4.166,1.272-5.622,1.909C113.527,88.639,113.332,90.12,111.272,91.779z"/>
		<path fill="#488B19" d="M138.464,71.952c1.385-0.917,6.114-2.991,7.085-1.144c1.125,2.145-2.66,1.619-4.35,2.349
			c-1.482,0.641-2.866,1.802-3.643,2.82c-0.694,0.908-1.434,3.485-2.825,2.204c-1.102-1.015,0.239-2.664,0.718-3.334
			C136.369,73.561,137.044,72.892,138.464,71.952z"/>
		<path fill="#488B19" d="M127.655,85.452c2.198,3.02,3.621,9.003,6.832,7.33c3.395-1.771-1.017-6.188-2.656-9.725
			c2.278-1.05,4.758-3.242,6.786-3.451c2.281-0.237,5.715,2.15,7.909,3.352c6.643,3.636,10.594,7.609,17.383,11.21
			c1.233,0.654,3.168,1.631,3.618,2.746c1.115,2.761-7.063,6.242-10.595,8.265c-9.35,5.361-12.832,7.358-22.424,12.857
			c-3.322,1.905-10.629,7.362-12.485,4.97c-0.71-0.914-0.598-2.986-0.542-4.508c0.27-7.3-1.557-12.933-1.271-20.305
			c0.111-2.852-0.548-7.328,1.902-9.416C123.633,87.48,125.66,86.755,127.655,85.452z"/>
	</g>
	<g>
		<path fill-rule="evenodd" clip-rule="evenodd" fill="#AC8B00" d="M55.141,203.326c-3.183,5.615,0.579,12.806,6.486,13.181
			c-6.145,2.455-13.613,6.163-21.7,6.855c-3.412,0.293-7.72-0.01-6.215-3.768c0.707-1.774,2.725-3.646,4.31-5.087
			C42.641,210.295,49.797,206.069,55.141,203.326z"/>
		<path fill-rule="evenodd" clip-rule="evenodd" fill="#AC8B00" d="M55.754,202.546c-0.108,0.025-0.121-0.045-0.131-0.125
			c1.101-7.839,2.045-15.434,4.971-22.036c0.617-1.391,2.075-4.761,4.189-4.828c2.044-0.065,3.162,3.01,3.701,4.73
			c2.013,6.425,2.149,15.618,1.94,23.366C68.458,198.479,58.669,197.397,55.754,202.546z"/>
		<path fill-rule="evenodd" clip-rule="evenodd" fill="#AC8B00" d="M57.836,208.594c-0.388-2.474,1.077-5.156,3.656-5.706
			c7.801-1.657,8.311,11.156,0.284,9.921C60.098,212.554,58.279,211.424,57.836,208.594z"/>
		<path fill-rule="evenodd" clip-rule="evenodd" fill="#AC8B00" d="M62.523,216.736c-0.026-0.108,0.048-0.123,0.125-0.131
			c6.382-0.293,10.12-5.415,8.188-11.944c0.527-0.146,0.924,0.454,1.291,0.727c5.238,3.84,10.463,7.986,14.638,13.328
			c1.071,1.371,3.865,4.631,2.874,7.047c-0.832,2.031-5.68,1.024-7.625,0.471C74.659,224.149,68.287,219.904,62.523,216.736z"/>
		<path fill-rule="evenodd" clip-rule="evenodd" fill="#AC8B00" d="M107.621,201.573c0.095,3.308,0.186,6.615,0.282,9.92
			c-3.161-0.134-16.048,0.069-18.93-0.096c-0.944-0.052-2.332,0.065-3.059-0.165c-0.596-0.191-1.488-1.282-2.22-1.974
			c-2.383-2.251-4.952-3.858-7.406-5.262C83.368,203.256,100.485,202.261,107.621,201.573z"/>
		<path fill-rule="evenodd" clip-rule="evenodd" fill="#AC8B00" d="M109.252,195.131c1.03-0.031,1.886,0.779,1.914,1.805
			l0.558,19.525c0.03,1.027-0.78,1.883-1.806,1.913l0,0c-1.028,0.029-1.883-0.78-1.911-1.806l-0.558-19.525
			C107.419,196.015,108.228,195.16,109.252,195.131L109.252,195.131z"/>
	</g>
	<g>
		<path fill-rule="evenodd" clip-rule="evenodd" fill="#B01F28" d="M298.501,65.481c0.07,1.313-0.194,1.895-1.202,2.885
			c2.843,1.952,6.268,3.796,7.667,6.016c-0.402,0.697-0.803,1.391-1.205,2.087c-3.954-0.399-8.272-4.271-12.532-7.236
			c-4.175-2.907-8.875-5.693-11.153-8.825c0.439-1.111,1.103-1.591,1.725-2.184C287.047,60.225,293.627,61.931,298.501,65.481z"/>
		<path fill-rule="evenodd" clip-rule="evenodd" fill="#B01F28" d="M302.753,83.042c-4.451-0.862-9.531-5.045-14.622-8.442
			c-4.835-3.226-10.337-6.581-13.243-10.03c0.654-1.295,1.316-2.566,2.596-2.081c5.276,3.265,11.169,7.049,16.89,10.946
			C298.197,76.037,305.473,79.344,302.753,83.042z"/>
		<path fill-rule="evenodd" clip-rule="evenodd" fill="#B01F28" d="M300.687,86.62c-0.344,0.596-0.688,1.192-1.032,1.788
			c-4.425-0.924-9.371-4.922-14.274-8.241c-4.794-3.244-9.836-6.544-13.414-9.731c1.315-6.356,10.227,2.496,16.522,6.757
			C293.666,80.695,299.525,83.557,300.687,86.62z"/>
		<path fill-rule="evenodd" clip-rule="evenodd" fill="#B01F28" d="M296.555,93.776c-9.336-4.055-20.514-12.284-27.864-18.474
			c1.908-5.53,13.108,4.733,17.743,7.86C291.521,86.592,299.813,90.192,296.555,93.776z"/>
		<path fill-rule="evenodd" clip-rule="evenodd" fill="#B01F28" d="M292.573,95.848c-2.133,4.175-6.368,2.389-8.825,5.639
			c-0.063,1.43,2.029,2.458,2.448,3.799c-0.394,4.708-4.713,9.616-8.634,9.326c-0.766,2.7-2.943,6.37-4.995,7.849
			c-7.069-1.185-12.416-4.422-17.579-9.752c-0.32-3.757,3.074-4.883,3.951-8.454c0.486-1.976-1.277-3.99-0.896-5.683
			c0.957-4.258,4.963-8.091,8.823-6.436c2.317-1.433-1.65-3.448,1.012-5.775c0.598,0.123,1.118,0.025,1.561-0.293
			c3.58,2.435,4.105,5.44,1.779,8.979c2.553,1.474,5.107,2.949,7.66,4.422c1.775-2.304,3.858-3.739,6.228-4.356
			c-4.878-4.586-13.427-8.488-17.424-13.238c2.2-5.361,9.165,2.21,14.611,6.051C286.795,91.102,291.324,93.212,292.573,95.848z
			 M264.975,96.214c-2.127,2.525-2.012,4.631-1.53,6.668c4.296,2.48,8.588,4.958,12.882,7.438c2.005-0.601,3.888-1.554,5.011-4.658
			C275.883,102.512,270.43,99.364,264.975,96.214z M260.693,108.452c4.068,1.837,9.046,6.257,12.531,6.439
			c0.172-0.298,0.344-0.595,0.516-0.893c-2.966-2.64-8.18-4.858-12.014-7.335C261.382,107.259,261.038,107.855,260.693,108.452z
			 M258.628,112.028c4.068,1.838,9.045,6.258,12.531,6.44c0.172-0.297,0.344-0.596,0.516-0.893
			c-2.967-2.638-8.18-4.857-12.014-7.335C259.317,110.836,258.973,111.432,258.628,112.028z"/>
	</g>
	<g>
		<path fill="#488B19" d="M279.367,345.723c-6.658,1.83-8.445,8.963-5.685,13.775c2.626,4.581,7.872,6.053,13.176,3.109
			c4.996,1.804,11.814-0.943,14.89-5.618c0.902-1.369,1.1-3.177,2.036-4.088c0.369-0.36,0.924-0.453,1.43-0.82
			c3.046-2.22,4.206-6.631,3.239-9.891c-2.461-8.303-12.888-8.937-17.324-2.19c-0.795-1.176-1.54-3.644-3.006-2.95
			c-1.723,0.816,0.1,2.975,0.746,4.102c0.699,1.217,1.757,3.672,3.069,3.059c0.8-0.373,0.884-1.786,1.379-2.688
			c2.48-4.522,8.749-4.753,11.517-1.056c2.927,3.909,1.429,8.835-2.798,10.66c-1.147,0.496-4.741,0.245-3.846,2.208
			c0.501,1.099,1.339,0.439,2.373,0.828c-1.994,5.332-8.955,7.245-12.987,6.133c-1.329-0.367-3.966-2.737-5.159-1.862
			c-1.612,1.18,1.081,2.593,1.418,2.983c-3.82,0.729-6.963-0.304-8.524-4.169c-1.524-3.78,1.177-9.157,6.164-9.376
			c0.985-0.043,2.997,0.792,3.757,0.183c0.985-0.789-0.228-2.435-1.265-4.241c-0.657-1.147-1.738-3.712-3.21-2.541
			c-1.173,0.933,0.356,2.403,1.263,4.241C281.053,345.542,280.206,345.493,279.367,345.723z"/>
		<path fill="#488B19" d="M294.857,330.708c-1.458,0.636-6.027,0.058-5.624,1.908c0.594,2.726,6.366,0.312,7.983-0.341
			c2.249-0.907,5.92-5.534,2.726-5.944C297.882,327.989,297.686,329.47,294.857,330.708z"/>
		<path fill="#488B19" d="M275.765,343.261c0.478-0.67,1.817-2.319,0.717-3.333c-1.391-1.282-2.13,1.296-2.825,2.204
			c-0.777,1.018-2.16,2.179-3.642,2.82c-1.688,0.732-5.475,0.204-4.35,2.349c0.971,1.847,5.7-0.227,7.085-1.144
			C274.168,345.215,274.845,344.548,275.765,343.261z"/>
		<path fill="#488B19" d="M289.103,329.333c2.451-2.09,1.794-6.564,1.902-9.417c0.287-7.373-1.541-13.005-1.271-20.305
			c0.058-1.521,0.169-3.595-0.542-4.509c-1.857-2.393-9.162,3.065-12.485,4.97c-9.593,5.499-13.077,7.496-22.424,12.857
			c-3.532,2.023-11.71,5.504-10.596,8.266c0.45,1.115,2.385,2.091,3.618,2.746c6.79,3.6,10.74,7.574,17.385,11.211
			c2.193,1.2,5.627,3.587,7.908,3.351c2.028-0.21,4.508-2.401,6.786-3.452c-1.641-3.537-6.052-7.955-2.655-9.723
			c3.209-1.674,4.631,4.309,6.83,7.329C285.553,331.354,287.581,330.628,289.103,329.333z"/>
		<path fill="#488B19" d="M282.022,345.515c-0.906-1.838-2.435-3.308-1.263-4.241c1.471-1.172,2.553,1.393,3.21,2.541
			c1.037,1.806,2.25,3.452,1.265,4.241c-0.76,0.609-2.772-0.226-3.757-0.183c-4.987,0.219-7.688,5.596-6.164,9.376
			c1.562,3.865,4.705,4.897,8.524,4.169c-0.337-0.39-3.03-1.803-1.418-2.983c1.193-0.875,3.829,1.495,5.159,1.862
			c4.032,1.112,10.992-0.801,12.987-6.133c-1.034-0.389-1.872,0.271-2.373-0.828c-0.895-1.962,2.699-1.711,3.846-2.208
			c4.226-1.825,5.725-6.75,2.798-10.66c-2.768-3.696-9.037-3.466-11.517,1.056c-0.495,0.902-0.579,2.315-1.379,2.688
			c-1.312,0.613-2.37-1.842-3.069-3.059c-0.646-1.127-2.469-3.286-0.746-4.102c1.466-0.694,2.211,1.774,3.006,2.95
			c4.436-6.746,14.864-6.113,17.324,2.19c0.967,3.26-0.193,7.671-3.239,9.891c-0.506,0.368-1.061,0.46-1.43,0.82
			c-0.937,0.912-1.134,2.72-2.036,4.088c-3.076,4.674-9.894,7.422-14.89,5.618c-5.304,2.944-10.55,1.472-13.176-3.109
			c-2.761-4.812-0.973-11.945,5.685-13.775C280.206,345.493,281.053,345.542,282.022,345.515z"/>
		<path fill="#488B19" d="M299.942,326.331c3.194,0.411-0.477,5.037-2.726,5.944c-1.617,0.653-7.389,3.067-7.983,0.341
			c-0.403-1.85,4.166-1.272,5.624-1.908C297.686,329.47,297.882,327.989,299.942,326.331z"/>
		<path fill="#488B19" d="M272.751,346.157c-1.385,0.917-6.114,2.991-7.085,1.144c-1.125-2.145,2.661-1.618,4.35-2.349
			c1.482-0.641,2.865-1.802,3.642-2.82c0.694-0.908,1.434-3.486,2.825-2.204c1.1,1.014-0.239,2.663-0.717,3.333
			C274.845,344.548,274.168,345.215,272.751,346.157z"/>
		<path fill="#488B19" d="M283.559,332.657c-2.199-3.019-3.621-9.003-6.83-7.329c-3.397,1.769,1.014,6.186,2.655,9.723
			c-2.278,1.051-4.758,3.242-6.786,3.452c-2.281,0.236-5.714-2.151-7.908-3.351c-6.645-3.637-10.595-7.611-17.385-11.211
			c-1.233-0.655-3.168-1.631-3.618-2.746c-1.114-2.762,7.064-6.243,10.596-8.266c9.348-5.362,12.832-7.358,22.424-12.857
			c3.323-1.904,10.629-7.362,12.485-4.97c0.71,0.914,0.599,2.987,0.542,4.509c-0.27,7.3,1.558,12.932,1.271,20.305
			c-0.108,2.853,0.549,7.327-1.902,9.417C287.581,330.628,285.553,331.354,283.559,332.657z"/>
	</g>
	<g>
		<path fill-rule="evenodd" clip-rule="evenodd" fill="#AC8B00" d="M356.071,214.781c3.185-5.613-0.577-12.805-6.485-13.181
			c6.146-2.453,13.611-6.164,21.7-6.855c3.412-0.293,7.718,0.009,6.216,3.769c-0.709,1.773-2.729,3.644-4.312,5.086
			C368.573,207.814,361.416,212.041,356.071,214.781z"/>
		<path fill-rule="evenodd" clip-rule="evenodd" fill="#AC8B00" d="M355.459,215.563c0.108-0.026,0.121,0.044,0.131,0.124
			c-1.102,7.84-2.044,15.435-4.974,22.036c-0.617,1.391-2.075,4.761-4.189,4.828c-2.043,0.066-3.161-3.009-3.7-4.731
			c-2.012-6.423-2.147-15.617-1.94-23.366C342.756,219.63,352.545,220.711,355.459,215.563z"/>
		<path fill-rule="evenodd" clip-rule="evenodd" fill="#AC8B00" d="M353.377,209.515c0.388,2.473-1.076,5.155-3.655,5.705
			c-7.803,1.657-8.311-11.156-0.284-9.921C351.116,205.555,352.935,206.684,353.377,209.515z"/>
		<path fill-rule="evenodd" clip-rule="evenodd" fill="#AC8B00" d="M348.69,201.373c0.024,0.107-0.049,0.121-0.124,0.13
			c-6.382,0.294-10.12,5.415-8.188,11.944c-0.525,0.147-0.925-0.453-1.293-0.728c-5.238-3.84-10.461-7.985-14.636-13.327
			c-1.071-1.371-3.865-4.631-2.874-7.046c0.831-2.032,5.68-1.024,7.625-0.472C336.554,193.96,342.927,198.205,348.69,201.373z"/>
		<path fill-rule="evenodd" clip-rule="evenodd" fill="#AC8B00" d="M303.593,216.536c-0.094-3.306-0.188-6.615-0.282-9.92
			c3.159,0.133,16.048-0.069,18.927,0.096c0.946,0.053,2.334-0.065,3.063,0.167c0.594,0.19,1.485,1.28,2.216,1.972
			c2.385,2.253,4.954,3.859,7.408,5.263C327.844,214.852,310.73,215.848,303.593,216.536z"/>
		<path fill-rule="evenodd" clip-rule="evenodd" fill="#AC8B00" d="M302.487,223.119c-1.029,0.031-1.886-0.78-1.914-1.805
			l-0.558-19.525c-0.031-1.028,0.778-1.885,1.806-1.913l0,0c1.029-0.03,1.883,0.78,1.911,1.806l0.558,19.525
			C304.322,222.235,303.513,223.09,302.487,223.119L302.487,223.119z"/>
	</g>
	<g>
		<path fill-rule="evenodd" clip-rule="evenodd" fill="#B01F28" d="M115.777,355.59c-0.07-1.312,0.192-1.895,1.201-2.884
			c-2.843-1.952-6.268-3.796-7.667-6.017c0.402-0.696,0.803-1.391,1.204-2.086c3.954,0.398,8.272,4.27,12.534,7.237
			c4.174,2.905,8.874,5.691,11.152,8.823c-0.439,1.112-1.101,1.592-1.725,2.184C127.23,360.847,120.651,359.14,115.777,355.59z"/>
		<path fill-rule="evenodd" clip-rule="evenodd" fill="#B01F28" d="M111.525,338.029c4.451,0.862,9.531,5.046,14.624,8.443
			c4.833,3.225,10.335,6.58,13.242,10.029c-0.655,1.296-1.316,2.567-2.598,2.081c-5.274-3.265-11.168-7.048-16.888-10.945
			C116.081,345.033,108.805,341.727,111.525,338.029z"/>
		<path fill-rule="evenodd" clip-rule="evenodd" fill="#B01F28" d="M113.591,334.452c0.345-0.597,0.689-1.193,1.033-1.789
			c4.425,0.924,9.369,4.922,14.274,8.241c4.794,3.244,9.836,6.545,13.413,9.732c-1.313,6.356-10.226-2.497-16.522-6.757
			C120.612,340.376,114.753,337.513,113.591,334.452z"/>
		<path fill-rule="evenodd" clip-rule="evenodd" fill="#B01F28" d="M117.722,327.295c9.336,4.054,20.514,12.284,27.864,18.473
			c-1.908,5.53-13.11-4.734-17.743-7.86C122.757,334.479,114.463,330.878,117.722,327.295z"/>
		<path fill-rule="evenodd" clip-rule="evenodd" fill="#B01F28" d="M121.705,325.223c2.133-4.175,6.366-2.39,8.825-5.639
			c0.063-1.43-2.029-2.458-2.448-3.799c0.394-4.708,4.713-9.616,8.634-9.325c0.767-2.701,2.944-6.371,4.995-7.849
			c7.07,1.184,12.416,4.421,17.581,9.753c0.319,3.757-3.075,4.882-3.954,8.452c-0.484,1.976,1.277,3.99,0.898,5.684
			c-0.957,4.258-4.963,8.092-8.822,6.437c-2.319,1.432,1.648,3.448-1.015,5.775c-0.598-0.124-1.118-0.026-1.562,0.291
			c-3.579-2.434-4.105-5.44-1.777-8.978c-2.554-1.475-5.107-2.949-7.66-4.422c-1.774,2.305-3.856,3.74-6.228,4.356
			c4.877,4.586,13.427,8.489,17.424,13.238c-2.2,5.361-9.166-2.21-14.611-6.051C127.483,329.969,122.954,327.859,121.705,325.223z
			 M149.302,324.858c2.127-2.526,2.012-4.632,1.531-6.669c-4.296-2.48-8.59-4.959-12.882-7.438
			c-2.005,0.601-3.886,1.555-5.012,4.659C138.392,318.559,143.847,321.708,149.302,324.858z M153.585,312.619
			c-4.069-1.836-9.048-6.258-12.531-6.438c-0.172,0.298-0.344,0.595-0.516,0.893c2.964,2.638,8.18,4.858,12.014,7.335
			C152.896,313.812,153.24,313.217,153.585,312.619z M155.65,309.043c-4.068-1.838-9.047-6.259-12.531-6.44
			c-0.172,0.297-0.344,0.596-0.516,0.893c2.965,2.637,8.18,4.857,12.014,7.335C154.961,310.235,155.305,309.639,155.65,309.043z"/>
	</g>
</g>
<g opacity="0.3">
	<path d="M208,14.397c26.142,0,51.495,5.117,75.354,15.208c23.052,9.75,43.759,23.712,61.543,41.497
		c17.785,17.785,31.746,38.491,41.497,61.543c10.092,23.859,15.208,49.212,15.208,75.354c0,26.142-5.117,51.495-15.208,75.354
		c-9.75,23.052-23.712,43.758-41.497,61.543c-17.785,17.785-38.491,31.746-61.543,41.497
		c-23.859,10.092-49.212,15.208-75.354,15.208c-26.142,0-51.495-5.117-75.354-15.208c-23.052-9.75-43.758-23.712-61.543-41.497
		c-17.785-17.785-31.746-38.491-41.497-61.543C19.514,259.495,14.397,234.142,14.397,208c0-26.142,5.117-51.495,15.208-75.354
		c9.75-23.052,23.712-43.759,41.497-61.543c17.785-17.785,38.491-31.746,61.543-41.497C156.505,19.514,181.858,14.397,208,14.397
		 M208,0C93.126,0,0,93.126,0,208c0,114.875,93.126,208,208,208c114.874,0,208-93.126,208-208C416,93.126,322.874,0,208,0L208,0z"/>
</g>
</svg>
