<?xml version="1.0" encoding="utf-8"?>
<!-- Generator: Adobe Illustrator 17.0.0, SVG Export Plug-In . SVG Version: 6.00 Build 0)  -->
<!DOCTYPE svg PUBLIC "-//W3C//DTD SVG 1.1//EN" "http://www.w3.org/Graphics/SVG/1.1/DTD/svg11.dtd">
<svg version="1.1" id="Layer_1" xmlns="http://www.w3.org/2000/svg" xmlns:xlink="http://www.w3.org/1999/xlink" x="0px" y="0px"
	 width="127px" height="152px" viewBox="0 0 127 152" enable-background="new 0 0 127 152" xml:space="preserve">
<g>
	<g opacity="0.4">
		<path stroke="#000000" stroke-width="6.3197" stroke-miterlimit="10" d="M123.575,90.785c0,31.932-25.886,57.816-57.818,57.816
			c-31.928,0-57.816-25.885-57.816-57.816c0-31.931,25.888-57.818,57.816-57.818C97.689,32.967,123.575,58.854,123.575,90.785z"/>
		
			<rect x="56.627" y="22.541" transform="matrix(0.9999 -0.0166 0.0166 0.9999 -0.4553 1.1077)" fill-rule="evenodd" clip-rule="evenodd" width="19.911" height="10.952"/>
		<polygon fill-rule="evenodd" clip-rule="evenodd" points="66.509,23.538 85.62,23.223 75.891,12.923 66.164,2.717 56.78,13.285 
			47.399,23.855 		"/>
	</g>
	<g>
		<g>
			<path fill="#FFFFFF" stroke="#FFFFFF" stroke-width="6.3197" stroke-miterlimit="10" d="M120.844,88.055
				c0,31.932-25.886,57.816-57.818,57.816c-31.928,0-57.816-25.885-57.816-57.816c0-31.931,25.888-57.818,57.816-57.818
				C94.958,30.237,120.844,56.124,120.844,88.055z"/>
			<g>
				
					<rect x="53.897" y="19.811" transform="matrix(0.9999 -0.0166 0.0166 0.9999 -0.4105 1.0621)" fill-rule="evenodd" clip-rule="evenodd" fill="#FFFFFF" width="19.911" height="10.952"/>
				<polygon fill-rule="evenodd" clip-rule="evenodd" fill="#FFFFFF" points="63.779,20.808 82.89,20.493 73.161,10.193 
					63.434,-0.013 54.05,10.555 44.669,21.125 				"/>
			</g>
		</g>
	</g>
</g>
</svg>
