<?xml version="1.0" encoding="utf-8"?>
<!-- Generator: Adobe Illustrator 17.0.0, SVG Export Plug-In . SVG Version: 6.00 Build 0)  -->
<!DOCTYPE svg PUBLIC "-//W3C//DTD SVG 1.1//EN" "http://www.w3.org/Graphics/SVG/1.1/DTD/svg11.dtd">
<svg version="1.1" id="Layer_1" xmlns="http://www.w3.org/2000/svg" xmlns:xlink="http://www.w3.org/1999/xlink" x="0px" y="0px"
	 width="105px" height="45px" viewBox="0 0 105 45" enable-background="new 0 0 105 45" xml:space="preserve">
<g>
	<g>
		<g>
			<path fill="#999999" d="M0.392,34.977c7.896,0.126,15.352,4.317,22.806,8.639l-2.607-3.627c-3.786-4.471-7.029-6.566-9.029-9.381
				v-9.841v-2.098c-5,0.08-6.615,0.096-10.729,0.019l0.99,1.765C4.24,24,5.34,25.509,7.758,28.499
				c-2.393,2.092-3.645,2.535-6.038,4.874C1.211,33.939,0.901,34.242,0.392,34.977z"/>
			<path fill="#CCCCCC" d="M11.561,8.673v2.071V28.65v1.957c0,0,26.568-7.182,40.69-7.18c14.12,0,41.311,5.223,41.311,7.18V28.65
				V10.744V8.673c-13-4.038-26.866-8.301-41.001-8.301C38.428,0.372,25.561,4.635,11.561,8.673z"/>
			<path fill="#999999" d="M97.458,28.499c2.418-2.99,3.629-4.499,6.047-8.047l0.778-1.765c-4.116,0.077-5.722,0.062-10.722-0.019
				v2.098v9.841c-4,2.814-5.25,4.906-9.038,9.381l-2.827,3.627c7.453-4.321,15.016-8.513,22.911-8.639
				c-0.508-0.734-0.711-1.037-1.219-1.604C100.994,31.034,99.852,30.591,97.458,28.499z"/>
			<path fill="none" d="M23.198,43.615c-3.97-4.939-8.072-9.619-12.515-13.008"/>
			<path fill="#333333" d="M81.561,26.818v14.67v2.127c3-4.939,8.201-9.619,12.642-13.008
				C94.203,30.607,90.561,28.997,81.561,26.818z"/>
			<path fill="#333333" d="M10.213,30.607c4.443,3.389,8.348,8.069,12.348,13.008v-2.127V27.715
				C22.561,27.715,12.626,29.914,10.213,30.607z"/>
		</g>
	</g>
	<g>
		<path fill="#FF4A00" stroke="#FF4A00" stroke-width="0.6858" stroke-miterlimit="10" d="M34.9,6.07
			c0,0.776-0.022,1.941-0.066,3.495c-0.044,1.554-0.066,2.719-0.066,3.495c0,0.186,0.031,0.777,0.095,1.774
			c0.063,0.997,0.063,1.611,0,1.843c-0.126,1.078-0.379,1.832-0.757,2.261c-0.215,0.244-0.471,0.377-0.767,0.4
			s-0.565-0.053-0.804-0.227c-0.808-0.545-1.25-1.432-1.325-2.66c-0.025-0.29-0.025-0.788,0-1.496c0.012-0.603,0-1.055-0.038-1.356
			c-0.013-0.081,0.006-0.147,0.057-0.199c0.05-0.053,0.117-0.084,0.199-0.096c0.082-0.012,0.151,0.006,0.208,0.052
			c0.057,0.047,0.091,0.104,0.104,0.174c0.038,0.325,0.05,0.806,0.038,1.443c-0.025,0.685-0.025,1.165,0,1.443
			c0.063,1.066,0.429,1.826,1.098,2.278c0.303,0.197,0.561,0.174,0.776-0.069c0.315-0.359,0.53-1.032,0.644-2.018
			c0.076-0.209,0.079-0.785,0.01-1.73c-0.07-0.944-0.104-1.55-0.104-1.817c0-0.776,0.021-1.941,0.066-3.495
			c0.044-1.554,0.066-2.719,0.066-3.495c0-0.174,0.095-0.261,0.284-0.261C34.805,5.81,34.9,5.896,34.9,6.07z"/>
		<path fill="#FF4A00" stroke="#FF4A00" stroke-width="0.6858" stroke-miterlimit="10" d="M40.92,9.635
			c-0.063,1.356-0.038,2.928,0.076,4.713c0.151,2.226,0.417,3.745,0.795,4.557c0.076,0.162,0.025,0.278-0.152,0.348
			s-0.303,0.023-0.378-0.14c-0.063-0.15-0.132-0.33-0.208-0.539c-0.228,0.348-0.486,0.586-0.776,0.713
			c-0.354,0.162-0.713,0.15-1.079-0.034c-0.291-0.15-0.552-0.389-0.786-0.713c-0.234-0.325-0.414-0.673-0.54-1.044
			c-0.151-0.452-0.265-0.944-0.341-1.478c-0.076-0.533-0.104-1.107-0.085-1.722c0.019-0.615,0.044-1.148,0.076-1.601
			c0.031-0.452,0.079-1.025,0.142-1.722l0.152-1.46c0-0.07,0.031-0.128,0.094-0.175c0.063-0.046,0.133-0.069,0.208-0.069
			s0.139,0.029,0.189,0.087c0.05,0.059,0.076,0.122,0.076,0.191c-0.025,0.29-0.073,0.786-0.142,1.487s-0.12,1.27-0.151,1.704
			c-0.032,0.435-0.057,0.95-0.076,1.548c-0.019,0.597,0.006,1.147,0.076,1.651c0.069,0.505,0.173,0.966,0.312,1.383
			c0.114,0.337,0.268,0.641,0.464,0.913s0.401,0.461,0.615,0.565c0.189,0.093,0.373,0.099,0.549,0.018
			c0.24-0.104,0.473-0.359,0.7-0.766c0.025-0.058,0.076-0.099,0.152-0.122c-0.202-0.904-0.354-2.092-0.455-3.564
			c-0.114-1.797-0.139-3.386-0.076-4.765c0-0.07,0.028-0.128,0.085-0.174c0.057-0.047,0.126-0.07,0.208-0.07
			c0.082,0,0.148,0.026,0.199,0.078C40.895,9.487,40.92,9.554,40.92,9.635z"/>
		<path fill="#FF4A00" stroke="#FF4A00" stroke-width="0.6858" stroke-miterlimit="10" d="M47.792,11.305
			c-0.151,0.498-0.158,1.641-0.019,3.426c0.025,0.58,0.139,1.832,0.341,3.756c0,0.163,0.031,0.395,0.095,0.696
			c0.076,0.405,0.126,0.654,0.151,0.747c0.088,0.638,0.082,1.165-0.019,1.583c-0.126,0.452-0.359,0.794-0.7,1.025
			c-0.341,0.232-0.726,0.348-1.155,0.348c-0.404-0.011-0.795-0.13-1.174-0.356c-0.379-0.226-0.663-0.536-0.852-0.93
			c-0.076-0.186-0.114-0.418-0.114-0.696c0-0.069,0.006-0.177,0.019-0.321c0.013-0.146,0.019-0.241,0.019-0.287
			c0-0.174,0.088-0.261,0.265-0.261c0.176,0,0.265,0.087,0.265,0.261c0,0.069-0.007,0.174-0.019,0.313
			c-0.013,0.139-0.019,0.237-0.019,0.295c0,0.221,0.031,0.383,0.095,0.487c0.139,0.313,0.35,0.554,0.634,0.722
			c0.284,0.168,0.58,0.255,0.89,0.261c0.309,0.006,0.583-0.072,0.824-0.234c0.239-0.163,0.403-0.418,0.492-0.766
			c0.088-0.348,0.088-0.806,0-1.374c0-0.081-0.044-0.33-0.133-0.747l-0.095-0.592c-0.164,0.209-0.378,0.371-0.644,0.487
			c-0.227,0.116-0.492,0.168-0.795,0.156c-0.303-0.012-0.556-0.104-0.757-0.278c-0.354-0.336-0.634-0.768-0.842-1.295
			c-0.208-0.527-0.332-1.041-0.37-1.539c-0.126-2.215,0.133-4.041,0.776-5.479c0.189-0.405,0.438-0.704,0.748-0.896
			c0.309-0.191,0.627-0.24,0.956-0.147c0.277,0.081,0.508,0.243,0.691,0.486c0.183,0.244,0.299,0.546,0.35,0.904
			C47.773,11.131,47.804,11.212,47.792,11.305z M47.205,11.252c0-0.359-0.069-0.646-0.208-0.86
			c-0.139-0.215-0.309-0.345-0.511-0.392c-0.177-0.046-0.369-0.012-0.578,0.104c-0.208,0.116-0.388,0.342-0.54,0.678
			c-0.644,1.368-0.902,3.16-0.776,5.374c0.025,0.464,0.139,0.934,0.341,1.408c0.202,0.476,0.467,0.858,0.795,1.148
			c0.227,0.208,0.555,0.22,0.984,0.034c0.189-0.081,0.344-0.188,0.464-0.321c0.12-0.133,0.18-0.258,0.18-0.374
			s0.063-0.197,0.189-0.243c-0.139-1.252-0.234-2.278-0.284-3.078c-0.126-1.611-0.139-2.736-0.038-3.374
			C47.211,11.322,47.205,11.287,47.205,11.252z"/>
		<path fill="#FF4A00" stroke="#FF4A00" stroke-width="0.6858" stroke-miterlimit="10" d="M53.642,12.504
			c0.024,0.43,0.068,0.934,0.132,1.514c0.164,1.704,0.253,2.632,0.265,2.782c0.014,0.174,0.02,0.42,0.02,0.739
			c0,0.318,0.012,0.594,0.037,0.826c0.025,0.231,0.063,0.452,0.114,0.66c0.025,0.069,0.019,0.137-0.019,0.2
			c-0.038,0.063-0.096,0.104-0.171,0.122c-0.075,0.017-0.148,0.009-0.218-0.026s-0.11-0.087-0.123-0.156
			c-0.102-0.348-0.164-0.817-0.189-1.409l-0.019,0.07c-0.202,0.591-0.455,1.008-0.757,1.252c-0.328,0.278-0.675,0.354-1.041,0.226
			c-0.303-0.104-0.568-0.336-0.795-0.695c-0.227-0.359-0.404-0.782-0.53-1.27c-0.228-0.939-0.265-2.104-0.114-3.495
			c0.063-0.499,0.233-1.087,0.511-1.766c0.277-0.678,0.587-1.208,0.928-1.591c0.202-0.232,0.404-0.389,0.605-0.47
			c0.278-0.116,0.53-0.093,0.757,0.069c0.392,0.278,0.656,0.991,0.796,2.14C53.843,12.365,53.78,12.458,53.642,12.504z
			 M53.356,15.443c-0.012-0.093-0.037-0.302-0.075-0.626s-0.063-0.574-0.075-0.748c-0.114-1.124-0.158-2.058-0.133-2.8v-0.018
			c-0.114-0.394-0.24-0.644-0.379-0.747c-0.05-0.035-0.113-0.041-0.189-0.018c-0.114,0.046-0.24,0.15-0.379,0.313
			c-0.303,0.359-0.587,0.853-0.852,1.479c-0.265,0.626-0.423,1.171-0.473,1.635c-0.151,1.333-0.113,2.44,0.114,3.321
			c0.101,0.429,0.243,0.785,0.426,1.069s0.363,0.455,0.54,0.514c0.151,0.046,0.303,0.006,0.455-0.122
			c0.214-0.186,0.417-0.533,0.605-1.044c0.05-0.15,0.098-0.321,0.142-0.513c0.044-0.191,0.079-0.356,0.104-0.495l0.076-0.574
			c0.025-0.231,0.044-0.411,0.057-0.539C53.319,15.507,53.331,15.479,53.356,15.443z"/>
		<path fill="#FF4A00" stroke="#FF4A00" stroke-width="0.6858" stroke-miterlimit="10" d="M60.173,6.47
			c-0.051,0.256-0.08,0.536-0.086,0.844s-0.003,0.646,0.01,1.018c0.013,0.371,0.013,0.672,0,0.904
			c-0.037,1.159,0.051,2.828,0.266,5.008c0.227,2.319,0.34,3.994,0.34,5.026c0,0.174-0.094,0.261-0.283,0.261
			c-0.076,0-0.143-0.026-0.199-0.078c-0.057-0.053-0.085-0.113-0.085-0.183c-0.038,0.093-0.102,0.15-0.189,0.174
			c-1.187,0.278-2.127,0.092-2.821-0.557c-0.58-0.545-0.928-1.356-1.041-2.435c-0.088-0.951,0.004-1.934,0.275-2.948
			c0.271-1.014,0.658-1.776,1.164-2.286c0.252-0.267,0.542-0.395,0.871-0.383c0.264,0,0.529,0.099,0.795,0.296
			c0.125,0.093,0.246,0.208,0.359,0.348c-0.038-0.812-0.045-1.56-0.02-2.243c0.013-0.197,0.013-0.487,0-0.87
			c-0.012-0.383-0.016-0.741-0.009-1.078c0.006-0.336,0.034-0.644,0.085-0.922c0.012-0.069,0.051-0.124,0.113-0.165
			c0.063-0.04,0.136-0.055,0.219-0.043c0.081,0.012,0.145,0.046,0.188,0.104C60.169,6.319,60.185,6.389,60.173,6.47z M59.453,12.504
			c-0.025-0.15-0.099-0.321-0.218-0.513c-0.12-0.191-0.256-0.345-0.407-0.461c-0.151-0.115-0.303-0.174-0.454-0.174
			c-0.139-0.012-0.284,0.059-0.436,0.209c-0.43,0.452-0.773,1.147-1.031,2.087c-0.26,0.938-0.344,1.854-0.256,2.747
			c0.101,0.963,0.391,1.67,0.871,2.122c0.542,0.51,1.299,0.644,2.271,0.399c0.164-0.034,0.277,0.023,0.341,0.174
			c-0.013-0.974-0.126-2.579-0.341-4.816l-0.151-1.565C59.541,12.679,59.478,12.608,59.453,12.504z"/>
		<path fill="#FF4A00" stroke="#FF4A00" stroke-width="0.6858" stroke-miterlimit="10" d="M65.757,10.452
			c0.202,0.395,0.423,0.939,0.662,1.635c0.367,1.032,0.574,1.785,0.625,2.261c0.088,0.788,0.013,1.826-0.227,3.113
			c-0.063,0.301-0.199,0.632-0.407,0.991s-0.451,0.66-0.729,0.904c-0.354,0.289-0.713,0.435-1.078,0.435
			c-0.442,0-0.84-0.191-1.193-0.574c-0.656-0.73-1.021-1.924-1.098-3.582c-0.051-1.206,0.038-2.446,0.266-3.722
			c0.176-0.939,0.479-1.611,0.908-2.018c0.303-0.278,0.637-0.411,1.004-0.399c0.391,0.023,0.801,0.22,1.23,0.591
			C65.858,10.203,65.87,10.325,65.757,10.452z M64.942,10.174c-0.176-0.093-0.34-0.145-0.492-0.156
			c-0.189-0.012-0.371,0.069-0.549,0.243c-0.354,0.337-0.605,0.91-0.757,1.722c-0.228,1.252-0.315,2.464-0.265,3.635
			c0.075,1.53,0.403,2.614,0.984,3.252c0.227,0.267,0.467,0.4,0.719,0.4c0.228,0,0.461-0.104,0.701-0.313
			c0.239-0.186,0.447-0.432,0.625-0.739c0.176-0.307,0.289-0.594,0.34-0.86c0.228-1.24,0.303-2.231,0.228-2.974
			c-0.051-0.429-0.246-1.143-0.587-2.14c-0.366-1.043-0.669-1.704-0.908-1.982C64.956,10.238,64.942,10.209,64.942,10.174z"/>
		<path fill="#FF4A00" stroke="#FF4A00" stroke-width="0.6858" stroke-miterlimit="10" d="M69.069,11.252
			c-0.025-0.475-0.057-0.933-0.094-1.373c0-0.07,0.025-0.131,0.075-0.183c0.05-0.053,0.114-0.081,0.189-0.088
			c0.075-0.005,0.142,0.016,0.198,0.062c0.058,0.046,0.092,0.104,0.104,0.174l0.038,0.435c0.277-0.348,0.656-0.539,1.136-0.574
			c0.467-0.034,0.827,0.163,1.079,0.592c0.177,0.302,0.297,0.73,0.359,1.287c0.038,0.278,0.057,0.579,0.057,0.904
			c0,0.324-0.006,0.646-0.019,0.965c-0.013,0.319-0.019,0.502-0.019,0.548c0,0.174-0.095,0.261-0.284,0.261S71.606,14.174,71.606,14
			c0-0.069,0.006-0.261,0.02-0.574c0.012-0.313,0.019-0.623,0.019-0.93c0-0.308-0.019-0.595-0.057-0.861
			c-0.051-0.487-0.146-0.853-0.284-1.096c-0.139-0.231-0.322-0.336-0.549-0.313c-0.291,0.023-0.505,0.115-0.644,0.278
			c-0.14,0.162-0.29,0.44-0.454,0.834c0.025,0.604,0.047,1.272,0.066,2.009c0.019,0.736,0.027,1.319,0.027,1.748v2.087v1.843
			c0,0.174-0.094,0.261-0.283,0.261s-0.284-0.087-0.284-0.261v-1.843V15.13c0-0.429-0.007-1.005-0.019-1.729
			c-0.014-0.725-0.039-1.389-0.076-1.991C69.063,11.362,69.058,11.311,69.069,11.252z"/>
	</g>
	<g>
		<path fill="#999999" d="M37.463,34.63c-0.109,0.045-0.223,0.079-0.341,0.102c-0.119,0.023-0.255,0.041-0.408,0.055
			s-0.25,0.025-0.29,0.034c-0.049,0.009-0.094,0-0.133-0.027c-0.03,0.236-0.035,1.209-0.015,2.918c0.02,1.709,0.03,2.682,0.03,2.918
			c0,0.137-0.074,0.204-0.223,0.204s-0.223-0.067-0.223-0.204c0-0.454-0.007-1.168-0.022-2.141c-0.015-0.973-0.02-1.834-0.015-2.584
			s0.027-1.466,0.067-2.147c0.01-0.173,0.02-0.736,0.03-1.69c0.01-0.563,0.04-1.032,0.089-1.404
			c-0.03-0.019-0.049-0.041-0.059-0.068c-0.05-0.118-0.015-0.205,0.104-0.26c0.01-0.054,0.04-0.1,0.089-0.136
			c0.049-0.036,0.104-0.05,0.163-0.041c0.04,0.009,0.079,0.022,0.119,0.041c0.614-0.173,1.133-0.15,1.559,0.068
			c0.465,0.236,0.757,0.649,0.876,1.24c0.109,0.5,0.072,1.025-0.111,1.575s-0.487,0.988-0.913,1.315
			c0.297,0.637,0.698,1.695,1.203,3.177c0.504,1.482,0.92,2.573,1.247,3.272c0.06,0.128,0.02,0.219-0.119,0.273
			s-0.237,0.018-0.297-0.109c-0.327-0.709-0.747-1.813-1.262-3.313C38.092,36.188,37.711,35.166,37.463,34.63z M36.306,34.425
			c0.02,0,0.04-0.004,0.06-0.014l0.312-0.041c0.119-0.009,0.213-0.018,0.282-0.027c0.069-0.009,0.146-0.027,0.23-0.054
			c0.084-0.027,0.161-0.064,0.23-0.109c0.396-0.264,0.685-0.646,0.869-1.146c0.183-0.5,0.23-0.981,0.141-1.445
			c-0.099-0.464-0.316-0.781-0.653-0.954c-0.347-0.183-0.787-0.187-1.321-0.014c-0.049,0.382-0.079,0.863-0.089,1.445
			c-0.02,1.136-0.03,1.709-0.03,1.718L36.306,34.425z"/>
		<path fill="#999999" d="M44.663,35.584c0.02,0.336,0.054,0.731,0.104,1.187c0.128,1.336,0.198,2.063,0.208,2.182
			c0.01,0.136,0.015,0.329,0.015,0.579s0.01,0.466,0.03,0.647c0.02,0.183,0.049,0.354,0.089,0.519
			c0.02,0.055,0.015,0.106-0.015,0.156c-0.03,0.051-0.074,0.082-0.134,0.096c-0.059,0.014-0.116,0.007-0.17-0.021
			c-0.055-0.027-0.087-0.068-0.097-0.122c-0.079-0.273-0.128-0.642-0.148-1.104l-0.015,0.054c-0.159,0.464-0.356,0.791-0.594,0.982
			c-0.257,0.218-0.53,0.277-0.816,0.177c-0.238-0.082-0.445-0.264-0.624-0.545c-0.178-0.282-0.317-0.614-0.416-0.996
			c-0.178-0.735-0.208-1.649-0.089-2.74c0.05-0.391,0.183-0.853,0.401-1.384c0.218-0.532,0.46-0.948,0.728-1.248
			c0.158-0.182,0.316-0.304,0.475-0.368c0.217-0.091,0.416-0.072,0.594,0.055c0.307,0.219,0.514,0.777,0.623,1.678
			C44.821,35.475,44.772,35.548,44.663,35.584z M44.44,37.889c-0.01-0.073-0.029-0.236-0.059-0.491s-0.05-0.45-0.06-0.586
			c-0.089-0.882-0.124-1.614-0.104-2.195v-0.014c-0.089-0.31-0.188-0.505-0.297-0.587c-0.04-0.027-0.089-0.031-0.148-0.014
			c-0.089,0.037-0.188,0.118-0.297,0.246c-0.237,0.281-0.46,0.668-0.668,1.158c-0.208,0.491-0.332,0.919-0.371,1.282
			c-0.119,1.045-0.089,1.913,0.089,2.604c0.079,0.336,0.19,0.615,0.334,0.838c0.143,0.224,0.284,0.357,0.423,0.402
			c0.119,0.037,0.238,0.005,0.356-0.095c0.168-0.146,0.327-0.418,0.475-0.818c0.039-0.118,0.076-0.253,0.111-0.402
			c0.034-0.15,0.062-0.279,0.082-0.389l0.059-0.45c0.02-0.182,0.035-0.322,0.045-0.423C44.411,37.938,44.42,37.915,44.44,37.889z"/>
		<path fill="#999999" d="M46.771,35.312c-0.04-0.046-0.06-0.091-0.06-0.137c0-0.072,0.005-0.15,0.015-0.231
			c-0.03-0.473-0.045-0.9-0.045-1.282c0-0.136,0.074-0.204,0.223-0.204s0.223,0.068,0.223,0.204v0.423
			c0.238-0.309,0.51-0.559,0.816-0.75c0.386-0.227,0.757-0.318,1.113-0.272c0.416,0.063,0.737,0.305,0.965,0.723
			c0.366,0.718,0.559,1.868,0.579,3.449c0,0.273-0.01,0.905-0.03,1.896c-0.02,0.782-0.015,1.327,0.015,1.637
			c0,0.054-0.02,0.104-0.06,0.149c-0.04,0.046-0.089,0.068-0.148,0.068s-0.114-0.019-0.163-0.055
			c-0.05-0.036-0.074-0.082-0.074-0.136c-0.03-0.328-0.035-0.887-0.015-1.678c0.02-0.99,0.03-1.618,0.03-1.882
			c-0.01-1.518-0.193-2.604-0.549-3.259c-0.148-0.3-0.351-0.468-0.608-0.504c-0.248-0.036-0.515,0.036-0.802,0.218
			c-0.248,0.146-0.465,0.337-0.653,0.573c-0.188,0.236-0.307,0.473-0.356,0.709c0.02,0.309,0.054,0.709,0.104,1.199
			c0.138,1.209,0.217,2.05,0.237,2.522c0.01,0.2,0.01,0.441,0,0.723c-0.01,0.291-0.012,0.553-0.007,0.784
			c0.005,0.232,0.037,0.443,0.097,0.634c0.01,0.055,0,0.107-0.03,0.157s-0.074,0.082-0.134,0.096
			c-0.059,0.014-0.116,0.007-0.17-0.021c-0.055-0.027-0.092-0.068-0.111-0.123c-0.05-0.218-0.082-0.457-0.097-0.716
			s-0.015-0.541,0-0.846c0.015-0.304,0.017-0.524,0.007-0.661c-0.02-0.445-0.094-1.281-0.223-2.509
			C46.81,35.757,46.78,35.457,46.771,35.312z"/>
		<path fill="#999999" d="M54.399,34.589c-0.139,0.427-0.406,0.94-0.801,1.54c-0.496,0.773-0.757,1.191-0.787,1.255l1.113,0.995
			l1.336,1.173c0.386,0.336,0.777,0.641,1.172,0.913c0.119,0.082,0.135,0.178,0.045,0.287c-0.089,0.108-0.193,0.122-0.312,0.041
			c-0.396-0.273-0.792-0.575-1.188-0.907s-0.847-0.725-1.351-1.18l-1.069-0.981c0.01,0.245,0.035,0.55,0.074,0.914
			c0.099,0.735,0.148,1.122,0.148,1.158c0.02,0.2,0.035,0.419,0.044,0.655c0.01,0.154,0.01,0.254,0,0.3l-0.03,0.081
			c-0.029,0.037-0.064,0.064-0.104,0.082c-0.069,0.027-0.139,0.023-0.208-0.014c-0.04-0.018-0.069-0.05-0.089-0.095
			c-0.01-0.01-0.015-0.023-0.015-0.041l-0.044-0.164c-0.01-0.063,0.005-0.118,0.044-0.163c-0.01-0.228-0.025-0.432-0.044-0.614
			c0-0.027-0.044-0.409-0.134-1.146c-0.059-0.499-0.094-0.891-0.104-1.172c-0.03-1.173-0.045-3.414-0.045-6.723
			c0-0.136,0.074-0.204,0.223-0.204s0.223,0.068,0.223,0.204c0,3.091,0.01,5.159,0.03,6.204l0.386-0.6l0.312-0.464
			c0.365-0.582,0.617-1.063,0.756-1.445c0.021-0.055,0.058-0.096,0.111-0.123c0.055-0.027,0.109-0.031,0.164-0.014
			c0.055,0.019,0.096,0.053,0.126,0.103S54.419,34.543,54.399,34.589z"/>
		<path fill="#999999" d="M57.962,31.385c0.148,0,0.223,0.067,0.223,0.204s-0.074,0.204-0.223,0.204s-0.223-0.067-0.223-0.204
			S57.814,31.385,57.962,31.385z M58.407,33.279c-0.039,0.273-0.062,0.56-0.066,0.859s-0.002,0.661,0.008,1.084
			s0.015,0.721,0.015,0.893c0,0.5-0.003,1.255-0.008,2.264s-0.007,1.769-0.007,2.277c0,0.137-0.074,0.204-0.223,0.204
			s-0.223-0.067-0.223-0.204c0-0.509,0.002-1.269,0.007-2.277s0.008-1.764,0.008-2.264c0-0.154-0.005-0.447-0.015-0.879
			s-0.013-0.802-0.008-1.111c0.005-0.309,0.027-0.609,0.066-0.9c0.01-0.054,0.04-0.1,0.09-0.136c0.049-0.036,0.104-0.05,0.163-0.041
			s0.108,0.036,0.148,0.082C58.402,33.175,58.417,33.225,58.407,33.279z"/>
		<path fill="#999999" d="M59.966,35.312c-0.039-0.046-0.059-0.091-0.059-0.137c0-0.072,0.004-0.15,0.015-0.231
			c-0.03-0.473-0.045-0.9-0.045-1.282c0-0.136,0.074-0.204,0.223-0.204s0.223,0.068,0.223,0.204v0.423
			c0.237-0.309,0.51-0.559,0.816-0.75c0.386-0.227,0.757-0.318,1.113-0.272c0.416,0.063,0.737,0.305,0.965,0.723
			c0.366,0.718,0.56,1.868,0.579,3.449c0,0.273-0.01,0.905-0.029,1.896c-0.021,0.782-0.016,1.327,0.015,1.637
			c0,0.054-0.021,0.104-0.06,0.149c-0.039,0.046-0.089,0.068-0.148,0.068s-0.113-0.019-0.163-0.055s-0.074-0.082-0.074-0.136
			c-0.03-0.328-0.035-0.887-0.015-1.678c0.02-0.99,0.029-1.618,0.029-1.882c-0.01-1.518-0.193-2.604-0.549-3.259
			c-0.148-0.3-0.352-0.468-0.609-0.504c-0.247-0.036-0.514,0.036-0.801,0.218c-0.248,0.146-0.466,0.337-0.653,0.573
			c-0.188,0.236-0.308,0.473-0.356,0.709c0.02,0.309,0.055,0.709,0.104,1.199c0.139,1.209,0.218,2.05,0.238,2.522
			c0.01,0.2,0.01,0.441,0,0.723c-0.01,0.291-0.013,0.553-0.008,0.784c0.005,0.232,0.037,0.443,0.097,0.634
			c0.01,0.055,0,0.107-0.03,0.157c-0.029,0.05-0.074,0.082-0.133,0.096c-0.06,0.014-0.117,0.007-0.171-0.021
			c-0.055-0.027-0.092-0.068-0.111-0.123c-0.05-0.218-0.082-0.457-0.097-0.716s-0.015-0.541,0-0.846
			c0.015-0.304,0.018-0.524,0.008-0.661c-0.021-0.445-0.095-1.281-0.223-2.509C60.006,35.757,59.976,35.457,59.966,35.312z"/>
		<path fill="#999999" d="M68.382,34.644c-0.118,0.391-0.123,1.286-0.015,2.686c0.021,0.455,0.108,1.437,0.268,2.945
			c0,0.127,0.024,0.31,0.074,0.545c0.06,0.318,0.099,0.514,0.118,0.587c0.069,0.5,0.064,0.913-0.015,1.24
			c-0.099,0.354-0.282,0.623-0.549,0.805c-0.268,0.182-0.569,0.272-0.905,0.272c-0.317-0.009-0.624-0.102-0.921-0.279
			c-0.297-0.177-0.52-0.42-0.668-0.729c-0.06-0.146-0.089-0.327-0.089-0.545c0-0.055,0.005-0.139,0.015-0.253
			c0.01-0.113,0.015-0.188,0.015-0.225c0-0.137,0.069-0.204,0.208-0.204s0.208,0.067,0.208,0.204c0,0.055-0.005,0.137-0.015,0.245
			c-0.011,0.109-0.015,0.187-0.015,0.232c0,0.172,0.024,0.3,0.074,0.382c0.108,0.245,0.274,0.434,0.497,0.565s0.455,0.2,0.697,0.205
			c0.243,0.004,0.458-0.058,0.646-0.185s0.316-0.327,0.387-0.6c0.068-0.272,0.068-0.632,0-1.077c0-0.064-0.035-0.26-0.104-0.587
			l-0.074-0.463c-0.128,0.163-0.297,0.291-0.505,0.382c-0.178,0.091-0.386,0.132-0.623,0.122c-0.237-0.009-0.436-0.082-0.594-0.218
			c-0.277-0.264-0.497-0.603-0.66-1.016c-0.164-0.414-0.26-0.816-0.29-1.207c-0.099-1.736,0.104-3.168,0.608-4.295
			c0.148-0.318,0.344-0.553,0.587-0.702c0.242-0.15,0.492-0.188,0.749-0.116c0.218,0.063,0.398,0.191,0.542,0.382
			s0.235,0.428,0.274,0.709C68.367,34.507,68.392,34.57,68.382,34.644z M67.922,34.603c0-0.282-0.054-0.507-0.163-0.676
			c-0.109-0.168-0.242-0.27-0.4-0.307c-0.139-0.036-0.29-0.009-0.453,0.082s-0.305,0.269-0.423,0.532
			c-0.505,1.072-0.708,2.477-0.608,4.213c0.02,0.363,0.108,0.731,0.267,1.104s0.366,0.673,0.624,0.9
			c0.178,0.163,0.436,0.172,0.771,0.026c0.148-0.063,0.27-0.147,0.363-0.252s0.142-0.202,0.142-0.293s0.05-0.154,0.148-0.191
			c-0.109-0.981-0.184-1.786-0.223-2.413c-0.099-1.264-0.109-2.146-0.03-2.646C67.927,34.656,67.922,34.63,67.922,34.603z"/>
	</g>
</g>
</svg>
