<?xml version="1.0" encoding="utf-8"?>
<!-- Generator: Adobe Illustrator 19.2.1, SVG Export Plug-In . SVG Version: 6.00 Build 0)  -->
<svg version="1.1" id="Capa_1" xmlns="http://www.w3.org/2000/svg" xmlns:xlink="http://www.w3.org/1999/xlink" x="0px" y="0px"
	 viewBox="0 0 222 55" style="enable-background:new 0 0 222 55;" xml:space="preserve">
<style type="text/css">
	.st0{fill:#F2F2F2;}
	.st1{fill:#010202;stroke:#F2F2F2;}
</style>
<g>
	<title>Layer 1</title>
</g>
<text transform="matrix(1 0 0 1 171.5482 65.2557)" style="fill:#010202; font-family:'VagLight-Regular'; font-size:6.2408px;">Arial Rounded MT Bold F2F2F2</text>
<g>
	<path class="st0" d="M34.5,14.8h-8.6v28.3c0,1.6-0.4,2.8-1.1,3.6c-0.7,0.8-1.7,1.2-2.8,1.2c-1.2,0-2.1-0.4-2.9-1.2
		c-0.7-0.8-1.1-2-1.1-3.6V14.8H9.4c-1.3,0-2.3-0.3-3-0.9c-0.7-0.6-1-1.4-1-2.4c0-1,0.3-1.8,1-2.4c0.7-0.6,1.7-0.9,3-0.9h25.1
		c1.4,0,2.4,0.3,3,0.9c0.7,0.6,1,1.4,1,2.4c0,1-0.3,1.8-1,2.4S35.8,14.8,34.5,14.8z"/>
	<path class="st0" d="M43.5,43.1V12.4c0-1.6,0.4-2.8,1.1-3.6c0.7-0.8,1.7-1.2,2.8-1.2c1.2,0,2.1,0.4,2.9,1.2c0.7,0.8,1.1,2,1.1,3.6
		v30.7c0,1.6-0.4,2.8-1.1,3.6c-0.7,0.8-1.7,1.2-2.9,1.2c-1.1,0-2.1-0.4-2.8-1.2S43.5,44.7,43.5,43.1z"/>
	<path class="st0" d="M85.9,14.4H68.1V24h16.4c1.2,0,2.1,0.3,2.7,0.8c0.6,0.5,0.9,1.3,0.9,2.1s-0.3,1.6-0.9,2.2s-1.5,0.8-2.7,0.8
		H68.1V41h18.4c1.2,0,2.2,0.3,2.8,0.9c0.6,0.6,0.9,1.3,0.9,2.3c0,0.9-0.3,1.7-0.9,2.2c-0.6,0.6-1.6,0.9-2.8,0.9H65.1
		c-1.7,0-3-0.4-3.7-1.1s-1.1-2-1.1-3.7V13.1c0-1.1,0.2-2.1,0.5-2.8c0.3-0.7,0.9-1.2,1.6-1.6C63,8.5,64,8.3,65.1,8.3h20.8
		c1.3,0,2.2,0.3,2.8,0.8c0.6,0.6,0.9,1.3,0.9,2.2c0,0.9-0.3,1.7-0.9,2.2C88.1,14.1,87.2,14.4,85.9,14.4z"/>
	<path class="st0" d="M109.7,41.4l-6.2-24.8v26.9c0,1.5-0.3,2.6-1,3.3c-0.7,0.7-1.5,1.1-2.6,1.1c-1.1,0-1.9-0.4-2.6-1.1
		c-0.7-0.7-1-1.9-1-3.4V12.6c0-1.7,0.4-2.8,1.3-3.4c0.9-0.6,2.1-0.9,3.6-0.9h2.4c1.5,0,2.5,0.1,3.2,0.4s1.2,0.7,1.5,1.4
		c0.3,0.7,0.7,1.8,1.1,3.4l5.7,21.3l5.7-21.3c0.4-1.6,0.8-2.7,1.1-3.4c0.3-0.7,0.8-1.2,1.5-1.4s1.7-0.4,3.2-0.4h2.4
		c1.5,0,2.7,0.3,3.6,0.9c0.9,0.6,1.3,1.7,1.3,3.4v30.8c0,1.5-0.3,2.6-1,3.3c-0.7,0.7-1.6,1.1-2.7,1.1c-1,0-1.9-0.4-2.6-1.1
		s-1-1.9-1-3.3V16.6l-6.2,24.8c-0.4,1.6-0.7,2.8-1,3.5c-0.3,0.8-0.7,1.4-1.4,2.1c-0.7,0.6-1.6,0.9-2.9,0.9c-0.9,0-1.7-0.2-2.3-0.6
		s-1.1-0.9-1.5-1.5c-0.4-0.6-0.6-1.3-0.8-2.1C110.1,43,109.9,42.2,109.7,41.4z"/>
	<path class="st0" d="M157,32.1h-7.2v11c0,1.6-0.4,2.8-1.1,3.6c-0.7,0.8-1.7,1.2-2.8,1.2c-1.2,0-2.1-0.4-2.9-1.2s-1.1-2-1.1-3.5v-30
		c0-1.7,0.4-3,1.2-3.7c0.8-0.7,2.1-1.1,3.8-1.1H157c3,0,5.3,0.2,6.9,0.7c1.6,0.4,3,1.2,4.1,2.2c1.2,1,2,2.3,2.6,3.8
		c0.6,1.5,0.9,3.2,0.9,5c0,4-1.2,7-3.7,9C165.5,31.1,161.9,32.1,157,32.1z M155.1,14.2h-5.3v11.9h5.3c1.9,0,3.4-0.2,4.7-0.6
		c1.3-0.4,2.2-1,2.9-1.9c0.7-0.9,1-2,1-3.5c0-1.7-0.5-3.1-1.5-4.2C161,14.8,158.6,14.2,155.1,14.2z"/>
	<path class="st0" d="M195.4,7.6c4,0,7.5,0.8,10.4,2.5c2.9,1.6,5.1,4,6.6,7c1.5,3,2.2,6.6,2.2,10.6c0,3-0.4,5.8-1.2,8.2
		c-0.8,2.5-2,4.6-3.7,6.4s-3.6,3.2-6,4.1c-2.4,1-5.1,1.4-8.2,1.4c-3,0-5.8-0.5-8.2-1.5c-2.4-1-4.4-2.4-6-4.2
		c-1.6-1.8-2.8-3.9-3.7-6.5c-0.8-2.5-1.2-5.2-1.2-8.2c0-3,0.4-5.7,1.3-8.2c0.9-2.5,2.1-4.6,3.7-6.4s3.6-3.1,6-4
		C189.7,8.1,192.4,7.6,195.4,7.6z M206.6,27.7c0-2.9-0.5-5.3-1.4-7.4c-0.9-2.1-2.2-3.7-3.9-4.7c-1.7-1.1-3.7-1.6-5.9-1.6
		c-1.6,0-3,0.3-4.4,0.9c-1.3,0.6-2.5,1.5-3.5,2.6c-1,1.1-1.7,2.6-2.3,4.3c-0.6,1.8-0.8,3.7-0.8,5.9c0,2.2,0.3,4.2,0.8,6
		c0.6,1.8,1.3,3.3,2.4,4.5c1,1.2,2.2,2.1,3.5,2.6c1.3,0.6,2.8,0.9,4.3,0.9c2,0,3.9-0.5,5.6-1.5s3-2.6,4-4.7
		C206.1,33.4,206.6,30.8,206.6,27.7z"/>
</g>
<g>
	<path class="st1" d="M36.8,14.8h-8.6v28.3c0,1.6-0.4,2.8-1.1,3.6c-0.7,0.8-1.7,1.2-2.8,1.2c-1.2,0-2.1-0.4-2.9-1.2
		c-0.7-0.8-1.1-2-1.1-3.6V14.8h-8.6c-1.3,0-2.3-0.3-3-0.9c-0.7-0.6-1-1.4-1-2.4c0-1,0.3-1.8,1-2.4c0.7-0.6,1.7-0.9,3-0.9h25.1
		c1.4,0,2.4,0.3,3,0.9c0.7,0.6,1,1.4,1,2.4c0,1-0.3,1.8-1,2.4S38.1,14.8,36.8,14.8z"/>
	<path class="st1" d="M45.8,43.1V12.4c0-1.6,0.4-2.8,1.1-3.6c0.7-0.8,1.7-1.2,2.8-1.2c1.2,0,2.1,0.4,2.9,1.2c0.7,0.8,1.1,2,1.1,3.6
		v30.7c0,1.6-0.4,2.8-1.1,3.6c-0.7,0.8-1.7,1.2-2.9,1.2c-1.1,0-2.1-0.4-2.8-1.2S45.8,44.7,45.8,43.1z"/>
	<path class="st1" d="M88.2,14.4H70.4V24h16.4c1.2,0,2.1,0.3,2.7,0.8c0.6,0.5,0.9,1.3,0.9,2.1s-0.3,1.6-0.9,2.2s-1.5,0.8-2.7,0.8
		H70.4V41h18.4c1.2,0,2.2,0.3,2.8,0.9c0.6,0.6,0.9,1.3,0.9,2.3c0,0.9-0.3,1.7-0.9,2.2c-0.6,0.6-1.6,0.9-2.8,0.9H67.4
		c-1.7,0-3-0.4-3.7-1.1s-1.1-2-1.1-3.7V13.1c0-1.1,0.2-2.1,0.5-2.8c0.3-0.7,0.9-1.2,1.6-1.6c0.7-0.3,1.6-0.5,2.8-0.5h20.8
		c1.3,0,2.2,0.3,2.8,0.8c0.6,0.6,0.9,1.3,0.9,2.2c0,0.9-0.3,1.7-0.9,2.2C90.4,14.1,89.5,14.4,88.2,14.4z"/>
	<path class="st1" d="M112,41.4l-6.2-24.8v26.9c0,1.5-0.3,2.6-1,3.3c-0.7,0.7-1.5,1.1-2.6,1.1c-1.1,0-1.9-0.4-2.6-1.1
		c-0.7-0.7-1-1.9-1-3.4V12.6c0-1.7,0.4-2.8,1.3-3.4c0.9-0.6,2.1-0.9,3.6-0.9h2.4c1.5,0,2.5,0.1,3.2,0.4s1.2,0.7,1.5,1.4
		c0.3,0.7,0.7,1.8,1.1,3.4l5.7,21.3l5.7-21.3c0.4-1.6,0.8-2.7,1.1-3.4c0.3-0.7,0.8-1.2,1.5-1.4s1.7-0.4,3.2-0.4h2.4
		c1.5,0,2.7,0.3,3.6,0.9c0.9,0.6,1.3,1.7,1.3,3.4v30.8c0,1.5-0.3,2.6-1,3.3c-0.7,0.7-1.6,1.1-2.7,1.1c-1,0-1.9-0.4-2.6-1.1
		s-1-1.9-1-3.3V16.6l-6.2,24.8c-0.4,1.6-0.7,2.8-1,3.5c-0.3,0.8-0.7,1.4-1.4,2.1c-0.7,0.6-1.6,0.9-2.9,0.9c-0.9,0-1.7-0.2-2.3-0.6
		s-1.1-0.9-1.5-1.5c-0.4-0.6-0.6-1.3-0.8-2.1C112.4,43,112.2,42.2,112,41.4z"/>
	<path class="st1" d="M159.3,32.1h-7.2v11c0,1.6-0.4,2.8-1.1,3.6c-0.7,0.8-1.7,1.2-2.8,1.2c-1.2,0-2.1-0.4-2.9-1.2s-1.1-2-1.1-3.5
		v-30c0-1.7,0.4-3,1.2-3.7c0.8-0.7,2.1-1.1,3.8-1.1h10.1c3,0,5.3,0.2,6.9,0.7c1.6,0.4,3,1.2,4.1,2.2c1.2,1,2,2.3,2.6,3.8
		c0.6,1.5,0.9,3.2,0.9,5c0,4-1.2,7-3.7,9C167.8,31.1,164.2,32.1,159.3,32.1z M157.4,14.2h-5.3v11.9h5.3c1.9,0,3.4-0.2,4.7-0.6
		c1.3-0.4,2.2-1,2.9-1.9c0.7-0.9,1-2,1-3.5c0-1.7-0.5-3.1-1.5-4.2C163.3,14.8,160.9,14.2,157.4,14.2z"/>
	<path class="st1" d="M197.7,7.6c4,0,7.5,0.8,10.4,2.5c2.9,1.6,5.1,4,6.6,7c1.5,3,2.2,6.6,2.2,10.6c0,3-0.4,5.8-1.2,8.2
		c-0.8,2.5-2,4.6-3.7,6.4s-3.6,3.2-6,4.1c-2.4,1-5.1,1.4-8.2,1.4c-3,0-5.8-0.5-8.2-1.5c-2.4-1-4.4-2.4-6-4.2
		c-1.6-1.8-2.8-3.9-3.7-6.5c-0.8-2.5-1.2-5.2-1.2-8.2c0-3,0.4-5.7,1.3-8.2c0.9-2.5,2.1-4.6,3.7-6.4s3.6-3.1,6-4
		C192,8.1,194.7,7.6,197.7,7.6z M208.9,27.7c0-2.9-0.5-5.3-1.4-7.4c-0.9-2.1-2.2-3.7-3.9-4.7c-1.7-1.1-3.7-1.6-5.9-1.6
		c-1.6,0-3,0.3-4.4,0.9c-1.3,0.6-2.5,1.5-3.5,2.6c-1,1.1-1.7,2.6-2.3,4.3c-0.6,1.8-0.8,3.7-0.8,5.9c0,2.2,0.3,4.2,0.8,6
		c0.6,1.8,1.3,3.3,2.4,4.5c1,1.2,2.2,2.1,3.5,2.6c1.3,0.6,2.8,0.9,4.3,0.9c2,0,3.9-0.5,5.6-1.5s3-2.6,4-4.7
		C208.4,33.4,208.9,30.8,208.9,27.7z"/>
</g>
</svg>
