<?xml version="1.0" encoding="utf-8"?>
<!-- Generator: Adobe Illustrator 19.2.1, SVG Export Plug-In . SVG Version: 6.00 Build 0)  -->
<svg version="1.1" id="Layer_1" xmlns="http://www.w3.org/2000/svg" xmlns:xlink="http://www.w3.org/1999/xlink" x="0px" y="0px"
	 viewBox="0 0 303 55" style="enable-background:new 0 0 303 55;" xml:space="preserve">
<style type="text/css">
	.st0{fill:#F2F2F2;}
	.st1{font-family:'ArialRoundedMTBold';}
	.st2{font-size:50px;}
</style>
<g>
	<path class="st0" d="M27.2-102.6c-1,0.5-1.8,1-2.5,1.8c-0.7,0.7-1.6,1.2-2.7,1.5c-0.2,0.4-0.4,0.7-0.6,0.8
		c-1.5-0.5-2.6-1.2-3.5-2.4c-0.6,0.1-1.1,0.1-1.3,0c-0.3-0.1-0.5-0.3-0.8-0.7c-0.2,2.9-0.2,5.9-0.2,9c0.1,3.1,0.3,6.1,0.6,9
		c0.1,0.2,0,0.3-0.1,0.4c-0.1,0.1-0.2,0.2-0.1,0.4c0.6-0.2,1.4-0.4,2.4-0.5c1-0.1,1.8-0.4,2.5-0.8c0.5,0.2,0.7,0.2,0.8,0.3
		c0.1,0,0.4-0.1,0.8-0.3c1.4,0.2,2.7,0.4,4.1,0.5c1.4,0.2,2.6,0.5,3.8,0.9c-0.1,0.7-0.3,1.3-0.6,1.9c-0.4,0.5-0.7,1.1-1,1.8
		c-0.1,0.4-0.2,0.8-0.3,1.2c-0.1,0.4-0.2,0.8-0.3,1.2c-0.1,0.3-0.2,0.5-0.4,0.6c-0.1,0.2-0.2,0.4-0.3,0.6c-0.1,0.3-0.1,0.5-0.1,0.8
		c0.1,0.3,0,0.5-0.1,0.8c-0.1,0.3-0.2,0.5-0.3,0.8c-0.2,0.3-0.3,0.5-0.4,0.8c-0.1,0.3-0.2,0.5-0.3,0.9c-0.1,0.3-0.1,0.6-0.3,0.9
		c-0.1,0.1-0.2,0.2-0.3,0.3c-0.1,0.1-0.3,0.2-0.4,0.3c-0.2,0.3-0.3,0.6-0.4,0.9c-0.1,0.4-0.4,0.6-0.8,0.7c-0.1,0.2-0.1,0.3,0,0.4
		c0.1,0.1,0.1,0.3,0,0.6c-0.5,0.2-0.9,0.4-1.2,0.7c-0.4,0.3-0.8,0.6-1.2,0.9c-0.2,0.1-0.5,0.2-0.7,0.3c-0.2,0.1-0.5,0.3-0.7,0.4
		c-0.5,0.3-0.9,0.5-1.5,0.6c-0.5,0.2-1.2,0.2-2.1,0.2c-0.2,0-0.4,0-0.5-0.1c-0.2-0.1-0.4-0.1-0.6-0.2c-0.8-0.1-1.6-0.1-2.5,0
		c-0.9,0.1-1.8,0-2.7-0.2c-0.3-0.1-0.6-0.2-0.9-0.4c-0.3-0.2-0.6-0.3-0.9-0.5c-0.4-0.2-0.8-0.3-1.1-0.4c-0.3-0.1-0.6-0.2-0.8-0.4
		c-0.6-0.4-1-0.8-1.3-1.2c-0.3-0.4-0.8-0.7-1.5-0.9c-0.3-0.5-0.6-0.9-1.1-1.3c-0.5-0.4-0.8-0.8-1.1-1.4C1.2-71.5,1-72.3,1-73.3
		c-0.1-1-0.1-2-0.3-3.1c0-0.6-0.1-1.1-0.2-1.6c-0.1-0.5-0.2-1-0.3-1.5c-0.1-0.7-0.1-1.2,0-1.7c0-0.5,0-1.1,0-1.9c0-1.5,0-3,0.1-4.6
		c0.1-1.6,0.1-3.2,0.2-4.9c0.1-0.4,0.1-0.8,0-1.2c0-0.4,0-0.8,0.1-1.1c0.1-0.2,0.1-0.4,0.1-0.7c0-0.3,0-0.5,0-0.8
		c0.1-1.4,0.2-3,0.2-4.6c0-1.6,0.2-3.1,0.7-4.4c0-0.2,0-0.3-0.1-0.4c-0.1-0.1-0.1-0.2-0.1-0.3c0.3-0.6,0.5-1.3,0.6-2.2
		c0.1-0.8,0.3-1.6,0.6-2.2c0.1-0.2,0.3-0.3,0.5-0.2c0.2,0.1,0.4,0,0.5-0.2c1.4-1,2.9-1.9,4.5-2.7c1.6-0.8,3-1.8,4.1-2.9h0.9
		c0.7-0.5,1.6-0.8,2.6-1c1-0.2,2-0.2,3,0c1,0.1,1.8,0.4,2.7,0.8c0.8,0.4,1.4,0.9,1.7,1.5c0.1,0.1,0.1,0.2,0,0.2c0,0.1,0,0.1,0,0.2
		c0.1,0.2,0.3,0.4,0.5,0.7c0.3,0.3,0.4,0.6,0.5,0.9c0,0.1,0,0.2,0,0.3c0,0.1,0,0.2,0,0.3c0.5,1.1,1,2.3,1.6,3.5
		c0.6,1.2,1.1,2.3,1.2,3.3c0,0.2,0,0.3-0.1,0.4c-0.1,0.1-0.1,0.3-0.1,0.4c0,0.1,0,0.2,0.1,0.3c0.1,0.1,0.1,0.2,0.1,0.3
		c0.1,0.3,0.1,0.5,0,0.9C27.1-103.2,27.1-102.9,27.2-102.6z M1.8-88.6c0.3-0.1,0.6-0.3,0.8-0.6c0.2-0.3,0.3-0.5,0.5-0.8
		c-0.3,0.1-0.5,0-0.6-0.2c-0.1-0.2-0.3-0.3-0.5-0.4c-0.1,0.4-0.1,0.8,0.1,1.1C2.2-89.1,2.1-88.8,1.8-88.6z M2.2-86.1
		c0.1-0.2,0.1-0.3,0.3-0.4c0.1-0.1,0.2-0.2,0.2-0.4c-0.2,0.1-0.3,0-0.3,0c0-0.1-0.2-0.1-0.4,0C2-86.8,2-86.6,2-86.5
		C1.9-86.3,2-86.2,2.2-86.1z M2.8-84.6H1.9C2-84.4,2-84.1,2-84c-0.1,0.2,0,0.3,0.1,0.5c0.5-0.6,1-1.1,1.6-1.5c0.6-0.5,1.1-1,1.5-1.5
		c0-0.4-0.1-0.5-0.4-0.5c-0.3,0.4-0.7,0.7-1,1.1C3.4-85.5,3.1-85.1,2.8-84.6z M2.2-91.7c0.2-0.3,0.3-0.5,0.5-0.6s0-0.3-0.5-0.5
		c0.1,0.2,0,0.3-0.1,0.6C2-91.9,2-91.8,2.2-91.7z M2.6-81.8c-0.3,0-0.5-0.1-0.5-0.2c0.1,0.1,0.1,0.3,0,0.5c-0.1,0.2,0,0.3,0.1,0.3
		c0.2-0.3,0.6-0.5,1-0.8c0.5-0.3,0.9-0.6,1.3-0.9c0.4-0.3,0.7-0.6,0.9-1c0.2-0.3,0.2-0.7,0-1c-0.5,0.6-0.9,1.1-1.4,1.5
		C3.4-82.9,3-82.4,2.6-81.8z M4.2-80.9c0.2-0.1,0.3-0.2,0.5-0.3c0.1-0.1,0.3-0.2,0.5-0.3c-0.3,0.1-0.5,0.1-0.6,0.3
		C4.4-81.2,4.3-81.1,4.2-80.9L3.9-81L4-80.9c-0.4,0.3-0.8,0.5-1.1,0.7c-0.4,0.2-0.6,0.5-0.8,0.9c0.4-0.2,0.7-0.4,1-0.7
		c0.3-0.3,0.6-0.5,0.9-0.8l0.2,0.1C4.2-80.7,4.2-80.9,4.2-80.9z M3.6-102.2c-0.2-0.1-0.3-0.2-0.4-0.3c-0.1-0.1-0.2-0.2-0.5-0.3
		c-0.1,0.4-0.1,0.7,0,0.9c0.1,0.2,0,0.5-0.2,0.7c0.5-0.3,0.9-0.6,1.4-0.8c0.5-0.2,0.9-0.5,1.3-1c-0.3,0.1-0.5,0.2-0.8,0.3
		C4.1-102.4,3.9-102.3,3.6-102.2z M2.6-75.1c0.2,0,0.4-0.1,0.4-0.2c0.1-0.1,0.1-0.2,0.3-0.3c-0.2-0.2-0.4-0.2-0.7-0.2
		C2.6-75.5,2.6-75.3,2.6-75.1z M2.8-99.4c0.4,0,0.7-0.2,1.1-0.3c0.3-0.2,0.7-0.1,1.1,0.1c-0.1-0.3,0-0.5,0.1-0.8s0.1-0.5-0.1-0.6
		c-0.4,0.3-0.8,0.5-1.2,0.7C3.4-100.1,3.1-99.8,2.8-99.4z M3.1-97.5c0.1-0.2,0.2-0.3,0.3-0.3c0.2-0.1,0.3-0.2,0.3-0.3
		c-0.3-0.1-0.5,0-0.7,0.2C2.9-97.7,2.9-97.6,3.1-97.5z M3.6-70.7c0.1-0.3,0.3-0.5,0.5-0.6c0.2-0.2,0.4-0.4,0.5-0.6
		c-0.3,0.3-0.6,0.3-0.9,0.2c-0.3-0.1-0.5-0.2-0.6-0.2c0.1,0.2,0.2,0.4,0.2,0.7C3.2-71,3.3-70.8,3.6-70.7z M4.9-107.8
		c-0.3,0.3-0.7,0.6-1,0.9c-0.3,0.3-0.5,0.7-0.6,1.1c0.2-0.4,0.5-0.7,0.9-1c0.4-0.3,0.7-0.6,1.1-0.8c0.4-0.3,0.7-0.6,1-0.9
		c0.3-0.3,0.5-0.7,0.5-1.1c-0.3,0.3-0.6,0.6-0.9,0.9C5.6-108.4,5.3-108.1,4.9-107.8z M3.3-95.6c0.3-0.1,0.7-0.2,1.1-0.5
		c0.4-0.3,0.4-0.5,0.1-0.8c-0.1,0.3-0.3,0.4-0.6,0.6C3.6-96.2,3.4-95.9,3.3-95.6z M3.6-90.3c0.1-0.2,0.5-0.4,1.1-0.5v-1.1
		c-0.3,0.1-0.6,0.3-0.9,0.6S3.4-90.7,3.6-90.3z M3.5-93.2c0.3-0.1,0.5-0.1,0.6-0.3c0.1-0.1,0.3-0.2,0.5-0.3c-0.1-0.1-0.1-0.2,0-0.4
		c0.1-0.2,0-0.2-0.2-0.2c-0.1,0.3-0.3,0.4-0.6,0.5C3.6-93.8,3.5-93.6,3.5-93.2z M3.6-108.8c0.3,0.1,0.5,0,0.7-0.2
		c0.2-0.2,0.3-0.4,0.5-0.6c0.2-0.2,0.5-0.3,0.8-0.5c0.3-0.2,0.4-0.3,0.3-0.5c-0.3,0.4-0.7,0.6-1.2,0.9
		C4.2-109.5,3.9-109.2,3.6-108.8z M3.6-88c0.3-0.1,0.6-0.3,1-0.6c0.4-0.3,0.4-0.5,0-0.8C4.5-89,4.3-88.8,4-88.7
		C3.7-88.6,3.6-88.4,3.6-88z M3.6-73.8c0.6-0.4,1.2-0.7,1.8-1.1c0.6-0.4,1.2-0.8,1.8-1.1C7-76,7-76.1,7.1-76.2
		c0.1-0.2,0.1-0.3,0-0.4c-0.8,0.4-1.4,0.8-1.9,1.3S4.1-74.4,3.6-73.8z M4.9-69.3c-0.1-0.2,0-0.2,0.1-0.3c0.1,0,0.2-0.1,0.2-0.2
		c-0.1,0-0.2,0-0.3,0c-0.1,0-0.2,0-0.2-0.2c0,0-0.1-0.1-0.2-0.1c-0.2,0.1-0.3,0.2-0.2,0.4C4.5-69.5,4.7-69.4,4.9-69.3z M4.4-77.1
		c0.4,0,0.8-0.2,1.3-0.5c0.4-0.3,0.8-0.6,1.1-0.9c-0.1,0-0.2,0-0.2-0.1c0,0,0-0.1-0.1-0.2c-0.3,0.4-0.6,0.6-1.1,0.8
		C5.1-77.7,4.7-77.4,4.4-77.1z M4.5-79.1c0.3-0.3,0.6-0.5,1-0.6c0.4-0.1,0.6-0.4,0.7-0.8c-0.3,0.1-0.7,0.3-1,0.6
		C4.9-79.5,4.6-79.3,4.5-79.1z M7.1-74.3c-0.4,0.3-0.8,0.5-1.1,0.8c-0.4,0.3-0.7,0.5-1.1,0.8c0.4,0.3,0.9,0.2,1.2-0.2
		c0.4-0.4,0.8-0.6,1.3-0.6c-0.1-0.1,0-0.3,0-0.5C7.4-74.4,7.3-74.4,7.1-74.3z M6-70.5c0.3-0.2,0.7-0.3,1-0.5
		c0.3-0.2,0.6-0.4,0.7-0.7c-0.1,0-0.1-0.1-0.1-0.3c-0.6,0-0.9,0.2-1.1,0.5C6.2-71.2,6.1-70.9,6-70.5z M6.4-68c0.1-0.1,0-0.2-0.1-0.3
		C6.1-68.4,6-68.4,6-68.3c0.1,0,0.2,0,0.2,0.1C6.2-68.1,6.3-68,6.4-68z M22.1-111.4c-0.1-0.4-0.1-0.7,0-1.2c0.1-0.4,0.1-0.8,0-1.3
		c-0.2-1-0.8-1.7-1.7-2.1c-0.9-0.5-2.1-0.6-3.4-0.5c-0.3,0-0.6,0.1-0.8,0.2c-0.3,0.2-0.5,0.3-0.7,0.3c-0.2,0.1-0.3,0.1-0.5,0.1
		c-0.1,0-0.2,0-0.3,0c-0.7,0.4-1.3,0.8-1.8,1.2c-0.5,0.5-1.1,0.8-1.7,1.1c-0.2,0.6-0.6,1.1-1,1.5c-0.5,0.4-0.8,0.9-1,1.5
		c-0.2,1-0.5,2-0.9,2.9c-0.4,0.9-0.7,1.8-1,2.9c0.3,0.3,0.6,0.6,0.8,0.9c-0.1,0.3-0.3,0.5-0.5,0.6c-0.2,0.2-0.4,0.3-0.5,0.5
		c-0.2,2.1-0.4,4.2-0.6,6.4c-0.1,2.2-0.1,4.2,0,6.3c-0.2,0.1-0.1,0.2,0.2,0.2c0.3,0.1,0.4,0.2,0.4,0.4C7.3-89,7.2-88.8,7-88.7
		c-0.2,0.1-0.3,0.2-0.3,0.5c0.2,0.3,0.3,0.5,0.2,0.8c-0.1,0.3-0.1,0.5,0,0.8c0.1,0.5,0.2,0.9,0.3,1.4c0.2,0.5,0.3,0.9,0.4,1.4
		c0.1,0.6,0.2,1.1,0.1,1.6c0,0.5,0,1,0.1,1.6c0.1,0.4,0.2,0.8,0.4,1.3c0.1,0.4,0.3,0.9,0.4,1.3c0.2,0.9,0.4,1.8,0.4,2.8
		c0,0.9,0.1,1.9,0.2,2.8c0,0.3,0.1,0.4,0.3,0.5c0.2,0.1,0.3,0.2,0.3,0.5c-0.2,0.2-0.3,0.4-0.3,0.6c0,0.3,0.1,0.5,0.1,0.8
		c0.6,0.4,1.3,0.9,2.1,1.5c0.8,0.6,1.7,1,2.6,1.2c1.5,0.4,2.9,0.4,4.3,0c1.4-0.4,2.7-0.7,4-0.9c0.7-0.9,1.3-1.7,1.9-2.7
		c0.6-0.9,1-2,1.3-3.1c0.1-0.2,0.1-0.3,0-0.5c0-0.2,0-0.4,0-0.5c0.3-1.1,0.7-2.2,1.2-3.3c0.5-1.1,1-2.2,1.3-3.3
		c-0.7,0-1.5-0.1-2.3-0.2c-0.8-0.1-1.6-0.2-2.5-0.3c-0.5,0.7-0.9,1.5-1.2,2.4c-0.3,0.9-0.6,1.8-0.9,2.6c-0.5,0.3-0.9,0.6-1.2,1.1
		c-0.3,0.5-0.8,0.7-1.4,0.8c-0.5,0.1-0.8,0-1.2-0.1c-0.3-0.1-0.7-0.1-1.2,0c-0.2-0.4-0.6-0.8-1.1-1.2c-0.5-0.4-0.8-0.8-0.8-1.2
		c-0.1-0.9-0.1-1.8-0.1-2.9c0-1,0-2.1,0-3.2c0.1-1.4,0-2.8-0.3-4.2c-0.2-1.4-0.3-2.9-0.3-4.4c-0.1-0.9,0-1.7,0.1-2.5
		c0.1-0.8,0.2-1.6,0.2-2.5c0.1-1,0.1-1.9,0-2.9c-0.1-1,0-2,0-2.9c0.1-0.9,0.3-1.8,0.5-2.7c0.3-0.8,0.8-1.6,1.4-2.2
		c0.9-0.2,1.6-0.1,2.2,0.2c0.5,0.3,1,0.6,1.3,1.1c0.3,0.5,0.6,1,0.8,1.6c0.2,0.6,0.4,1.2,0.6,1.7c0.3,0.1,0.5,0,0.6-0.2
		c0.1-0.2,0.3-0.3,0.6-0.2c0.2,0.2,0.4,0.3,0.7,0.3c0.3,0,0.6,0,0.8-0.1c0.3-0.1,0.6-0.2,0.9-0.2c0.3-0.1,0.6,0,0.9,0.1
		c0.1-1.4-0.1-2.6-0.5-3.5c-0.5-0.9-0.9-1.8-1.1-2.9C22.9-110.5,22.3-110.8,22.1-111.4z M7.4-111.7c-0.1,0.2-0.1,0.2-0.1,0.3
		c0.1,0,0.1,0,0.2,0c0.1,0,0.1-0.1,0.1-0.1C7.6-111.6,7.6-111.6,7.4-111.7z M7.3-67.2c0.1,0.3,0.3,0.3,0.5,0.1
		C8-67.3,8.1-67.5,8-67.6c-0.1,0.2-0.2,0.2-0.3,0.2S7.4-67.3,7.3-67.2z M11.8-66.7c0.2,0,0.3,0,0.4-0.1c0.1-0.1,0.3-0.1,0.4-0.1
		c-0.1-0.3-0.2-0.4-0.5-0.3C11.8-67.2,11.7-67,11.8-66.7z M11.9-65.3c0.3,0,0.5,0,0.7,0c0.2,0,0.4-0.1,0.5-0.2
		c-0.1-0.1-0.2-0.2-0.1-0.3S12.9-66,12.6-66c-0.1,0.2-0.2,0.2-0.4,0.3C12-65.7,11.9-65.5,11.9-65.3z M14.9-65.3c0.2,0,0.4-0.1,0.5,0
		c0.1,0,0.3,0.1,0.5,0.1c-0.1-0.1-0.1-0.2-0.1-0.4c0-0.2-0.1-0.2-0.3-0.2c-0.1,0.1-0.2,0.1-0.4,0.1C14.9-65.7,14.9-65.5,14.9-65.3z
		 M16.1-78.8c-0.1,0.2,0,0.3,0.1,0.6c0.1,0.2,0.2,0.5,0.3,0.7c0.3-0.1,0.5-0.2,0.6-0.3c0.1-0.1,0.3-0.2,0.5-0.3
		c-0.3,0-0.5-0.1-0.6-0.3c-0.1-0.2-0.2-0.4-0.3-0.6c-0.1,0.1-0.2,0.1-0.3,0.1C16.2-78.9,16.2-78.9,16.1-78.8z M16.7-106.2
		c0-0.1,0.1-0.2,0.3-0.2c0.2-0.1,0.1-0.1-0.1-0.2c0,0.1-0.1,0.2-0.2,0.3C16.5-106.3,16.5-106.3,16.7-106.2z M17.6-105.2
		c-0.5,0.4-0.5,0.5,0,0.3c0.1,0,0.3-0.1,0.6-0.3c0.3-0.1,0.4-0.3,0.3-0.5C18.1-105.5,17.8-105.4,17.6-105.2z M18.1-101.7
		c0.3,0.2,0.5,0.2,0.7-0.1c0.2-0.3,0.2-0.5,0.1-0.6c-0.1,0.2-0.2,0.3-0.4,0.3C18.3-102.1,18.2-102,18.1-101.7z M18.7-78.8
		c-0.1,0-0.2,0-0.3,0.1c-0.2,0.1-0.2,0.1,0,0.2c0.1-0.2,0.3-0.3,0.6-0.3c0.3-0.1,0.5-0.2,0.8-0.3c0.2-0.2,0.4-0.4,0.6-0.6
		c0.2-0.3,0.2-0.4,0-0.5L18.7-78.8z M18.4-65.4c0.3-0.2,0.7-0.4,1.1-0.5c0.4-0.2,0.7-0.4,1-0.6c-0.3,0.1-0.5,0.1-0.8,0.2
		c-0.3,0.1-0.5,0.1-0.9,0c0,0.2-0.1,0.4-0.3,0.5S18.3-65.5,18.4-65.4z M19.3-103.7c0-0.1,0-0.2-0.1-0.2c-0.1-0.1-0.1-0.1,0-0.2
		c-0.3-0.1-0.5,0-0.5,0.2c0.2-0.1,0.3-0.1,0.4,0.1C19.2-103.6,19.3-103.6,19.3-103.7z M19.7-100.5c0.1,0.3,0.3,0.4,0.5,0.4
		c0.3,0,0.5,0,0.7-0.2c-0.3-0.6-0.4-1.1-0.3-1.5c-0.2,0.2-0.4,0.4-0.6,0.6C20-101,19.8-100.8,19.7-100.5z M23.3-101.7l-0.3,0.2
		C23.1-101.6,23.2-101.7,23.3-101.7C23.3-101.8,23.3-101.8,23.3-101.7z"/>
	<path class="st0" d="M67.1-92.8c0.1,0.8,0.1,1.6-0.1,2.5c-0.2,0.8-0.1,1.5,0.1,2.1c-0.3,1.7-0.5,3.4-0.6,5.1
		c-0.1,1.7-0.4,3.4-0.9,5.2c-0.4,0.6-0.6,1.1-0.6,1.7c0,0.6-0.2,1.1-0.4,1.7c-0.4,1-0.9,2-1.6,2.9c-0.7,0.9-1.3,1.8-1.8,2.7
		c-0.2,0.4-0.4,0.8-0.6,1.3c-0.2,0.4-0.5,0.8-0.8,1.1c-0.1,0.1-0.2,0.3-0.1,0.5c0,0.2,0,0.4-0.1,0.5c-0.9,0.5-1.8,0.8-2.8,1
		c-1,0.2-2,0.3-3.1,0.3c-1,0.1-1.9,0.1-2.9,0.1c-1,0-1.8,0-2.6-0.1c-1.2-0.2-2.3-0.5-3.1-1c-0.8-0.5-1.7-1.1-2.7-1.7
		c-0.6-0.4-1.1-0.8-1.7-1.2c-0.6-0.4-1-0.8-1.3-1.3c-0.3-0.6-0.5-1.3-0.7-2.2c-0.2-0.9-0.4-1.9-0.7-2.8c-0.5-1.2-0.9-2.4-1.4-3.5
		c-0.5-1.1-0.8-2.4-0.9-3.9c-0.1-1.9-0.2-3.7-0.4-5.5c-0.1-1.8,0-3.7,0.4-5.6c0.1-0.5,0.3-0.9,0.4-1.3c0.2-0.4,0.3-0.8,0.4-1.2
		c0.3-1.1,0.5-2.1,0.8-3c0.3-1,0.5-2,0.9-3c0.8-2.2,1.9-4.2,3.3-6c1.4-1.9,2.7-3.7,4-5.4c0.2-0.3,0.4-0.5,0.6-0.7
		c0.3-0.2,0.5-0.4,0.7-0.7c0.6-0.6,1.2-1.1,1.8-1.5c0.6-0.4,1.4-0.8,2.3-1c0.4-0.1,1-0.2,1.7-0.2s1.5,0.1,2.1,0.3
		c0.3,0.1,0.7,0.3,1.1,0.5c0.4,0.2,0.7,0.4,1,0.7c0.5,0,0.8,0.1,0.9,0.2c0.3,0.3,0.6,0.5,0.8,0.7c0.3,0.2,0.6,0.4,0.8,0.7
		c0.6,0.5,1,0.9,1.3,1.3c0.3,0.4,0.6,0.9,1.1,1.5c0.3,0.5,0.5,0.8,0.6,1.1c0.1,0.3,0.3,0.7,0.5,1.3c0.1,0.2,0.2,0.4,0.3,0.5
		c0.1,0.2,0.2,0.3,0.3,0.5c0.3,0.9,0.6,1.9,0.8,3c0.2,1.1,0.4,2.3,0.7,3.5c0.6,1.2,1.1,2.5,1.4,4C66.7-96,67-94.4,67.1-92.8z
		 M36.5-90.5c0.1,0.2,0,0.3-0.1,0.5c-0.1,0.2-0.1,0.3,0.1,0.5c0.5-0.5,1.1-0.9,1.8-1.3c0.7-0.3,1.2-0.8,1.7-1.3
		c-0.6-0.3-1.1-0.2-1.6,0.3c-0.4,0.5-0.8,0.9-1.1,1.3H36.5z M36.5-84.7c0.2-0.1,0.4-0.3,0.4-0.6c0-0.3,0.1-0.5,0.2-0.7
		c-0.1-0.1-0.2-0.1-0.3-0.2c-0.1-0.1-0.2-0.1-0.3-0.1c0.1,0.3,0.1,0.5,0.2,0.8C36.8-85.2,36.7-84.9,36.5-84.7z M36.9-81.3
		c-0.2,0.5-0.1,0.9,0.3,1.2c0.3-0.4,0.8-0.7,1.3-0.9c0.5-0.2,1-0.5,1.5-0.8c0-0.4,0-0.7-0.1-0.8c-0.1-0.1-0.1-0.4-0.1-0.8
		c-0.6,0.1-1.1,0.3-1.6,0.6c-0.4,0.3-0.6,0.7-0.5,1.3c-0.1,0.1-0.2,0.2-0.3,0.2C37.3-81.4,37.2-81.4,36.9-81.3z M36.8-84.5
		c0.1,0.2,0.1,0.4,0,0.7c-0.1,0.3,0,0.5,0.1,0.6c0-0.3,0.1-0.4,0.3-0.5c0.2-0.1,0.3-0.2,0.2-0.4c-0.1,0.1-0.2,0.1-0.3,0
		C37-84.2,36.9-84.4,36.8-84.5z M37.7-77.8c0.2-0.7,0.6-1.2,1.2-1.5c0.6-0.3,1.1-0.6,1.6-1c-0.1,0-0.1-0.1-0.1-0.3
		c-0.6,0.1-1.1,0.3-1.5,0.5c-0.4,0.2-0.7,0.6-0.8,1.1c-0.1,0.1-0.3,0.2-0.4,0.2c-0.2,0-0.3,0.1-0.4,0.2c0.1,0.2,0.2,0.3,0.3,0.3
		C37.7-78.2,37.8-78.1,37.7-77.8L37.7-77.8L37.7-77.8z M40.6-98.7c-0.7,0.3-1.3,0.5-1.9,0.9c-0.6,0.3-0.9,0.9-1,1.7
		c0.5-0.4,1-0.8,1.4-1.2c0.5-0.4,1-0.8,1.6-1.1c-0.1,0-0.1-0.1,0-0.2C40.8-98.6,40.7-98.7,40.6-98.7z M39.2-73.5
		c0.3-0.4,0.7-0.7,1.2-1c0.5-0.2,1-0.5,1.4-0.8c-0.6,0.4-1.2,0.5-1.8,0.4c-0.6-0.2-0.8-0.6-0.7-1.4c0.1-0.4,0.3-0.6,0.7-0.8
		s0.6-0.4,0.9-0.6c-0.2-0.3-0.2-0.4,0-0.6c0.1-0.1,0.2-0.3,0.3-0.5c-0.4-0.1-0.8,0-1.1,0.2c-0.4,0.3-0.6,0.5-0.8,0.8
		c0.2-0.1,0.3-0.1,0.3,0c0,0.1,0.1,0.2,0.1,0.3c-0.1,0.3-0.3,0.5-0.7,0.6c-0.3,0.2-0.6,0.1-0.9-0.1c0.2,0.6,0.4,1.1,0.6,1.7
		S39-74.1,39.2-73.5z M38.5-84.6c1-0.1,1.4-0.5,1.2-1.3c-0.3,0.1-0.6,0.3-0.7,0.5C38.8-85.1,38.7-84.9,38.5-84.6z M41.9-101.8
		c-0.6,0.3-1.2,0.5-1.9,0.8c-0.7,0.3-1,0.7-1.1,1.3c0.9-0.4,1.8-0.7,2.8-0.8c0-0.3,0.1-0.5,0.2-0.7C42-101.4,42-101.6,41.9-101.8z
		 M40.8-69.4c0.3-0.8,0.8-1.3,1.5-1.6c0.7-0.3,1.4-0.6,2-1c0.1-0.5,0.1-1-0.2-1.4c-0.2-0.5-0.5-0.8-0.8-1.1c-0.7,0.4-1.4,0.7-2.3,1
		c-0.8,0.3-1.3,0.9-1.4,1.7c0.5-0.4,1.2-0.8,1.9-1.1c0.8-0.3,1.5-0.6,2-1c0,0.5-0.3,0.8-0.8,1.2c-0.5,0.3-1.1,0.6-1.6,1
		c-0.5,0.3-0.9,0.6-1.1,1C40-70.3,40.1-69.9,40.8-69.4z M40.5-103.8c-0.1,0.1-0.2,0.2-0.3,0.4c-0.1,0.2-0.1,0.3-0.3,0.4
		c0.3-0.1,0.5-0.2,0.8-0.3c0.3-0.1,0.5-0.3,0.6-0.5c-0.2,0.1-0.3,0.1-0.4,0.1C40.9-103.8,40.7-103.8,40.5-103.8z M42.1-77
		c-0.6,0.2-1.2,0.6-1.7,1.2c0.1,0,0.3,0,0.5-0.1c0.3-0.1,0.5-0.1,0.7-0.2c0.2-0.1,0.4-0.2,0.5-0.3C42.3-76.5,42.3-76.7,42.1-77z
		 M65.5-82.1c0.3-2.1,0.5-4.4,0.7-6.8c0.2-2.4,0.1-4.6-0.3-6.8c-0.1-1-0.4-2-0.8-2.9c-0.4-0.9-0.7-1.8-1-2.8
		c-0.2-0.6-0.3-1.1-0.4-1.7c-0.1-0.6-0.2-1.1-0.3-1.6c-0.4-1.6-0.9-3-1.5-4.4c-0.6-1.3-1.2-2.6-1.9-3.7c-0.8-0.6-1.6-1.2-2.3-1.7
		c-0.8-0.5-1.6-1-2.6-1.4c-1.1-0.3-2.3-0.3-3.6-0.1c-1.3,0.2-2.3,0.8-3,1.9c-0.2,0-0.3,0-0.4-0.1c-0.1-0.1-0.2,0-0.3,0.1
		c-0.3,0.4-0.5,0.8-0.7,1.2c-0.2,0.5-0.3,0.9-0.5,1.4c-0.1,0.5-0.3,1-0.5,1.4c-0.2,0.5-0.4,0.9-0.7,1.2c0,0.2,0.1,0.4,0.2,0.6
		c0.1,0.2,0.2,0.4,0.2,0.6c0,0.4-0.1,0.7-0.3,0.9c-0.2,0.2-0.4,0.5-0.6,0.9c-0.1,0.4-0.2,0.8-0.3,1.2c-0.1,0.5-0.1,0.9-0.3,1.3
		c-0.1,0.3-0.3,0.6-0.5,0.8c-0.2,0.2-0.3,0.5-0.4,0.7c-0.1,0.3-0.2,0.6-0.1,0.9c0,0.4,0,0.7-0.1,0.9c-0.2,0.6-0.3,1.2-0.5,1.8
		c-0.1,0.6-0.3,1.3-0.4,2.1c-0.2,0.9-0.3,1.8-0.5,2.9c-0.2,1.1-0.3,2.2-0.5,3.3s-0.3,2.2-0.3,3.2c-0.1,1,0,1.9,0.1,2.7
		c0,0.2,0,0.3,0.1,0.5c0.1,0.2,0.1,0.3,0.1,0.5c0.1,0.7,0.2,1.1,0.3,1.4c0.1,0.3,0.2,0.6,0.4,1c0.1,0.3,0.2,0.6,0.2,0.9
		c0,0.3,0.1,0.6,0.2,0.8c0.5,1,1,2,1.6,2.9c0.6,0.9,1.2,1.9,1.6,2.9c0,0.1,0,0.2-0.1,0.2c-0.1,0.1-0.1,0.2,0,0.3
		c0.5,0.3,0.8,0.7,0.9,1.2c0.1,0.5,0.3,1,0.5,1.4c0.4,0.5,0.9,0.8,1.4,1c0.5,0.2,1.1,0.3,1.8,0.2c0.6,0,1.3-0.1,1.9-0.2
		c0.6-0.1,1.3-0.2,1.9-0.3c1.2-0.2,2.3-0.5,3.3-0.9c1-0.5,1.9-1.1,2.7-1.7c1.2-0.9,2.2-1.8,2.9-2.7c0.7-0.9,1.3-2.2,1.8-3.8
		c0.2-0.6,0.3-1.2,0.5-1.9C65.4-80.9,65.5-81.5,65.5-82.1z M41.7-68.6c0.5-0.5,1-0.9,1.6-1.3c0.6-0.4,1.1-0.8,1.7-1.3v-0.2
		c-0.6,0.2-1.1,0.5-1.5,0.8c-0.4,0.3-0.9,0.6-1.5,0.7c-0.1,0.2-0.2,0.4-0.3,0.6C41.6-69,41.6-68.8,41.7-68.6z M42.9-104.8
		c-0.5,0-0.8,0.3-1,0.8c0.2,0,0.4-0.1,0.5-0.3c0.1-0.2,0.3-0.2,0.5-0.1V-104.8z M43.6-67.3c0.1-0.6,0.4-1.1,0.9-1.3
		c0.5-0.3,0.9-0.6,1.3-1c-0.2,0-0.3-0.2-0.3-0.5c-0.6,0.3-1.2,0.6-1.6,0.9c-0.5,0.4-0.9,0.8-1.3,1.4c0.2,0.1,0.3,0.2,0.5,0.3
		C43.2-67.5,43.4-67.4,43.6-67.3z M45.1-110.5c-0.3,0.1-0.5,0.3-0.6,0.5c-0.1,0.2-0.3,0.4-0.4,0.6c0.2,0,0.4-0.1,0.5-0.2
		c0.1-0.2,0.3-0.2,0.5-0.2V-110.5z M46.7-67.9c-0.2,0-0.5,0.1-0.7,0.2c-0.3,0.2-0.5,0.3-0.6,0.5c-0.1,0.2-0.2,0.4-0.2,0.6
		c0,0.2,0.2,0.3,0.5,0.4c-0.1-0.4,0-0.7,0.3-1C46.3-67.4,46.5-67.6,46.7-67.9z M60.6-95.6c0,1,0,1.9,0.1,2.8c0.1,0.9,0,1.8-0.1,2.6
		c-0.1,0.3-0.2,0.6-0.3,1c-0.1,0.4-0.2,0.7-0.3,1.1c-0.1,0.4-0.2,0.8-0.1,1.2c0,0.4,0,0.7-0.1,1.1c-0.1,0.5-0.3,0.9-0.5,1.3
		c-0.3,0.4-0.4,0.8-0.5,1.3c-0.3,1-0.7,1.9-1.1,2.7c-0.5,0.8-0.9,1.6-1.4,2.4c-0.3,0.3-0.7,0.6-1.2,0.9c-0.5,0.4-1,0.6-1.5,0.9
		c-0.5,0.2-1,0.3-1.5,0.3s-1-0.2-1.4-0.7c-0.5-0.4-0.9-1.1-1.3-2c-0.4-0.9-0.8-1.8-1.3-2.7c-0.6-1.1-1.2-2.3-1.6-3.5
		c-0.5-1.2-0.6-2.7-0.5-4.3c0.1-0.9,0.2-1.8,0.4-2.9c0.2-1,0.5-2,0.7-2.8c0.2-0.9,0.4-1.8,0.6-2.8c0.2-1,0.5-1.9,0.8-2.9
		c0.2-0.8,0.4-1.6,0.6-2.4c0.2-0.8,0.5-1.5,0.8-2.1c0.3-0.6,0.8-1.1,1.3-1.4c0.5-0.3,1.3-0.5,2.2-0.4c0.9,0.1,1.9,0.4,2.9,1.1
		c1,0.7,1.7,1.4,2,2.1c0.1,0.2,0.2,0.4,0.2,0.7s0.1,0.5,0.2,0.8c0.4,0.9,0.7,1.9,1.1,3.1C59.9-97.7,60.2-96.6,60.6-95.6z M46.6-89.5
		c-0.2,2,0.1,3.8,0.9,5.4c0.8,1.6,1.6,3.1,2.5,4.6c1-0.7,1.7-1.7,2.2-2.9c0.5-1.2,1-2.5,1.3-3.8c0.3-0.3,0.5-0.7,0.6-1.2
		c0.1-0.5,0.2-1,0.2-1.6c0.1-1.3,0.2-2.7,0.3-4.2c0.1-1.5,0.1-2.8-0.2-4c0-0.2-0.1-0.2-0.2-0.3c-0.1,0-0.2-0.1-0.3-0.2
		c0.1-0.6-0.2-1.1-0.6-1.6c-0.5-0.5-0.9-0.8-1.4-1.1c-0.1,0.3-0.3,0.5-0.7,0.7c-0.1-0.2-0.2-0.2-0.3-0.2c-0.2-0.1-0.2-0.3,0-0.5
		c0.2-0.2,0.2-0.3-0.1-0.3c-0.2,0.1-0.4,0.2-0.5,0.3c-0.1,0.2-0.2,0.3-0.3,0.5c-0.1,0.2-0.2,0.3-0.3,0.5c-0.1,0.2-0.3,0.3-0.5,0.3
		c-0.1,0-0.2,0-0.3-0.1c-0.1-0.1-0.1-0.2-0.3-0.3c-0.2,1-0.5,1.9-0.7,2.9c-0.3,1-0.5,2-0.8,3c-0.1,0.4-0.2,0.8-0.1,1.2
		c0,0.4,0,0.8,0,1.2c-0.1,0.3-0.1,0.6-0.3,0.9C46.7-90.1,46.6-89.8,46.6-89.5z M47.5-65.3c-0.1-0.7,0.1-1.1,0.5-1.3
		c0.4-0.2,0.8-0.4,1.1-0.8c-0.2,0.1-0.4,0-0.5,0c-0.1-0.1-0.2-0.1-0.5-0.1c-0.3,0.3-0.6,0.5-1,0.7c-0.4,0.2-0.6,0.5-0.6,1
		c0.2,0.1,0.3,0.1,0.5,0.2C47.2-65.4,47.4-65.3,47.5-65.3z M49.6-65.4c-0.1-0.4,0.1-0.7,0.4-0.9c0.3-0.2,0.4-0.4,0.3-0.6
		c-0.3,0.3-0.6,0.5-1.1,0.7s-0.8,0.4-0.9,0.8c0.3,0.1,0.6,0.1,0.7,0C49.1-65.4,49.3-65.4,49.6-65.4z M50.1-104.5
		c-0.1,0.4-0.2,0.8-0.4,1.1c-0.2,0.3-0.2,0.7-0.1,1c0.3-0.3,0.5-0.5,0.6-0.8c0.1-0.3,0.2-0.7,0.3-1.1c-0.2,0.1-0.3,0.1-0.3,0
		C50.2-104.3,50.2-104.4,50.1-104.5z M50.2-79c0.1,0.2,0.2,0.4,0.3,0.7c0.1,0.3,0.3,0.5,0.5,0.7c0.2,0.2,0.3,0.4,0.5,0.5
		c0.2,0.1,0.4,0.1,0.6,0c-0.2,0-0.4-0.1-0.4-0.3c0-0.2,0-0.3,0.1-0.5c-0.3,0-0.5-0.3-0.6-0.6c-0.1-0.4-0.1-0.6,0.2-0.8
		c-0.2,0.1-0.3,0-0.3-0.1c0-0.1-0.1-0.2-0.3-0.1C50.8-79.3,50.6-79.1,50.2-79z M52-65.4c0.2-0.6,0.5-1,1-1.4
		c0.4-0.4,0.9-0.7,1.3-1.1c-1,0-1.7,0.3-2.2,0.8c-0.5,0.5-0.9,1.1-1.3,1.7L52-65.4L52-65.4z M51.8-103.5c-0.1,0.5-0.2,0.8-0.3,1.1
		c-0.2,0.3-0.3,0.6-0.4,0.9c0.2-0.1,0.3,0,0.3,0c0,0.1,0.1,0.1,0.3,0c0.3-0.7,0.6-1.4,1.1-2c0.4-0.6,0.9-1.2,1.3-1.8
		c-0.3-0.2-0.5-0.2-0.7-0.1c-0.2,0.1-0.4,0.2-0.6,0.3C52.7-104.4,52.4-103.8,51.8-103.5z M52.4-79.8c0.7-0.3,1.5-0.5,2.5-0.7
		c0.9-0.2,1.5-0.6,1.7-1.3c-0.5,0.5-1.2,0.8-2,1C53.8-80.7,53-80.3,52.4-79.8z M55.1-104.8c-0.6,0.5-1,1.1-1.4,1.7
		c-0.4,0.6-0.8,1.3-1.2,2c0.2,0.2,0.4,0.3,0.7,0.4c0.3-0.7,0.7-1.3,1.3-1.8c0.6-0.5,1-1.2,1.3-2c-0.1-0.1-0.2-0.1-0.3-0.1
		C55.3-104.6,55.2-104.7,55.1-104.8z M53.6-81.6c-0.2,0.1-0.3,0-0.3-0.2c0-0.2,0-0.3-0.2-0.3c-0.1,0.2-0.2,0.4-0.3,0.5
		c-0.1,0.2-0.2,0.3-0.3,0.5C53.1-81.2,53.4-81.4,53.6-81.6z M52.8-78c0.7-0.2,1.4-0.4,2-0.8c0.7-0.4,1.2-0.9,1.7-1.4
		c-0.6,0.3-1.2,0.5-1.8,0.7c-0.6,0.2-1.2,0.4-1.9,0.7C52.9-78.6,52.9-78.3,52.8-78z M52.9-65.3c0.5,0.1,0.9,0.1,1.3-0.1
		c0.4-0.2,0.7-0.4,0.9-0.8c0.3-0.3,0.5-0.7,0.7-1c0.2-0.4,0.4-0.7,0.5-0.9c0.3,0.1,0.6,0,0.8-0.3c0.2-0.2,0.4-0.5,0.6-0.7
		c-0.9,0.6-2.1,1-3.5,1.4c0.3-0.1,0.5,0.1,0.5,0.5c-0.3,0.3-0.7,0.5-1.1,0.7C53.4-66.2,53.1-65.8,52.9-65.3z M53.9-99.9
		c0.2,0.1,0.4,0,0.5-0.3c0.1-0.3,0.1-0.5,0-0.6c0,0.3-0.1,0.4-0.3,0.4C53.9-100.3,53.8-100.1,53.9-99.9z M57.8-82.7
		c0-0.4,0.1-0.8,0.4-1.1c0.3-0.3,0.3-0.7,0.1-1.1c-0.2,0.3-0.5,0.5-0.8,0.7c-0.3,0.2-0.7,0.4-1,0.5c-0.3,0.2-0.7,0.4-1,0.6
		c-0.3,0.3-0.5,0.6-0.6,0.9c0.3,0,0.6-0.1,0.9-0.2c0.3-0.1,0.5-0.3,0.7-0.4c0.2-0.2,0.5-0.3,0.7-0.3C57.3-83,57.5-82.9,57.8-82.7z
		 M55-101.5c0.2-0.3,0.5-0.5,0.8-0.8c0.3-0.3,0.4-0.5,0.3-0.8c-0.1,0.3-0.3,0.5-0.6,0.8C55.1-102,55-101.7,55-101.5z M55.2-89.2
		c0.1,0.2,0.1,0.3,0,0.4c-0.1,0.1-0.1,0.2,0,0.2c0.1-0.2,0.2-0.2,0.3-0.3c0.1,0,0.2-0.1,0.2-0.3c-0.1,0.1-0.2,0.1-0.3,0.1
		S55.3-89.1,55.2-89.2z M57.3-102.2c0,0.1,0,0.2-0.1,0.2c-0.1,0-0.1,0.1,0,0.3c0.1,0.1,0.1,0.1,0.2,0.1c0.1,0,0.2,0.1,0.3,0.2
		c-0.3,0.7-0.8,1.3-1.3,1.8c-0.5,0.5-0.9,1.1-1.2,1.8c0.6-0.5,1.1-1,1.6-1.6c0.5-0.6,0.9-1.2,1.2-2c-0.2,0-0.3-0.2-0.3-0.3
		C57.6-101.9,57.5-102.1,57.3-102.2z M55.2-84.1c1.1-0.5,2.1-1,3-1.8c0.9-0.7,1.3-1.8,1.3-3.3c0,0.4-0.2,0.5-0.5,0.6
		c-0.3,0-0.5,0.2-0.5,0.4c0,0.2,0.1,0.3,0.2,0.3c0.1,0.1,0.2,0.1,0.3,0.2c-0.2,0.1-0.4,0.3-0.5,0.5c-0.1,0.2-0.3,0.2-0.5,0
		c-0.1,0.4-0.3,0.6-0.6,0.8c-0.3,0.2-0.6,0.4-0.8,0.6c-0.3,0.2-0.5,0.4-0.8,0.6C55.4-84.9,55.3-84.6,55.2-84.1z M59.4-97.2
		c0-0.4-0.1-0.6-0.4-0.8c-0.1,0.3-0.3,0.5-0.5,0.6c-0.2,0.2-0.5,0.4-0.8,0.6c-0.3,0.3-0.7,0.7-1.1,1.2c-0.4,0.5-0.7,0.7-0.9,0.6
		c-0.1,0.5-0.2,1-0.1,1.4c0,0.4,0,0.8-0.2,1.1c0.1,0,0.3-0.1,0.5-0.2c0.2-0.2,0.4-0.3,0.5-0.5c-0.2,0-0.3,0-0.5,0
		c-0.1,0-0.2-0.1-0.2-0.2c0.1-0.6,0.2-1.1,0.5-1.5c0.3-0.4,0.5-0.7,0.9-1c0.3-0.3,0.7-0.5,1.1-0.8C58.6-96.7,59-97,59.4-97.2z
		 M58.9-91.4c-0.5,0.4-1.1,0.7-1.6,1c-0.6,0.3-1.1,0.7-1.5,1.3C57-89.7,58.1-90.4,58.9-91.4z M58.1-66.3c-0.1-0.5-0.1-0.8,0.1-1.2
		c0.2-0.3,0.4-0.6,0.6-0.9c0.2-0.3,0.5-0.6,0.7-0.8c0.2-0.3,0.3-0.6,0.3-1c-0.1,0.2-0.3,0.4-0.5,0.5c-0.2,0.1-0.4,0.2-0.6,0.4
		c0.2,0.1,0.3,0.3,0.3,0.5c-0.5,0.2-0.9,0.5-1.1,0.9c-0.2,0.5-0.6,0.8-1,1c0.1,0.2,0,0.4-0.1,0.5c-0.1,0.1-0.2,0.2-0.3,0.3
		c-0.1,0.1-0.2,0.2-0.3,0.2c-0.1,0.1-0.1,0.2-0.1,0.3c0.3-0.1,0.7-0.2,1.1-0.3C57.4-66.1,57.8-66.2,58.1-66.3z M56.1-100.1
		c-0.1-0.3,0.1-0.5,0.4-0.6c0.3-0.1,0.4-0.3,0.2-0.6c-0.1,0.3-0.2,0.5-0.5,0.8C55.9-100.4,55.9-100.2,56.1-100.1z M57.3-81.8
		c0-0.1,0-0.2,0.1-0.2c0.1,0,0.1-0.1,0-0.2c-0.1,0-0.2,0-0.3,0.1c-0.1,0.1-0.1,0.2,0.1,0.3C57.2-81.9,57.2-81.9,57.3-81.8z
		 M57.4-93.8c0.4-0.4,0.8-0.7,1.4-0.9c0.5-0.2,0.8-0.7,0.9-1.4c-0.5,0.3-0.9,0.6-1.2,1S57.8-94.2,57.4-93.8z M59.8-94.6
		c-0.1,0.1-0.1,0.2-0.3,0.2c-0.1,0-0.2,0.1-0.2,0.3c0.2,0.2,0.2,0.4,0.1,0.5c-0.1,0.2-0.3,0.3-0.5,0.4c-0.2,0.1-0.4,0.2-0.6,0.3
		c-0.2,0.1-0.3,0.3-0.4,0.5c0.4-0.2,0.7-0.4,1-0.6c0.3-0.3,0.5-0.5,0.9-0.6c0-0.2,0-0.3,0-0.5C59.9-94.4,59.9-94.5,59.8-94.6z
		 M58.6-99.5c-0.2,0-0.3,0-0.3,0.2c0,0.2-0.1,0.3-0.2,0.4C58.5-98.8,58.7-99,58.6-99.5z M59.8-90.1c0-0.2,0-0.3,0.1-0.4
		c0.1-0.1,0.1-0.2,0-0.5c-0.2,0.1-0.5,0.3-0.7,0.7c0.1-0.1,0.2,0,0.2,0.1C59.4-90.1,59.6-90,59.8-90.1z M61-70.8
		c0.2-0.1,0.4-0.3,0.6-0.5c0.2-0.2,0.3-0.4,0.3-0.5c-0.1,0.2-0.3,0.3-0.5,0.4C61.1-71.4,61-71.2,61-70.8z"/>
	<path class="st0" d="M105.5-80.1c0.1,0.3,0.3,0.4,0.6,0.3c0.3,0,0.5,0.1,0.6,0.3c0.2,1.9,0.4,3.7,0.8,5.3c0.4,1.7,0.9,3.2,1.6,4.6
		c-0.8,0.3-1.5,0.7-2.1,1.3c-0.5,0.6-1,1.2-1.5,1.8c-0.5,0.6-0.9,1.3-1.4,1.9c-0.5,0.6-1.1,1.1-1.9,1.5c-2-0.6-3.8-1.4-5.4-2.2
		c-1.6-0.9-3.1-2-4.4-3.2c-0.1-0.4,0-0.6,0.3-0.7c0.3-0.1,0.4-0.3,0.4-0.6c-0.2-0.8-0.4-1.7-0.5-2.6c-0.1-0.9-0.2-1.8-0.4-2.7
		c-0.1-0.9-0.3-1.8-0.5-2.7c-0.2-0.9-0.4-1.7-0.8-2.5c0.2,1.1,0.2,2.3,0.1,3.7c-0.1,1.4,0.1,2.7,0.5,4c0.2,0.7,0.5,1.2,0.8,1.5
		c0.3,0.4,0.3,0.9,0,1.7c-0.2,0.4-0.5,1-1.1,1.6c-0.5,0.7-1.1,1.3-1.8,1.8c-0.6,0.5-1.3,0.8-2,0.9c-0.7,0.1-1.2-0.1-1.7-0.8
		c-0.2,0.1-0.3,0.3-0.4,0.5c-0.1,0.2-0.2,0.4-0.3,0.5c0.2,0.1,0.4,0.2,0.6,0.2c0.3,0,0.5,0.1,0.8,0.1c0.3,0.1,0.5,0.2,0.6,0.3
		s0.3,0.4,0.3,0.8c-0.7,0.2-1.3,0.2-1.9,0.1c-0.6-0.1-1.2-0.2-1.8-0.3c-0.6-0.1-1.2-0.2-1.7-0.3c-0.6-0.1-1.1,0.1-1.7,0.3
		c-1-0.5-1.9-1-2.7-1.6c-0.8-0.6-1.6-1.2-2.3-1.9c-0.1-2.1-0.3-4.2-0.6-6.1c-0.4-2-0.6-3.9-0.8-5.7c-0.2-1.6-0.2-3.2-0.1-4.7
		c0.1-1.5,0.1-3.1,0-4.8c-0.1-1.2-0.3-2.4-0.5-3.6c-0.3-1.2-0.4-2.5-0.6-3.7c-0.1-1-0.1-2,0-2.9c0-0.9,0-1.8,0-2.7
		c-0.1-0.8-0.1-1.5,0-2.3c0.1-0.8,0-1.4-0.5-2c0.3-0.5,0.5-1,0.5-1.4s-0.1-0.9-0.2-1.5c0-0.5,0.3-0.7,0.9-0.6
		c-0.1-0.2-0.2-0.4-0.4-0.5c-0.1-0.1-0.2-0.3-0.1-0.6c0.3-0.2,0.6-0.3,0.8-0.5c0.2-0.2,0.5-0.4,0.8-0.5c0.1-0.3,0.1-0.4,0.1-0.5
		c-0.1-0.1,0-0.3,0.1-0.5c0.8-0.4,1.5-1,1.9-1.8c0.4-0.8,0.9-1.5,1.5-2.1c3.8-0.5,7.4-0.7,11-0.6c3.6,0.1,7,0.1,10.4,0
		c1.6,0.6,3,1.2,4.4,1.8c1.4,0.7,2.4,1.6,3.2,2.9c-0.1,0.3-0.1,0.5,0,0.6c0.1,0.1,0.2,0.3,0.2,0.6c0.7,1,1.1,2,1.4,3.2
		c0.3,1.2,0.3,2.4,0.2,3.6c-0.1,1.2-0.4,2.5-0.8,3.6c-0.4,1.2-0.9,2.3-1.5,3.3c-0.3,0.4-0.5,0.9-0.8,1.4c-0.2,0.6-0.6,1-1,1.4
		c-0.3,0.2-0.6,0.4-0.8,0.5c-0.3,0.1-0.6,0.2-0.8,0.3c-0.3,0.1-0.6,0.2-0.8,0.3c-0.3,0.1-0.5,0.3-0.7,0.6c0.3,2.1,0.8,4.3,1.6,6.4
		C104.2-84.5,104.9-82.3,105.5-80.1z M74.4-97.9c0,0.2,0,0.3-0.1,0.4c-0.1,0.1-0.1,0.2,0,0.5c0.3,0,0.5-0.2,0.6-0.5
		C74.9-97.8,74.8-97.9,74.4-97.9z M74.8-93.4c-0.1-0.3,0.1-0.5,0.4-0.8c0.3-0.3,0.3-0.4-0.1-0.5c0.1,0.3,0,0.5-0.3,0.6
		C74.6-93.7,74.5-93.6,74.8-93.4z M75-81.6c0.1,0.4,0.2,0.8,0.2,1.2c0,0.4,0.1,0.8,0.4,1.2c0.6-0.7,1.2-1.4,1.8-2.1
		c0.6-0.7,1.3-1.3,2.2-1.8c-0.1-0.3-0.1-0.6,0-0.9c0-0.3-0.1-0.5-0.4-0.6c-0.5,0.5-1,1.1-1.4,1.7c-0.4,0.6-0.9,1.1-1.4,1.6
		c-0.3,0.1-0.6,0-0.7-0.2C75.5-81.8,75.3-81.8,75-81.6z M75.1-84.1c0.1,0.2,0.1,0.4,0,0.6c-0.1,0.3,0,0.4,0.2,0.5
		c0.3-0.4,0.6-0.7,0.7-0.9C75.6-83.9,75.4-83.9,75.1-84.1z M75.8-75.3c0.3-0.5,0.8-0.9,1.3-1.3c0.5-0.4,1-0.9,1.4-1.3
		c0.4-0.5,0.8-0.9,1.1-1.4c0.3-0.5,0.3-1,0.1-1.6c-0.7,0.8-1.4,1.5-2.1,2.3c-0.6,0.8-1.3,1.6-2,2.3c0.2,0.1,0.2,0.2,0.2,0.5
		C75.8-75.6,75.8-75.4,75.8-75.3z M76.8-69c0.3,0,0.5-0.1,0.5-0.3c0.1-0.2,0.2-0.4,0.2-0.6c-0.2,0.1-0.4,0.1-0.4,0
		c-0.1-0.1-0.2-0.2-0.4-0.1c0.1,0.3,0.2,0.5,0.2,0.5C76.9-69.5,76.9-69.3,76.8-69z M78.9-95.9c-0.2,0.2-0.4,0.3-0.6,0.5
		c-0.2,0.2-0.3,0.4-0.4,0.6c0.3,0.1,0.5,0,0.6-0.1c0.1-0.1,0.3-0.1,0.6,0c-0.1-0.2-0.1-0.3,0-0.6C79.1-95.7,79-95.9,78.9-95.9z
		 M78.8-98.6c-0.1,0.3-0.3,0.5-0.4,0.6c-0.2,0.2-0.3,0.4-0.4,0.6h1c-0.1-0.2-0.1-0.4,0-0.7C79-98.4,79-98.5,78.8-98.6z M105.1-71.5
		c0.3,0.3,0.6,0.5,0.9,0.6c0.3,0.2,0.7,0.2,1.3,0.2c-0.1-0.7-0.2-1.3-0.5-1.9c-0.3-0.5-0.4-1.2-0.5-1.9c-0.1-0.2-0.3-0.3-0.5-0.4
		c-0.2-0.1-0.3-0.3-0.4-0.5c-0.8-2.9-1.7-5.8-2.7-8.7c-1-2.9-1.8-5.8-2.6-8.5c-0.3-0.2-0.4-0.4-0.5-0.8c0-0.4,0.1-0.7,0.3-1
		c1.3-0.2,2.3-0.4,3.1-0.9c0.8-0.4,1.4-1,1.9-1.6c0.7-1,1.2-2.1,1.7-3.3c0.4-1.2,0.7-2.5,0.8-3.8c0.1-1.3,0-2.6-0.2-3.9
		c-0.3-1.3-0.7-2.5-1.3-3.6c-0.7-1.2-1.6-2.1-2.8-2.7c-1.2-0.6-2.6-1.1-4.1-1.3c-1.5-0.3-3.1-0.4-4.9-0.5c-1.7,0-3.4,0-5.1,0
		c-1.4,0-2.7,0.1-4.1,0.3c-1.4,0.2-2.9,0.3-4.5,0.3c0.1,0.4,0,0.7-0.2,1c-0.2,0.3-0.3,0.5-0.4,0.8c-0.1,0.3-0.2,0.5-0.2,0.8
		c0,0.3,0.2,0.6,0.5,1c-0.1,0.2-0.3,0.3-0.5,0.4c-0.2,0.1-0.3,0.2-0.3,0.5c0.2,3.1,0.3,6.1,0.5,8.9c0.1,2.8,0.2,5.7,0.1,8.7
		c0.2,0.1,0.5,0.2,0.7,0.3c0.3,0.1,0.4,0.3,0.6,0.5c-0.1,0.4-0.3,0.6-0.7,0.8s-0.5,0.5-0.5,0.9c-0.1,0.3,0,0.4,0.3,0.3
		c0.3,0,0.3,0.1,0.2,0.3c-0.3,1-0.5,1.9-0.4,2.8c0.1,0.9,0.2,1.8,0.4,2.6c0.2,0.9,0.4,1.8,0.7,2.7c0.2,0.9,0.3,2,0.3,3.1
		c0.4,0.3,0.8,0.7,1,1.2c0.2,0.5,0.4,1,0.6,1.6c0.2,0.6,0.3,1.1,0.5,1.7s0.4,1.1,0.8,1.5c0.8,0.2,1.6,0.5,2.3,0.8
		c0.7,0.3,1.5,0.5,2.4,0.6c0.3-0.2,0.5-0.3,0.6-0.5c0.1-0.2,0.3-0.4,0.6-0.6c0-1.3-0.1-2.6-0.3-3.9c-0.2-1.3-0.4-2.7-0.6-4.1
		c-0.2-1.4-0.4-2.8-0.5-4.3c-0.2-1.4-0.2-2.9-0.2-4.3c0.8-0.1,1.5-0.2,2.3-0.3c0.7-0.1,1.5-0.2,2.3-0.3c0.2,0,0.3-0.2,0.2-0.5
		c-0.1-0.3,0.1-0.3,0.5-0.2c0.4,0.1,0.7,0.3,0.8,0.7c0.1,0.4,0.3,0.7,0.3,1.1c0.1,0.4,0.2,0.8,0.3,1.1c0.1,0.4,0.3,0.6,0.7,0.8
		c-0.2,0.2-0.3,0.6-0.3,1.1c0.4,1.5,0.9,2.9,1.6,4.3c0.6,1.4,1.1,2.9,1.4,4.4c0.1,0.5,0.1,1,0.2,1.6c0.1,0.5,0.1,1.1,0.3,1.6
		c0.1,0.5,0.3,1,0.6,1.4c0.3,0.4,0.7,0.8,1.2,1.1c0.8-0.2,1.5-0.2,2.2,0C103.8-71.2,104.4-71.2,105.1-71.5z M81.8-65.6
		c0.3-0.1,0.5-0.1,0.6,0.1c0.1,0.2,0.3,0.1,0.4-0.1c-0.2-0.1-0.3-0.3-0.3-0.5c-0.1-0.2-0.2-0.3-0.5-0.3
		C81.8-66.2,81.8-65.9,81.8-65.6z M98.3-110.5c0.1,0.5,0.2,1,0.3,1.4c0.2,0.4,0.4,0.8,0.6,1.2c0.2,0.4,0.4,0.7,0.5,1.1
		c0.1,0.4,0.2,0.7,0.2,1.1c0,0.1,0,0.3-0.1,0.6c-0.1,0.3-0.1,0.6-0.3,1c-0.1,0.3-0.2,0.6-0.3,1c-0.1,0.3-0.2,0.5-0.3,0.7
		c-0.5,0.9-1.1,1.6-1.9,2.2c-0.8,0.6-1.8,1-2.9,1.3c-1.1,0.3-2.3,0.6-3.5,0.8c-1.2,0.2-2.5,0.3-3.7,0.4c-0.4-0.7-0.6-1.5-0.6-2.4
		c0-0.9,0-1.8,0-2.7c0-0.9-0.1-1.7-0.3-2.5c-0.2-0.8-0.6-1.5-1.2-2c0.1-0.6,0.3-1.1,0.7-1.6c0.3-0.4,0.4-1.1,0.1-2
		c0.8-0.5,1.8-0.8,3-0.9s2.3-0.1,3.4,0c1.2,0.1,2.3,0.3,3.4,0.6C96.5-110.9,97.5-110.7,98.3-110.5z M86.9-67.3
		c1.1-0.5,1.9-1.2,2.3-2.2c-0.1,0-0.2-0.1-0.2-0.3c-0.5-0.1-0.8,0-1,0.2c-0.2,0.2-0.4,0.4-0.5,0.7c-0.1,0.3-0.2,0.5-0.3,0.8
		C87.2-67.8,87.1-67.5,86.9-67.3z M91.5-99.5c-0.2-0.7-0.2-1.3,0-1.8c0.2-0.5,0.3-1.1,0.4-1.7c-0.2-0.3-0.4-0.5-0.6-0.6
		c-0.2-0.2-0.4-0.5-0.4-0.9c-0.3-0.1-0.6-0.1-1-0.1c-0.4,0-0.7,0.1-1.1,0.1c-0.3,0.1-0.6,0.1-0.9,0c-0.3,0-0.5-0.2-0.7-0.4
		c0.2,1,0.4,2,0.4,2.8c0,0.9,0.1,2,0.1,3.3c0.7,0,1.4-0.1,1.9-0.3C90.3-99.2,90.8-99.4,91.5-99.5z M89.5-109.5
		c-0.3,0.2-0.7,0.5-1.1,1c-0.4,0.5-0.5,0.8-0.4,0.9c0.3-0.3,0.6-0.6,1.1-0.9C89.5-108.9,89.6-109.2,89.5-109.5z M90.1-87.9
		c0.2,0,0.4-0.1,0.5-0.2c0.1-0.2,0.2-0.3,0.3-0.4c-0.2,0.1-0.4,0.1-0.6,0.2C90.1-88.3,90.1-88.1,90.1-87.9z M92.6-110.5
		c0.1,0.4,0,0.6-0.1,0.9c-0.1,0.2-0.3,0.4-0.5,0.6c-0.2,0.2-0.4,0.4-0.5,0.5c-0.1,0.2-0.2,0.4-0.1,0.6c0.3-0.4,0.7-0.8,1.1-1.2
		c0.4-0.4,0.7-0.9,0.9-1.4L92.6-110.5z M91.9-81.5c0.6-0.1,1.1-0.3,1.6-0.8c0.5-0.5,0.8-1,0.9-1.7h0.8c-0.1-0.2-0.1-0.4-0.1-0.6
		c0-0.2-0.1-0.3-0.4-0.3c-0.3,0.8-0.7,1.4-1.4,1.8C92.7-82.7,92.2-82.1,91.9-81.5z M92.7-88.7c0.2,0.1,0.2,0.1,0.1,0.2
		c-0.1,0.1-0.1,0.2-0.1,0.3c0.3-0.1,0.5-0.2,0.7-0.3c0.2-0.1,0.3-0.2,0.3-0.5c-0.1,0.1-0.3,0.2-0.5,0.2C93-88.9,92.8-88.8,92.7-88.7
		z M96-107c1.1-0.1,1.8,0,2.2,0.2c-0.2-0.3-0.3-0.6-0.4-0.9c-0.1-0.3-0.2-0.6-0.5-0.9c-0.7,0.9-1.5,1.7-2.3,2.4s-1.5,1.6-2,2.6
		c0.7-0.3,1.2-0.6,1.7-1.1c0.4-0.5,1-0.8,1.6-1.1c0.1-0.3,0-0.5-0.1-0.6C96.1-106.6,96-106.8,96-107z M96.4-79.9
		c-0.2,0.3-0.4,0.6-0.8,0.8c-0.4,0.2-0.7,0.5-1,0.7c-0.3,0.3-0.6,0.5-0.8,0.8c-0.2,0.3-0.3,0.6-0.2,1c0.2-0.3,0.5-0.5,0.8-0.8
		c0.3-0.3,0.7-0.6,1-0.8c0.3-0.3,0.6-0.6,0.8-0.8C96.4-79.3,96.5-79.6,96.4-79.9z M95.9-102.9c0.2-0.3,0.3-0.3,0.1-0.3
		c-0.1,0.1-0.4,0.2-0.7,0.5s-0.7,0.5-1,0.9c-0.3,0.3-0.6,0.6-0.7,0.8c0.6-0.3,1-0.6,1.3-0.9C95.3-102.2,95.6-102.5,95.9-102.9z
		 M94.3-70.7c0.4,0,0.5-0.2,0.4-0.4c-0.1-0.2,0-0.4,0.3-0.5c0.7-0.1,1.2-0.4,1.7-1.1c0.4-0.7,0.8-1.4,1.1-2.1
		c-1,0.5-1.7,1.2-2.2,2.1c-0.5,0.1-0.8,0-1-0.3c-0.2-0.3-0.4-0.5-0.5-0.8c0.1-0.4,0.3-0.8,0.8-1.2c0.5-0.4,0.7-0.6,0.6-0.6
		c-0.3,0.1-0.6,0.3-0.8,0.7c-0.3,0.4-0.6,0.4-1,0.2c0.2,0.6,0.3,1.3,0.3,2C94.1-72.1,94.1-71.4,94.3-70.7z M94.9-110.1
		c-0.1,0.3-0.2,0.6-0.2,0.9c0,0.4-0.1,0.6-0.3,0.8c0.4-0.2,0.6-0.4,0.8-0.7c0.1-0.3,0.3-0.6,0.6-0.8c-0.3,0.1-0.4,0-0.5-0.1
		C95.3-110.1,95.2-110.1,94.9-110.1z M95-68c0.6-0.5,1.3-1.1,1.9-1.8c0.6-0.7,1.1-1.3,1.4-1.9c-0.2,0.4-0.5,0.7-0.8,1
		c-0.3,0.3-0.7,0.5-1,0.8c-0.3,0.3-0.6,0.5-0.9,0.8C95.2-68.9,95.1-68.5,95-68z M96.5-66.7c0.1,0,0.3,0.1,0.4,0.2s0.3,0.1,0.4-0.1
		c0-0.3,0.1-0.6,0.3-0.9c0.2-0.3,0.5-0.6,0.8-0.8c0.3-0.3,0.5-0.6,0.7-0.8c0.2-0.3,0.3-0.6,0.3-0.9c-0.5,0.6-0.9,1.2-1.5,1.7
		C97.5-67.7,97-67.2,96.5-66.7z M99-65.5c0.2,0,0.4-0.2,0.5-0.5c0.1-0.3,0.2-0.5,0-0.6c0,0.3-0.1,0.4-0.4,0.5
		C98.9-66,98.9-65.8,99-65.5z M101.3-68.3c0.4-0.3,0.7-0.6,1-1c0.3-0.4,0.6-0.7,0.9-1.1c-0.4,0-0.7,0-0.9,0.2
		c-0.2,0.2-0.4,0.4-0.5,0.6c-0.1,0.2-0.3,0.5-0.3,0.7C101.3-68.6,101.3-68.4,101.3-68.3z M101.9-65.8c0.7-0.8,1.4-1.5,2.1-2.1
		c0.7-0.7,1.6-1.2,2.7-1.7c-0.4,0.1-0.7,0.1-1,0c-0.3-0.1-0.5-0.1-0.8-0.1c-0.4,0.7-1,1.4-1.7,1.9C102.4-67.2,102-66.5,101.9-65.8z"
		/>
	<path class="st0" d="M147.3-80.1c0.1,0.3,0.3,0.4,0.6,0.3c0.3,0,0.5,0.1,0.6,0.3c0.2,1.9,0.4,3.7,0.8,5.3c0.4,1.7,0.9,3.2,1.6,4.6
		c-0.8,0.3-1.5,0.7-2.1,1.3c-0.5,0.6-1,1.2-1.5,1.8c-0.5,0.6-0.9,1.3-1.4,1.9c-0.5,0.6-1.1,1.1-1.9,1.5c-2-0.6-3.8-1.4-5.4-2.2
		c-1.6-0.9-3.1-2-4.4-3.2c-0.1-0.4,0-0.6,0.3-0.7c0.3-0.1,0.4-0.3,0.4-0.6c-0.2-0.8-0.4-1.7-0.5-2.6c-0.1-0.9-0.2-1.8-0.4-2.7
		c-0.1-0.9-0.3-1.8-0.5-2.7c-0.2-0.9-0.4-1.7-0.8-2.5c0.2,1.1,0.2,2.3,0.1,3.7c-0.1,1.4,0.1,2.7,0.5,4c0.2,0.7,0.5,1.2,0.8,1.5
		c0.3,0.4,0.3,0.9,0,1.7c-0.2,0.4-0.5,1-1.1,1.6c-0.5,0.7-1.1,1.3-1.8,1.8c-0.6,0.5-1.3,0.8-2,0.9c-0.7,0.1-1.2-0.1-1.7-0.8
		c-0.2,0.1-0.3,0.3-0.4,0.5c-0.1,0.2-0.2,0.4-0.3,0.5c0.2,0.1,0.4,0.2,0.6,0.2c0.3,0,0.5,0.1,0.8,0.1c0.3,0.1,0.5,0.2,0.6,0.3
		s0.3,0.4,0.3,0.8c-0.7,0.2-1.3,0.2-1.9,0.1c-0.6-0.1-1.2-0.2-1.8-0.3c-0.6-0.1-1.2-0.2-1.7-0.3c-0.6-0.1-1.1,0.1-1.7,0.3
		c-1-0.5-1.9-1-2.7-1.6c-0.8-0.6-1.6-1.2-2.3-1.9c-0.1-2.1-0.3-4.2-0.6-6.1c-0.4-2-0.6-3.9-0.8-5.7c-0.2-1.6-0.2-3.2-0.1-4.7
		c0.1-1.5,0.1-3.1,0-4.8c-0.1-1.2-0.3-2.4-0.5-3.6c-0.3-1.2-0.4-2.5-0.6-3.7c-0.1-1-0.1-2,0-2.9c0-0.9,0-1.8,0-2.7
		c-0.1-0.8-0.1-1.5,0-2.3c0.1-0.8,0-1.4-0.5-2c0.3-0.5,0.5-1,0.5-1.4s-0.1-0.9-0.2-1.5c0-0.5,0.3-0.7,0.9-0.6
		c-0.1-0.2-0.2-0.4-0.4-0.5c-0.1-0.1-0.2-0.3-0.1-0.6c0.3-0.2,0.6-0.3,0.8-0.5c0.2-0.2,0.5-0.4,0.8-0.5c0.1-0.3,0.1-0.4,0.1-0.5
		c-0.1-0.1,0-0.3,0.1-0.5c0.8-0.4,1.5-1,1.9-1.7c0.4-0.8,0.9-1.5,1.5-2.1c3.8-0.5,7.4-0.7,11-0.6c3.6,0.1,7,0.1,10.4,0
		c1.6,0.6,3,1.2,4.4,1.8c1.4,0.7,2.4,1.6,3.2,2.9c-0.1,0.3-0.1,0.5,0,0.6c0.1,0.1,0.2,0.3,0.2,0.6c0.7,1,1.1,2,1.4,3.2
		c0.3,1.2,0.3,2.4,0.2,3.6c-0.1,1.2-0.4,2.5-0.8,3.6c-0.4,1.2-0.9,2.3-1.5,3.3c-0.3,0.4-0.5,0.9-0.8,1.4c-0.2,0.6-0.6,1-1,1.4
		c-0.3,0.2-0.6,0.4-0.8,0.5c-0.3,0.1-0.6,0.2-0.8,0.3c-0.3,0.1-0.6,0.2-0.8,0.3c-0.3,0.1-0.5,0.3-0.7,0.6c0.3,2.1,0.8,4.3,1.6,6.4
		C146-84.5,146.7-82.3,147.3-80.1z M116.2-97.9c0,0.2,0,0.3-0.1,0.4c-0.1,0.1-0.1,0.2,0,0.5c0.3,0,0.5-0.2,0.6-0.5
		C116.8-97.8,116.6-97.9,116.2-97.9z M116.6-93.4c-0.1-0.3,0.1-0.5,0.4-0.8c0.3-0.3,0.3-0.4-0.1-0.5c0.1,0.3,0,0.5-0.3,0.6
		C116.4-93.7,116.4-93.6,116.6-93.4z M116.8-81.6c0.1,0.4,0.2,0.8,0.2,1.2c0,0.4,0.1,0.8,0.4,1.2c0.6-0.7,1.2-1.4,1.8-2.1
		c0.6-0.7,1.3-1.3,2.2-1.8c-0.1-0.3-0.1-0.6,0-0.9c0-0.3-0.1-0.5-0.4-0.6c-0.5,0.5-1,1.1-1.4,1.7c-0.4,0.6-0.9,1.1-1.4,1.6
		c-0.3,0.1-0.6,0-0.7-0.2C117.3-81.8,117.1-81.8,116.8-81.6z M116.9-84.1c0.1,0.2,0.1,0.4,0,0.6c-0.1,0.3,0,0.4,0.2,0.5
		c0.3-0.4,0.6-0.7,0.7-0.9C117.5-83.9,117.2-83.9,116.9-84.1z M117.7-75.3c0.3-0.5,0.8-0.9,1.3-1.3c0.5-0.4,1-0.9,1.4-1.3
		c0.4-0.5,0.8-0.9,1.1-1.4c0.3-0.5,0.3-1,0.1-1.6c-0.7,0.8-1.4,1.5-2.1,2.3c-0.6,0.8-1.3,1.6-2,2.3c0.2,0.1,0.2,0.2,0.2,0.5
		C117.6-75.6,117.6-75.4,117.7-75.3z M118.7-69c0.3,0,0.5-0.1,0.5-0.3c0.1-0.2,0.2-0.4,0.2-0.6c-0.2,0.1-0.4,0.1-0.4,0
		c-0.1-0.1-0.2-0.2-0.4-0.1c0.1,0.3,0.2,0.5,0.2,0.5C118.8-69.5,118.7-69.3,118.7-69z M120.7-95.9c-0.2,0.2-0.4,0.3-0.6,0.5
		c-0.2,0.2-0.3,0.4-0.4,0.6c0.3,0.1,0.5,0,0.6-0.1c0.1-0.1,0.3-0.1,0.6,0c-0.1-0.2-0.1-0.3,0-0.6C120.9-95.7,120.9-95.9,120.7-95.9z
		 M120.6-98.6c-0.1,0.3-0.3,0.5-0.4,0.6c-0.2,0.2-0.3,0.4-0.4,0.6h1c-0.1-0.2-0.1-0.4,0-0.7C120.8-98.4,120.8-98.5,120.6-98.6z
		 M146.9-71.5c0.3,0.3,0.6,0.5,0.9,0.6c0.3,0.2,0.7,0.2,1.3,0.2c-0.1-0.7-0.2-1.3-0.5-1.9c-0.3-0.5-0.4-1.2-0.5-1.9
		c-0.1-0.2-0.3-0.3-0.5-0.4c-0.2-0.1-0.3-0.3-0.4-0.5c-0.8-2.9-1.7-5.8-2.7-8.7c-1-2.9-1.8-5.8-2.6-8.5c-0.3-0.2-0.4-0.4-0.5-0.8
		c0-0.4,0.1-0.7,0.3-1c1.3-0.2,2.3-0.4,3.1-0.9c0.8-0.4,1.4-1,1.9-1.6c0.7-1,1.2-2.1,1.7-3.3c0.4-1.2,0.7-2.5,0.8-3.8
		c0.1-1.3,0-2.6-0.2-3.9c-0.3-1.3-0.7-2.5-1.3-3.6c-0.7-1.2-1.6-2.1-2.8-2.7c-1.2-0.6-2.6-1.1-4.1-1.3c-1.5-0.3-3.1-0.4-4.9-0.5
		c-1.7,0-3.4,0-5.1,0c-1.4,0-2.7,0.1-4.1,0.3c-1.4,0.2-2.9,0.3-4.5,0.3c0.1,0.4,0,0.7-0.2,1c-0.2,0.3-0.3,0.5-0.4,0.8
		c-0.1,0.3-0.2,0.5-0.2,0.8c0,0.3,0.2,0.6,0.5,1c-0.1,0.2-0.3,0.3-0.5,0.4c-0.2,0.1-0.3,0.2-0.3,0.5c0.2,3.1,0.3,6.1,0.5,8.9
		c0.1,2.8,0.2,5.7,0.1,8.7c0.2,0.1,0.5,0.2,0.7,0.3c0.3,0.1,0.4,0.3,0.6,0.5c-0.1,0.4-0.3,0.6-0.7,0.8S122-91.5,122-91
		c-0.1,0.3,0,0.4,0.3,0.3c0.3,0,0.3,0.1,0.2,0.3c-0.3,1-0.5,1.9-0.4,2.8c0.1,0.9,0.2,1.8,0.4,2.6c0.2,0.9,0.4,1.8,0.7,2.7
		c0.2,0.9,0.3,2,0.3,3.1c0.4,0.3,0.8,0.7,1,1.2c0.2,0.5,0.4,1,0.6,1.6c0.2,0.6,0.3,1.1,0.5,1.7s0.4,1.1,0.8,1.5
		c0.8,0.2,1.6,0.5,2.3,0.8c0.7,0.3,1.5,0.5,2.4,0.6c0.3-0.2,0.5-0.3,0.6-0.5c0.1-0.2,0.3-0.4,0.6-0.6c0-1.3-0.1-2.6-0.3-3.9
		c-0.2-1.3-0.4-2.7-0.6-4.1c-0.2-1.4-0.4-2.8-0.5-4.3c-0.2-1.4-0.2-2.9-0.2-4.3c0.8-0.1,1.5-0.2,2.3-0.3c0.7-0.1,1.5-0.2,2.3-0.3
		c0.2,0,0.3-0.2,0.2-0.5c-0.1-0.3,0.1-0.3,0.5-0.2c0.4,0.1,0.7,0.3,0.8,0.7c0.1,0.4,0.3,0.7,0.3,1.1c0.1,0.4,0.2,0.8,0.3,1.1
		c0.1,0.4,0.3,0.6,0.7,0.8c-0.2,0.2-0.3,0.6-0.3,1.1c0.4,1.5,0.9,2.9,1.6,4.3c0.6,1.4,1.1,2.9,1.4,4.4c0.1,0.5,0.1,1,0.2,1.6
		c0.1,0.5,0.1,1.1,0.3,1.6c0.1,0.5,0.3,1,0.6,1.4c0.3,0.4,0.7,0.8,1.2,1.1c0.8-0.2,1.5-0.2,2.2,0C145.6-71.2,146.3-71.2,146.9-71.5z
		 M123.7-65.6c0.3-0.1,0.5-0.1,0.6,0.1c0.1,0.2,0.3,0.1,0.4-0.1c-0.2-0.1-0.3-0.3-0.3-0.5c-0.1-0.2-0.2-0.3-0.5-0.3
		C123.7-66.2,123.6-65.9,123.7-65.6z M140.1-110.5c0.1,0.5,0.2,1,0.3,1.4c0.2,0.4,0.4,0.8,0.6,1.2c0.2,0.4,0.4,0.7,0.5,1.1
		c0.1,0.4,0.2,0.7,0.2,1.1c0,0.1,0,0.3-0.1,0.6c-0.1,0.3-0.1,0.6-0.3,1c-0.1,0.3-0.2,0.6-0.3,1c-0.1,0.3-0.2,0.5-0.3,0.7
		c-0.5,0.9-1.1,1.6-1.9,2.2c-0.8,0.6-1.8,1-2.9,1.3c-1.1,0.3-2.3,0.6-3.5,0.8c-1.2,0.2-2.5,0.3-3.7,0.4c-0.4-0.7-0.6-1.5-0.6-2.4
		c0-0.9,0-1.8,0-2.7c0-0.9-0.1-1.7-0.3-2.5c-0.2-0.8-0.6-1.5-1.2-2c0.1-0.6,0.3-1.1,0.7-1.6c0.3-0.4,0.4-1.1,0.1-2
		c0.8-0.5,1.8-0.8,3-0.9s2.3-0.1,3.4,0c1.2,0.1,2.3,0.3,3.4,0.6C138.3-110.9,139.3-110.7,140.1-110.5z M128.7-67.3
		c1.1-0.5,1.9-1.2,2.3-2.2c-0.1,0-0.2-0.1-0.2-0.3c-0.5-0.1-0.8,0-1,0.2c-0.2,0.2-0.4,0.4-0.5,0.7c-0.1,0.3-0.2,0.5-0.3,0.8
		C129-67.8,128.9-67.5,128.7-67.3z M133.3-99.5c-0.2-0.7-0.2-1.3,0-1.8c0.2-0.5,0.3-1.1,0.4-1.7c-0.2-0.3-0.4-0.5-0.6-0.6
		c-0.2-0.2-0.4-0.5-0.4-0.9c-0.3-0.1-0.6-0.1-1-0.1c-0.4,0-0.7,0.1-1.1,0.1c-0.3,0.1-0.6,0.1-0.9,0c-0.3,0-0.5-0.2-0.7-0.4
		c0.2,1,0.4,2,0.4,2.8c0,0.9,0.1,2,0.1,3.3c0.7,0,1.4-0.1,1.9-0.3C132.1-99.2,132.7-99.4,133.3-99.5z M131.3-109.5
		c-0.3,0.2-0.7,0.5-1.1,1c-0.4,0.5-0.5,0.8-0.4,0.9c0.3-0.3,0.6-0.6,1.1-0.9C131.3-108.9,131.5-109.2,131.3-109.5z M131.9-87.9
		c0.2,0,0.4-0.1,0.5-0.2c0.1-0.2,0.2-0.3,0.3-0.4c-0.2,0.1-0.4,0.1-0.6,0.2C131.9-88.3,131.9-88.1,131.9-87.9z M134.4-110.5
		c0.1,0.4,0,0.6-0.1,0.9c-0.1,0.2-0.3,0.4-0.5,0.6c-0.2,0.2-0.4,0.4-0.5,0.5c-0.1,0.2-0.2,0.4-0.1,0.6c0.3-0.4,0.7-0.8,1.1-1.2
		c0.4-0.4,0.7-0.9,0.9-1.4L134.4-110.5z M133.7-81.5c0.6-0.1,1.1-0.3,1.6-0.8c0.5-0.5,0.8-1,0.9-1.7h0.8c-0.1-0.2-0.1-0.4-0.1-0.6
		c0-0.2-0.1-0.3-0.4-0.3c-0.3,0.8-0.7,1.4-1.4,1.8C134.5-82.7,134.1-82.1,133.7-81.5z M134.6-88.7c0.2,0.1,0.2,0.1,0.1,0.2
		c-0.1,0.1-0.1,0.2-0.1,0.3c0.3-0.1,0.5-0.2,0.7-0.3c0.2-0.1,0.3-0.2,0.3-0.5c-0.1,0.1-0.3,0.2-0.5,0.2
		C134.8-88.9,134.7-88.8,134.6-88.7z M137.9-107c1.1-0.1,1.8,0,2.2,0.2c-0.2-0.3-0.3-0.6-0.4-0.9c-0.1-0.3-0.2-0.6-0.5-0.9
		c-0.7,0.9-1.5,1.7-2.3,2.4s-1.5,1.6-2,2.6c0.7-0.3,1.2-0.6,1.7-1.1c0.4-0.5,1-0.8,1.6-1.1c0.1-0.3,0-0.5-0.1-0.6
		C137.9-106.6,137.9-106.8,137.9-107z M138.2-79.9c-0.2,0.3-0.4,0.6-0.8,0.8c-0.4,0.2-0.7,0.5-1,0.7c-0.3,0.3-0.6,0.5-0.8,0.8
		c-0.2,0.3-0.3,0.6-0.2,1c0.2-0.3,0.5-0.5,0.8-0.8c0.3-0.3,0.7-0.6,1-0.8c0.3-0.3,0.6-0.6,0.8-0.8C138.3-79.3,138.3-79.6,138.2-79.9
		z M137.8-102.9c0.2-0.3,0.3-0.3,0.1-0.3c-0.1,0.1-0.4,0.2-0.7,0.5s-0.7,0.5-1,0.9c-0.3,0.3-0.6,0.6-0.7,0.8c0.6-0.3,1-0.6,1.3-0.9
		C137.1-102.2,137.4-102.5,137.8-102.9z M136.1-70.7c0.4,0,0.5-0.2,0.4-0.4c-0.1-0.2,0-0.4,0.3-0.5c0.7-0.1,1.2-0.4,1.7-1.1
		c0.4-0.7,0.8-1.4,1.1-2.1c-1,0.5-1.7,1.2-2.2,2.1c-0.5,0.1-0.8,0-1-0.3c-0.2-0.3-0.4-0.5-0.5-0.8c0.1-0.4,0.3-0.8,0.8-1.2
		c0.5-0.4,0.7-0.6,0.6-0.6c-0.3,0.1-0.6,0.3-0.8,0.7c-0.3,0.4-0.6,0.4-1,0.2c0.2,0.6,0.3,1.3,0.3,2C135.9-72.1,136-71.4,136.1-70.7z
		 M136.8-110.1c-0.1,0.3-0.2,0.6-0.2,0.9c0,0.4-0.1,0.6-0.3,0.8c0.4-0.2,0.6-0.4,0.8-0.7c0.1-0.3,0.3-0.6,0.6-0.8
		c-0.3,0.1-0.4,0-0.5-0.1C137.1-110.1,137-110.1,136.8-110.1z M136.8-68c0.6-0.5,1.3-1.1,1.9-1.8c0.6-0.7,1.1-1.3,1.4-1.9
		c-0.2,0.4-0.5,0.7-0.8,1c-0.3,0.3-0.7,0.5-1,0.8c-0.3,0.3-0.6,0.5-0.9,0.8C137.1-68.9,136.9-68.5,136.8-68z M138.4-66.7
		c0.1,0,0.3,0.1,0.4,0.2s0.3,0.1,0.4-0.1c0-0.3,0.1-0.6,0.3-0.9c0.2-0.3,0.5-0.6,0.8-0.8c0.3-0.3,0.5-0.6,0.7-0.8
		c0.2-0.3,0.3-0.6,0.3-0.9c-0.5,0.6-0.9,1.2-1.5,1.7C139.3-67.7,138.8-67.2,138.4-66.7z M140.8-65.5c0.2,0,0.4-0.2,0.5-0.5
		c0.1-0.3,0.2-0.5,0-0.6c0,0.3-0.1,0.4-0.4,0.5C140.8-66,140.7-65.8,140.8-65.5z M143.1-68.3c0.4-0.3,0.7-0.6,1-1
		c0.3-0.4,0.6-0.7,0.9-1.1c-0.4,0-0.7,0-0.9,0.2c-0.2,0.2-0.4,0.4-0.5,0.6c-0.1,0.2-0.3,0.5-0.3,0.7
		C143.1-68.6,143.1-68.4,143.1-68.3z M143.7-65.8c0.7-0.8,1.4-1.5,2.1-2.1c0.7-0.7,1.6-1.2,2.7-1.7c-0.4,0.1-0.7,0.1-1,0
		c-0.3-0.1-0.5-0.1-0.8-0.1c-0.4,0.7-1,1.4-1.7,1.9C144.2-67.2,143.8-66.5,143.7-65.8z"/>
	<path class="st0" d="M186.6-117.8c0.2,0.2,0.3,0.4,0.5,0.5s0.4,0.3,0.7,0.4c0.4,0.7,0.6,1.5,0.5,2.4c-0.1,0.9-0.4,1.7-0.8,2.3
		c0,0.7,0,1.4,0,2.1c0,0.7-0.1,1.3-0.3,2c-0.2,0.1-0.4,0.2-0.6,0.4s-0.4,0.3-0.6,0.4c0,0.1,0,0.2,0.1,0.3c0.1,0.1,0.1,0.2,0,0.4
		c-0.6,0.7-1.2,1.3-1.9,1.9c-0.7,0.5-1.3,1.2-1.8,1.9c-1.1,0.1-2.4,0.1-3.7,0.1s-2.6,0.1-3.8,0.3c-0.5,0.1-0.9,0.2-1.3,0.4
		c-0.4,0.2-0.8,0.3-1.3,0.4c-0.5,0.1-0.9,0.1-1.3,0.1c-0.4-0.1-0.8,0-1.2,0.1c-0.2,1.2-0.4,2.3-0.5,3.3c-0.1,1-0.2,2.1-0.2,3.2
		c0.3-0.2,0.8-0.3,1.3-0.4c0.5-0.1,1-0.2,1.6-0.3c0.5-0.1,1,0,1.5,0.1c0.5,0.1,0.9,0.3,1.1,0.6c0.1,1.5,0.2,3,0.1,4.5
		c0,1.5-0.2,2.9-0.6,4.2c0,0.2-0.1,0.3-0.2,0.3c-0.1,0-0.3,0-0.6,0c0.1,0.5,0.1,0.9,0,1.2c-0.1,0.4-0.4,0.7-0.7,1
		c-0.3,0.3-0.6,0.6-0.9,0.9c-0.3,0.3-0.6,0.6-0.8,0.9c0.1,0.6,0.2,1.2,0.3,1.8c0.1,0.6,0,1.2-0.1,1.7c1.4-0.3,2.8-0.5,4.5-0.6
		c1.6-0.2,3.3-0.3,5-0.4c1.7-0.1,3.3-0.1,4.9-0.1s3,0.1,4.3,0.2c0.1,0.3,0.1,0.5,0.2,0.7c0.1,0.2,0,0.5-0.1,0.7
		c-0.2,0.1-0.3,0.1-0.5,0c-0.1-0.1-0.3-0.1-0.6,0c0.2,1,0.1,2.1-0.1,3.3c-0.3,1.3-0.3,2.5-0.2,3.7c0.1,0.5,0.2,0.9,0.4,1.3
		c0.2,0.4,0.2,0.9-0.1,1.4c-0.2,0.1-0.4,0.1-0.5,0.1c-0.1-0.1-0.2-0.1-0.4-0.2c0.2,0.7,0,1.3-0.5,1.7c-0.6,0.4-1.1,0.9-1.4,1.4
		c0,0.3,0,0.5,0.1,0.7c0.1,0.2,0.1,0.4,0,0.7c-1.2,0-2.4,0.1-3.4,0.1c-1,0-2,0-3,0c-1,0-1.9-0.1-2.8-0.2c-0.9-0.1-1.9-0.2-3-0.3
		c-0.3,0-0.4,0-0.4,0.1s-0.1,0.2-0.3,0.2c-0.4-0.1-0.6-0.2-0.8-0.4c-1.2-0.2-2.6-0.3-4-0.3c-1.4-0.1-2.9-0.1-4.3-0.2
		c-0.4,0-0.8,0.1-1.2,0.2c-0.4,0.1-0.8,0.2-1.2,0.2c-0.1,0-0.2,0-0.3-0.1c-0.1-0.1-0.2-0.1-0.3-0.1c-0.5,0-0.9,0-1.4,0
		c-0.5,0-0.9-0.1-1.4-0.4c-0.1-0.2-0.2-0.4-0.3-0.5c-0.1-0.1-0.2-0.3-0.3-0.5c-0.1-0.2,0-0.3,0-0.4c0.1,0,0.2-0.2,0.2-0.3
		c-0.3-2.3-0.5-4.7-0.5-7.1c-0.1-2.5-0.4-4.9-0.8-7.1c0.1-0.4,0.2-0.9,0.1-1.5c0-0.6-0.2-1.1-0.4-1.4c0-0.9,0-1.8,0-2.9
		c0-1.1-0.1-2.2-0.1-3.3c-0.1-1.1-0.1-2.3-0.1-3.4c0-1.1,0-2.2,0-3.1c0.1-0.8,0.1-1.6,0.1-2.3c0-0.7,0.1-1.5,0.2-2.3
		c0.1-0.8,0.1-1.6,0.1-2.5c-0.1-0.9-0.2-1.7-0.3-2.5c-0.1-0.8-0.3-1.7-0.4-2.5c-0.1-0.8-0.1-1.7-0.1-2.5c0.7,0,1.1,0.3,1.2,0.8
		c0.1,0.5,0.2,1.1,0.3,1.6c0.5-0.7,1.1-1.4,1.8-2.1c0.7-0.7,1.1-1.5,1.2-2.4c-0.2,0-0.4,0.1-0.6,0.4c-0.2,0.3-0.5,0.6-0.7,0.9
		c-0.3,0.3-0.5,0.6-0.8,0.8c-0.3,0.3-0.5,0.4-0.8,0.4c-0.3,0.1-0.5,0-0.7-0.3c-0.2-0.3-0.3-0.5-0.2-0.8c0.1-0.4,0.3-0.7,0.7-1
		c0.4-0.3,0.8-0.7,1.1-1c0.4-0.5,0.8-0.9,1.1-1.3c0.3-0.4,0.6-0.8,0.8-1.3c0.2,0,0.4,0,0.5,0.1c0.1,0.1,0.2,0.1,0.3,0.2
		c0.1-0.1,0.2-0.2,0.1-0.4c0-0.2,0-0.3,0.1-0.4c0.8,0.1,1.8,0.1,2.9,0.1c1.1,0,2.1,0,3,0.1c0.8-0.2,1.6-0.3,2.4-0.3
		c0.8-0.1,1.5,0.1,2,0.3c0.4-0.3,0.9-0.4,1.4-0.4c0.5,0,1-0.1,1.6-0.1c0.2,0,0.3,0,0.2,0.1c-0.1,0.1-0.1,0.2-0.1,0.3
		c2-0.2,3.9-0.3,5.6-0.4C182-117.6,184.1-117.7,186.6-117.8z M157.5-106.7c0.1-0.3,0.2-0.5,0.4-0.6c0.2-0.2,0.3-0.4,0.2-0.6
		c-0.1,0.3-0.2,0.5-0.4,0.6C157.5-107.1,157.4-106.9,157.5-106.7z M157.5-92.7c0.1,0,0.2-0.1,0.3-0.3c0.1-0.2,0.1-0.3,0-0.3
		c-0.1,0.1-0.2,0.2-0.3,0.3C157.5-92.9,157.5-92.8,157.5-92.7z M157.9-104c0.1-0.2,0.2-0.4,0.3-0.5c0.2-0.2,0.3-0.3,0.5-0.5
		c0.2-0.4,0.5-0.7,0.7-1.1c0.3-0.4,0.3-0.7,0.2-0.9c-0.3,0.4-0.8,0.9-1.3,1.4C157.9-105.2,157.7-104.6,157.9-104z M157.9-100.5
		c0.2-0.3,0.4-0.6,0.5-1c0.1-0.4,0.3-0.7,0.6-0.9c0.2-0.1,0.3,0,0.3,0c0.1,0.1,0.1,0.1,0.3,0c0.2-0.3,0.5-0.6,0.8-0.9
		c0.3-0.4,0.3-0.8,0-1.4c-0.2,0.4-0.4,0.7-0.7,1.1c-0.3,0.4-0.6,0.7-0.9,1.1c-0.3,0.4-0.6,0.7-0.8,1
		C157.9-101.1,157.8-100.8,157.9-100.5z M158.4-86.8c0.7-0.3,1.3-0.6,1.7-1.2c0.4-0.5,0.9-1,1.5-1.4c-0.1-0.3,0-0.5,0-0.6
		c0.1-0.2,0-0.3-0.2-0.5c-0.5,0.6-1,1.2-1.5,1.9C159.5-88,158.9-87.4,158.4-86.8z M160.3-81.5c0.1,0.2,0,0.3,0,0.4
		c-0.1,0.1-0.1,0.2-0.1,0.3c-0.3,0.3-0.5,0.4-0.7,0.6c-0.2,0.1-0.4,0.3-0.5,0.5c0,0.1-0.1,0.2-0.2,0.4c-0.1,0.2,0,0.2,0.3,0
		c0.4-0.3,0.9-0.6,1.4-1.1c0.5-0.5,0.9-0.8,1.4-1c0-0.1,0-0.2,0.1-0.2c0.1-0.3,0-0.5,0-0.6c-0.1-0.2-0.1-0.3,0-0.5
		c-0.2,0-0.4,0.1-0.5,0.2c-0.1,0.1-0.2,0.2-0.3,0.4c-0.1,0.2-0.2,0.3-0.3,0.5C160.7-81.6,160.6-81.5,160.3-81.5z M158.9-68.9
		c0.1,0.3,0.1,0.5,0.1,0.7c0,0.2,0.1,0.4,0.2,0.5c0.1-0.3,0.2-0.4,0.4-0.5c0.2-0.1,0.4-0.2,0.5-0.4c0-0.5,0.1-0.8,0.3-1.1
		c0.2-0.3,0.5-0.5,0.8-0.8c0.3-0.2,0.6-0.5,0.8-0.7c0.3-0.2,0.4-0.5,0.5-1c-0.6,0.3-1.3,0.8-1.9,1.6
		C160.1-69.9,159.5-69.3,158.9-68.9z M159-70.8c0.1-0.1,0.2-0.3,0.3-0.5c0.1-0.3,0.1-0.4,0-0.5c0,0.2-0.1,0.3-0.2,0.5
		C158.9-71.2,158.9-71,159-70.8z M160.3-66c-0.2,0.1-0.4,0.1-0.5,0.1c-0.1,0-0.3,0-0.5-0.1c0.1,0.1,0.1,0.2,0,0.3
		c-0.1,0.1-0.1,0.2,0,0.2l0.3-0.2c0.2,0.1,0.3,0,0.4,0C160.1-65.9,160.2-65.9,160.3-66c0.8-0.6,1.5-1.2,2.2-1.7
		c0.8-0.6,1.4-1.2,2.1-1.9c0.1-0.2,0.1-0.3-0.1-0.3c-0.2-0.1-0.3-0.2-0.3-0.3c-0.6,0.8-1.3,1.5-1.9,2.2
		C161.7-67.4,161-66.7,160.3-66z M159.4-100c0.2-0.3,0.5-0.4,0.8-0.6c0.3-0.1,0.4-0.4,0.4-0.7c-0.2,0-0.3,0.1-0.5,0.2
		c-0.1,0.1-0.3,0.3-0.3,0.5c-0.1,0.2-0.2,0.3-0.2,0.5C159.5-100,159.5-100,159.4-100z M160-85.7c0.1-0.1,0.3-0.2,0.5-0.2
		c0.2,0,0.4,0,0.5,0.1c0.1-0.2,0.2-0.4,0.3-0.6c0.1-0.2,0.2-0.4,0.5-0.4c-0.1,0-0.1-0.2-0.1-0.3c0.1-0.2,0.1-0.3,0-0.4
		c-0.3,0.3-0.6,0.6-0.9,1C160.4-86.2,160.2-85.9,160-85.7z M160.1-107.9c0.1,0,0.2,0,0.3,0.1c0.1,0.1,0.2,0.1,0.4,0
		c-0.1-0.2-0.1-0.3,0-0.5c0-0.2,0-0.3-0.1-0.4c-0.1,0.2-0.2,0.3-0.3,0.4C160.2-108.2,160.1-108,160.1-107.9z M160.3-110.3
		c0.2-0.1,0.4-0.2,0.6-0.4c-0.1,0-0.1-0.1-0.1-0.3c0.1-0.2,0-0.3-0.1-0.3c-0.1,0.2-0.2,0.3-0.2,0.5
		C160.5-110.5,160.4-110.4,160.3-110.3z M160.6-92.7c0.2,0,0.3,0,0.4,0.1c0.1,0.1,0.2,0.1,0.3,0.2c0.2-0.1,0.2-0.3,0.2-0.6
		c0-0.3-0.1-0.5-0.2-0.6c-0.1,0.2-0.2,0.4-0.3,0.5C160.8-93.1,160.7-92.9,160.6-92.7z M160.9-84.1c0.2-0.1,0.4-0.3,0.6-0.5
		c0.2-0.2,0.3-0.4,0.2-0.7c-0.1,0.2-0.3,0.4-0.5,0.6C161-84.4,160.9-84.3,160.9-84.1z M161.2-79.1c0.1,0,0.2,0,0.3-0.1
		c0.1-0.1,0.2-0.1,0.3-0.2c0-0.2-0.1-0.3-0.2-0.4c-0.1,0.2-0.2,0.3-0.3,0.3C161.2-79.4,161.1-79.3,161.2-79.1z M161.6-76.9
		c0.1,0,0.2,0,0.3,0c0.1,0.1,0.2,0.1,0.3,0c0.1-0.2,0-0.3,0-0.5c-0.1-0.2-0.2-0.2-0.3,0c0.2,0.1,0.2,0.1,0,0.2
		C161.6-77.1,161.5-77,161.6-76.9z M180.4-116.5c-0.1,0-0.2,0-0.3-0.1c-0.1-0.1-0.1-0.1-0.3,0c-3,0.1-6.1,0.2-9.2,0.4
		c-3.1,0.2-6.1,0.4-9,0.5c0.4,1.8,0.6,3.4,0.5,4.9c-0.1,1.5-0.2,3-0.3,4.6c-0.1,1.1-0.1,2.1-0.1,3c0.1,0.9,0.1,1.9,0.3,2.9
		c0.1,2.2,0.4,4.5,0.8,6.8c0.4,2.3,0.5,4.7,0.3,7.2c0.4,0.3,0.7,0.7,0.7,1.1c0,0.4-0.2,0.8-0.6,1.1c0.2,1.2,0.1,2.2-0.1,3.2
		c-0.2,1-0.3,1.9-0.1,2.8c0.1,0.3,0.2,0.5,0.3,0.7c0.1,0.2,0.2,0.5,0.3,0.7c0.1,0.6,0.2,1.1,0.1,1.7c0,0.6,0.1,1.1,0.4,1.7
		c0,0.2,0,0.3-0.1,0.3c-0.1,0.1-0.1,0.2,0,0.4c0.2,0.1,0.3,0.3,0.3,0.5c0,0.3,0,0.5,0.2,0.6c0,0.3-0.1,0.4-0.3,0.4
		c-0.2,0-0.3,0.2-0.2,0.5c0.2,0.2,0.3,0.1,0.3-0.2c0.1-0.3,0.3-0.4,0.6-0.3c0.3,0.3,0.6,0.4,0.9,0.3c0.3,0,0.7,0,1.2,0
		c0.4,0.1,0.9,0.1,1.4,0.3c0.5,0.1,1,0.2,1.5,0.3c0.6,0.1,1.1,0.2,1.7,0.4c0.6,0.2,1,0.2,1.2,0.2c0.2-0.1,0.4-0.2,0.5-0.3
		c0.1-0.2,0.3-0.3,0.4-0.5c0.1-0.2,0.3-0.3,0.5-0.3c0.2-0.1,0.4-0.1,0.7,0c0.1,0.1,0.2,0.3,0.1,0.5c0,0.2,0,0.4,0,0.6
		c1.5,0,2.9,0,4.4,0c1.5,0,3.1,0,4.7-0.2c0.4,0.3,0.9,0.4,1.6,0.3c0.7-0.1,1.2,0,1.7,0.1c-0.1-1.6-0.1-3.1,0.2-4.4
		c0.2-1.4,0.3-2.9,0.3-4.4c-1.1,0.1-2.2,0.1-3.4,0.1c-1.2,0-2.4,0-3.6,0.1c-1.2,0.1-2.4,0.1-3.5,0.2c-1.2,0.1-2.2,0.2-3.2,0.4
		c-0.3,0.1-0.6,0.1-0.9,0.1c-0.3,0-0.6,0-0.9,0.1c-0.3,0.1-0.5,0.2-0.8,0.4c-0.2,0.2-0.5,0.2-0.8,0.2c-0.5-0.1-0.7-0.3-0.8-0.8
		c-0.1-0.5-0.2-1.1-0.1-1.7c0-0.6,0.1-1.3,0.1-1.9c0.1-0.6,0.1-1,0-1.3c-0.2-0.7-0.4-1.2-0.6-1.7c-0.2-0.5-0.3-1.1-0.3-1.8
		c0.2-0.2,0.5-0.2,0.8,0c0-0.4,0.1-0.7,0.4-0.8c0.3-0.2,0.6-0.3,1-0.3c0.4,0,0.8-0.1,1.2-0.1c0.4,0,0.8-0.1,1.1-0.3
		c-0.1-1.4-0.1-2.6,0-3.7c0.1-1,0.2-2,0-3c-0.7-0.3-1.3-0.2-2,0c-0.6,0.3-1.4,0.5-2.2,0.6c-0.2-0.1-0.3,0-0.3,0.2
		c0,0.2-0.1,0.3-0.3,0.3c-0.6-0.2-0.9-0.5-1-1c-0.2-0.7-0.1-1.5,0.1-2.4c0.2-0.9,0.3-1.8,0.3-2.9c0-0.6,0-1.2,0-1.7
		c0-0.5,0-1.1,0-1.6c0-0.5,0-1-0.1-1.5c-0.1-0.5-0.1-1-0.1-1.5c0-0.5,0.1-0.9,0.3-1.3c0.2-0.4,0.5-0.6,0.9-0.8
		c0.1-0.1,0.3-0.1,0.6,0c0.3,0.1,0.5,0.1,0.8,0c0.4-0.1,0.9-0.1,1.3-0.2c0.4-0.1,0.8-0.1,1.2-0.2c0.7-0.1,1.3-0.1,1.9,0
		c0.6,0.1,1.2,0,1.8-0.1c0.4,0,0.9-0.1,1.2-0.2c0.4-0.1,0.8-0.2,1.2-0.2c1.1-0.1,2.1-0.2,3.1-0.2c1,0,2.1-0.1,3.1-0.2
		c0-0.9,0.1-2,0.2-3.3s0.3-2.6,0.5-3.8c-0.3-0.2-0.7-0.2-1.1-0.3c-0.5,0-1,0-1.6,0c-0.6,0-1.1,0.1-1.7,0.1
		C181.5-116.5,180.9-116.5,180.4-116.5z M162.9-66.1c0.3,0,0.5,0,0.7,0c0.2,0.1,0.5,0.1,0.8,0c0.6-0.5,1.1-1,1.6-1.6
		s0.9-1.1,1.4-1.8c-0.2,0-0.4,0-0.5-0.1c-0.1,0-0.3,0-0.6,0c-0.2,0.9-0.6,1.6-1.4,1.9C164.2-67.1,163.5-66.6,162.9-66.1z
		 M168.3-68.9c-0.2,0.7-0.5,1.2-1,1.6c-0.5,0.3-0.9,0.8-1.1,1.3c0.4,0.1,0.8,0.1,1.1-0.1c0.3-0.2,0.4-0.3,0.2-0.4
		c0.4-0.4,0.8-0.8,1.2-1.2c0.4-0.4,0.8-0.8,1.1-1.3c-0.2-0.1-0.3-0.1-0.5-0.1s-0.3,0-0.4-0.2c-0.1,0.1-0.1,0.2-0.1,0.3
		C168.6-68.8,168.5-68.8,168.3-68.9z M168.6-66c0.1-0.1,0.2-0.1,0.4,0c0.1,0.1,0.2,0,0.2-0.1c-0.1,0-0.1-0.1,0-0.4
		c0.1-0.3,0.1-0.3,0-0.2c-0.1,0.2-0.2,0.3-0.4,0.3C168.7-66.3,168.6-66.2,168.6-66z M169.6-66.9c0.4-0.3,0.8-0.5,1.1-0.8
		c0.3-0.3,0.6-0.6,0.9-0.9c-0.2,0.1-0.4,0-0.4-0.1c0-0.1-0.1-0.2-0.3-0.2c0,0.4-0.2,0.7-0.5,1C170.1-67.6,169.8-67.3,169.6-66.9z
		 M170.7-65.9c0.1,0.1,0.3,0.1,0.4,0.1c0.2,0,0.3,0,0.5,0.1c-0.1-0.1,0-0.3,0.1-0.6c0.1-0.3,0.1-0.5-0.1-0.5
		c-0.1,0.3-0.2,0.4-0.4,0.5C171.1-66.1,170.9-66,170.7-65.9z M172.5-106.1c-0.2,0.6-0.5,1.1-0.8,1.5c-0.3,0.4-0.6,0.9-0.8,1.4
		c0.4,0,0.6,0,0.8-0.1c-0.1-0.4-0.1-0.7,0-0.9c0.1-0.3,0.3-0.5,0.5-0.7c0.2-0.2,0.4-0.4,0.6-0.6c0.2-0.2,0.3-0.4,0.3-0.7
		c-0.1,0.1-0.2,0.1-0.3,0.1C172.7-106.2,172.6-106.2,172.5-106.1z M172.4-65.7c0.2,0,0.3,0,0.3,0.1c0.4-0.4,0.8-0.8,1.2-1.3
		c0.4-0.5,0.7-0.9,0.9-1.3c-0.4,0.5-0.8,0.8-1.3,1.2C173.1-66.7,172.7-66.2,172.4-65.7z M175.2-106.1c0.1-0.1,0.1-0.2,0.2-0.3
		c0.1-0.1,0.2-0.2,0.2-0.3h-0.4c-0.1,0.1-0.1,0.2-0.1,0.3C175-106.1,175.1-106.1,175.2-106.1z M177.4-106.6c0.1,0.6-0.1,1-0.6,1.3
		c-0.5,0.3-0.8,0.7-1,1.1c0.1,0.1,0.3,0.1,0.5,0c0.2-0.1,0.4-0.1,0.7,0c-0.2-0.6-0.1-1.1,0.3-1.4c0.4-0.3,0.6-0.7,0.8-1.1
		C177.7-106.8,177.5-106.7,177.4-106.6z M176.6-67.6c0.1-0.2,0.3-0.3,0.5-0.4c0.3-0.1,0.5-0.2,0.6-0.3h-1.2c0.1,0.2,0,0.3-0.1,0.4
		C176.4-67.8,176.4-67.7,176.6-67.6z M180.3-68.3c-0.3,0.6-0.7,1-1.1,1.4c-0.5,0.4-0.8,0.9-0.9,1.6c0.3-0.1,0.6-0.3,0.6-0.5
		c0.1-0.3,0.2-0.5,0.3-0.8c0.3-0.3,0.6-0.6,0.9-0.8c0.3-0.3,0.5-0.5,0.7-0.8C180.8-68.3,180.3-68.3,180.3-68.3z M180.2-106.9
		c-0.1,0.6-0.4,1.1-0.8,1.3c-0.4,0.3-0.8,0.7-1.1,1.2c0.2,0,0.4,0,0.5,0c0.1,0,0.2-0.1,0.3-0.1c0.2-0.5,0.5-0.9,0.9-1.3
		c0.4-0.4,0.7-0.8,1-1.2C180.7-107.1,180.4-107,180.2-106.9z M180.7-66.1c0.3-0.3,0.6-0.5,1-0.6c0.4-0.2,0.6-0.5,0.7-0.9
		c-0.4,0.2-0.7,0.4-1.1,0.7C181-66.6,180.8-66.3,180.7-66.1z M181.6-105c0.4-0.4,0.8-0.7,1.2-1c0.4-0.3,0.8-0.7,1.1-1.1
		c-0.3,0-0.5,0-0.5-0.1c-0.1-0.1-0.3-0.1-0.5,0c0.1,0.6,0,1-0.4,1.3C182.1-105.7,181.8-105.4,181.6-105z M183.9-65.1h0.7
		c0-0.2,0.1-0.4,0.4-0.5c0.3-0.2,0.2-0.3,0-0.4c-0.2,0.2-0.4,0.3-0.6,0.4C184.2-65.5,184-65.3,183.9-65.1z M186-67.2
		c0.1-0.3,0.3-0.4,0.4-0.5c0.2-0.1,0.3-0.3,0.4-0.5c-0.3,0.1-0.5,0.1-0.7,0c-0.2,0-0.3-0.1-0.5-0.1c-0.1,0.1,0,0.3,0.1,0.5
		C185.9-67.7,186-67.4,186-67.2z"/>
	<path class="st0" d="M221.8-102.6c-1,0.5-1.8,1-2.5,1.8c-0.7,0.7-1.6,1.2-2.7,1.5c-0.2,0.4-0.4,0.7-0.6,0.8
		c-1.5-0.5-2.6-1.2-3.6-2.4c-0.6,0.1-1.1,0.1-1.3,0c-0.3-0.1-0.5-0.3-0.8-0.7c-0.2,2.9-0.2,5.9-0.2,9c0.1,3.1,0.3,6.1,0.6,9
		c0.1,0.2,0,0.3-0.1,0.4c-0.1,0.1-0.2,0.2-0.1,0.4c0.6-0.2,1.4-0.4,2.4-0.5c1-0.1,1.8-0.4,2.5-0.8c0.4,0.2,0.7,0.2,0.8,0.3
		c0.1,0,0.4-0.1,0.8-0.3c1.4,0.2,2.7,0.4,4.1,0.5c1.4,0.2,2.6,0.5,3.8,0.9c-0.1,0.7-0.3,1.3-0.6,1.9c-0.4,0.5-0.7,1.1-1,1.8
		c-0.1,0.4-0.2,0.8-0.3,1.2c-0.1,0.4-0.2,0.8-0.3,1.2c-0.1,0.3-0.2,0.5-0.4,0.6c-0.1,0.2-0.2,0.4-0.3,0.6c-0.1,0.3-0.1,0.5-0.1,0.8
		c0.1,0.3,0,0.5-0.1,0.8c-0.1,0.3-0.2,0.5-0.3,0.8c-0.2,0.3-0.3,0.5-0.4,0.8c-0.1,0.3-0.2,0.5-0.3,0.9c-0.1,0.3-0.1,0.6-0.3,0.9
		c-0.1,0.1-0.2,0.2-0.3,0.3c-0.1,0.1-0.3,0.2-0.4,0.3c-0.2,0.3-0.3,0.6-0.4,0.9c-0.1,0.4-0.4,0.6-0.8,0.7c-0.1,0.2-0.1,0.3,0,0.4
		c0.1,0.1,0.1,0.3,0,0.6c-0.5,0.2-0.9,0.4-1.2,0.7c-0.4,0.3-0.8,0.6-1.2,0.9c-0.2,0.1-0.5,0.2-0.7,0.3c-0.2,0.1-0.5,0.3-0.7,0.4
		c-0.5,0.3-0.9,0.5-1.5,0.6c-0.5,0.2-1.2,0.2-2.1,0.2c-0.2,0-0.4,0-0.6-0.1c-0.2-0.1-0.4-0.1-0.6-0.2c-0.8-0.1-1.6-0.1-2.5,0
		c-0.9,0.1-1.8,0-2.7-0.2c-0.3-0.1-0.6-0.2-0.9-0.4c-0.3-0.2-0.6-0.3-0.9-0.5c-0.4-0.2-0.8-0.3-1.1-0.4c-0.3-0.1-0.6-0.2-0.8-0.4
		c-0.6-0.4-1-0.8-1.3-1.2c-0.3-0.4-0.8-0.7-1.5-0.9c-0.3-0.5-0.6-0.9-1.1-1.3c-0.5-0.4-0.8-0.8-1.1-1.4c-0.3-0.7-0.5-1.5-0.6-2.4
		c-0.1-1-0.1-2-0.3-3.1c0-0.6-0.1-1.1-0.2-1.6c-0.1-0.5-0.2-1-0.3-1.5c-0.1-0.7-0.1-1.2,0-1.7c0-0.5,0-1.1,0-1.9c0-1.5,0-3,0.1-4.6
		c0.1-1.6,0.1-3.2,0.2-4.9c0.1-0.4,0.1-0.8,0-1.2c0-0.4,0-0.8,0.1-1.1c0.1-0.2,0.1-0.4,0.1-0.7c0-0.3,0-0.5,0-0.8
		c0.1-1.4,0.2-3,0.2-4.6c0-1.6,0.2-3.1,0.7-4.4c0-0.2,0-0.3-0.1-0.4c-0.1-0.1-0.1-0.2-0.1-0.3c0.3-0.6,0.5-1.3,0.6-2.2
		c0.1-0.8,0.3-1.6,0.6-2.2c0.1-0.2,0.3-0.3,0.5-0.2c0.2,0.1,0.4,0,0.6-0.2c1.4-1,2.9-1.9,4.5-2.7c1.6-0.8,3-1.8,4.1-2.9h0.9
		c0.7-0.5,1.6-0.8,2.6-1c1-0.2,2-0.2,3,0c1,0.1,1.8,0.4,2.7,0.8c0.8,0.4,1.4,0.9,1.7,1.5c0.1,0.1,0.1,0.2,0,0.2c0,0.1,0,0.1,0,0.2
		c0.1,0.2,0.3,0.4,0.5,0.7c0.3,0.3,0.4,0.6,0.5,0.9c0,0.1,0,0.2,0,0.3c0,0.1,0,0.2,0,0.3c0.4,1.1,1,2.3,1.6,3.5
		c0.6,1.2,1.1,2.3,1.2,3.3c0,0.2,0,0.3-0.1,0.4c-0.1,0.1-0.1,0.3-0.1,0.4c0,0.1,0,0.2,0.1,0.3c0.1,0.1,0.1,0.2,0.1,0.3
		c0.1,0.3,0.1,0.5,0,0.9C221.7-103.2,221.7-102.9,221.8-102.6z M196.4-88.6c0.3-0.1,0.6-0.3,0.8-0.6c0.2-0.3,0.3-0.5,0.5-0.8
		c-0.3,0.1-0.5,0-0.6-0.2c-0.1-0.2-0.3-0.3-0.5-0.4c-0.1,0.4-0.1,0.8,0.1,1.1C196.7-89.1,196.7-88.8,196.4-88.6z M196.7-86.1
		c0.1-0.2,0.1-0.3,0.3-0.4c0.1-0.1,0.2-0.2,0.2-0.4c-0.2,0.1-0.3,0-0.3,0c0-0.1-0.2-0.1-0.4,0c0.1,0.2,0.1,0.4,0.1,0.5
		C196.5-86.3,196.6-86.2,196.7-86.1z M197.4-84.6h-0.9c0.1,0.3,0.1,0.5,0.1,0.6c-0.1,0.2,0,0.3,0.1,0.5c0.5-0.6,1-1.1,1.6-1.5
		c0.6-0.5,1.1-1,1.5-1.5c0-0.4-0.1-0.5-0.4-0.5c-0.3,0.4-0.7,0.7-1,1.1C198-85.5,197.7-85.1,197.4-84.6z M196.7-91.7
		c0.2-0.3,0.3-0.5,0.5-0.6s0-0.3-0.5-0.5c0.1,0.2,0,0.3-0.1,0.6C196.5-91.9,196.6-91.8,196.7-91.7z M197.2-81.8
		c-0.3,0-0.5-0.1-0.5-0.2c0.1,0.1,0.1,0.3,0,0.5c-0.1,0.2,0,0.3,0.1,0.3c0.2-0.3,0.6-0.5,1-0.8c0.4-0.3,0.9-0.6,1.3-0.9
		c0.4-0.3,0.7-0.6,0.9-1c0.2-0.3,0.2-0.7,0-1c-0.5,0.6-0.9,1.1-1.4,1.5C198-82.9,197.6-82.4,197.2-81.8z M198.8-80.9
		c0.2-0.1,0.3-0.2,0.5-0.3c0.1-0.1,0.3-0.2,0.5-0.3c-0.3,0.1-0.5,0.1-0.6,0.3C199-81.2,198.9-81.1,198.8-80.9l-0.3-0.2l0.1,0.2
		c-0.4,0.3-0.8,0.5-1.1,0.7c-0.4,0.2-0.6,0.5-0.8,0.9c0.4-0.2,0.7-0.4,1-0.7c0.3-0.3,0.6-0.5,0.9-0.8l0.2,0.1L198.8-80.9L198.8-80.9
		z M198.2-102.2c-0.2-0.1-0.3-0.2-0.4-0.3c-0.1-0.1-0.2-0.2-0.5-0.3c-0.1,0.4-0.1,0.7,0,0.9c0.1,0.2,0,0.5-0.2,0.7
		c0.4-0.3,0.9-0.6,1.4-0.8c0.5-0.2,0.9-0.5,1.3-1c-0.3,0.1-0.5,0.2-0.8,0.3C198.7-102.4,198.5-102.3,198.2-102.2z M197.2-75.1
		c0.2,0,0.4-0.1,0.4-0.2c0.1-0.1,0.1-0.2,0.3-0.3c-0.2-0.2-0.4-0.2-0.7-0.2C197.2-75.5,197.2-75.3,197.2-75.1z M197.4-99.4
		c0.4,0,0.7-0.2,1.1-0.3c0.3-0.2,0.7-0.1,1.1,0.1c-0.1-0.3,0-0.5,0.1-0.8s0.1-0.5-0.1-0.6c-0.4,0.3-0.8,0.5-1.2,0.7
		C198-100.1,197.6-99.8,197.4-99.4z M197.7-97.5c0.1-0.2,0.2-0.3,0.3-0.3c0.2-0.1,0.3-0.2,0.3-0.3c-0.3-0.1-0.5,0-0.7,0.2
		C197.5-97.7,197.5-97.6,197.7-97.5z M198.2-70.7c0.1-0.3,0.3-0.5,0.5-0.6c0.2-0.2,0.4-0.4,0.5-0.6c-0.3,0.3-0.6,0.3-0.9,0.2
		c-0.3-0.1-0.5-0.2-0.6-0.2c0.1,0.2,0.2,0.4,0.2,0.7C197.8-71,197.9-70.8,198.2-70.7z M199.5-107.8c-0.3,0.3-0.7,0.6-1,0.9
		c-0.3,0.3-0.5,0.7-0.6,1.1c0.2-0.4,0.5-0.7,0.9-1c0.4-0.3,0.7-0.6,1.1-0.8c0.4-0.3,0.7-0.6,1-0.9c0.3-0.3,0.4-0.7,0.5-1.1
		c-0.3,0.3-0.6,0.6-0.9,0.9C200.2-108.4,199.9-108.1,199.5-107.8z M197.9-95.6c0.3-0.1,0.7-0.2,1.1-0.5c0.4-0.3,0.4-0.5,0.1-0.8
		c-0.1,0.3-0.3,0.4-0.6,0.6C198.2-96.2,198-95.9,197.9-95.6z M198.2-90.3c0.1-0.2,0.5-0.4,1.1-0.5v-1.1c-0.3,0.1-0.6,0.3-0.9,0.6
		S198-90.7,198.2-90.3z M198.1-93.2c0.3-0.1,0.5-0.1,0.6-0.3c0.1-0.1,0.3-0.2,0.5-0.3c-0.1-0.1-0.1-0.2,0-0.4c0.1-0.2,0-0.2-0.2-0.2
		c-0.1,0.3-0.3,0.4-0.6,0.5C198.2-93.8,198.1-93.6,198.1-93.2z M198.2-108.8c0.3,0.1,0.5,0,0.7-0.2c0.2-0.2,0.3-0.4,0.5-0.6
		c0.2-0.2,0.5-0.3,0.8-0.5c0.3-0.2,0.4-0.3,0.3-0.5c-0.3,0.4-0.7,0.6-1.2,0.9C198.8-109.5,198.5-109.2,198.2-108.8z M198.2-88
		c0.3-0.1,0.6-0.3,1-0.6c0.4-0.3,0.4-0.5,0-0.8c-0.1,0.3-0.2,0.5-0.5,0.6C198.3-88.6,198.2-88.4,198.2-88z M198.2-73.8
		c0.6-0.4,1.2-0.7,1.8-1.1c0.6-0.4,1.2-0.8,1.8-1.1c-0.1,0-0.1-0.1-0.1-0.2c0.1-0.2,0.1-0.3,0-0.4c-0.8,0.4-1.4,0.8-1.9,1.3
		S198.7-74.4,198.2-73.8z M199.5-69.3c-0.1-0.2,0-0.2,0.1-0.3c0.1,0,0.2-0.1,0.2-0.2c-0.1,0-0.2,0-0.3,0c-0.1,0-0.2,0-0.2-0.2
		c0,0-0.1-0.1-0.2-0.1c-0.2,0.1-0.3,0.2-0.2,0.4C199.1-69.5,199.3-69.4,199.5-69.3z M199-77.1c0.4,0,0.8-0.2,1.3-0.5
		c0.4-0.3,0.8-0.6,1.1-0.9c-0.1,0-0.2,0-0.2-0.1c0,0,0-0.1-0.1-0.2c-0.3,0.4-0.6,0.6-1.1,0.8C199.7-77.7,199.3-77.4,199-77.1z
		 M199.1-79.1c0.3-0.3,0.6-0.5,1-0.6c0.4-0.1,0.6-0.4,0.7-0.8c-0.3,0.1-0.7,0.3-1,0.6C199.5-79.5,199.2-79.3,199.1-79.1z
		 M201.6-74.3c-0.4,0.3-0.8,0.5-1.1,0.8c-0.4,0.3-0.7,0.5-1.1,0.8c0.4,0.3,0.9,0.2,1.2-0.2c0.4-0.4,0.8-0.6,1.3-0.6
		c-0.1-0.1,0-0.3,0-0.5C202-74.4,201.9-74.4,201.6-74.3z M200.5-70.5c0.3-0.2,0.7-0.3,1-0.5c0.3-0.2,0.6-0.4,0.7-0.7
		c-0.1,0-0.1-0.1-0.1-0.3c-0.6,0-0.9,0.2-1.1,0.5C200.8-71.2,200.7-70.9,200.5-70.5z M201-68c0.1-0.1,0-0.2-0.1-0.3
		c-0.1-0.1-0.2-0.1-0.3,0.1c0.1,0,0.2,0,0.2,0.1C200.8-68.1,200.9-68,201-68z M216.7-111.4c-0.1-0.4-0.1-0.7,0-1.2
		c0.1-0.4,0.1-0.8,0-1.3c-0.2-1-0.8-1.7-1.7-2.1c-0.9-0.5-2.1-0.6-3.4-0.5c-0.3,0-0.6,0.1-0.8,0.2c-0.3,0.2-0.5,0.3-0.7,0.3
		c-0.2,0.1-0.3,0.1-0.5,0.1c-0.1,0-0.2,0-0.3,0c-0.7,0.4-1.3,0.8-1.8,1.2c-0.5,0.5-1.1,0.8-1.7,1.1c-0.2,0.6-0.6,1.1-1,1.5
		c-0.5,0.4-0.8,0.9-1,1.5c-0.2,1-0.5,2-0.9,2.9s-0.7,1.8-1,2.9c0.3,0.3,0.6,0.6,0.8,0.9c-0.1,0.3-0.3,0.5-0.5,0.6
		c-0.2,0.2-0.4,0.3-0.5,0.5c-0.2,2.1-0.4,4.2-0.6,6.4s-0.1,4.2,0,6.3c-0.2,0.1-0.1,0.2,0.2,0.2c0.3,0.1,0.4,0.2,0.4,0.4
		c0.1,0.4,0.1,0.6-0.2,0.6c-0.2,0.1-0.3,0.2-0.3,0.5c0.2,0.3,0.3,0.5,0.2,0.8c-0.1,0.3-0.1,0.5,0,0.8c0.1,0.5,0.2,0.9,0.3,1.4
		c0.2,0.5,0.3,0.9,0.4,1.4c0.1,0.6,0.2,1.1,0.1,1.6c0,0.5,0,1,0.1,1.6c0.1,0.4,0.2,0.8,0.4,1.3c0.1,0.4,0.3,0.9,0.4,1.3
		c0.2,0.9,0.4,1.8,0.4,2.8c0,0.9,0.1,1.9,0.2,2.8c0,0.3,0.1,0.4,0.3,0.5c0.2,0.1,0.3,0.2,0.3,0.5c-0.2,0.2-0.3,0.4-0.3,0.6
		c0,0.3,0.1,0.5,0.1,0.8c0.6,0.4,1.3,0.9,2.1,1.5c0.8,0.6,1.7,1,2.6,1.2c1.5,0.4,2.9,0.4,4.3,0c1.4-0.4,2.7-0.7,4-0.9
		c0.7-0.9,1.3-1.7,1.9-2.7c0.6-0.9,1-2,1.3-3.1c0.1-0.2,0.1-0.3,0-0.5c0-0.2,0-0.4,0-0.5c0.3-1.1,0.7-2.2,1.2-3.3
		c0.5-1.1,1-2.2,1.3-3.3c-0.7,0-1.5-0.1-2.3-0.2c-0.8-0.1-1.6-0.2-2.4-0.3c-0.5,0.7-0.9,1.5-1.2,2.4c-0.3,0.9-0.6,1.8-0.9,2.6
		c-0.5,0.3-0.9,0.6-1.2,1.1c-0.3,0.5-0.8,0.7-1.4,0.8c-0.5,0.1-0.8,0-1.2-0.1c-0.3-0.1-0.7-0.1-1.2,0c-0.2-0.4-0.6-0.8-1.1-1.2
		c-0.5-0.4-0.8-0.8-0.8-1.2c-0.1-0.9-0.1-1.8-0.1-2.9c0-1,0-2.1,0-3.2c0.1-1.4,0-2.8-0.3-4.2c-0.2-1.4-0.3-2.9-0.3-4.4
		c-0.1-0.9,0-1.7,0.1-2.5c0.1-0.8,0.2-1.6,0.2-2.5c0.1-1,0.1-1.9,0-2.9c-0.1-1,0-2,0-2.9c0.1-0.9,0.3-1.8,0.5-2.7
		c0.3-0.8,0.8-1.6,1.4-2.2c0.9-0.2,1.6-0.1,2.2,0.2c0.5,0.3,1,0.6,1.3,1.1c0.3,0.5,0.6,1,0.8,1.6c0.2,0.6,0.4,1.2,0.6,1.7
		c0.3,0.1,0.5,0,0.6-0.2c0.1-0.2,0.3-0.3,0.6-0.2c0.2,0.2,0.4,0.3,0.7,0.3c0.3,0,0.6,0,0.8-0.1c0.3-0.1,0.6-0.2,0.9-0.2
		c0.3-0.1,0.6,0,0.9,0.1c0.1-1.4-0.1-2.6-0.5-3.5c-0.5-0.9-0.9-1.8-1.1-2.9C217.5-110.5,216.9-110.8,216.7-111.4z M202-111.7
		c-0.1,0.2-0.1,0.2-0.1,0.3c0.1,0,0.1,0,0.2,0c0.1,0,0.1-0.1,0.1-0.1C202.2-111.6,202.2-111.6,202-111.7z M201.9-67.2
		c0.1,0.3,0.3,0.3,0.5,0.1c0.2-0.2,0.3-0.4,0.2-0.5c-0.1,0.2-0.2,0.2-0.3,0.2S202-67.3,201.9-67.2z M206.4-66.7c0.2,0,0.3,0,0.4-0.1
		c0.1-0.1,0.3-0.1,0.4-0.1c-0.1-0.3-0.2-0.4-0.5-0.3C206.4-67.2,206.3-67,206.4-66.7z M206.5-65.3c0.3,0,0.5,0,0.7,0
		c0.2,0,0.4-0.1,0.5-0.2c-0.1-0.1-0.2-0.2-0.1-0.3s-0.1-0.2-0.3-0.2c-0.1,0.2-0.2,0.2-0.4,0.3C206.6-65.7,206.5-65.5,206.5-65.3z
		 M209.5-65.3c0.2,0,0.4-0.1,0.5,0c0.1,0,0.3,0.1,0.5,0.1c-0.1-0.1-0.1-0.2-0.1-0.4c0-0.2-0.1-0.2-0.3-0.2c-0.1,0.1-0.2,0.1-0.4,0.1
		C209.5-65.7,209.4-65.5,209.5-65.3z M210.7-78.8c-0.1,0.2,0,0.3,0.1,0.6c0.1,0.2,0.2,0.5,0.3,0.7c0.3-0.1,0.5-0.2,0.6-0.3
		c0.1-0.1,0.3-0.2,0.5-0.3c-0.3,0-0.5-0.1-0.6-0.3c-0.1-0.2-0.2-0.4-0.3-0.6c-0.1,0.1-0.2,0.1-0.3,0.1
		C210.8-78.9,210.7-78.9,210.7-78.8z M211.3-106.2c0-0.1,0.1-0.2,0.3-0.2c0.2-0.1,0.1-0.1-0.1-0.2c0,0.1-0.1,0.2-0.2,0.3
		C211.1-106.3,211.1-106.3,211.3-106.2z M212.2-105.2c-0.5,0.4-0.5,0.5,0,0.3c0.1,0,0.3-0.1,0.6-0.3c0.3-0.1,0.4-0.3,0.3-0.5
		C212.7-105.5,212.4-105.4,212.2-105.2z M212.7-101.7c0.3,0.2,0.5,0.2,0.7-0.1c0.2-0.3,0.2-0.5,0.1-0.6c-0.1,0.2-0.2,0.3-0.4,0.3
		C212.9-102.1,212.8-102,212.7-101.7z M213.3-78.8c-0.1,0-0.2,0-0.3,0.1c-0.2,0.1-0.2,0.1,0,0.2c0.1-0.2,0.3-0.3,0.6-0.3
		c0.3-0.1,0.5-0.2,0.8-0.3c0.2-0.2,0.4-0.4,0.6-0.6c0.2-0.3,0.2-0.4,0-0.5L213.3-78.8z M213-65.4c0.3-0.2,0.7-0.4,1.1-0.5
		c0.4-0.2,0.7-0.4,1-0.6c-0.3,0.1-0.6,0.1-0.8,0.2c-0.3,0.1-0.6,0.1-0.9,0c0,0.2-0.1,0.4-0.3,0.5S212.9-65.5,213-65.4z M213.9-103.7
		c0-0.1,0-0.2-0.1-0.2c-0.1-0.1-0.1-0.1,0-0.2c-0.3-0.1-0.5,0-0.5,0.2c0.2-0.1,0.3-0.1,0.4,0.1C213.8-103.6,213.8-103.6,213.9-103.7
		z M214.3-100.5c0.1,0.3,0.3,0.4,0.5,0.4c0.3,0,0.5,0,0.7-0.2c-0.3-0.6-0.4-1.1-0.3-1.5c-0.2,0.2-0.4,0.4-0.6,0.6
		C214.6-101,214.4-100.8,214.3-100.5z M217.9-101.7l-0.3,0.2C217.6-101.6,217.7-101.7,217.9-101.7
		C217.9-101.8,217.9-101.8,217.9-101.7z"/>
	<path class="st0" d="M262-102.9c-0.6,0.1-1.2,0.1-1.7,0c-0.5-0.1-0.9,0.1-1.2,0.5c-0.4,0-0.7-0.1-1-0.2c-0.3-0.1-0.6-0.1-1.1-0.1
		c-0.2,0.1-0.3,0-0.3-0.2s-0.1-0.2-0.4-0.1c-0.1,3.7-0.3,7.4-0.8,11.2c-0.5,3.8-0.7,7.4-0.8,10.9c0,0.5,0,1,0.1,1.5
		c0.1,0.5,0.1,1,0,1.6c-0.1,1-0.1,1.9-0.3,2.9c-0.1,1-0.2,2-0.2,3c-0.1,0.6,0,1.1,0.1,1.6c0.1,0.5,0,1-0.3,1.6
		c-0.4-0.2-0.7-0.2-0.8-0.1s-0.5,0.2-1.1,0.2c-0.3,0.3-0.6,0.5-0.9,0.6c-0.1,0.7-0.4,1.2-0.9,1.6c-0.5,0.4-0.9,0.8-1.2,1.3
		c0.4-0.1,0.7-0.3,0.9-0.5c0.2-0.2,0.4-0.5,0.6-0.8c0.2-0.3,0.3-0.6,0.5-0.9c0.2-0.3,0.4-0.6,0.7-0.8c0.2,0,0.3,0,0.5,0
		s0.3,0.1,0.4,0.2c0.1-0.1,0.2-0.2,0.3-0.3c0.1-0.1,0.2-0.2,0.3-0.3c0.8,0,1.4,0.2,1.5,0.7c-0.5,0.4-0.8,0.8-1.2,1.2
		c-0.3,0.5-0.7,0.9-1,1.3c-0.1,0.2,0,0.3,0.2,0.3s0.2,0.1,0.1,0.3c-0.2,0.2-0.5,0.3-0.8,0.2c-0.3,0.3-0.6,0.6-0.7,1
		c-0.1,0.3-0.5,0.6-1.1,0.7c0-0.2,0-0.3,0.1-0.3c0.1,0,0-0.1-0.1-0.2c-0.2-0.1-0.3,0-0.3,0.2c0,0.2-0.1,0.3-0.4,0.2
		c-0.1-0.2-0.2-0.3-0.3-0.3c-0.1-0.3-0.1-0.5,0.2-0.5c0.2-0.1,0.4-0.2,0.4-0.4c-1,0-1.8,0.2-2.4,0.6c-0.3,0-0.5,0-0.6-0.2
		c-0.1-0.2-0.2-0.3-0.5-0.4c-0.7-0.1-1.4-0.1-2-0.2c-0.7-0.1-1.2-0.3-1.5-0.6c0-0.4,0.2-0.5,0.6-0.5c0.4,0.1,0.6-0.1,0.6-0.4
		c0-0.1-0.1-0.2-0.2-0.2c-0.1,0-0.2,0-0.2-0.2c-0.3,0-0.4,0-0.3,0.2c0.1,0.2,0,0.3-0.3,0.2c-0.2-0.2-0.4-0.4-0.4-0.7
		c-0.1-0.3-0.1-0.6-0.2-0.8c-0.1-0.6-0.1-1.2-0.1-1.9c0.1-0.6,0.1-1.2,0.1-1.6c-0.1-0.2-0.2-0.3-0.3-0.4c-0.2-0.1-0.3-0.2-0.4-0.3
		c0.1-0.4,0.2-0.6,0.3-0.9c0.1-0.2,0.3-0.5,0.5-0.7c0.1-2.7-0.1-5.4-0.3-8.1c-0.3-2.7-0.5-5.3-0.6-7.9c-0.4-0.7-0.6-1.5-0.7-2.3
		c-0.1-0.8-0.3-1.6-0.6-2.4c-0.1-0.2-0.1-0.3,0-0.5c0.1-0.2,0.2-0.3,0.2-0.5c-0.1-0.1-0.1-0.2-0.2-0.2c-0.1,0-0.1-0.1-0.1-0.2
		c-0.1-0.8-0.1-1.5,0-2.3c0.1-0.8,0-1.4-0.2-2.1c-0.1-0.5-0.1-1.2-0.1-2c0.1-0.8,0.1-1.6,0.3-2.3c-0.3,0-0.5,0-0.5,0.2
		c-0.1,0.2-0.2,0.3-0.5,0.3c-0.3,0-0.6-0.1-0.7-0.3c-0.1-0.2-0.3-0.2-0.5-0.2c-0.3,0.1-0.5,0.1-0.6,0.1c-0.1,0-0.4,0-0.6-0.1
		c-0.2-0.1-0.3,0-0.3,0.2c0,0.2-0.1,0.2-0.2,0.2c-0.9-0.2-1.7-0.2-2.4,0.1c-0.7,0.3-1.5,0.3-2.4,0.2c-0.2-0.1-0.3-0.1-0.3,0.1
		c0,0.2,0,0.2-0.2,0.2c-0.3-0.1-0.6-0.2-0.7-0.3c-0.1-0.2-0.3-0.3-0.5-0.4c-0.3-1.4-0.5-2.7-0.7-3.9c-0.2-1.2-0.5-2.5-0.9-3.8
		c0.2-0.2,0.3-0.3,0.5-0.4c0.2-0.1,0.4-0.2,0.7-0.3c0.1-0.3,0.2-0.5,0.5-0.6c0.3-0.2,0.4-0.5,0.5-0.9c0.3-0.2,0.5-0.4,0.8-0.7
		c0.2-0.3,0.4-0.6,0.6-0.9c0.3-0.1,0.5-0.3,0.6-0.5c0.1-0.2,0.4-0.3,0.8-0.3c0-0.4,0.1-0.6,0.2-0.7c0.4-0.3,0.8-0.4,1.1-0.4
		c0.3,0.1,0.8,0.1,1.4,0.2c0.7,0.1,1.4,0,2.1-0.1c0.7-0.1,1.4-0.2,2-0.2c0.8,0,1.6,0,2.4,0.1c0.8,0.1,1.6,0.1,2.4,0
		c0.6-0.1,1.3-0.1,1.9,0c0.7,0,1.4,0,2,0c0.3-0.1,0.7-0.1,1-0.2c0.3-0.1,0.6-0.1,1-0.1c0.3-0.1,0.6-0.1,0.9,0c0.3,0.1,0.6,0.1,1,0.1
		c0.4,0,0.9-0.1,1.2-0.3c0.4-0.2,0.8-0.3,1.2-0.3c0.3,0,0.6,0,0.9,0c0.3,0.1,0.6,0.1,0.9,0.2c0.7,0.1,1.4,0.1,2.2,0
		c0.8-0.1,1.4-0.1,2.1-0.2c1-0.1,1.9,0,2.7,0c0.8,0.1,1.5,0.3,2.1,0.8c0.2,0.7,0.2,1.5,0,2.2c-0.1,0.8-0.2,1.6-0.1,2.4
		c0,0.3,0,0.6,0.1,0.9c0.1,0.3,0.1,0.6,0.1,0.8c0,0.6-0.1,1.1-0.2,1.6c-0.1,0.5-0.2,1.1-0.1,1.6c0,0.1-0.1,0.2-0.2,0.2
		c-0.1,0-0.2,0.1-0.1,0.2c-0.2,0.1-0.3,0.1-0.5,0.1c-0.1-0.1-0.3,0-0.4,0.1c-0.1,0.1-0.1,0.2-0.1,0.3c0.1,0.2,0,0.3-0.1,0.4
		c-0.3,0-0.6,0.1-0.8,0.3c-0.2,0.2-0.4,0.4-0.5,0.5c0.1,0,0.2,0.1,0.2,0.2c-0.2,0-0.3-0.1-0.3-0.2c-0.1,0.3-0.2,0.7-0.4,1.1
		C262.4-103.6,262.2-103.2,262-102.9z M231.4-112.4c-0.1,0.1-0.2,0.2-0.1,0.3c0,0.1,0,0.2,0,0.3c-0.1,0.1-0.2,0.2-0.3,0.2
		c-0.1,0-0.2,0.1-0.3,0.2c-0.1,0.2-0.2,0.3-0.3,0.5c-0.1,0.2-0.1,0.3,0.1,0.5c0.4-0.7,0.9-1.2,1.4-1.7c0.5-0.5,1-1.1,1.4-1.8
		c0.1,0,0.1,0,0.1-0.1c-0.1-0.1-0.1-0.1-0.3-0.2c-0.2,0.3-0.5,0.6-0.8,0.9C232-113,231.7-112.7,231.4-112.4z M232.7-105
		c0.3-0.5,0.6-0.8,1.1-1.1c0.4-0.3,0.7-0.7,0.9-1.2c-0.1,0.1-0.2,0-0.2-0.1c0-0.1-0.1-0.2-0.2-0.2c-0.3,0.4-0.7,0.8-1,1.1
		C233-106.1,232.8-105.6,232.7-105h-0.3l0.1,0.2c-0.1,0.2-0.2,0.3-0.4,0.3c-0.2,0-0.4-0.1-0.6-0.2c-0.1,0.2-0.1,0.4,0,0.5
		c0.1,0.1,0.1,0.2,0.2,0.3c0.2-0.1,0.4-0.1,0.7-0.1c0.2,0,0.4-0.1,0.5-0.2c-0.2-0.1-0.3-0.3-0.3-0.6h0.2L232.7-105z M236.2-107.4
		c0.4,0.2,0.6,0.5,0.6,0.8c-0.3,0.5-0.7,0.8-1.1,1.1c-0.5,0.3-0.9,0.6-1.1,1.1c0.3,0.1,0.7,0,1-0.1c0.3-0.7,0.8-1.3,1.3-1.8
		c0.5-0.5,1-1.1,1.4-1.6c-0.4,0.1-0.8,0.1-1.1,0.1C236.8-107.8,236.5-107.7,236.2-107.4z M257.6-116.3c-0.3,0-0.6,0-0.9-0.1
		c-0.3-0.1-0.6-0.1-0.9,0c-0.3,0.1-0.7,0.1-1,0.2c-0.3,0.1-0.6,0.1-0.9,0.2c-0.3,0.1-0.7,0.1-1.1,0c-0.4,0-0.7,0-1.1,0
		c-0.3,0.1-0.7,0.1-1,0.2c-0.3,0.1-0.7,0.1-1,0.1c-2.5,0.2-5.1,0.3-7.6,0.2c-2.5-0.1-4.8-0.1-7,0c-0.1,0.6,0,1.1,0.1,1.6
		c0.1,0.5,0.2,1.1,0.3,1.7c0.1,0.1,0.1,0.2,0,0.3c-0.1,0.1-0.1,0.2-0.1,0.3c0,0.3,0.1,0.5,0.2,0.8c0.1,0.3,0.2,0.5,0.2,0.6l-0.3,0.1
		c-0.1,0.3-0.1,0.5,0.1,0.6c0.2,0.2,0.2,0.4,0.1,0.6c0.6-0.1,1.1-0.1,1.5,0c0.4,0.1,0.9,0.1,1.4,0.2c0.6,0.1,1.3,0.1,1.9,0
		c0.6,0,1.3,0,1.9,0c0.6,0,1.1,0,1.6,0.1c0.5,0.1,0.8,0.3,1.1,0.6c0.1,0.4,0,0.6-0.3,0.6c-0.3,0-0.5,0.1-0.7,0.2
		c0.1,0.1,0.2,0.2,0.3,0.3c0.1,0.1,0.3,0.2,0.4,0.3c0.2-0.1,0.3-0.3,0.3-0.5c0.1-0.2,0.2-0.4,0.4-0.5c0.4,0.5,0.6,1,0.6,1.5
		c0,0.6,0,1.1,0,1.7c0.1,0.8,0.2,1.5,0.3,2.3c0.2,0.8,0.1,1.5-0.1,2.2c0.2,0.3,0.4,0.7,0.4,1.1c0,0.5,0,0.9,0,1.3
		c0.1,0.4,0.1,0.7,0.1,1c0,0.3,0,0.7,0.1,1c0,0.1,0,0.2-0.1,0.3c-0.1,0.1-0.1,0.2-0.1,0.3l0.1,0.1l0.2,0.2c0.1,0.4,0.1,0.7,0.1,1
		c-0.1,0.3-0.1,0.6-0.3,0.8c0.5,0.4,0.8,0.7,0.9,1.1c-0.1,0.2-0.3,0.3-0.5,0.4c-0.2,0.1-0.3,0.2-0.3,0.5c0.2,1.3,0.2,2.6,0.1,3.7
		c-0.1,1.2,0,2.2,0.3,3c-0.2,0.3-0.3,0.5-0.1,0.6c0.2,0.2,0.1,0.4-0.2,0.6c0,0.2,0.1,0.3,0.3,0.3c0.2,0,0.2,0.2,0.1,0.4
		c-0.1,0.1-0.1,0.3,0,0.6c0.1,0.3,0,0.6-0.3,0.9c0.3,0,0.4,0,0.2,0.1c-0.1,0.1-0.2,0.1-0.2,0.2c0.1,0.1,0.2,0.2,0.3,0.2
		c0.1,0,0.1,0.1,0,0.2c0.1,0.1,0,0.2,0,0.2c-0.1,0.1-0.1,0.1-0.1,0.2c0.2,0,0.3,0.1,0.3,0.2c0,0.1,0,0.2,0.1,0.3
		c0.1,1.4,0.1,2.9,0.1,4.6c0,1.7,0,3.2-0.1,4.6c0.4,0,0.9,0,1.2,0c0.4,0.1,0.7,0.1,1.1,0.1c0.3-0.1,0.5-0.2,0.6-0.4
		c0.1-0.2,0.3-0.3,0.6-0.3c0.3,0,0.5,0.1,0.6,0.4c0.1,0.3,0.4,0.3,0.6,0.2c-0.1-2.4,0-4.7,0.1-7c0.1-2.3,0.2-4.6,0.3-6.8
		c0.1-0.5,0.1-1,0-1.6c-0.1-0.5-0.1-1,0-1.4c0.1-0.9,0.2-1.8,0.4-2.8c0.1-1,0.2-1.9,0.3-2.7c0.1-0.6,0.1-1.2,0.2-1.8
		c0.1-0.6,0.1-1.2,0.2-1.8c0.1-0.7,0.2-1.4,0.2-2.1c0-0.7,0.1-1.3,0.3-1.9c-0.2-1.2-0.3-2.6-0.3-4.3c0-1.6-0.2-3.2-0.6-4.7
		c1.7-0.3,3.4-0.3,5-0.1c1.7,0.2,3.4,0.4,5.4,0.5c0.2-1.2,0.3-2.5,0.2-4c-0.1-1.5-0.1-2.9,0-4.1c-1.1-0.1-2.2-0.1-3.3,0
		C259.9-116.2,258.8-116.2,257.6-116.3z M240.1-107c-0.6,0.3-1.1,0.6-1.3,1.1c-0.3,0.5-0.6,1-1.1,1.4c0.2-0.1,0.4-0.2,0.6-0.2
		c0.2,0,0.4,0,0.5-0.1c0.3-0.5,0.6-1,1.1-1.4c0.4-0.4,0.8-0.9,1.1-1.4c-0.2,0.1-0.4,0.1-0.5,0c-0.1-0.1-0.2-0.1-0.3-0.1V-107z
		 M241.3-104.7c0.4-0.4,0.8-0.8,1.3-1.2s0.8-0.9,1-1.6c-0.2-0.1-0.4-0.1-0.5-0.1c-0.1,0.1-0.3,0-0.5-0.1c0,0.7-0.2,1.3-0.6,1.6
		C241.5-105.6,241.3-105.1,241.3-104.7z M244-102.8c-0.2,0.2-0.3,0.4-0.5,0.5c-0.1,0.1-0.3,0.3-0.5,0.5c-0.1,0.2-0.4,0.5-0.8,0.9
		c-0.4,0.5-0.6,0.8-0.6,1.1c0,0.1,0,0.2,0,0.3c0,0.2,0,0.3,0.2,0.3c0.5-0.6,1-1.1,1.4-1.7c0.4-0.6,0.9-1.2,1.4-1.7
		c0.1-0.1,0.2-0.1,0.2-0.1c0,0.1,0.2,0.1,0.4,0.1c-0.1-0.3-0.1-0.5-0.1-0.7c0-0.2-0.1-0.3-0.4-0.3c-0.1,0.3-0.2,0.4-0.3,0.5
		C244.3-103.1,244.1-103,244-102.8z M244.8-98.4v0.6c-0.1,0.1-0.2,0.1-0.2,0.2c0,0.1,0,0.1-0.1,0.2c-0.2,0.3-0.4,0.5-0.7,0.6
		c-0.3,0.2-0.6,0.4-0.8,0.6C243-96,243-96,243-95.9c0,0.1,0,0.2-0.1,0.2c-0.2,0.3-0.5,0.5-0.7,0.6c-0.3,0.2-0.3,0.4-0.2,0.8
		c0.3,0,0.6-0.2,0.9-0.5c0.2-0.4,0.5-0.7,1-1.1c0.5-0.4,1-0.7,1.4-1.1c-0.1-0.1-0.1-0.4,0.1-0.8c0.2-0.4,0.1-0.7-0.3-0.9
		C245.1-98.4,244.9-98.4,244.8-98.4z M242.6-91.8c-0.1-0.2,0.1-0.4,0.3-0.5c0.3-0.2,0.3-0.3,0-0.4c0,0.2-0.1,0.4-0.4,0.5
		C242.3-92.1,242.3-91.9,242.6-91.8z M244.6-91.7c-0.1,0.1-0.2,0.2-0.3,0.3c-0.1,0.1-0.1,0.2-0.2,0.3c-0.1,0.1-0.3,0.2-0.5,0.3
		c-0.2,0.1-0.3,0.2-0.1,0.3c0.7-0.6,1.4-1.1,2-1.5c0.1-0.4,0-0.8,0-1.3c-0.1-0.4-0.1-1,0-1.6c-0.5,0.2-0.8,0.4-0.9,0.8
		c0.7,0.4,0.9,0.7,0.7,1.1C245.1-92.5,244.9-92.1,244.6-91.7z M243.7-86.7c0.1-0.4,0.4-0.7,0.8-1c0.4-0.3,0.7-0.6,0.8-1
		c0.1-0.2,0.2-0.5,0.2-0.8c0-0.3-0.1-0.4-0.2-0.3c-0.2,0.2-0.5,0.4-0.7,0.6c-0.3,0.3-0.5,0.5-0.7,0.8c-0.2,0.3-0.4,0.6-0.4,0.9
		S243.5-87,243.7-86.7z M243.7-84.4c0.3-0.1,0.5-0.2,0.6-0.4c0.1-0.2,0.2-0.3,0.3-0.5c-0.2,0-0.3,0-0.5,0c-0.2,0-0.3,0-0.4-0.1
		c-0.1,0.2,0,0.4,0,0.5C243.9-84.6,243.8-84.5,243.7-84.4z M244.2-77c0.4-0.3,0.8-0.6,1.3-0.8c0.4-0.3,0.6-0.8,0.6-1.5
		c-0.6,0.2-1,0.6-1.4,1.1C244.4-77.7,244.2-77.3,244.2-77z M244.2-72.2c0.2,0.3,0.2,0.5,0.2,0.7c-0.1,0.2,0,0.5,0.1,0.7
		c0.1-0.3,0.3-0.5,0.5-0.7c0.2-0.2,0.4-0.5,0.6-0.7c0.2-0.2,0.4-0.5,0.5-0.8c0.1-0.3,0.1-0.6,0-0.9c-0.3,0.3-0.5,0.5-0.8,0.9
		C245-72.6,244.7-72.4,244.2-72.2z M244.3-80.2c0.3-0.2,0.5-0.4,0.8-0.5s0.6-0.3,1.1-0.4c-0.1-0.2-0.1-0.3,0-0.5
		c0.1-0.2,0-0.3-0.2-0.4c-0.2,0.3-0.5,0.6-0.9,0.9C244.6-80.8,244.4-80.5,244.3-80.2z M244.6-74.8c0.1,0.1,0.2,0.1,0.3-0.1
		c0.1-0.2,0.2-0.2,0.4-0.2c0.3,0.1,0.5,0.3,0.5,0.5c0.1,0.2,0.2,0.4,0.5,0.5c-0.1-0.3-0.1-0.6-0.1-1c0.1-0.4,0-0.8-0.1-1.1
		c-0.3,0.3-0.6,0.5-0.9,0.6C244.9-75.5,244.7-75.2,244.6-74.8z M245-83.2c0.3,0.1,0.4,0.1,0.5-0.1c0.1-0.2,0.2-0.2,0.4-0.2v-0.4
		c-0.3,0-0.5,0.1-0.5,0.2C245.4-83.5,245.2-83.3,245-83.2z M245.2-85.5c0-0.3,0.1-0.4,0.3-0.5c0.2-0.1,0.3-0.2,0.4-0.4
		c-0.2,0.1-0.4,0.2-0.6,0.3C245.1-85.8,245.1-85.7,245.2-85.5z M245.2-100.7C245.2-100.5,245.2-100.5,245.2-100.7c0,0,0,0,0-0.1
		c0-0.1,0-0.1,0-0.2S245.2-100.9,245.2-100.7z M245.8-67.8c0.2-0.2,0.5-0.4,0.7-0.5s0.5-0.4,0.6-0.6c-0.4,0.1-0.7,0.3-0.8,0.5
		c-0.2,0.2-0.4,0.4-0.7,0.6l-0.2-0.1l0.1,0.2c-0.3,0.2-0.5,0.3-0.3,0.3c0.1,0,0.3-0.1,0.4-0.3l0.2,0.1V-67.8z M249.2-68.2
		c-0.7,0.4-1.3,0.8-2,1.3c-0.6,0.4-1.1,1-1.4,1.8c0.2,0,0.4,0,0.4,0c0.1,0.1,0.2,0.1,0.3,0.1c0.4-0.7,1-1.3,1.6-1.8
		c0.6-0.5,1.1-1.1,1.5-1.9h-0.3c0.1,0.2,0,0.2,0,0.3C249.3-68.4,249.2-68.3,249.2-68.2z M255.6-107c0.2,0,0.3-0.2,0.4-0.5
		C255.6-107.5,255.4-107.3,255.6-107z M259.9-106.5c-0.1,0.1-0.2,0.1-0.3,0.2c-0.1,0.1-0.3,0.1-0.4,0.1c-0.3,0.4-0.7,0.8-1.1,1.1
		c-0.4,0.4-0.7,0.8-1,1.4c0.2-0.1,0.6-0.1,1.1-0.1c0.3-0.7,0.8-1.3,1.5-1.7c0.7-0.4,1.2-1,1.7-1.7c-0.3,0.1-0.6,0.1-0.9,0
		c-0.3-0.1-0.5-0.1-0.7,0C259.8-107.2,259.9-106.9,259.9-106.5z"/>
	<path class="st0" d="M302.3-92.8c0.1,0.8,0.1,1.6-0.1,2.5c-0.2,0.8-0.1,1.5,0.1,2.1c-0.3,1.7-0.5,3.4-0.6,5.1
		c-0.1,1.7-0.4,3.4-0.9,5.2c-0.4,0.6-0.6,1.1-0.6,1.7c0,0.6-0.2,1.1-0.4,1.7c-0.4,1-0.9,2-1.6,2.9c-0.7,0.9-1.3,1.8-1.8,2.7
		c-0.2,0.4-0.4,0.8-0.6,1.3c-0.2,0.4-0.5,0.8-0.8,1.1c-0.1,0.1-0.2,0.3-0.1,0.5c0,0.2,0,0.4-0.1,0.5c-0.9,0.5-1.8,0.8-2.8,1
		c-1,0.2-2,0.3-3.1,0.3c-1,0.1-1.9,0.1-2.9,0.1c-1,0-1.8,0-2.6-0.1c-1.2-0.2-2.3-0.5-3.1-1c-0.8-0.5-1.7-1.1-2.7-1.7
		c-0.6-0.4-1.1-0.8-1.7-1.2c-0.6-0.4-1-0.8-1.3-1.3c-0.3-0.6-0.5-1.3-0.7-2.2c-0.2-0.9-0.4-1.9-0.7-2.8c-0.5-1.2-0.9-2.4-1.4-3.5
		c-0.5-1.1-0.8-2.4-0.9-3.9c-0.1-1.9-0.2-3.7-0.4-5.5c-0.1-1.8,0-3.7,0.4-5.6c0.1-0.5,0.3-0.9,0.4-1.3c0.2-0.4,0.3-0.8,0.4-1.2
		c0.3-1.1,0.5-2.1,0.8-3c0.3-1,0.5-2,0.9-3c0.8-2.2,1.9-4.2,3.3-6c1.4-1.9,2.7-3.7,4-5.4c0.2-0.3,0.4-0.5,0.6-0.7
		c0.3-0.2,0.5-0.4,0.7-0.7c0.6-0.6,1.2-1.1,1.8-1.5c0.6-0.4,1.4-0.8,2.3-1c0.4-0.1,1-0.2,1.7-0.2s1.5,0.1,2.1,0.3
		c0.3,0.1,0.7,0.3,1.1,0.5c0.4,0.2,0.7,0.4,1,0.7c0.5,0,0.8,0.1,0.9,0.2c0.3,0.3,0.6,0.5,0.8,0.7c0.3,0.2,0.6,0.4,0.8,0.7
		c0.6,0.5,1,0.9,1.3,1.3c0.3,0.4,0.6,0.9,1.1,1.5c0.3,0.5,0.5,0.8,0.6,1.1c0.1,0.3,0.3,0.7,0.5,1.3c0.1,0.2,0.2,0.4,0.3,0.5
		c0.1,0.2,0.2,0.3,0.3,0.5c0.3,0.9,0.6,1.9,0.8,3c0.2,1.1,0.5,2.3,0.7,3.5c0.6,1.2,1.1,2.5,1.4,4C301.9-96,302.1-94.4,302.3-92.8z
		 M271.7-90.5c0.1,0.2,0,0.3-0.1,0.5c-0.1,0.2-0.1,0.3,0.1,0.5c0.5-0.5,1.1-0.9,1.8-1.3c0.7-0.3,1.2-0.8,1.7-1.3
		c-0.6-0.3-1.1-0.2-1.6,0.3c-0.4,0.5-0.8,0.9-1.1,1.3H271.7z M271.7-84.7c0.2-0.1,0.4-0.3,0.4-0.6c0-0.3,0.1-0.5,0.2-0.7
		c-0.1-0.1-0.2-0.1-0.3-0.2c-0.1-0.1-0.2-0.1-0.3-0.1c0.1,0.3,0.1,0.5,0.2,0.8C271.9-85.2,271.9-84.9,271.7-84.7z M272-81.3
		c-0.2,0.5-0.1,0.9,0.3,1.2c0.3-0.4,0.8-0.7,1.3-0.9c0.5-0.2,1-0.5,1.5-0.8c0-0.4,0-0.7-0.1-0.8c-0.1-0.1-0.1-0.4-0.1-0.8
		c-0.6,0.1-1.1,0.3-1.6,0.6c-0.4,0.3-0.6,0.7-0.5,1.3c-0.1,0.1-0.2,0.2-0.3,0.2C272.5-81.4,272.3-81.4,272-81.3z M271.9-84.5
		c0.1,0.2,0.1,0.4,0,0.7c-0.1,0.3,0,0.5,0.1,0.6c0-0.3,0.1-0.4,0.3-0.5c0.2-0.1,0.3-0.2,0.2-0.4c-0.1,0.1-0.2,0.1-0.3,0
		C272.1-84.2,272-84.4,271.9-84.5z M272.9-77.8c0.2-0.7,0.6-1.2,1.2-1.5c0.6-0.3,1.1-0.6,1.6-1c-0.1,0-0.1-0.1-0.1-0.3
		c-0.6,0.1-1.1,0.3-1.5,0.5c-0.4,0.2-0.7,0.6-0.8,1.1c-0.1,0.1-0.3,0.2-0.4,0.2c-0.2,0-0.3,0.1-0.4,0.2c0.1,0.2,0.2,0.3,0.3,0.3
		C272.9-78.2,272.9-78.1,272.9-77.8L272.9-77.8L272.9-77.8z M275.8-98.7c-0.7,0.3-1.3,0.5-1.9,0.9c-0.6,0.3-0.9,0.9-1,1.7
		c0.5-0.4,1-0.8,1.4-1.2c0.5-0.4,1-0.8,1.6-1.1c-0.1,0-0.1-0.1,0-0.2C275.9-98.6,275.9-98.7,275.8-98.7z M274.4-73.5
		c0.3-0.4,0.7-0.7,1.2-1c0.5-0.2,1-0.5,1.4-0.8c-0.6,0.4-1.2,0.5-1.8,0.4c-0.6-0.2-0.8-0.6-0.7-1.4c0.1-0.4,0.3-0.6,0.7-0.8
		s0.6-0.4,0.9-0.6c-0.2-0.3-0.2-0.4,0-0.6c0.1-0.1,0.2-0.3,0.3-0.5c-0.4-0.1-0.8,0-1.1,0.2c-0.4,0.3-0.6,0.5-0.8,0.8
		c0.2-0.1,0.3-0.1,0.3,0c0,0.1,0.1,0.2,0.1,0.3c-0.1,0.3-0.3,0.5-0.7,0.6c-0.3,0.2-0.6,0.1-0.9-0.1c0.2,0.6,0.4,1.1,0.6,1.7
		S274.2-74.1,274.4-73.5z M273.6-84.6c1-0.1,1.4-0.5,1.2-1.3c-0.3,0.1-0.6,0.3-0.7,0.5C274-85.1,273.8-84.9,273.6-84.6z M277-101.8
		c-0.6,0.3-1.2,0.5-1.9,0.8c-0.7,0.3-1,0.7-1.1,1.3c0.9-0.4,1.8-0.7,2.8-0.8c0-0.3,0.1-0.5,0.2-0.7
		C277.1-101.4,277.1-101.6,277-101.8z M275.9-69.4c0.3-0.8,0.8-1.3,1.5-1.6c0.7-0.3,1.4-0.6,2-1c0.1-0.5,0.1-1-0.2-1.4
		c-0.2-0.5-0.5-0.8-0.8-1.1c-0.7,0.4-1.4,0.7-2.3,1c-0.8,0.3-1.3,0.9-1.4,1.7c0.5-0.4,1.2-0.8,1.9-1.1c0.8-0.3,1.5-0.6,2-1
		c0,0.5-0.3,0.8-0.8,1.2c-0.5,0.3-1.1,0.6-1.6,1c-0.5,0.3-0.9,0.6-1.1,1C275.1-70.3,275.3-69.9,275.9-69.4z M275.7-103.8
		c-0.1,0.1-0.2,0.2-0.3,0.4c-0.1,0.2-0.1,0.3-0.3,0.4c0.3-0.1,0.5-0.2,0.8-0.3c0.3-0.1,0.5-0.3,0.6-0.5c-0.2,0.1-0.3,0.1-0.4,0.1
		C276.1-103.8,275.9-103.8,275.7-103.8z M277.3-77c-0.6,0.2-1.2,0.6-1.7,1.2c0.1,0,0.3,0,0.5-0.1c0.3-0.1,0.5-0.1,0.7-0.2
		c0.2-0.1,0.4-0.2,0.5-0.3C277.5-76.5,277.4-76.7,277.3-77z M300.7-82.1c0.3-2.1,0.5-4.4,0.7-6.8c0.2-2.4,0.1-4.6-0.3-6.8
		c-0.1-1-0.4-2-0.8-2.9c-0.4-0.9-0.7-1.8-1-2.8c-0.2-0.6-0.3-1.1-0.4-1.7c-0.1-0.6-0.2-1.1-0.3-1.6c-0.4-1.6-0.9-3-1.5-4.4
		c-0.6-1.3-1.2-2.6-1.9-3.7c-0.8-0.6-1.6-1.2-2.3-1.7c-0.8-0.5-1.6-1-2.6-1.4c-1.1-0.3-2.3-0.3-3.6-0.1c-1.3,0.2-2.3,0.8-3,1.9
		c-0.2,0-0.3,0-0.4-0.1c-0.1-0.1-0.2,0-0.3,0.1c-0.3,0.4-0.5,0.8-0.7,1.2c-0.2,0.5-0.3,0.9-0.5,1.4c-0.1,0.5-0.3,1-0.5,1.4
		c-0.2,0.5-0.4,0.9-0.7,1.2c0,0.2,0.1,0.4,0.2,0.6c0.1,0.2,0.2,0.4,0.2,0.6c0,0.4-0.1,0.7-0.3,0.9c-0.2,0.2-0.4,0.5-0.6,0.9
		c-0.1,0.4-0.2,0.8-0.3,1.2c-0.1,0.5-0.1,0.9-0.3,1.3c-0.1,0.3-0.3,0.6-0.5,0.8c-0.2,0.2-0.3,0.5-0.4,0.7c-0.1,0.3-0.2,0.6-0.1,0.9
		c0,0.4,0,0.7-0.1,0.9c-0.2,0.6-0.3,1.2-0.5,1.8c-0.1,0.6-0.3,1.3-0.4,2.1c-0.2,0.9-0.3,1.8-0.5,2.9c-0.2,1.1-0.3,2.2-0.5,3.3
		c-0.2,1.1-0.3,2.2-0.3,3.2c-0.1,1,0,1.9,0.1,2.7c0,0.2,0,0.3,0.1,0.5c0.1,0.2,0.1,0.3,0.1,0.5c0.1,0.7,0.2,1.1,0.3,1.4
		c0.1,0.3,0.2,0.6,0.4,1c0.1,0.3,0.2,0.6,0.2,0.9c0,0.3,0.1,0.6,0.2,0.8c0.5,1,1,2,1.6,2.9c0.6,0.9,1.2,1.9,1.6,2.9
		c0,0.1,0,0.2-0.1,0.2c-0.1,0.1-0.1,0.2,0,0.3c0.5,0.3,0.8,0.7,0.9,1.2c0.1,0.5,0.3,1,0.5,1.4c0.4,0.5,0.9,0.8,1.4,1
		c0.5,0.2,1.1,0.3,1.8,0.2c0.6,0,1.3-0.1,1.9-0.2c0.6-0.1,1.3-0.2,1.9-0.3c1.2-0.2,2.3-0.5,3.3-0.9c1-0.5,1.9-1.1,2.7-1.7
		c1.2-0.9,2.2-1.8,2.9-2.7c0.7-0.9,1.3-2.2,1.8-3.8c0.2-0.6,0.3-1.2,0.5-1.9C300.5-80.9,300.6-81.5,300.7-82.1z M276.8-68.6
		c0.5-0.5,1-0.9,1.6-1.3c0.6-0.4,1.1-0.8,1.7-1.3v-0.2c-0.6,0.2-1.1,0.5-1.5,0.8c-0.4,0.3-0.9,0.6-1.5,0.7c-0.1,0.2-0.2,0.4-0.3,0.6
		C276.7-69,276.7-68.8,276.8-68.6z M278-104.8c-0.5,0-0.8,0.3-1,0.8c0.2,0,0.4-0.1,0.5-0.3c0.1-0.2,0.3-0.2,0.5-0.1L278-104.8
		L278-104.8z M278.8-67.3c0.1-0.6,0.4-1.1,0.9-1.3c0.5-0.3,0.9-0.6,1.3-1c-0.2,0-0.3-0.2-0.3-0.5c-0.6,0.3-1.2,0.6-1.6,0.9
		c-0.5,0.4-0.9,0.8-1.3,1.4c0.2,0.1,0.3,0.2,0.5,0.3C278.4-67.5,278.6-67.4,278.8-67.3z M280.2-110.5c-0.3,0.1-0.5,0.3-0.6,0.5
		c-0.1,0.2-0.3,0.4-0.4,0.6c0.2,0,0.4-0.1,0.5-0.2c0.1-0.2,0.3-0.2,0.5-0.2V-110.5z M281.8-67.9c-0.2,0-0.5,0.1-0.7,0.2
		c-0.3,0.2-0.5,0.3-0.6,0.5c-0.1,0.2-0.2,0.4-0.2,0.6c0,0.2,0.2,0.3,0.5,0.4c-0.1-0.4,0-0.7,0.3-1C281.4-67.4,281.7-67.6,281.8-67.9
		z M295.8-95.6c0,1,0,1.9,0.1,2.8c0.1,0.9,0,1.8-0.1,2.6c-0.1,0.3-0.2,0.6-0.3,1c-0.1,0.4-0.2,0.7-0.3,1.1c-0.1,0.4-0.2,0.8-0.1,1.2
		c0,0.4,0,0.7-0.1,1.1c-0.1,0.5-0.3,0.9-0.5,1.3c-0.3,0.4-0.4,0.8-0.5,1.3c-0.3,1-0.7,1.9-1.1,2.7c-0.5,0.8-0.9,1.6-1.4,2.4
		c-0.3,0.3-0.7,0.6-1.2,0.9c-0.5,0.4-1,0.6-1.5,0.9c-0.5,0.2-1,0.3-1.5,0.3s-1-0.2-1.4-0.7c-0.5-0.4-0.9-1.1-1.3-2
		c-0.4-0.9-0.8-1.8-1.3-2.7c-0.6-1.1-1.2-2.3-1.6-3.5c-0.5-1.2-0.6-2.7-0.5-4.3c0.1-0.9,0.2-1.8,0.4-2.9c0.2-1,0.5-2,0.7-2.8
		c0.2-0.9,0.4-1.8,0.6-2.8c0.2-1,0.5-1.9,0.8-2.9c0.2-0.8,0.4-1.6,0.6-2.4c0.2-0.8,0.5-1.5,0.8-2.1c0.3-0.6,0.8-1.1,1.3-1.4
		c0.5-0.3,1.3-0.5,2.2-0.4c0.9,0.1,1.9,0.4,2.9,1.1c1,0.7,1.7,1.4,2,2.1c0.1,0.2,0.2,0.4,0.2,0.7c0,0.3,0.1,0.5,0.2,0.8
		c0.4,0.9,0.7,1.9,1.1,3.1C295-97.7,295.4-96.6,295.8-95.6z M281.8-89.5c-0.2,2,0.1,3.8,0.9,5.4c0.8,1.6,1.6,3.1,2.5,4.6
		c1-0.7,1.7-1.7,2.2-2.9c0.5-1.2,1-2.5,1.3-3.8c0.3-0.3,0.5-0.7,0.6-1.2c0.1-0.5,0.2-1,0.2-1.6c0.1-1.3,0.2-2.7,0.3-4.2
		c0.1-1.5,0.1-2.8-0.2-4c0-0.2-0.1-0.2-0.2-0.3c-0.1,0-0.2-0.1-0.3-0.2c0.1-0.6-0.2-1.1-0.6-1.6c-0.5-0.5-0.9-0.8-1.4-1.1
		c-0.1,0.3-0.3,0.5-0.7,0.7c-0.1-0.2-0.2-0.2-0.3-0.2c-0.2-0.1-0.2-0.3,0-0.5c0.2-0.2,0.2-0.3-0.1-0.3c-0.2,0.1-0.4,0.2-0.5,0.3
		c-0.1,0.2-0.2,0.3-0.3,0.5c-0.1,0.2-0.2,0.3-0.3,0.5c-0.1,0.2-0.3,0.3-0.5,0.3c-0.1,0-0.2,0-0.3-0.1c-0.1-0.1-0.1-0.2-0.3-0.3
		c-0.2,1-0.5,1.9-0.7,2.9c-0.3,1-0.5,2-0.8,3c-0.1,0.4-0.2,0.8-0.1,1.2c0,0.4,0,0.8,0,1.2c-0.1,0.3-0.1,0.6-0.3,0.9
		C281.8-90.1,281.8-89.8,281.8-89.5z M282.7-65.3c-0.1-0.7,0.1-1.1,0.5-1.3c0.4-0.2,0.8-0.4,1.1-0.8c-0.2,0.1-0.4,0-0.5,0
		c-0.1-0.1-0.2-0.1-0.5-0.1c-0.3,0.3-0.6,0.5-1,0.7c-0.4,0.2-0.6,0.5-0.6,1c0.2,0.1,0.3,0.1,0.5,0.2
		C282.4-65.4,282.5-65.3,282.7-65.3z M284.8-65.4c-0.1-0.4,0.1-0.7,0.4-0.9c0.3-0.2,0.4-0.4,0.3-0.6c-0.3,0.3-0.6,0.5-1.1,0.7
		s-0.8,0.4-0.9,0.8c0.3,0.1,0.6,0.1,0.7,0C284.2-65.4,284.5-65.4,284.8-65.4z M285.2-104.5c-0.1,0.4-0.2,0.8-0.4,1.1
		c-0.2,0.3-0.2,0.7-0.1,1c0.3-0.3,0.5-0.5,0.6-0.8c0.1-0.3,0.2-0.7,0.3-1.1c-0.2,0.1-0.3,0.1-0.3,0
		C285.4-104.3,285.3-104.4,285.2-104.5z M285.4-79c0.1,0.2,0.2,0.4,0.3,0.7c0.1,0.3,0.3,0.5,0.5,0.7c0.2,0.2,0.3,0.4,0.5,0.5
		c0.2,0.1,0.4,0.1,0.6,0c-0.2,0-0.4-0.1-0.4-0.3c0-0.2,0-0.3,0.1-0.5c-0.3,0-0.5-0.3-0.6-0.6c-0.1-0.4-0.1-0.6,0.2-0.8
		c-0.2,0.1-0.3,0-0.3-0.1c0-0.1-0.1-0.2-0.3-0.1C286-79.3,285.8-79.1,285.4-79z M287.2-65.4c0.2-0.6,0.5-1,1-1.4
		c0.4-0.4,0.9-0.7,1.3-1.1c-1,0-1.7,0.3-2.2,0.8c-0.5,0.5-0.9,1.1-1.3,1.7L287.2-65.4L287.2-65.4z M287-103.5
		c-0.1,0.5-0.2,0.8-0.3,1.1c-0.2,0.3-0.3,0.6-0.4,0.9c0.2-0.1,0.3,0,0.3,0c0,0.1,0.1,0.1,0.3,0c0.3-0.7,0.6-1.4,1.1-2
		c0.4-0.6,0.9-1.2,1.3-1.8c-0.3-0.2-0.5-0.2-0.7-0.1c-0.2,0.1-0.4,0.2-0.6,0.3C287.9-104.4,287.6-103.8,287-103.5z M287.6-79.8
		c0.7-0.3,1.5-0.5,2.5-0.7c0.9-0.2,1.5-0.6,1.7-1.3c-0.5,0.5-1.2,0.8-2,1C288.9-80.7,288.2-80.3,287.6-79.8z M290.3-104.8
		c-0.6,0.5-1,1.1-1.4,1.7c-0.4,0.6-0.8,1.3-1.2,2c0.2,0.2,0.4,0.3,0.7,0.4c0.3-0.7,0.7-1.3,1.3-1.8c0.6-0.5,1-1.2,1.3-2
		c-0.1-0.1-0.2-0.1-0.3-0.1C290.5-104.6,290.4-104.7,290.3-104.8z M288.8-81.6c-0.2,0.1-0.3,0-0.3-0.2c0-0.2,0-0.3-0.2-0.3
		c-0.1,0.2-0.2,0.4-0.3,0.5c-0.1,0.2-0.2,0.3-0.3,0.5C288.2-81.2,288.6-81.4,288.8-81.6z M287.9-78c0.7-0.2,1.4-0.4,2-0.8
		c0.7-0.4,1.2-0.9,1.7-1.4c-0.6,0.3-1.2,0.5-1.8,0.7c-0.6,0.2-1.2,0.4-1.9,0.7C288.1-78.6,288-78.3,287.9-78z M288.1-65.3
		c0.5,0.1,0.9,0.1,1.3-0.1c0.4-0.2,0.7-0.4,0.9-0.8c0.3-0.3,0.5-0.7,0.7-1c0.2-0.4,0.4-0.7,0.5-0.9c0.3,0.1,0.6,0,0.8-0.3
		c0.2-0.2,0.4-0.5,0.6-0.7c-0.9,0.6-2.1,1-3.5,1.4c0.3-0.1,0.5,0.1,0.5,0.5c-0.3,0.3-0.7,0.5-1.1,0.7
		C288.5-66.2,288.3-65.8,288.1-65.3z M289-99.9c0.2,0.1,0.4,0,0.5-0.3c0.1-0.3,0.1-0.5,0-0.6c0,0.3-0.1,0.4-0.3,0.4
		C289-100.3,289-100.1,289-99.9z M292.9-82.7c0-0.4,0.1-0.8,0.4-1.1c0.3-0.3,0.3-0.7,0.1-1.1c-0.2,0.3-0.5,0.5-0.8,0.7
		c-0.3,0.2-0.7,0.4-1,0.5c-0.3,0.2-0.7,0.4-1,0.6c-0.3,0.3-0.5,0.6-0.6,0.9c0.3,0,0.6-0.1,0.9-0.2c0.3-0.1,0.5-0.3,0.7-0.4
		c0.2-0.2,0.5-0.3,0.7-0.3C292.5-83,292.7-82.9,292.9-82.7z M290.1-101.5c0.2-0.3,0.5-0.5,0.8-0.8c0.3-0.3,0.4-0.5,0.3-0.8
		c-0.1,0.3-0.3,0.5-0.6,0.8C290.3-102,290.1-101.7,290.1-101.5z M290.4-89.2c0.1,0.2,0.1,0.3,0,0.4c-0.1,0.1-0.1,0.2,0,0.2
		c0.1-0.2,0.2-0.2,0.3-0.3c0.1,0,0.2-0.1,0.2-0.3c-0.1,0.1-0.2,0.1-0.3,0.1C290.6-89,290.5-89.1,290.4-89.2z M292.5-102.2
		c0,0.1,0,0.2-0.1,0.2c-0.1,0-0.1,0.1,0,0.3c0.1,0.1,0.1,0.1,0.2,0.1c0.1,0,0.2,0.1,0.3,0.2c-0.3,0.7-0.8,1.3-1.3,1.8
		c-0.5,0.5-0.9,1.1-1.2,1.8c0.6-0.5,1.1-1,1.6-1.6c0.5-0.6,0.9-1.2,1.2-2c-0.2,0-0.3-0.2-0.3-0.3
		C292.8-101.9,292.6-102.1,292.5-102.2z M290.4-84.1c1.1-0.5,2.1-1,3-1.8c0.9-0.7,1.3-1.8,1.3-3.3c0,0.4-0.2,0.5-0.5,0.6
		c-0.3,0-0.5,0.2-0.5,0.4c0,0.2,0.1,0.3,0.2,0.3c0.1,0.1,0.2,0.1,0.3,0.2c-0.2,0.1-0.4,0.3-0.5,0.5c-0.1,0.2-0.3,0.2-0.5,0
		c-0.1,0.4-0.3,0.6-0.6,0.8c-0.3,0.2-0.6,0.4-0.8,0.6c-0.3,0.2-0.5,0.4-0.8,0.6C290.6-84.9,290.4-84.6,290.4-84.1z M294.5-97.2
		c0-0.4-0.1-0.6-0.4-0.8c-0.1,0.3-0.3,0.5-0.5,0.6c-0.2,0.2-0.5,0.4-0.8,0.6c-0.3,0.3-0.7,0.7-1.1,1.2c-0.4,0.5-0.7,0.7-0.9,0.6
		c-0.1,0.5-0.2,1-0.1,1.4c0,0.4,0,0.8-0.2,1.1c0.1,0,0.3-0.1,0.5-0.2c0.2-0.2,0.4-0.3,0.5-0.5c-0.2,0-0.3,0-0.5,0
		c-0.1,0-0.2-0.1-0.2-0.2c0.1-0.6,0.2-1.1,0.5-1.5c0.3-0.4,0.5-0.7,0.9-1c0.3-0.3,0.7-0.5,1.1-0.8C293.8-96.7,294.2-97,294.5-97.2z
		 M294.1-91.4c-0.5,0.4-1.1,0.7-1.6,1c-0.6,0.3-1.1,0.7-1.5,1.3C292.2-89.7,293.2-90.4,294.1-91.4z M293.2-66.3
		c-0.1-0.5-0.1-0.8,0.1-1.2c0.2-0.3,0.4-0.6,0.6-0.9c0.2-0.3,0.5-0.6,0.7-0.8c0.2-0.3,0.3-0.6,0.3-1c-0.1,0.2-0.3,0.4-0.5,0.5
		c-0.2,0.1-0.4,0.2-0.6,0.4c0.2,0.1,0.3,0.3,0.3,0.5c-0.5,0.2-0.9,0.5-1.1,0.9c-0.2,0.5-0.6,0.8-1,1c0.1,0.2,0,0.4-0.1,0.5
		c-0.1,0.1-0.2,0.2-0.3,0.3c-0.1,0.1-0.2,0.2-0.3,0.2c-0.1,0.1-0.1,0.2-0.1,0.3c0.3-0.1,0.7-0.2,1.1-0.3
		C292.6-66.1,292.9-66.2,293.2-66.3z M291.3-100.1c-0.1-0.3,0.1-0.5,0.4-0.6c0.3-0.1,0.4-0.3,0.2-0.6c-0.1,0.3-0.2,0.5-0.5,0.8
		C291.1-100.4,291.1-100.2,291.3-100.1z M292.5-81.8c0-0.1,0-0.2,0.1-0.2c0.1,0,0.1-0.1,0-0.2c-0.1,0-0.2,0-0.3,0.1
		c-0.1,0.1-0.1,0.2,0.1,0.3C292.3-81.9,292.4-81.9,292.5-81.8z M292.6-93.8c0.4-0.4,0.8-0.7,1.4-0.9c0.5-0.2,0.8-0.7,0.9-1.4
		c-0.5,0.3-0.9,0.6-1.2,1S293-94.2,292.6-93.8z M294.9-94.6c-0.1,0.1-0.1,0.2-0.3,0.2c-0.1,0-0.2,0.1-0.2,0.3
		c0.2,0.2,0.2,0.4,0.1,0.5c-0.1,0.2-0.3,0.3-0.5,0.4c-0.2,0.1-0.4,0.2-0.6,0.3c-0.2,0.1-0.3,0.3-0.4,0.5c0.4-0.2,0.7-0.4,1-0.6
		c0.3-0.3,0.5-0.5,0.9-0.6c0-0.2,0-0.3,0-0.5C295.1-94.4,295-94.5,294.9-94.6z M293.7-99.5c-0.2,0-0.3,0-0.3,0.2
		c0,0.2-0.1,0.3-0.2,0.4C293.7-98.8,293.9-99,293.7-99.5z M294.9-90.1c0-0.2,0-0.3,0.1-0.4c0.1-0.1,0.1-0.2,0-0.5
		c-0.2,0.1-0.5,0.3-0.7,0.7c0.1-0.1,0.2,0,0.2,0.1C294.6-90.1,294.7-90,294.9-90.1z M296.2-70.8c0.2-0.1,0.4-0.3,0.6-0.5
		c0.2-0.2,0.3-0.4,0.3-0.5c-0.1,0.2-0.3,0.3-0.5,0.4C296.2-71.4,296.1-71.2,296.2-70.8z"/>
</g>
<text transform="matrix(1 0 0 1 6.6267 43.6252)" class="st1 st2">CORRECTO</text>
</svg>
